<svg width="672" height="137" viewBox="0 0 672 137" fill="none" xmlns="http://www.w3.org/2000/svg">
<path d="M173.072 119.192C174.769 119.18 176.465 119.171 178.166 119.153C179.151 119.141 180.156 119.055 181.126 119.109C182.314 119.176 183.483 119.348 184.656 119.487C185.296 119.562 185.722 119.523 185.545 119.045L185.578 119.066C184.727 118.993 183.872 118.921 183.021 118.845C182.588 118.807 182.16 118.76 181.732 118.719C181.761 118.616 181.785 118.511 181.814 118.408C193.753 118.415 205.698 118.418 218.044 118.426C217.404 118.537 217.158 118.58 216.911 118.621C216.926 118.584 216.941 118.546 216.955 118.509C223.134 118.835 229.313 119.159 235.492 119.486C235.484 119.573 235.481 119.657 235.473 119.743C233.751 119.79 232.021 119.92 230.318 119.865C227.101 119.757 223.902 119.538 220.694 119.375C217.174 119.198 213.649 119.006 210.121 118.87C207.689 118.778 205.239 118.774 202.804 118.729C202.77 118.862 202.732 118.996 202.699 119.13C203.333 119.221 203.958 119.34 204.603 119.394C205.395 119.459 206.201 119.471 206.987 119.678C205.464 119.676 203.941 119.677 202.229 119.678C203.154 119.81 203.9 119.917 204.641 120.026C201.038 120.075 197.433 120.998 193.933 120.196C193.462 120.299 192.972 120.479 192.477 120.495C188.908 120.614 185.337 120.701 181.915 120.794C182.251 120.936 183.071 120.877 183.56 121.015C185.068 121.444 186.578 121.184 188.066 121.255C196.449 121.645 204.846 121.968 213.22 122.399C216.576 122.571 219.939 122.835 223.197 123.284C226.175 123.698 229.153 123.345 232.118 123.488C235.8 123.666 239.497 123.773 243.193 123.858C246.873 123.943 250.557 123.961 254.241 124.009C254.188 123.995 254.082 123.967 253.981 123.939C253.98 123.899 253.979 123.862 253.978 123.822C256.149 123.825 258.319 123.828 260.49 123.828C260.495 123.793 260.499 123.756 260.503 123.722C251.65 123.295 242.802 122.867 233.949 122.44C238.182 122.127 273.127 122.901 274.44 123.356C271.732 123.346 269.297 123.341 266.863 123.333C266.855 123.42 266.847 123.507 266.833 123.594C269.322 123.662 271.808 123.808 274.299 123.784C278.076 123.749 281.707 124.151 285.334 124.616C285.561 124.643 285.79 124.727 286.011 124.715C289.394 124.53 292.646 125.153 296.007 125.108C296.117 125.105 296.225 125.192 296.33 125.377C290.704 125.796 285.042 125.319 279.411 125.951C282.335 126.15 285.246 126.432 288.184 126.535C294.798 126.767 301.425 126.927 308.057 127.065C309.312 127.09 310.592 126.879 311.37 126.815C311.609 125.906 311.771 125.296 311.948 124.639C312.767 124.691 313.786 125.173 313.855 124.235C313.859 124.176 314.521 124.105 314.884 124.065C315.645 123.979 316.413 123.909 317.18 123.835C317.177 123.736 317.169 123.638 317.167 123.539C315.59 123.483 314.007 123.424 312.372 123.366C312.368 123.218 312.363 123.029 312.357 122.795C320.299 122.87 328.237 122.97 336.179 123.008C343.767 123.046 351.358 122.992 358.947 123.033C363.036 123.055 367.111 123.306 371.198 123.26C379.8 123.163 388.409 122.945 397.014 122.764C399.499 122.712 401.984 122.636 404.468 122.528C405.11 122.501 405.738 122.314 406.372 122.201C401.09 122.295 395.808 122.42 390.525 122.47C386.685 122.507 382.848 122.462 379.01 122.415C377.94 122.401 376.372 122.471 375.931 122.115C375.279 121.592 374.616 121.635 373.824 121.579C371.295 121.397 368.761 121.219 366.005 121.018C367.026 120.366 365.948 120.47 365.589 120.235C366.495 120.211 367.395 120.186 368.301 120.162C368.3 120.137 368.294 120.115 368.293 120.091C366.443 120.058 364.593 120.021 362.742 119.988C362.755 119.873 362.768 119.759 362.775 119.641C365.387 119.57 367.999 119.521 370.604 119.422C373.162 119.328 375.718 119.145 378.272 119.072C380.799 119.001 383.323 119.019 385.852 118.996C385.849 119.102 385.842 119.21 385.839 119.315C381.11 120.173 376.221 119.826 371.416 120.219C373.125 120.287 374.839 120.13 376.526 120.161C378.355 120.195 380.163 120.406 381.984 120.542C381.98 120.591 381.976 120.641 381.972 120.69C379.74 120.751 377.507 120.811 375.28 120.872C375.855 121.079 376.476 121.056 377.022 121.158C378.023 121.351 379.382 120.952 380.032 121.797C380.256 122.091 382.154 121.745 382.298 121.417C383.212 121.513 384.118 121.686 385.04 121.692C391.849 121.754 398.662 121.777 405.472 121.836C405.735 121.838 405.979 122.085 406.235 122.214C406.801 122.085 407.359 121.856 407.932 121.834C414.133 121.601 420.334 121.368 426.536 121.2C429.495 121.12 432.458 121.203 435.419 121.166C437.036 121.147 438.77 120.788 440.256 121.004C444.166 121.575 448.174 121.126 452.092 121.428C455.423 121.684 458.756 121.97 462.156 121.637C463.57 121.5 464.989 121.4 466.416 121.169C461.527 121.163 456.631 121.156 451.742 121.15C451.734 121.064 451.732 120.974 451.724 120.888C452.097 120.853 452.475 120.79 452.849 120.786C454.998 120.756 457.155 120.821 459.29 120.695C461.637 120.557 463.957 120.225 466.296 120.026C468.094 119.872 469.921 119.85 471.713 119.672C475.901 119.255 480.066 118.759 484.249 118.334C486.419 118.111 488.612 117.971 490.818 117.689C490.227 117.652 489.635 117.613 489.039 117.576C489.022 117.524 489.005 117.469 488.982 117.417C489.45 117.373 489.916 117.29 490.38 117.293C494.549 117.322 498.718 117.391 502.887 117.401C505.01 117.406 507.145 117.249 509.269 117.272C514.835 117.334 520.393 117.48 525.959 117.551C530.586 117.608 535.183 117.477 539.801 116.984C542.286 116.719 544.913 117.019 547.478 117.002C550.26 116.982 553.039 116.891 555.82 116.828C559.095 116.752 562.373 116.592 565.641 116.617C569.251 116.649 572.85 116.851 576.452 116.986C576.732 116.997 577.002 117.036 577.386 117.232C576.864 117.385 576.341 117.539 576.001 117.634C582.087 117.469 588.379 117.299 594.671 117.128C594.695 117.239 594.719 117.349 594.743 117.46C592.104 117.85 589.469 118.24 586.829 118.63C586.847 118.688 586.864 118.749 586.882 118.807C596.646 117.686 606.411 116.566 616.176 115.445C616.222 115.573 616.273 115.702 616.318 115.83C609.736 117.532 603.031 119.006 595.887 119.803C598.458 119.798 601.024 119.793 603.595 119.785C605.155 119.78 606.526 119.625 607.959 119.052C609.153 118.571 610.867 118.432 612.367 118.37C615.346 118.243 617.862 117.374 620.365 116.589C623.228 115.692 626.147 115.106 629.304 114.946C632.913 114.762 636.53 114.654 640.134 114.464C641.255 114.406 642.367 114.215 643.474 114.052C645.547 113.742 647.63 113.609 649.759 113.622C650.565 113.628 651.48 113.368 652.195 113.089C652.998 112.774 653.38 112.297 652.648 111.745C651.847 111.142 652.067 110.518 652.798 109.883C652.357 109.741 651.921 109.601 651.31 109.407C653.026 108.978 655.244 109.557 656.479 108.238C655.449 108.161 654.668 108.102 654.177 108.066C653.93 107.513 653.728 107.058 653.47 106.484C654.332 106.21 655.507 105.838 656.683 105.463C658.213 104.977 659.771 104.514 661.274 103.997C662.491 103.581 663.02 102.905 663.093 102.103C663.11 101.935 663.057 101.739 663.196 101.609C665.128 99.7914 664.286 97.898 664.082 95.9997C663.906 94.3726 663.883 92.7289 664.028 91.0931C664.165 89.5471 664.135 88.0613 663.142 86.6047C662.686 85.934 662.849 85.1198 662.597 84.388C662.426 83.8889 662.107 83.3968 661.715 82.9438C661.291 82.4515 660.788 84.7746 660.329 84.3606C660.271 84.5383 660.158 84.8628 660.042 85.2214C658.421 84.5174 657.8 83.5669 657.636 82.403C657.278 79.8753 656.736 77.3618 656.367 74.8343C656.289 74.2863 656.684 73.71 656.769 73.1421C656.965 71.8108 657.537 64.3743 657.233 63.0875C656.829 61.4016 655.566 51.8768 654.952 50.2028C654.514 49.0155 654.532 47.7664 654.236 46.5567C653.532 43.7014 652.775 40.8507 652.013 38.0032C651.619 36.5272 651.137 35.0599 650.754 33.5836C650.478 32.5279 651.368 31.9258 653.185 31.8827C653.901 31.8664 654.638 31.8309 655.33 31.9018C656.999 32.0729 658.399 31.6053 659.925 31.329C661.471 31.046 662.568 30.5032 663.706 29.9067C664.189 29.6556 664.828 29.5085 665.507 29.2768C665.003 28.7558 662.812 29.3747 663.048 28.1752C664.246 28.2633 665.403 28.3462 666.633 28.4396C666.583 28.5553 666.519 28.7116 666.455 28.8648C666.597 28.8702 666.74 28.8756 666.882 28.881C666.918 28.2835 666.955 27.686 666.986 27.0917C667.417 26.8544 667.894 23.7841 668.678 23.3549C667.477 22.9887 666.606 22.7218 665.671 22.435C665.963 22.3344 666.532 22.1366 667.346 21.8549C667.073 20.9289 667.682 19.6792 666.165 18.7066C665.661 18.3865 666.436 18.0193 666.27 17.9125C665.632 17.5095 664.766 16.8716 664.072 16.9213C661.637 17.0894 659.782 16.0981 657.366 16.21C657.763 15.8747 657.821 15.87 659.633 15.8425C660.481 15.8288 661.328 15.7996 662.176 15.7766C662.231 15.6948 662.287 15.616 662.338 15.5343C661.881 15.3921 661.372 15.0845 660.978 15.1353C658.505 15.4497 656.161 14.8889 653.734 14.9702C651.512 15.0459 649.284 15.0569 647.063 15.1512C646.158 15.1912 645.714 15.1352 645.534 14.5188C645.273 13.6358 644.707 12.7858 644.166 11.7094C643.893 12.1124 643.776 12.2856 643.513 12.676C643.262 12.179 643.165 11.8756 642.952 11.6063C642.761 11.3643 642.455 10.9738 642.181 10.972C641.649 10.9679 640.92 11.1082 640.595 11.3427C640.093 11.7055 639.192 12.0607 639.783 12.6906C639.918 12.8322 639.694 13.0948 639.612 13.3783C639.019 13.0976 639.242 12.3622 638.11 12.6061C637.994 12.3991 637.757 12.1923 637.777 11.9878C637.883 10.8352 636.304 10.2938 635.252 9.60532C634.694 9.24029 633.577 9.43441 632.681 9.61943C632.231 9.71201 631.693 9.68951 631.202 9.6719C630.759 9.6561 630.325 9.57208 629.674 9.4939C630.003 10.1649 630.303 10.7008 630.518 11.2482C630.671 11.6396 631.145 12.0255 630.319 12.4528C630.017 12.6062 630.231 13.1042 630.213 13.4199C629.505 13.7266 630.211 12.3599 629.118 13.2642C628.785 12.4449 628.486 11.7143 628.17 10.9533C624.991 11.4661 626.855 12.7785 626.553 13.8932C626.208 13.2071 625.947 12.695 625.685 12.1705C624.756 12.5078 624.756 12.5078 623.948 14.7767C621.406 14.7035 618.844 14.6339 616.281 14.5581C615.854 14.545 615.431 14.4823 615.009 14.4937C610.823 14.598 606.638 14.7393 602.452 14.8189C598.739 14.8886 595.02 14.937 591.31 14.8954C590.429 14.8853 589.586 14.4786 588.726 14.2546C588.905 14.052 589.002 13.7434 589.279 13.6679C589.943 13.486 590.69 13.4132 591.403 13.295C591.417 13.2143 591.43 13.1335 591.449 13.0527C590.466 12.9341 589.468 12.6768 588.5 12.7216C584.132 12.9266 579.773 13.2303 575.406 13.4785C571.024 13.7272 566.641 13.9697 562.258 14.1751C559.069 14.3265 555.864 14.4938 552.677 14.5061C548.784 14.522 544.824 14.6109 541.025 14.2503C536.229 13.7963 531.392 13.3989 526.585 13.5355C521.83 13.6706 517.547 12.6958 512.979 12.5106C509.196 12.3567 505.428 12.1035 501.659 11.8533C500.629 11.7855 499.623 11.5964 498.638 11.4191C494.974 10.7582 491.275 11.1305 487.527 11.4454C487.598 12.7292 485.551 12.0337 484.623 12.6059C485.56 12.5805 486.403 12.5577 487.245 12.5348C487.258 12.6179 487.271 12.7041 487.284 12.7872C486.216 12.8656 485.143 12.9164 484.087 13.0346C482.548 13.2062 481.032 13.4544 479.492 13.6167C479.035 13.6662 478.536 13.5344 478.055 13.4857C478.328 13.2434 478.595 12.9981 478.848 12.7749C477.147 12.8211 475.387 12.8039 473.641 12.9285C468.492 13.2938 463.369 13.8036 458.213 14.0887C450.721 14.499 443.221 15.0146 435.696 14.7767C435.174 14.76 434.62 14.9234 434.018 14.8779C434.295 14.7993 434.567 14.7208 435.048 14.581C431.595 14.3347 428.352 14.2403 425.101 14.6406C425.099 14.7334 425.091 14.8264 425.088 14.9192C427.726 14.8476 430.363 14.7761 432.996 14.7047C433.004 14.7972 433.012 14.8928 433.019 14.9853C432.273 15.0365 431.526 15.0876 430.563 15.1508C430.908 15.2404 431.057 15.2796 431.503 15.3942C428.087 15.3663 424.973 15.3488 421.858 15.3158C419.297 15.2895 416.73 15.2726 414.173 15.209C413.002 15.179 411.71 15.3315 410.873 14.5846C410.674 14.4045 409.894 14.3979 409.383 14.4086C403.906 14.5294 398.424 14.6471 392.944 14.8143C390.501 14.8899 388.066 15.0703 385.625 15.2045C385.611 15.2728 385.602 15.3411 385.589 15.4094C385.865 15.4885 386.146 15.5674 386.693 15.7256C385 15.8488 383.786 15.9714 382.292 15.6688C380.517 15.309 378.371 15.4661 376.391 15.5013C370.424 15.6044 364.455 15.8065 358.487 15.8725C354.957 15.9095 351.438 15.7206 347.907 15.7113C344.145 15.7021 340.375 15.8044 336.608 15.8262C334.659 15.8358 332.713 15.7587 330.758 15.753C329.509 15.7498 329.471 16.1001 330.342 16.7379C320.535 16.7041 310.966 16.6731 301.396 16.6421C301.372 16.7077 301.347 16.7763 301.323 16.8419C301.915 16.9278 302.502 17.0108 303.095 17.0967C303.101 17.1491 303.108 17.2015 303.115 17.2538C299.116 17.4643 295.118 17.7118 291.118 17.8759C287.06 18.0416 282.995 18.1241 278.936 18.2372C274.897 18.3499 270.854 18.4564 266.786 18.6595C267.851 18.6677 268.915 18.6759 269.98 18.6841C269.982 18.7521 269.984 18.8231 269.985 18.8911C268.574 18.9293 267.168 18.9613 265.757 19.0057C260.935 19.1582 256.109 19.3478 251.285 19.457C248.542 19.519 245.799 19.4142 243.055 19.4577C241.965 19.4749 240.846 19.8112 239.781 19.769C238.109 19.7031 236.487 19.3607 234.82 19.2792C233.643 19.2215 232.421 19.4185 231.216 19.4759C230.674 19.503 230.074 19.5409 229.592 19.4365C228.808 19.2692 228.104 18.9823 227.355 18.7585C225.039 18.0702 222.699 17.4692 219.94 17.9149C219.562 17.9777 219.112 17.8756 218.499 17.8366C218.635 18.179 218.748 18.4572 218.861 18.7354C218.794 18.8052 218.733 18.8718 218.666 18.9416C217.671 18.5884 216.448 18.3435 215.749 17.8463C215.115 17.3937 214.639 17.1315 213.768 17.4549C212.98 17.7483 212.878 18.6381 213.442 19.0524C213.55 19.1329 213.611 19.2363 213.904 19.5714C212.583 19.6289 211.49 19.7327 210.415 19.7094C203.799 19.5797 197.182 19.4254 190.57 19.2771C182.098 19.0866 173.629 18.8465 165.154 18.7333C161.569 18.6852 157.961 18.9037 155.886 18.9599C168.348 19.3513 182.354 19.7905 196.355 20.2329C196.346 20.2918 196.343 20.3507 196.334 20.4065C195.069 20.3945 193.804 20.367 192.539 20.3704C190.116 20.3805 187.692 20.3906 185.275 20.4314C182.031 20.4885 178.783 20.6291 175.543 20.6335C171.728 20.6381 167.916 20.5252 164.105 20.4956C163.426 20.4893 162.602 20.2551 162.137 20.957C161.985 21.1867 160.602 21.3046 159.868 21.2318C155.599 20.8129 151.336 21.3735 147.079 21.3994C145.393 21.408 143.723 21.203 142.036 21.1591C139.004 21.0775 135.963 21.0518 132.926 20.9858C132.151 20.9698 131.38 20.901 130.59 20.7308C133.58 19.6329 136.799 19.0542 140.203 18.6621C139.938 18.6136 139.683 18.5525 139.414 18.5197C139.091 18.479 138.758 18.4293 138.431 18.4289C133.052 18.4295 127.677 18.4084 122.293 18.4617C120.881 18.4753 119.467 18.7794 118.041 18.8613C115.321 19.0155 112.595 19.1358 109.868 19.2159C107.409 19.2888 104.944 19.2939 102.484 19.3142C101.188 19.3246 99.9318 19.2567 98.5944 19.4846C97.7552 19.6279 96.6808 19.2553 95.7177 18.9105C96.417 18.8544 97.1493 18.8531 97.8152 18.73C99.1992 18.473 100.521 18.0416 101.923 17.8799C105.101 17.5124 108.328 17.02 111.501 17.0452C113.725 17.0622 116.027 17.0523 118.234 17.2211C121.919 17.5044 129.427 17.4646 132.104 16.9222C131.908 16.875 131.717 16.8307 131.41 16.7587C132.599 16.5163 133.691 16.3723 134.658 16.0741C135.525 15.8064 136.241 15.3667 137.026 15.0023C136.966 14.9205 136.911 14.8385 136.851 14.7536C136.122 14.693 135.397 14.5736 134.665 14.5873C132.232 14.6285 129.655 14.4296 127.39 14.8464C120.491 16.1215 113.405 15.7604 106.439 16.3357C101.507 16.7414 96.541 17.0152 91.5844 17.2702C87.7751 17.4693 83.9453 17.5021 80.1306 17.6983C76.3369 17.8908 72.5516 18.2036 68.7643 18.4393C68.2699 18.4712 67.7499 18.337 67.1314 18.2641C67.1696 18.3125 67.2407 18.4064 67.2953 18.476C63.7131 18.8946 59.9994 19.122 56.5083 19.7916C52.1472 20.63 47.6891 20.9982 43.2562 21.5233C42.7311 21.587 42.1354 21.3837 41.5598 21.3375C41.3116 21.3164 40.9482 21.3201 40.7977 21.4076C39.3816 22.2311 38.8328 22.1996 37.8892 21.2114C37.8241 21.1452 37.6861 21.1057 37.574 21.0531C36.6988 22.0041 35.5948 22.0958 33.4992 21.3738C32.6954 21.8499 32.3122 22.293 33.6154 22.7429C32.6451 23.103 32.5246 23.5174 33.1402 24.0663C33.583 24.4622 33.8224 24.9379 34.2817 25.5528C33.5723 25.4299 33.1805 25.3602 32.6988 25.2774C32.649 25.3839 32.5845 25.5309 32.4999 25.7155C31.368 24.9735 30.2576 24.2464 29.0721 23.4688C28.4746 23.7817 28.1085 24.076 27.6167 24.2037C27.1458 24.3277 26.3947 24.4161 26.0328 24.2807C24.7552 23.8023 23.596 23.2187 22.3958 22.6763C22.769 23.2287 23.1588 23.8054 23.5485 24.382C23.4076 24.4322 23.272 24.4823 23.1311 24.5324C22.5571 24.1555 21.9777 23.7756 21.4037 23.3986C21.3203 23.4318 21.2369 23.465 21.1588 23.498C21.3747 23.8816 21.5957 24.2619 21.8116 24.6455C21.6655 24.6989 21.5248 24.7553 21.3787 24.8087C19.8304 23.4784 18.4523 22.0106 15.4036 22.0871C14.7333 22.436 14.193 22.7165 13.5175 23.0686C13.6802 23.2372 13.9456 23.5051 14.1678 23.7309C13.4424 23.9886 12.7743 24.223 12.1063 24.4606C11.3496 24.7315 10.6645 24.92 9.831 24.4945C9.2967 24.2215 8.95032 23.4953 7.89213 23.9166C7.38134 24.122 6.88761 24.5681 6.86523 24.9087C6.84636 25.1843 7.48731 25.5038 7.93603 25.7296C8.39537 25.9582 8.98408 26.0999 9.87207 26.3972C8.8157 26.497 8.16926 26.5578 7.15492 26.6533C7.72828 27.2002 8.23677 27.6871 8.95622 28.3754C7.39578 27.9572 6.12719 27.6145 5.20894 27.3675C5.45564 28.4982 5.76278 29.9146 6.11782 31.5431C5.29446 31.686 4.24353 31.9864 3.18013 32.0215C1.64304 32.0755 0.9881 32.6002 0.411732 33.3019C2.14884 33.6288 2.77088 34.8049 1.43833 35.6014C0.245774 36.3137 0.511833 36.9926 0.790181 37.7361C1.10857 38.596 1.36954 39.4759 1.86084 40.3002C3.9469 43.7794 6.20613 50.0053 8.32361 53.4774C8.67106 54.0491 8.67085 54.6239 7.69239 55.0708C7.58583 55.0274 7.45838 54.9906 7.35683 54.9378C7.0201 54.7614 6.69381 54.5818 6.36227 54.4022C6.237 54.6405 6.09068 54.8794 5.99183 55.12C5.81877 55.5389 5.67739 55.96 5.26572 56.3235C5.60048 57.0098 5.95095 57.6926 6.25955 58.3858C6.46709 58.85 6.83836 59.3283 5.81059 59.7054C5.59146 59.7855 5.55839 60.1202 5.56935 60.3301C5.65208 61.6321 5.7321 70.8645 5.98833 72.1526C6.28093 73.6158 6.82208 81.1149 7.14101 82.5774C7.70588 85.1429 8.22345 87.7127 8.63062 90.2916C9.43751 95.3694 10.0236 97.6925 10.8621 102.769C11.1774 104.68 11.866 106.565 12.2971 108.47C12.3811 108.848 12.0499 109.265 11.8444 109.845C12.1482 109.976 12.6566 110.262 13.2569 110.444C15.0788 110.984 15.3518 111.336 14.8626 112.533C14.739 112.833 14.681 113.217 14.8934 113.471C15.7541 114.511 16.5388 114.499 17.6864 113.488C17.8151 113.377 17.9385 113.262 18.3036 112.931C18.2326 114.2 19.5141 114.434 20.9105 114.634C21.8257 114.767 22.5384 114.819 23.1495 114.233C23.3704 114.023 24.0488 113.974 24.6138 113.826C24.9766 114.184 25.3828 114.59 25.8267 115.029C27.16 114.066 30.2944 113.65 32.0361 114.147C33.8415 114.66 35.8217 114.625 37.7595 114.777C41.5877 115.078 45.3635 115.581 49.187 115.904C52.6514 116.196 56.1598 116.361 59.6486 116.581C59.9336 116.598 60.2232 116.59 60.5034 116.626C67.1806 117.453 73.9931 117.633 80.8274 117.645C83.8994 117.651 86.9869 117.45 90.0546 117.491C93.1433 117.53 96.2153 117.731 99.2916 117.895C105.402 118.224 111.504 118.609 117.619 118.91C127.611 119.402 137.614 119.845 147.611 120.318C149.363 120.401 151.106 120.56 152.862 120.615C156.1 120.719 159.347 120.77 162.595 120.839C162.806 120.843 163.026 120.812 163.605 120.768C160.548 120.372 157.867 120.025 155.16 119.675C157.51 119.095 159.896 119.265 162.289 119.296C164.883 119.331 167.479 119.276 170.076 119.252C171.072 119.243 172.072 119.21 173.072 119.186C172.659 119.095 172.249 118.942 171.822 118.932C170.947 118.913 170.068 118.967 168.884 119C169.415 118.781 169.618 118.698 170.066 118.516C168.203 118.567 166.618 118.61 165.038 118.653C164.983 118.568 164.923 118.48 164.868 118.394C165.405 118.201 165.964 117.83 166.481 117.841C170.04 117.92 173.595 118.074 177.145 118.216C177.609 118.234 178.059 118.315 178.519 118.367C178.49 118.455 178.466 118.545 178.437 118.632C177.957 118.621 177.472 118.624 177.003 118.591C175.582 118.475 174.242 118.604 173.072 119.192ZM91.7172 21.7759C91.9832 21.676 92.2421 21.5082 92.5261 21.4882C96.3384 21.2024 100.15 20.8981 103.97 20.6771C106.258 20.544 108.561 20.5495 110.862 20.4933C110.864 20.5952 110.872 20.6939 110.875 20.7958C109.319 20.9276 107.763 21.0687 106.202 21.1945C102.984 21.4518 99.773 21.7552 96.5529 21.9229C94.9586 22.0063 93.2909 22.4905 91.7259 21.9024C90.5193 22.2936 89.3115 22.2491 88.0964 22.1306C88.0941 22.0442 88.0865 21.9578 88.0841 21.8714C89.2899 21.8418 90.5009 21.8089 91.7172 21.7759ZM266.921 115.954C266.992 115.847 267.063 115.74 267.134 115.633C267.407 115.626 267.681 115.612 267.96 115.611C273.429 115.586 278.903 115.574 284.371 115.53C285.077 115.524 285.802 115.26 286.488 115.291C288.06 115.362 289.599 115.574 291.167 115.674C292.18 115.739 293.274 115.87 293.966 115.15C294.074 115.035 294.562 114.985 294.868 114.992C297.625 115.041 300.377 115.105 303.135 115.167C304.421 115.197 305.704 115.292 306.983 115.251C307.789 115.226 308.601 114.873 309.376 114.895C311.275 114.949 313.155 115.13 315.04 115.27C316.714 115.395 318.392 115.498 320.046 115.682C321.41 115.833 322.712 116.234 324.078 116.28C332.352 116.559 340.636 116.77 348.92 117.003C350.982 117.062 353.038 117.126 355.095 117.185C354.641 117.377 354.185 117.435 353.737 117.432C351.592 117.413 349.437 117.249 347.312 117.374C341.12 117.74 334.977 117.561 328.827 117.338C321 117.053 313.174 116.789 305.342 116.525C304.931 116.512 304.506 116.554 304.096 116.599C303.029 116.718 301.961 116.942 300.897 116.961C298.332 117.009 295.764 116.946 293.193 116.96C290.528 116.974 287.749 117.29 285.227 116.975C283.35 116.742 281.496 116.557 279.597 116.504C275.801 116.396 271.995 116.339 268.193 116.238C267.755 116.222 267.345 116.051 266.921 115.954ZM285.345 119.791C285.322 119.89 285.298 119.99 285.274 120.086C270.607 119.931 255.933 119.776 241.265 119.62C241.26 119.611 241.26 119.599 241.254 119.59C242.812 119.547 244.371 119.505 245.929 119.463C243.811 119.261 241.691 119.204 239.576 119.107C239.238 119.091 238.938 118.892 238.619 118.78C238.789 118.633 238.953 118.484 238.979 118.461C232.976 118.402 226.725 118.342 220.474 118.28C220.477 118.2 220.475 118.119 220.478 118.036C220.878 118.025 221.273 118.005 221.673 118.004C226.373 118.006 231.046 118.163 235.757 117.588C238.976 117.194 242.304 117.11 245.583 117C248.821 116.89 252.07 116.833 255.297 116.912C261.809 117.076 268.308 117.363 274.821 117.563C277.136 117.634 279.459 117.608 281.783 117.625C281.134 117.806 280.487 117.836 279.844 117.841C275.087 117.875 270.328 117.831 265.579 117.953C259.855 118.102 254.136 118.393 248.42 118.626C248.352 118.627 248.285 118.691 247.999 118.838C248.445 118.965 248.793 119.147 249.151 119.15C254.004 119.17 258.862 119.177 263.715 119.16C267.097 119.148 270.487 119.032 273.861 119.085C276.644 119.13 279.406 119.352 282.177 119.515C283.237 119.582 284.289 119.699 285.345 119.791ZM348.027 115.176C348.035 115.096 348.044 115.012 348.052 114.931C348.378 114.91 348.709 114.879 349.036 114.871C352.316 114.791 355.596 114.696 358.878 114.647C361.205 114.612 363.539 114.598 365.859 114.658C368.216 114.718 370.609 114.752 372.888 115.033C375.013 115.294 377.178 115.087 379.283 115.354C380.086 115.456 380.974 115.358 381.827 115.338C385.724 115.251 389.621 115.164 393.517 115.064C396.703 114.981 399.89 114.796 403.068 114.805C406.419 114.816 409.76 115.001 413.109 115.117C413.325 115.123 413.537 115.183 413.749 115.22C391.721 116.664 369.883 115.758 348.027 115.176ZM87.316 23.8548C91.1553 22.2362 95.4284 22.621 99.8163 22.1867C98.7895 22.7926 98.0478 23.2268 97.3684 23.6285C102.321 23.6271 107.04 22.1948 112.044 22.5165C112.062 22.6025 112.08 22.6855 112.104 22.7714C108.805 23.1452 105.506 23.5221 102.234 23.8952C106.293 23.7851 110.416 23.6733 114.665 23.5581C114.513 23.7971 114.465 23.9807 114.381 23.9892C112.437 24.1656 110.499 24.4036 108.546 24.4689C104.703 24.5979 100.849 24.6993 97.0123 24.6797C93.8134 24.6583 90.4812 24.9681 87.316 23.8548ZM432.718 117.577C438.723 116.932 444.666 116.907 450.631 117.697C450.028 118.013 449.357 118.312 448.693 118.324C445.17 118.383 441.644 118.364 438.12 118.389C436.792 118.397 435.461 118.458 434.134 118.494C434.135 118.506 434.135 118.518 434.135 118.531C435.57 118.588 437.01 118.644 438.445 118.701C438.44 118.735 438.436 118.769 438.432 118.807C438.08 118.872 437.729 118.937 437.373 119.002C437.389 119.039 437.401 119.076 437.418 119.112C438.905 119.149 440.386 119.186 441.873 119.226C441.865 119.298 441.861 119.369 441.853 119.44C435.967 119.43 430.081 119.423 423.895 119.411C424.78 119.007 425.296 118.607 425.921 118.525C427.574 118.304 429.274 118.208 430.962 118.088C432.24 117.995 433.518 117.935 434.797 117.864C434.791 117.836 434.79 117.808 434.784 117.784C434.097 117.71 433.41 117.645 432.718 117.577ZM71.7155 25.8418C72.025 25.7901 72.3385 25.692 72.6493 25.6898C77.1634 25.6353 81.6722 25.581 86.1817 25.5514C92.6878 25.5079 99.1999 25.492 105.706 25.4422C107.918 25.4255 110.134 25.3283 112.345 25.2683C110.745 25.5219 109.142 25.6674 107.537 25.7387C103.737 25.9129 99.9339 26.1335 96.1311 26.1872C87.9726 26.3065 79.7603 26.9681 71.7155 25.8418ZM398.942 120.023C401.203 119.863 403.411 119.698 405.655 119.659C409.347 119.599 413.042 119.276 416.736 119.101C418.784 119.006 420.833 118.984 422.881 118.929C422.889 119.043 422.903 119.157 422.911 119.268C419.525 119.922 415.956 119.484 412.431 119.861C412.882 120.55 412.178 120.631 411.261 120.604C410.269 120.575 409.233 120.649 408.287 120.527C405.876 120.215 403.458 120.064 400.964 120.184C400.296 120.221 399.612 120.082 398.942 120.023ZM340.103 118.513C340.1 118.593 340.092 118.677 340.089 118.757C332.417 118.539 324.744 118.323 317.072 118.105C319.119 117.833 321.232 117.417 323.273 117.482C328.361 117.641 333.565 117.383 338.472 118.39C338.975 118.494 339.56 118.475 340.103 118.513ZM459.692 117.64C459.743 117.589 459.795 117.538 459.846 117.487C464.616 117.358 469.387 117.228 474.157 117.099C470.066 117.995 465.885 118.291 461.655 118.13C460.98 118.105 460.345 117.81 459.692 117.64ZM309.435 118.229C309.427 118.312 309.419 118.396 309.41 118.48C303.612 118.581 297.798 118.881 292.07 118.273C292.082 118.152 292.095 118.031 292.102 117.911C297.88 118.014 303.657 118.123 309.435 118.229ZM54.7651 101.709C56.9765 101.649 59.1984 101.589 60.9096 101.542C61.881 101.807 62.4807 101.967 63.1708 102.155C60.9002 102.362 58.6138 99.796 56.4063 100.001C54.6667 100.163 54.7456 102.934 54.7651 101.709ZM245.912 121.534C250.671 121.201 255.319 121.6 259.939 122.149C255.23 122.202 250.511 122.293 245.912 121.534ZM405.998 116.976C406.002 116.908 406.005 116.84 406.009 116.768C412.369 116.596 418.729 116.423 425.09 116.251C425.092 116.319 425.093 116.387 425.095 116.458C418.724 116.631 412.359 116.803 405.998 116.976ZM51.1395 21.5536C51.0995 21.4373 51.0542 21.3211 51.0143 21.2078C53.8261 20.9461 56.6432 20.6842 59.4549 20.4194C56.9206 21.7801 53.9653 21.4152 51.1395 21.5536ZM368.485 118.617C368.472 118.711 368.464 118.804 368.451 118.897C365.31 118.864 362.168 118.829 359.027 118.797C359.03 118.723 359.039 118.648 359.042 118.574C362.217 118.111 365.349 118.375 368.485 118.617ZM11.8804 93.7423C12.017 93.7294 12.1537 93.7195 12.2904 93.7065C12.8563 96.309 13.4221 98.9114 13.9881 101.517C13.8251 101.531 13.6622 101.544 13.4993 101.561C12.9648 98.9517 12.4252 96.3454 11.8804 93.7423ZM340.833 118.78C340.851 118.684 340.864 118.588 340.883 118.488C343.792 118.539 346.708 118.59 349.618 118.644C346.664 118.922 343.724 119.11 340.833 118.78ZM420.748 118.204C420.73 118.316 420.712 118.428 420.699 118.54C417.764 118.526 414.824 118.514 411.888 118.5C411.896 118.383 411.903 118.262 411.916 118.144C414.856 118.166 417.802 118.185 420.748 118.204ZM580.17 13.7017C582.275 13.5859 584.384 13.4699 586.489 13.3541C586.496 13.4374 586.504 13.5175 586.511 13.6008C584.452 14.2284 582.335 14.2426 580.17 13.7017ZM310.801 124.095C310.793 124.188 310.785 124.284 310.777 124.377C308.203 124.298 305.63 124.22 303.057 124.144C303.074 124.014 303.097 123.887 303.115 123.756C305.684 123.869 308.242 123.982 310.801 124.095ZM266.928 116.025C265.285 116.07 263.769 116.111 262.247 116.152C262.241 116.118 262.24 116.081 262.234 116.047C262.675 115.995 263.122 115.943 263.663 115.879C263.438 115.743 263.304 115.663 263.149 115.571C265.867 115.358 266.469 115.416 266.928 116.025ZM497.758 12.364C497.764 12.4071 497.771 12.4533 497.782 12.4963C494.702 12.5798 491.622 12.6634 488.542 12.7469C488.541 12.7037 488.545 12.6572 488.544 12.6139C491.613 12.5307 494.683 12.4474 497.758 12.364ZM464.596 116.623C464.615 116.536 464.629 116.449 464.647 116.362C466.381 116.169 468.082 116.154 469.704 116.5C469.686 116.599 469.662 116.699 469.644 116.798C467.961 116.738 466.279 116.682 464.596 116.623ZM386.059 120.209C386.125 120.321 386.196 120.434 386.263 120.546C385.839 120.644 385.391 120.848 385 120.818C384.113 120.756 382.994 121.052 382.261 120.441C383.644 120.357 384.854 120.284 386.059 120.209ZM366.048 35.1767C365.94 35.2507 365.826 35.3218 365.717 35.3958C364.957 34.9621 364.118 31.7637 363.246 31.2681C365.324 30.949 365.299 34.7365 366.048 35.1767ZM301.106 123.335C301.12 123.248 301.139 123.161 301.152 123.071C302.22 123.221 303.421 122.419 304.56 123.241C303.297 123.275 302.202 123.305 301.106 123.335ZM506.736 34.3589C506.899 34.7315 507.033 35.0369 507.27 35.593C506.283 35.1407 505.621 34.8373 504.698 34.4141C505.63 34.3889 506.135 34.3751 506.736 34.3589ZM331.932 17.4829C330.867 17.4561 329.966 17.4342 329.064 17.4123C329.687 16.8885 330.517 16.9804 331.261 17.0158C331.509 17.0277 331.706 17.3159 331.932 17.4829ZM11.4865 91.8491C11.26 91.8491 11.0334 91.8491 10.8121 91.8489C10.7967 91.2806 10.7813 90.7123 10.7658 90.1441C10.9132 90.137 11.0606 90.133 11.208 90.1259C11.3026 90.7013 11.392 91.2768 11.4865 91.8491Z" fill="#44AADF"/>
<g clip-path="url(#clip0)">
<rect width="535" height="40" transform="translate(68 48.0757)" fill="#44AADF"/>
<path d="M99.7241 63.8452C99.7241 55.1499 92.6082 48.0757 83.8625 48.0757C75.1167 48.0757 68 55.1499 68 63.8452C68 69.264 70.7638 74.053 74.9642 76.8929V86.9218C74.9642 87.3132 75.1638 87.678 75.4947 87.8905C75.8255 88.103 76.242 88.1343 76.6012 87.9741L83.8625 84.7257L91.1238 87.9741C91.2754 88.0421 91.4381 88.0757 91.6 88.0757C91.82 88.0757 92.0393 88.0132 92.2302 87.8905C92.5611 87.678 92.7607 87.3132 92.7607 86.9218V76.8929C96.9603 74.053 99.7241 69.264 99.7241 63.8452ZM90.4393 78.1968V85.1366L84.3387 82.4077C84.187 82.3397 84.0251 82.3062 83.8625 82.3062C83.6998 82.3062 83.5379 82.3397 83.3862 82.4077L77.2857 85.1366V78.1968C77.8688 78.4608 78.4676 78.6882 79.0774 78.8804C79.112 78.8913 79.1466 78.9022 79.1811 78.9132C79.2589 78.9374 79.3375 78.9601 79.4153 78.9827C79.4735 78.9999 79.5308 79.0163 79.589 79.0327C79.6519 79.0499 79.7155 79.0671 79.7792 79.0835C79.853 79.103 79.9269 79.1226 80.0016 79.1405C80.0542 79.1538 80.1069 79.1663 80.1595 79.1788C80.2452 79.1991 80.3308 79.2187 80.4165 79.2382C80.4613 79.2483 80.5061 79.2577 80.5501 79.2671C80.6444 79.2874 80.7387 79.3062 80.8338 79.3241C80.8723 79.3319 80.9108 79.339 80.9493 79.346C81.0499 79.3647 81.1505 79.3819 81.2519 79.3991C81.2864 79.4046 81.321 79.4108 81.3556 79.4163C81.4601 79.4327 81.5646 79.4483 81.6699 79.4624C81.7021 79.4671 81.7352 79.4718 81.7674 79.4757C81.8735 79.4897 81.9803 79.5022 82.0872 79.514C82.1194 79.5179 82.1509 79.5218 82.1831 79.5249C82.29 79.5358 82.3968 79.546 82.5037 79.5546C82.5359 79.5577 82.5689 79.5608 82.6012 79.5632C82.7065 79.5718 82.8133 79.578 82.9194 79.5843C82.9532 79.5866 82.9878 79.589 83.0216 79.5905C83.1293 79.596 83.2369 79.5999 83.3446 79.6038C83.3768 79.6046 83.4098 79.6069 83.442 79.6077C83.5819 79.6116 83.7218 79.6132 83.8625 79.6132C84.0031 79.6132 84.143 79.6108 84.2829 79.6077C84.3151 79.6069 84.3481 79.6054 84.3803 79.6038C84.488 79.6007 84.5964 79.5968 84.7033 79.5905C84.7371 79.589 84.7717 79.5858 84.8055 79.5843C84.9116 79.578 85.0177 79.5718 85.1238 79.5632C85.156 79.5608 85.189 79.5577 85.2212 79.5546C85.3281 79.5452 85.4357 79.5358 85.5418 79.5249C85.5741 79.5218 85.6055 79.5179 85.6377 79.514C85.7446 79.5022 85.8515 79.4897 85.9575 79.4757C85.9898 79.471 86.0228 79.4663 86.055 79.4624C86.1603 79.4476 86.2648 79.4327 86.3693 79.4163C86.4039 79.4108 86.4385 79.4046 86.4731 79.3991C86.5744 79.3827 86.675 79.3647 86.7756 79.346C86.8141 79.339 86.8526 79.3312 86.8911 79.3241C86.9862 79.3062 87.0805 79.2866 87.1748 79.2671C87.2196 79.2577 87.2644 79.2476 87.3084 79.2382C87.3941 79.2194 87.4797 79.1991 87.5654 79.1788C87.6181 79.1663 87.6707 79.1538 87.7234 79.1405C87.798 79.1218 87.8719 79.103 87.9458 79.0835C88.0094 79.0671 88.0723 79.0499 88.1359 79.0327C88.1941 79.0163 88.2522 78.9999 88.3096 78.9827C88.3882 78.9601 88.466 78.9374 88.5438 78.9132C88.5784 78.9022 88.6129 78.8913 88.6475 78.8804C89.2573 78.689 89.8562 78.4616 90.4393 78.1968ZM88.2813 76.5694C88.235 76.5851 88.1886 76.6015 88.1422 76.6163C88.0715 76.6397 88.0008 76.6624 87.93 76.6851C87.8475 76.7108 87.7642 76.7358 87.6809 76.7601C87.622 76.7772 87.5638 76.7944 87.5041 76.8108C87.3941 76.8413 87.2833 76.871 87.1725 76.8983C87.1308 76.9085 87.09 76.9187 87.0483 76.9288C86.9399 76.9546 86.8306 76.9796 86.7214 77.003C86.6939 77.0093 86.6664 77.0155 86.6389 77.021C86.4982 77.0507 86.3568 77.0772 86.2145 77.1022C86.2004 77.1046 86.1854 77.1069 86.1713 77.1093C86.0432 77.1312 85.9151 77.1515 85.7862 77.1694C85.7572 77.1733 85.7281 77.178 85.699 77.1819C85.5623 77.2007 85.4247 77.2171 85.2864 77.2319C85.2809 77.2327 85.2762 77.2335 85.2707 77.2335C85.1261 77.2483 84.9815 77.2608 84.8369 77.271C84.8055 77.2733 84.7741 77.2749 84.7426 77.2772C84.6302 77.2843 84.5171 77.2905 84.4039 77.2944C84.3654 77.296 84.3269 77.2976 84.2884 77.2991C84.1462 77.3038 84.0039 77.3062 83.8617 77.3062C83.7194 77.3062 83.5772 77.303 83.435 77.2991C83.3965 77.2983 83.3579 77.296 83.3194 77.2944C83.2063 77.2897 83.0939 77.2843 82.9807 77.2772C82.9493 77.2749 82.9179 77.2733 82.8864 77.271C82.741 77.2608 82.5965 77.2483 82.4526 77.2335C82.4471 77.2327 82.4424 77.2319 82.4369 77.2319C82.2994 77.2179 82.1619 77.2007 82.0244 77.1819C81.9953 77.178 81.9662 77.1741 81.9371 77.1694C81.8082 77.1515 81.6801 77.1312 81.5521 77.1093C81.5379 77.1069 81.523 77.1046 81.5088 77.1022C81.3666 77.0772 81.2251 77.0499 81.0845 77.021C81.057 77.0155 81.0295 77.0093 81.002 77.003C80.8927 76.9796 80.7835 76.9546 80.675 76.9288C80.6334 76.9187 80.5917 76.9093 80.5509 76.8983C80.4401 76.871 80.3293 76.8413 80.2192 76.8108C80.1603 76.7944 80.1014 76.7772 80.0424 76.7601C79.9591 76.7358 79.8766 76.7108 79.7933 76.6851C79.7226 76.6624 79.6511 76.6397 79.5811 76.6163C79.5348 76.6007 79.4884 76.5851 79.442 76.5694C74.1399 74.7444 70.3214 69.7304 70.3214 63.8452C70.3214 56.4226 76.3961 50.3835 83.8625 50.3835C91.3289 50.3835 97.4035 56.4226 97.4035 63.8452C97.4027 69.7304 93.5843 74.7444 88.2813 76.5694Z" fill="#0D354A"/>
<path d="M80.9595 71.7476C80.5225 71.7476 80.3047 71.5304 80.3047 71.0966V60.134L77.5534 60.8285C77.1165 60.9371 76.8548 60.7635 76.7456 60.3512L76.571 59.7867C76.4617 59.3744 76.5925 59.0922 77.0079 58.8965L80.3708 57.5075C80.7855 57.3553 81.2002 57.2688 81.6372 57.2688H82.6851C83.122 57.2688 83.3398 57.486 83.3398 57.9197V71.096C83.3398 71.5304 83.1214 71.7469 82.6851 71.7469H80.9595V71.7476Z" fill="#0D354A"/>
<path d="M85.5449 59.7867C85.5449 57.4424 86.5058 56.5093 88.5147 56.5093C90.5889 56.5093 91.4621 57.3995 91.4621 59.7653C91.4621 62.1096 90.5235 63.0434 88.4486 63.0434C86.4398 63.0428 85.5449 62.1311 85.5449 59.7867ZM88.4924 61.6752C89.2787 61.6752 89.6495 61.1979 89.6495 59.7867C89.6495 58.3106 89.3002 57.8983 88.514 57.8983C87.7277 57.8983 87.3568 58.3106 87.3568 59.7867C87.3568 61.1979 87.7284 61.6752 88.4924 61.6752Z" fill="#0D354A"/>
<path d="M112.865 71.8437C112.817 71.5397 112.657 71.3957 112.369 71.4437C112.193 71.4597 111.985 71.4757 111.777 71.4757C111.281 71.4757 111.137 71.2517 111.137 70.6277L111.137 62.3557C111.137 62.0357 110.977 61.8757 110.657 61.8757L109.313 61.8757C108.993 61.8757 108.833 62.0357 108.833 62.3557L108.833 70.4997C108.833 71.1877 108.833 71.4917 109.009 72.0517C109.105 72.3237 109.233 72.5477 109.409 72.7077C109.745 73.0117 110.433 73.2837 111.377 73.2837C111.777 73.2837 112.177 73.2197 112.593 73.0917C112.881 72.9957 113.009 72.7877 112.961 72.4517L112.865 71.8437ZM121.193 65.3477C121.193 65.0277 121.033 64.8677 120.713 64.8677L119.433 64.8677C119.113 64.8677 118.953 65.0277 118.953 65.3477L118.953 71.3637C118.553 71.4757 118.073 71.5397 117.545 71.5397C116.601 71.4757 116.041 71.1397 116.041 70.0677L116.041 65.3477C116.041 65.0277 115.881 64.8677 115.561 64.8677L114.281 64.8677C113.961 64.8677 113.801 65.0277 113.801 65.3477L113.801 70.2437C113.801 71.2837 114.105 72.0517 114.729 72.5157C115.353 72.9797 116.153 73.2197 117.113 73.2197C118.313 73.2197 119.529 73.0437 120.745 72.6757C121.049 72.5797 121.193 72.3717 121.193 72.0517L121.193 65.3477ZM126.784 73.5077C127.76 73.5077 128.08 73.7477 128.08 74.2117C128.08 74.9477 127.408 75.3157 126.048 75.3157C124.816 75.3157 124.208 75.0437 124.208 74.4997C124.208 74.0197 124.496 73.6837 125.072 73.5077L126.784 73.5077ZM125.856 66.3557C126.8 66.3557 127.104 66.9157 127.104 67.8757C127.104 68.7077 126.624 69.1557 125.856 69.1557C125.04 69.1557 124.64 68.7237 124.64 67.8757C124.64 66.8677 125.04 66.3557 125.856 66.3557ZM123.92 72.7077C122.8 73.1877 122.24 73.8597 122.24 74.7237C122.24 76.1957 123.552 77.0117 125.84 77.0117C127.136 77.0117 128.16 76.7397 128.928 76.1797C129.696 75.6357 130.08 74.8997 130.08 73.9877C130.08 72.6597 129.056 71.8117 127.328 71.8117L125.024 71.8117C124.928 71.6197 124.88 71.4277 124.88 71.2357C124.88 71.0597 124.912 70.8997 124.992 70.7557C125.216 70.8037 125.504 70.8357 125.856 70.8357C128.016 70.8357 129.152 69.6677 129.152 67.8597C129.152 67.1877 128.96 66.5957 128.56 66.0677C129.328 65.9557 129.744 65.9077 129.792 65.8917C130.128 65.8277 130.272 65.6357 130.224 65.3157L130.192 65.0277C130.144 64.7077 129.984 64.5637 129.696 64.6117C128.944 64.7237 128.144 64.7877 127.328 64.7877C127.184 64.7877 126.928 64.7717 126.56 64.7557C126.208 64.7237 125.952 64.7077 125.792 64.7077C123.632 64.7077 122.528 65.9877 122.528 67.8597C122.528 68.9477 122.976 69.7797 123.872 70.3397C123.568 70.7077 123.408 71.1237 123.408 71.5717C123.408 72.0517 123.584 72.4357 123.92 72.7077ZM137.594 67.8117C137.594 65.7477 136.554 64.7077 134.474 64.7077C133.674 64.7077 132.762 64.8517 131.754 65.1557C131.45 65.2517 131.338 65.4597 131.418 65.7637L131.578 66.3717C131.658 66.6757 131.866 66.7877 132.202 66.7077C132.746 66.5957 133.258 66.5317 133.738 66.5317C134.826 66.5317 135.354 66.8197 135.354 67.8437L135.354 68.5797C134.762 68.4357 134.202 68.3717 133.642 68.3717C132.73 68.3717 131.978 68.5797 131.386 68.9797C130.794 69.3797 130.49 70.0037 130.49 70.8837C130.49 72.0997 131.322 72.8677 132.346 73.1237C132.858 73.2677 133.45 73.3317 134.122 73.3317C135.13 73.3317 136.138 73.1717 137.114 72.8677C137.434 72.7717 137.594 72.5477 137.594 72.1957L137.594 67.8117ZM132.618 70.8197C132.618 69.9877 133.13 69.5717 134.154 69.5717C134.522 69.5717 134.922 69.6357 135.354 69.7637L135.354 71.7477C135.034 71.8917 134.634 71.9557 134.17 71.9557C133.13 71.9557 132.618 71.5717 132.618 70.8197ZM141.479 66.9477C141.847 66.6917 142.471 66.5637 143.367 66.5637C143.511 66.5637 143.655 66.5637 143.799 66.5797C144.055 66.6117 144.199 66.4677 144.247 66.1317L144.375 65.2677C144.439 64.9477 144.327 64.7717 144.039 64.7397L143.687 64.7237C142.775 64.7237 141.975 65.0277 141.271 65.6357L141.239 65.3477C141.207 65.0277 141.031 64.8677 140.711 64.8677L139.719 64.8677C139.399 64.8677 139.239 65.0277 139.239 65.3477L139.239 72.5957C139.239 72.9157 139.399 73.0757 139.719 73.0757L140.999 73.0757C141.319 73.0757 141.479 72.9157 141.479 72.5957L141.479 66.9477ZM156.516 62.8677C156.516 62.5477 156.356 62.3877 156.036 62.3877L154.596 62.3877C154.276 62.3877 154.116 62.5477 154.116 62.8677L154.116 69.0597C154.116 69.8917 154.004 70.4837 153.78 70.8357C153.556 71.1717 153.076 71.3477 152.34 71.3477C151.572 71.3477 151.076 71.1717 150.852 70.8197C150.628 70.4517 150.516 69.8757 150.516 69.0597L150.516 62.8677C150.516 62.5477 150.356 62.3877 150.036 62.3877L148.596 62.3877C148.276 62.3877 148.116 62.5477 148.116 62.8677L148.116 69.1397C148.116 72.0197 149.316 73.2677 152.308 73.2677C153.86 73.2677 154.948 72.9317 155.572 72.2757C156.196 71.6197 156.516 70.5637 156.516 69.1397L156.516 62.8677ZM165.213 64.2277C165.533 64.2277 165.693 64.0677 165.693 63.7477L165.693 62.8677C165.693 62.5477 165.533 62.3877 165.213 62.3877L158.957 62.3877C158.637 62.3877 158.477 62.5477 158.477 62.8677L158.477 72.5957C158.477 72.9157 158.637 73.0757 158.957 73.0757L160.381 73.0757C160.701 73.0757 160.861 72.9157 160.861 72.5957L160.861 68.4357L164.797 68.4357C165.117 68.4357 165.277 68.2757 165.277 67.9557L165.277 67.1237C165.277 66.8037 165.117 66.6437 164.797 66.6437L160.861 66.6437L160.861 64.2277L165.213 64.2277ZM167.149 72.5957C167.149 72.9157 167.309 73.0757 167.629 73.0757L169.037 73.0757C169.357 73.0757 169.517 72.9157 169.517 72.5957L169.517 69.2357C169.917 69.3157 170.285 69.3797 170.605 69.4117L172.605 72.6597C172.781 72.9317 173.021 73.0757 173.341 73.0757L174.941 73.0757C175.261 73.0757 175.325 72.9477 175.149 72.6757L172.781 69.2037C174.221 68.7397 174.941 67.6357 174.941 65.8597C174.941 64.4037 174.445 63.4277 173.597 62.9317C172.749 62.4357 171.869 62.2757 170.653 62.2757C169.549 62.2757 168.525 62.3557 167.613 62.4997C167.309 62.5477 167.149 62.7397 167.149 63.0597L167.149 72.5957ZM169.517 64.0677C169.773 64.0037 170.157 63.9717 170.653 63.9717C171.997 63.9717 172.669 64.6277 172.669 65.9237C172.669 67.3797 171.917 67.8117 170.637 67.8117C170.381 67.8117 170.013 67.7797 169.517 67.7157L169.517 64.0677ZM176.108 67.6997C176.124 71.3957 177.82 73.2357 181.212 73.2357C182.332 73.2357 183.324 73.1237 184.204 72.8837C184.524 72.8037 184.684 72.5957 184.684 72.2597L184.684 68.3077C184.684 67.9877 184.524 67.8277 184.204 67.8277L183.02 67.8277C182.7 67.8277 182.54 67.9877 182.54 68.3077L182.54 71.3477C182.236 71.3797 181.82 71.3957 181.324 71.3957C179.468 71.3957 178.54 70.1477 178.54 67.6517C178.54 65.1877 179.612 63.9557 181.74 63.9557C182.268 63.9557 182.844 64.0357 183.436 64.1797C183.756 64.2597 183.948 64.1637 184.012 63.8597L184.188 63.0757C184.252 62.7717 184.124 62.5637 183.82 62.4837C183.004 62.2917 182.236 62.1957 181.516 62.1957C180.092 62.1957 178.892 62.5477 177.852 63.3637C176.812 64.1797 176.172 65.6677 176.108 67.6997ZM185.951 72.0677C185.887 72.4037 185.999 72.6277 186.287 72.7397C187.199 73.0917 188.287 73.2677 189.551 73.2677C190.623 73.2677 191.487 72.9797 192.175 72.3877C192.863 71.7957 193.199 71.0277 193.199 70.0517C193.199 68.5637 192.175 67.4597 190.111 66.7557L189.343 66.4997C189.215 66.4357 188.815 66.2917 188.687 66.2117C188.575 66.1317 188.335 65.9397 188.255 65.8117C188.175 65.6677 188.095 65.4437 188.095 65.2037C188.095 64.6437 188.287 64.3077 188.671 64.1637C189.071 63.9877 189.407 63.9717 189.999 63.9717C190.591 63.9717 191.199 64.0837 191.839 64.2917C192.127 64.3877 192.303 64.2917 192.383 63.9877L192.575 63.1717C192.655 62.8677 192.543 62.6597 192.239 62.5637C191.391 62.3237 190.575 62.1957 189.791 62.1957C188.671 62.1957 187.743 62.4517 186.991 62.9637C186.239 63.4757 185.871 64.2277 185.871 65.2037C185.871 65.7957 186.031 66.3237 186.223 66.6917C186.415 67.0597 186.895 67.4277 187.167 67.6357C187.311 67.7317 187.535 67.8437 187.823 67.9877L188.511 68.2757C188.671 68.3237 188.927 68.4197 189.279 68.5477C190.543 68.9957 191.007 69.3317 191.007 70.2117C191.007 71.0597 190.463 71.4757 189.375 71.4757C188.559 71.4757 187.647 71.2837 186.639 70.8837C186.367 70.7717 186.191 70.8517 186.127 71.1557L185.951 72.0677ZM200.082 71.2837C201.426 70.3557 202.418 69.3637 203.042 68.2917C203.682 67.2197 204.002 66.2277 204.002 65.3317C204.002 64.2277 203.666 63.4277 202.994 62.9317C202.338 62.4357 201.49 62.1797 200.482 62.1797C199.458 62.1797 198.578 62.3557 197.826 62.7237C197.554 62.8677 197.458 63.0917 197.538 63.4117L197.73 64.0837C197.81 64.3717 198.002 64.4677 198.29 64.3557C198.914 64.1157 199.49 64.0037 200.002 64.0037C201.202 64.0037 201.81 64.5797 201.81 65.7157C201.81 66.3397 201.602 66.9957 201.154 67.6357C200.706 68.2757 200.37 68.7237 199.666 69.3637C199.33 69.6677 199.058 69.9237 198.85 70.0997C198.642 70.2757 198.37 70.4997 198.002 70.7877C197.634 71.0757 197.41 71.2517 197.33 71.3317C197.122 71.5077 197.026 71.7477 197.026 72.0517L197.026 72.5957C197.026 72.9157 197.186 73.0757 197.506 73.0757L203.906 73.0757C204.226 73.0757 204.386 72.9157 204.386 72.5957L204.386 71.7637C204.386 71.4437 204.226 71.2837 203.906 71.2837L200.082 71.2837ZM209.451 73.2837C212.331 73.2517 213.387 72.0517 213.451 67.7157C213.451 65.6037 213.163 64.1477 212.571 63.3637C211.979 62.5797 210.971 62.1797 209.547 62.1797C208.107 62.1797 207.083 62.5797 206.475 63.3957C205.867 64.2117 205.563 65.6677 205.563 67.7637C205.563 69.8917 205.851 71.3317 206.427 72.1157C207.003 72.8997 208.011 73.2837 209.451 73.2837ZM207.787 67.7317C207.787 66.3237 207.915 65.3637 208.155 64.8517C208.395 64.3397 208.859 64.0837 209.515 64.0837C210.171 64.0837 210.619 64.3397 210.859 64.8517C211.099 65.3477 211.227 66.3077 211.227 67.7317C211.227 69.1557 211.099 70.1157 210.859 70.6277C210.619 71.1397 210.171 71.3957 209.515 71.3957C208.859 71.3957 208.395 71.1397 208.155 70.6277C207.915 70.1157 207.787 69.1557 207.787 67.7317ZM217.629 71.2837C218.973 70.3557 219.965 69.3637 220.589 68.2917C221.229 67.2197 221.549 66.2277 221.549 65.3317C221.549 64.2277 221.213 63.4277 220.541 62.9317C219.885 62.4357 219.037 62.1797 218.029 62.1797C217.005 62.1797 216.125 62.3557 215.373 62.7237C215.101 62.8677 215.005 63.0917 215.085 63.4117L215.277 64.0837C215.357 64.3717 215.549 64.4677 215.837 64.3557C216.461 64.1157 217.037 64.0037 217.549 64.0037C218.749 64.0037 219.357 64.5797 219.357 65.7157C219.357 66.3397 219.149 66.9957 218.701 67.6357C218.253 68.2757 217.917 68.7237 217.213 69.3637C216.877 69.6677 216.605 69.9237 216.397 70.0997C216.189 70.2757 215.917 70.4997 215.549 70.7877C215.181 71.0757 214.957 71.2517 214.877 71.3317C214.669 71.5077 214.573 71.7477 214.573 72.0517L214.573 72.5957C214.573 72.9157 214.733 73.0757 215.053 73.0757L221.453 73.0757C221.773 73.0757 221.933 72.9157 221.933 72.5957L221.933 71.7637C221.933 71.4437 221.773 71.2837 221.453 71.2837L217.629 71.2837ZM226.998 73.2837C229.878 73.2517 230.934 72.0517 230.998 67.7157C230.998 65.6037 230.71 64.1477 230.118 63.3637C229.526 62.5797 228.518 62.1797 227.094 62.1797C225.654 62.1797 224.63 62.5797 224.022 63.3957C223.414 64.2117 223.11 65.6677 223.11 67.7637C223.11 69.8917 223.398 71.3317 223.974 72.1157C224.55 72.8997 225.558 73.2837 226.998 73.2837ZM225.334 67.7317C225.334 66.3237 225.462 65.3637 225.702 64.8517C225.942 64.3397 226.406 64.0837 227.062 64.0837C227.718 64.0837 228.166 64.3397 228.406 64.8517C228.646 65.3477 228.774 66.3077 228.774 67.7317C228.774 69.1557 228.646 70.1157 228.406 70.6277C228.166 71.1397 227.718 71.3957 227.062 71.3957C226.406 71.3957 225.942 71.1397 225.702 70.6277C225.462 70.1157 225.334 69.1557 225.334 67.7317Z" fill="white"/>
<path d="M293.724 63.8452C293.724 55.1499 286.608 48.0757 277.862 48.0757C269.117 48.0757 262 55.1499 262 63.8452C262 69.264 264.764 74.053 268.964 76.8929V86.9218C268.964 87.3132 269.164 87.678 269.495 87.8905C269.826 88.103 270.242 88.1343 270.601 87.9741L277.862 84.7257L285.124 87.9741C285.275 88.0421 285.438 88.0757 285.6 88.0757C285.82 88.0757 286.039 88.0132 286.23 87.8905C286.561 87.678 286.761 87.3132 286.761 86.9218V76.8929C290.96 74.053 293.724 69.264 293.724 63.8452ZM284.439 78.1968V85.1366L278.339 82.4077C278.187 82.3397 278.025 82.3062 277.862 82.3062C277.7 82.3062 277.538 82.3397 277.386 82.4077L271.286 85.1366V78.1968C271.869 78.4608 272.468 78.6882 273.077 78.8804C273.112 78.8913 273.147 78.9022 273.181 78.9132C273.259 78.9374 273.338 78.9601 273.415 78.9827C273.473 78.9999 273.531 79.0163 273.589 79.0327C273.652 79.0499 273.716 79.0671 273.779 79.0835C273.853 79.103 273.927 79.1226 274.002 79.1405C274.054 79.1538 274.107 79.1663 274.16 79.1788C274.245 79.1991 274.331 79.2187 274.416 79.2382C274.461 79.2483 274.506 79.2577 274.55 79.2671C274.644 79.2874 274.739 79.3062 274.834 79.3241C274.872 79.3319 274.911 79.339 274.949 79.346C275.05 79.3647 275.15 79.3819 275.252 79.3991C275.286 79.4046 275.321 79.4108 275.356 79.4163C275.46 79.4327 275.565 79.4483 275.67 79.4624C275.702 79.4671 275.735 79.4718 275.767 79.4757C275.873 79.4897 275.98 79.5022 276.087 79.514C276.119 79.5179 276.151 79.5218 276.183 79.5249C276.29 79.5358 276.397 79.546 276.504 79.5546C276.536 79.5577 276.569 79.5608 276.601 79.5632C276.706 79.5718 276.813 79.578 276.919 79.5843C276.953 79.5866 276.988 79.589 277.022 79.5905C277.129 79.596 277.237 79.5999 277.345 79.6038C277.377 79.6046 277.41 79.6069 277.442 79.6077C277.582 79.6116 277.722 79.6132 277.862 79.6132C278.003 79.6132 278.143 79.6108 278.283 79.6077C278.315 79.6069 278.348 79.6054 278.38 79.6038C278.488 79.6007 278.596 79.5968 278.703 79.5905C278.737 79.589 278.772 79.5858 278.805 79.5843C278.912 79.578 279.018 79.5718 279.124 79.5632C279.156 79.5608 279.189 79.5577 279.221 79.5546C279.328 79.5452 279.436 79.5358 279.542 79.5249C279.574 79.5218 279.605 79.5179 279.638 79.514C279.745 79.5022 279.851 79.4897 279.958 79.4757C279.99 79.471 280.023 79.4663 280.055 79.4624C280.16 79.4476 280.265 79.4327 280.369 79.4163C280.404 79.4108 280.438 79.4046 280.473 79.3991C280.574 79.3827 280.675 79.3647 280.776 79.346C280.814 79.339 280.853 79.3312 280.891 79.3241C280.986 79.3062 281.081 79.2866 281.175 79.2671C281.22 79.2577 281.264 79.2476 281.308 79.2382C281.394 79.2194 281.48 79.1991 281.565 79.1788C281.618 79.1663 281.671 79.1538 281.723 79.1405C281.798 79.1218 281.872 79.103 281.946 79.0835C282.009 79.0671 282.072 79.0499 282.136 79.0327C282.194 79.0163 282.252 78.9999 282.31 78.9827C282.388 78.9601 282.466 78.9374 282.544 78.9132C282.578 78.9022 282.613 78.8913 282.648 78.8804C283.257 78.689 283.856 78.4616 284.439 78.1968ZM282.281 76.5694C282.235 76.5851 282.189 76.6015 282.142 76.6163C282.071 76.6397 282.001 76.6624 281.93 76.6851C281.848 76.7108 281.764 76.7358 281.681 76.7601C281.622 76.7772 281.564 76.7944 281.504 76.8108C281.394 76.8413 281.283 76.871 281.172 76.8983C281.131 76.9085 281.09 76.9187 281.048 76.9288C280.94 76.9546 280.831 76.9796 280.721 77.003C280.694 77.0093 280.666 77.0155 280.639 77.021C280.498 77.0507 280.357 77.0772 280.215 77.1022C280.2 77.1046 280.185 77.1069 280.171 77.1093C280.043 77.1312 279.915 77.1515 279.786 77.1694C279.757 77.1733 279.728 77.178 279.699 77.1819C279.562 77.2007 279.425 77.2171 279.286 77.2319C279.281 77.2327 279.276 77.2335 279.271 77.2335C279.126 77.2483 278.982 77.2608 278.837 77.271C278.805 77.2733 278.774 77.2749 278.743 77.2772C278.63 77.2843 278.517 77.2905 278.404 77.2944C278.365 77.296 278.327 77.2976 278.288 77.2991C278.146 77.3038 278.004 77.3062 277.862 77.3062C277.719 77.3062 277.577 77.303 277.435 77.2991C277.396 77.2983 277.358 77.296 277.319 77.2944C277.206 77.2897 277.094 77.2843 276.981 77.2772C276.949 77.2749 276.918 77.2733 276.886 77.271C276.741 77.2608 276.596 77.2483 276.453 77.2335C276.447 77.2327 276.442 77.2319 276.437 77.2319C276.299 77.2179 276.162 77.2007 276.024 77.1819C275.995 77.178 275.966 77.1741 275.937 77.1694C275.808 77.1515 275.68 77.1312 275.552 77.1093C275.538 77.1069 275.523 77.1046 275.509 77.1022C275.367 77.0772 275.225 77.0499 275.084 77.021C275.057 77.0155 275.029 77.0093 275.002 77.003C274.893 76.9796 274.783 76.9546 274.675 76.9288C274.633 76.9187 274.592 76.9093 274.551 76.8983C274.44 76.871 274.329 76.8413 274.219 76.8108C274.16 76.7944 274.101 76.7772 274.042 76.7601C273.959 76.7358 273.877 76.7108 273.793 76.6851C273.723 76.6624 273.651 76.6397 273.581 76.6163C273.535 76.6007 273.488 76.5851 273.442 76.5694C268.14 74.7444 264.321 69.7304 264.321 63.8452C264.321 56.4226 270.396 50.3835 277.862 50.3835C285.329 50.3835 291.404 56.4226 291.404 63.8452C291.403 69.7304 287.584 74.7444 282.281 76.5694Z" fill="#0D354A"/>
<path d="M274.959 71.7476C274.523 71.7476 274.305 71.5304 274.305 71.0966V60.134L271.553 60.8285C271.116 60.9371 270.855 60.7635 270.746 60.3512L270.571 59.7867C270.462 59.3744 270.593 59.0922 271.008 58.8965L274.371 57.5075C274.785 57.3553 275.2 57.2688 275.637 57.2688H276.685C277.122 57.2688 277.34 57.486 277.34 57.9197V71.096C277.34 71.5304 277.121 71.7469 276.685 71.7469H274.959V71.7476Z" fill="#0D354A"/>
<path d="M279.545 59.7867C279.545 57.4424 280.506 56.5093 282.515 56.5093C284.589 56.5093 285.462 57.3995 285.462 59.7653C285.462 62.1096 284.523 63.0434 282.449 63.0434C280.44 63.0428 279.545 62.1311 279.545 59.7867ZM282.492 61.6752C283.279 61.6752 283.65 61.1979 283.65 59.7867C283.65 58.3106 283.3 57.8983 282.514 57.8983C281.728 57.8983 281.357 58.3106 281.357 59.7867C281.357 61.1979 281.728 61.6752 282.492 61.6752Z" fill="#0D354A"/>
<path d="M306.865 71.8437C306.817 71.5397 306.657 71.3957 306.369 71.4437C306.193 71.4597 305.985 71.4757 305.777 71.4757C305.281 71.4757 305.137 71.2517 305.137 70.6277L305.137 62.3557C305.137 62.0357 304.977 61.8757 304.657 61.8757L303.313 61.8757C302.993 61.8757 302.833 62.0357 302.833 62.3557L302.833 70.4997C302.833 71.1877 302.833 71.4917 303.009 72.0517C303.105 72.3237 303.233 72.5477 303.409 72.7077C303.745 73.0117 304.433 73.2837 305.377 73.2837C305.777 73.2837 306.177 73.2197 306.593 73.0917C306.881 72.9957 307.009 72.7877 306.961 72.4517L306.865 71.8437ZM315.193 65.3477C315.193 65.0277 315.033 64.8677 314.713 64.8677L313.433 64.8677C313.113 64.8677 312.953 65.0277 312.953 65.3477L312.953 71.3637C312.553 71.4757 312.073 71.5397 311.545 71.5397C310.601 71.4757 310.041 71.1397 310.041 70.0677L310.041 65.3477C310.041 65.0277 309.881 64.8677 309.561 64.8677L308.281 64.8677C307.961 64.8677 307.801 65.0277 307.801 65.3477L307.801 70.2437C307.801 71.2837 308.105 72.0517 308.729 72.5157C309.353 72.9797 310.153 73.2197 311.113 73.2197C312.313 73.2197 313.529 73.0437 314.745 72.6757C315.049 72.5797 315.193 72.3717 315.193 72.0517L315.193 65.3477ZM320.784 73.5077C321.76 73.5077 322.08 73.7477 322.08 74.2117C322.08 74.9477 321.408 75.3157 320.048 75.3157C318.816 75.3157 318.208 75.0437 318.208 74.4997C318.208 74.0197 318.496 73.6837 319.072 73.5077L320.784 73.5077ZM319.856 66.3557C320.8 66.3557 321.104 66.9157 321.104 67.8757C321.104 68.7077 320.624 69.1557 319.856 69.1557C319.04 69.1557 318.64 68.7237 318.64 67.8757C318.64 66.8677 319.04 66.3557 319.856 66.3557ZM317.92 72.7077C316.8 73.1877 316.24 73.8597 316.24 74.7237C316.24 76.1957 317.552 77.0117 319.84 77.0117C321.136 77.0117 322.16 76.7397 322.928 76.1797C323.696 75.6357 324.08 74.8997 324.08 73.9877C324.08 72.6597 323.056 71.8117 321.328 71.8117L319.024 71.8117C318.928 71.6197 318.88 71.4277 318.88 71.2357C318.88 71.0597 318.912 70.8997 318.992 70.7557C319.216 70.8037 319.504 70.8357 319.856 70.8357C322.016 70.8357 323.152 69.6677 323.152 67.8597C323.152 67.1877 322.96 66.5957 322.56 66.0677C323.328 65.9557 323.744 65.9077 323.792 65.8917C324.128 65.8277 324.272 65.6357 324.224 65.3157L324.192 65.0277C324.144 64.7077 323.984 64.5637 323.696 64.6117C322.944 64.7237 322.144 64.7877 321.328 64.7877C321.184 64.7877 320.928 64.7717 320.56 64.7557C320.208 64.7237 319.952 64.7077 319.792 64.7077C317.632 64.7077 316.528 65.9877 316.528 67.8597C316.528 68.9477 316.976 69.7797 317.872 70.3397C317.568 70.7077 317.408 71.1237 317.408 71.5717C317.408 72.0517 317.584 72.4357 317.92 72.7077ZM331.594 67.8117C331.594 65.7477 330.554 64.7077 328.474 64.7077C327.674 64.7077 326.762 64.8517 325.754 65.1557C325.45 65.2517 325.338 65.4597 325.418 65.7637L325.578 66.3717C325.658 66.6757 325.866 66.7877 326.202 66.7077C326.746 66.5957 327.258 66.5317 327.738 66.5317C328.826 66.5317 329.354 66.8197 329.354 67.8437L329.354 68.5797C328.762 68.4357 328.202 68.3717 327.642 68.3717C326.73 68.3717 325.978 68.5797 325.386 68.9797C324.794 69.3797 324.49 70.0037 324.49 70.8837C324.49 72.0997 325.322 72.8677 326.346 73.1237C326.858 73.2677 327.45 73.3317 328.122 73.3317C329.13 73.3317 330.138 73.1717 331.114 72.8677C331.434 72.7717 331.594 72.5477 331.594 72.1957L331.594 67.8117ZM326.618 70.8197C326.618 69.9877 327.13 69.5717 328.154 69.5717C328.522 69.5717 328.922 69.6357 329.354 69.7637L329.354 71.7477C329.034 71.8917 328.634 71.9557 328.17 71.9557C327.13 71.9557 326.618 71.5717 326.618 70.8197ZM335.479 66.9477C335.847 66.6917 336.471 66.5637 337.367 66.5637C337.511 66.5637 337.655 66.5637 337.799 66.5797C338.055 66.6117 338.199 66.4677 338.247 66.1317L338.375 65.2677C338.439 64.9477 338.327 64.7717 338.039 64.7397L337.687 64.7237C336.775 64.7237 335.975 65.0277 335.271 65.6357L335.239 65.3477C335.207 65.0277 335.031 64.8677 334.711 64.8677L333.719 64.8677C333.399 64.8677 333.239 65.0277 333.239 65.3477L333.239 72.5957C333.239 72.9157 333.399 73.0757 333.719 73.0757L334.999 73.0757C335.319 73.0757 335.479 72.9157 335.479 72.5957L335.479 66.9477ZM349.572 71.6997C349.572 71.3797 349.412 71.2197 349.092 71.2197L344.564 71.2197L344.564 68.4357L348.66 68.4357C348.98 68.4357 349.14 68.2757 349.14 67.9557L349.14 67.1237C349.14 66.8037 348.98 66.6437 348.66 66.6437L344.564 66.6437L344.564 64.2437L348.932 64.2437C349.252 64.2437 349.412 64.0837 349.412 63.7637L349.412 62.8677C349.412 62.5477 349.252 62.3877 348.932 62.3877L342.676 62.3877C342.356 62.3877 342.196 62.5477 342.196 62.8677L342.196 72.5957C342.196 72.9157 342.356 73.0757 342.676 73.0757L349.092 73.0757C349.412 73.0757 349.572 72.9157 349.572 72.5957L349.572 71.6997ZM351.02 72.5957C351.02 72.9157 351.18 73.0757 351.5 73.0757L352.764 73.0757C353.084 73.0757 353.244 72.9157 353.244 72.5957L353.244 66.7077C353.644 66.4677 354.188 66.3557 354.876 66.3557C355.772 66.3557 356.22 66.8197 356.22 67.7477L356.22 72.5957C356.22 72.9157 356.38 73.0757 356.7 73.0757L357.964 73.0757C358.284 73.0757 358.444 72.9157 358.444 72.5957L358.444 67.5557C358.444 66.4037 358.092 65.6037 357.452 65.2197C356.812 64.8357 356.14 64.6917 355.228 64.6917C354.076 64.6917 352.828 64.9477 351.5 65.4437C351.18 65.5717 351.02 65.7957 351.02 66.1157L351.02 72.5957ZM366.386 69.2677C366.706 69.2677 366.898 69.1077 366.962 68.7717C367.01 68.4517 367.042 68.1477 367.042 67.8437C367.042 65.9397 366.002 64.7237 363.65 64.7237C362.354 64.7237 361.378 65.1077 360.738 65.8757C360.098 66.6437 359.778 67.6037 359.778 68.7717C359.778 70.3717 360.162 71.5237 360.914 72.2437C361.682 72.9477 362.706 73.2997 363.986 73.2997C364.69 73.2997 365.474 73.2037 366.322 72.9957C366.642 72.9157 366.786 72.7077 366.754 72.3877L366.674 71.6837C366.642 71.3797 366.466 71.2517 366.162 71.3317C365.538 71.4757 364.898 71.5397 364.274 71.5397C362.866 71.5397 361.97 70.8677 361.97 69.4757L361.97 69.2677L366.386 69.2677ZM362.034 67.9717C362.034 67.4757 362.322 66.3077 363.714 66.3077C364.674 66.3077 365.17 66.9637 365.17 67.9717L362.034 67.9717ZM368.395 72.5957C368.395 72.9157 368.555 73.0757 368.875 73.0757L370.139 73.0757C370.459 73.0757 370.619 72.9157 370.619 72.5957L370.619 66.7557C371.083 66.5157 371.579 66.4037 372.123 66.4037C372.971 66.4037 373.499 66.7557 373.499 67.7957L373.499 72.5957C373.499 72.9157 373.659 73.0757 373.979 73.0757L375.211 73.0757C375.531 73.0757 375.691 72.9157 375.691 72.5957L375.691 67.5557C375.691 67.3637 375.675 67.1077 375.627 66.7877C376.155 66.5317 376.683 66.4037 377.243 66.4037C378.123 66.4037 378.555 66.8677 378.555 67.7957L378.555 72.5957C378.555 72.9157 378.715 73.0757 379.035 73.0757L380.299 73.0757C380.619 73.0757 380.779 72.9157 380.779 72.5957L380.779 67.5557C380.779 65.6517 379.803 64.6917 377.851 64.6917C376.843 64.6917 375.851 64.8997 374.859 65.3317C374.363 64.8997 373.579 64.6917 372.507 64.6917C371.435 64.6917 370.219 64.9637 368.827 65.5077C368.539 65.6197 368.395 65.8437 368.395 66.1797L368.395 72.5957ZM388.035 71.2837C389.379 70.3557 390.371 69.3637 390.995 68.2917C391.635 67.2197 391.955 66.2277 391.955 65.3317C391.955 64.2277 391.619 63.4277 390.947 62.9317C390.291 62.4357 389.443 62.1797 388.435 62.1797C387.411 62.1797 386.531 62.3557 385.779 62.7237C385.507 62.8677 385.411 63.0917 385.491 63.4117L385.683 64.0837C385.763 64.3717 385.955 64.4677 386.243 64.3557C386.867 64.1157 387.443 64.0037 387.955 64.0037C389.155 64.0037 389.763 64.5797 389.763 65.7157C389.763 66.3397 389.555 66.9957 389.107 67.6357C388.659 68.2757 388.323 68.7237 387.619 69.3637C387.283 69.6677 387.011 69.9237 386.803 70.0997C386.595 70.2757 386.323 70.4997 385.955 70.7877C385.587 71.0757 385.363 71.2517 385.283 71.3317C385.075 71.5077 384.979 71.7477 384.979 72.0517L384.979 72.5957C384.979 72.9157 385.139 73.0757 385.459 73.0757L391.859 73.0757C392.179 73.0757 392.339 72.9157 392.339 72.5957L392.339 71.7637C392.339 71.4437 392.179 71.2837 391.859 71.2837L388.035 71.2837ZM397.404 73.2837C400.284 73.2517 401.34 72.0517 401.404 67.7157C401.404 65.6037 401.116 64.1477 400.524 63.3637C399.932 62.5797 398.924 62.1797 397.5 62.1797C396.06 62.1797 395.036 62.5797 394.428 63.3957C393.82 64.2117 393.516 65.6677 393.516 67.7637C393.516 69.8917 393.804 71.3317 394.38 72.1157C394.956 72.8997 395.964 73.2837 397.404 73.2837ZM395.74 67.7317C395.74 66.3237 395.868 65.3637 396.108 64.8517C396.348 64.3397 396.812 64.0837 397.468 64.0837C398.124 64.0837 398.572 64.3397 398.812 64.8517C399.052 65.3477 399.18 66.3077 399.18 67.7317C399.18 69.1557 399.052 70.1157 398.812 70.6277C398.572 71.1397 398.124 71.3957 397.468 71.3957C396.812 71.3957 396.348 71.1397 396.108 70.6277C395.868 70.1157 395.74 69.1557 395.74 67.7317ZM406.814 73.0597C407.134 73.0597 407.294 72.8997 407.294 72.5797L407.294 62.8677C407.294 62.5477 407.134 62.3877 406.814 62.3877L406.046 62.3877C405.726 62.3877 405.422 62.4517 405.118 62.5637L402.654 63.5877C402.35 63.7317 402.254 63.9397 402.334 64.2437L402.462 64.6597C402.542 64.9637 402.734 65.0917 403.054 65.0117L405.07 64.4997L405.07 72.5797C405.07 72.8997 405.23 73.0597 405.55 73.0597L406.814 73.0597ZM412.793 73.2677C414.073 73.2677 415.017 72.9637 415.609 72.3557C416.201 71.7317 416.505 70.9637 416.505 70.0357C416.505 68.8357 415.833 67.9237 414.489 67.3317C415.545 66.7557 416.073 65.9237 416.073 64.8357C416.073 63.1237 414.921 62.1797 412.793 62.1797C410.681 62.1797 409.433 63.1717 409.433 65.0117C409.433 66.0517 409.881 66.8197 410.793 67.3477C409.657 67.9877 408.905 69.0437 408.905 70.0837C408.905 72.2117 410.201 73.2677 412.793 73.2677ZM414.377 69.9717C414.377 70.8037 413.737 71.4117 412.713 71.4117C411.737 71.4117 411.033 70.9157 411.033 70.0357C411.033 69.2357 411.433 68.5957 412.233 68.1317C412.793 68.2437 413.289 68.4517 413.721 68.7717C414.153 69.0917 414.377 69.4917 414.377 69.9717ZM412.793 63.9717C413.497 63.9717 414.057 64.2917 414.057 64.9957C414.057 65.5077 413.577 66.2757 412.873 66.6437L412.809 66.6437C412.041 66.3077 411.449 65.6677 411.449 64.9637C411.449 64.2597 412.073 63.9717 412.793 63.9717Z" fill="white"/>
<path d="M479.724 63.8452C479.724 55.1499 472.608 48.0757 463.862 48.0757C455.117 48.0757 448 55.1499 448 63.8452C448 69.264 450.764 74.053 454.964 76.8929L454.964 86.9218C454.964 87.3132 455.164 87.678 455.495 87.8905C455.826 88.103 456.242 88.1343 456.601 87.9741L463.862 84.7257L471.124 87.9741C471.275 88.0421 471.438 88.0757 471.6 88.0757C471.82 88.0757 472.039 88.0132 472.23 87.8905C472.561 87.678 472.761 87.3132 472.761 86.9218L472.761 76.8929C476.96 74.053 479.724 69.264 479.724 63.8452ZM470.439 78.1968L470.439 85.1366L464.339 82.4077C464.187 82.3397 464.025 82.3062 463.862 82.3062C463.7 82.3062 463.538 82.3397 463.386 82.4077L457.286 85.1366L457.286 78.1968C457.869 78.4608 458.468 78.6882 459.077 78.8804C459.112 78.8913 459.147 78.9022 459.181 78.9132C459.259 78.9374 459.338 78.9601 459.415 78.9827C459.473 78.9999 459.531 79.0163 459.589 79.0327C459.652 79.0499 459.716 79.0671 459.779 79.0835C459.853 79.103 459.927 79.1226 460.002 79.1405C460.054 79.1538 460.107 79.1663 460.16 79.1788C460.245 79.1991 460.331 79.2187 460.416 79.2382C460.461 79.2483 460.506 79.2577 460.55 79.2671C460.644 79.2874 460.739 79.3062 460.834 79.3241C460.872 79.3319 460.911 79.339 460.949 79.346C461.05 79.3647 461.15 79.3819 461.252 79.3991C461.286 79.4046 461.321 79.4108 461.356 79.4163C461.46 79.4327 461.565 79.4483 461.67 79.4624C461.702 79.4671 461.735 79.4718 461.767 79.4757C461.873 79.4897 461.98 79.5022 462.087 79.514C462.119 79.5179 462.151 79.5218 462.183 79.5249C462.29 79.5358 462.397 79.546 462.504 79.5546C462.536 79.5577 462.569 79.5608 462.601 79.5632C462.706 79.5718 462.813 79.578 462.919 79.5843C462.953 79.5866 462.988 79.589 463.022 79.5905C463.129 79.596 463.237 79.5999 463.345 79.6038C463.377 79.6046 463.41 79.6069 463.442 79.6077C463.582 79.6116 463.722 79.6132 463.862 79.6132C464.003 79.6132 464.143 79.6108 464.283 79.6077C464.315 79.6069 464.348 79.6054 464.38 79.6038C464.488 79.6007 464.596 79.5968 464.703 79.5905C464.737 79.589 464.772 79.5858 464.805 79.5843C464.912 79.578 465.018 79.5718 465.124 79.5632C465.156 79.5608 465.189 79.5577 465.221 79.5546C465.328 79.5452 465.436 79.5358 465.542 79.5249C465.574 79.5218 465.605 79.5179 465.638 79.514C465.745 79.5022 465.851 79.4897 465.958 79.4757C465.99 79.471 466.023 79.4663 466.055 79.4624C466.16 79.4476 466.265 79.4327 466.369 79.4163C466.404 79.4108 466.438 79.4046 466.473 79.3991C466.574 79.3827 466.675 79.3647 466.776 79.346C466.814 79.339 466.853 79.3312 466.891 79.3241C466.986 79.3062 467.081 79.2866 467.175 79.2671C467.22 79.2577 467.264 79.2476 467.308 79.2382C467.394 79.2194 467.48 79.1991 467.565 79.1788C467.618 79.1663 467.671 79.1538 467.723 79.1405C467.798 79.1218 467.872 79.103 467.946 79.0835C468.009 79.0671 468.072 79.0499 468.136 79.0327C468.194 79.0163 468.252 78.9999 468.31 78.9827C468.388 78.9601 468.466 78.9374 468.544 78.9132C468.578 78.9022 468.613 78.8913 468.648 78.8804C469.257 78.689 469.856 78.4616 470.439 78.1968ZM468.281 76.5694C468.235 76.5851 468.189 76.6015 468.142 76.6163C468.071 76.6397 468.001 76.6624 467.93 76.6851C467.848 76.7108 467.764 76.7358 467.681 76.7601C467.622 76.7772 467.564 76.7944 467.504 76.8108C467.394 76.8413 467.283 76.871 467.172 76.8983C467.131 76.9085 467.09 76.9187 467.048 76.9288C466.94 76.9546 466.831 76.9796 466.721 77.003C466.694 77.0093 466.666 77.0155 466.639 77.021C466.498 77.0507 466.357 77.0772 466.215 77.1022C466.2 77.1046 466.185 77.1069 466.171 77.1093C466.043 77.1312 465.915 77.1515 465.786 77.1694C465.757 77.1733 465.728 77.178 465.699 77.1819C465.562 77.2007 465.425 77.2171 465.286 77.2319C465.281 77.2327 465.276 77.2335 465.271 77.2335C465.126 77.2483 464.982 77.2608 464.837 77.271C464.805 77.2733 464.774 77.2749 464.743 77.2772C464.63 77.2843 464.517 77.2905 464.404 77.2944C464.365 77.296 464.327 77.2976 464.288 77.2991C464.146 77.3038 464.004 77.3062 463.862 77.3062C463.719 77.3062 463.577 77.303 463.435 77.2991C463.396 77.2983 463.358 77.296 463.319 77.2944C463.206 77.2897 463.094 77.2843 462.981 77.2772C462.949 77.2749 462.918 77.2733 462.886 77.271C462.741 77.2608 462.596 77.2483 462.453 77.2335C462.447 77.2327 462.442 77.2319 462.437 77.2319C462.299 77.2179 462.162 77.2007 462.024 77.1819C461.995 77.178 461.966 77.1741 461.937 77.1694C461.808 77.1515 461.68 77.1312 461.552 77.1093C461.538 77.1069 461.523 77.1046 461.509 77.1022C461.367 77.0772 461.225 77.0499 461.084 77.021C461.057 77.0155 461.029 77.0093 461.002 77.003C460.893 76.9796 460.783 76.9546 460.675 76.9288C460.633 76.9187 460.592 76.9093 460.551 76.8983C460.44 76.871 460.329 76.8413 460.219 76.8108C460.16 76.7944 460.101 76.7772 460.042 76.7601C459.959 76.7358 459.877 76.7108 459.793 76.6851C459.723 76.6624 459.651 76.6397 459.581 76.6163C459.535 76.6007 459.488 76.5851 459.442 76.5694C454.14 74.7444 450.321 69.7304 450.321 63.8452C450.321 56.4226 456.396 50.3835 463.862 50.3835C471.329 50.3835 477.404 56.4226 477.404 63.8452C477.403 69.7304 473.584 74.7444 468.281 76.5694Z" fill="#0D354A"/>
<path d="M465.348 69.609C465.783 69.609 466 69.8294 466 70.2696L466 71.4151C466 71.856 465.782 72.0757 465.348 72.0757L456.652 72.0757C456.217 72.0757 456 71.8553 456 71.4151L456 70.6662C456 70.2478 456.13 69.9172 456.413 69.675C456.522 69.5648 456.826 69.3226 457.326 68.926C457.826 68.5294 458.195 68.2213 458.478 67.9791C458.761 67.7369 459.13 67.3845 459.586 66.9662C460.543 66.0852 461 65.4682 461.608 64.5872C462.217 63.7063 462.499 62.8029 462.499 61.9437C462.499 60.3798 461.674 59.5866 460.043 59.5866C459.347 59.5866 458.565 59.741 457.717 60.0709C457.325 60.2253 457.065 60.0927 456.956 59.6968L456.695 58.7716C456.586 58.3308 456.716 58.0226 457.086 57.8247C458.108 57.3179 459.304 57.0757 460.695 57.0757C462.064 57.0757 463.217 57.4281 464.108 58.1111C465.021 58.7941 465.478 59.8954 465.478 61.4151C465.478 62.6485 465.043 64.0145 464.173 65.49C463.325 66.9662 461.978 68.3315 460.152 69.609L465.348 69.609Z" fill="#0D354A"/>
<path d="M466.545 59.7867C466.545 57.4424 467.506 56.5093 469.515 56.5093C471.589 56.5093 472.462 57.3995 472.462 59.7653C472.462 62.1096 471.523 63.0434 469.449 63.0434C467.44 63.0428 466.545 62.1311 466.545 59.7867ZM469.492 61.6752C470.279 61.6752 470.65 61.1979 470.65 59.7867C470.65 58.3106 470.3 57.8983 469.514 57.8983C468.728 57.8983 468.357 58.3106 468.357 59.7867C468.357 61.1979 468.728 61.6752 469.492 61.6752Z" fill="#0D354A"/>
<path d="M492.865 71.8437C492.817 71.5397 492.657 71.3957 492.369 71.4437C492.193 71.4597 491.985 71.4757 491.777 71.4757C491.281 71.4757 491.137 71.2517 491.137 70.6277L491.137 62.3557C491.137 62.0357 490.977 61.8757 490.657 61.8757L489.313 61.8757C488.993 61.8757 488.833 62.0357 488.833 62.3557L488.833 70.4997C488.833 71.1877 488.833 71.4917 489.009 72.0517C489.105 72.3237 489.233 72.5477 489.409 72.7077C489.745 73.0117 490.433 73.2837 491.377 73.2837C491.777 73.2837 492.177 73.2197 492.593 73.0917C492.881 72.9957 493.009 72.7877 492.961 72.4517L492.865 71.8437ZM501.193 65.3477C501.193 65.0277 501.033 64.8677 500.713 64.8677L499.433 64.8677C499.113 64.8677 498.953 65.0277 498.953 65.3477L498.953 71.3637C498.553 71.4757 498.073 71.5397 497.545 71.5397C496.601 71.4757 496.041 71.1397 496.041 70.0677L496.041 65.3477C496.041 65.0277 495.881 64.8677 495.561 64.8677L494.281 64.8677C493.961 64.8677 493.801 65.0277 493.801 65.3477L493.801 70.2437C493.801 71.2837 494.105 72.0517 494.729 72.5157C495.353 72.9797 496.153 73.2197 497.113 73.2197C498.313 73.2197 499.529 73.0437 500.745 72.6757C501.049 72.5797 501.193 72.3717 501.193 72.0517L501.193 65.3477ZM506.784 73.5077C507.76 73.5077 508.08 73.7477 508.08 74.2117C508.08 74.9477 507.408 75.3157 506.048 75.3157C504.816 75.3157 504.208 75.0437 504.208 74.4997C504.208 74.0197 504.496 73.6837 505.072 73.5077L506.784 73.5077ZM505.856 66.3557C506.8 66.3557 507.104 66.9157 507.104 67.8757C507.104 68.7077 506.624 69.1557 505.856 69.1557C505.04 69.1557 504.64 68.7237 504.64 67.8757C504.64 66.8677 505.04 66.3557 505.856 66.3557ZM503.92 72.7077C502.8 73.1877 502.24 73.8597 502.24 74.7237C502.24 76.1957 503.552 77.0117 505.84 77.0117C507.136 77.0117 508.16 76.7397 508.928 76.1797C509.696 75.6357 510.08 74.8997 510.08 73.9877C510.08 72.6597 509.056 71.8117 507.328 71.8117L505.024 71.8117C504.928 71.6197 504.88 71.4277 504.88 71.2357C504.88 71.0597 504.912 70.8997 504.992 70.7557C505.216 70.8037 505.504 70.8357 505.856 70.8357C508.016 70.8357 509.152 69.6677 509.152 67.8597C509.152 67.1877 508.96 66.5957 508.56 66.0677C509.328 65.9557 509.744 65.9077 509.792 65.8917C510.128 65.8277 510.272 65.6357 510.224 65.3157L510.192 65.0277C510.144 64.7077 509.984 64.5637 509.696 64.6117C508.944 64.7237 508.144 64.7877 507.328 64.7877C507.184 64.7877 506.928 64.7717 506.56 64.7557C506.208 64.7237 505.952 64.7077 505.792 64.7077C503.632 64.7077 502.528 65.9877 502.528 67.8597C502.528 68.9477 502.976 69.7797 503.872 70.3397C503.568 70.7077 503.408 71.1237 503.408 71.5717C503.408 72.0517 503.584 72.4357 503.92 72.7077ZM517.594 67.8117C517.594 65.7477 516.554 64.7077 514.474 64.7077C513.674 64.7077 512.762 64.8517 511.754 65.1557C511.45 65.2517 511.338 65.4597 511.418 65.7637L511.578 66.3717C511.658 66.6757 511.866 66.7877 512.202 66.7077C512.746 66.5957 513.258 66.5317 513.738 66.5317C514.826 66.5317 515.354 66.8197 515.354 67.8437L515.354 68.5797C514.762 68.4357 514.202 68.3717 513.642 68.3717C512.73 68.3717 511.978 68.5797 511.386 68.9797C510.794 69.3797 510.49 70.0037 510.49 70.8837C510.49 72.0997 511.322 72.8677 512.346 73.1237C512.858 73.2677 513.45 73.3317 514.122 73.3317C515.13 73.3317 516.138 73.1717 517.114 72.8677C517.434 72.7717 517.594 72.5477 517.594 72.1957L517.594 67.8117ZM512.618 70.8197C512.618 69.9877 513.13 69.5717 514.154 69.5717C514.522 69.5717 514.922 69.6357 515.354 69.7637L515.354 71.7477C515.034 71.8917 514.634 71.9557 514.17 71.9557C513.13 71.9557 512.618 71.5717 512.618 70.8197ZM521.479 66.9477C521.847 66.6917 522.471 66.5637 523.367 66.5637C523.511 66.5637 523.655 66.5637 523.799 66.5797C524.055 66.6117 524.199 66.4677 524.247 66.1317L524.375 65.2677C524.439 64.9477 524.327 64.7717 524.039 64.7397L523.687 64.7237C522.775 64.7237 521.975 65.0277 521.271 65.6357L521.239 65.3477C521.207 65.0277 521.031 64.8677 520.711 64.8677L519.719 64.8677C519.399 64.8677 519.239 65.0277 519.239 65.3477L519.239 72.5957C519.239 72.9157 519.399 73.0757 519.719 73.0757L520.999 73.0757C521.319 73.0757 521.479 72.9157 521.479 72.5957L521.479 66.9477ZM535.572 71.6997C535.572 71.3797 535.412 71.2197 535.092 71.2197L530.564 71.2197L530.564 68.4357L534.66 68.4357C534.98 68.4357 535.14 68.2757 535.14 67.9557L535.14 67.1237C535.14 66.8037 534.98 66.6437 534.66 66.6437L530.564 66.6437L530.564 64.2437L534.932 64.2437C535.252 64.2437 535.412 64.0837 535.412 63.7637L535.412 62.8677C535.412 62.5477 535.252 62.3877 534.932 62.3877L528.676 62.3877C528.356 62.3877 528.196 62.5477 528.196 62.8677L528.196 72.5957C528.196 72.9157 528.356 73.0757 528.676 73.0757L535.092 73.0757C535.412 73.0757 535.572 72.9157 535.572 72.5957L535.572 71.6997ZM537.02 72.5957C537.02 72.9157 537.18 73.0757 537.5 73.0757L538.764 73.0757C539.084 73.0757 539.244 72.9157 539.244 72.5957L539.244 66.7077C539.644 66.4677 540.188 66.3557 540.876 66.3557C541.772 66.3557 542.22 66.8197 542.22 67.7477L542.22 72.5957C542.22 72.9157 542.38 73.0757 542.7 73.0757L543.964 73.0757C544.284 73.0757 544.444 72.9157 544.444 72.5957L544.444 67.5557C544.444 66.4037 544.092 65.6037 543.452 65.2197C542.812 64.8357 542.14 64.6917 541.228 64.6917C540.076 64.6917 538.828 64.9477 537.5 65.4437C537.18 65.5717 537.02 65.7957 537.02 66.1157L537.02 72.5957ZM552.386 69.2677C552.706 69.2677 552.898 69.1077 552.962 68.7717C553.01 68.4517 553.042 68.1477 553.042 67.8437C553.042 65.9397 552.002 64.7237 549.65 64.7237C548.354 64.7237 547.378 65.1077 546.738 65.8757C546.098 66.6437 545.778 67.6037 545.778 68.7717C545.778 70.3717 546.162 71.5237 546.914 72.2437C547.682 72.9477 548.706 73.2997 549.986 73.2997C550.69 73.2997 551.474 73.2037 552.322 72.9957C552.642 72.9157 552.786 72.7077 552.754 72.3877L552.674 71.6837C552.642 71.3797 552.466 71.2517 552.162 71.3317C551.538 71.4757 550.898 71.5397 550.274 71.5397C548.866 71.5397 547.97 70.8677 547.97 69.4757L547.97 69.2677L552.386 69.2677ZM548.034 67.9717C548.034 67.4757 548.322 66.3077 549.714 66.3077C550.674 66.3077 551.17 66.9637 551.17 67.9717L548.034 67.9717ZM554.395 72.5957C554.395 72.9157 554.555 73.0757 554.875 73.0757L556.139 73.0757C556.459 73.0757 556.619 72.9157 556.619 72.5957L556.619 66.7557C557.083 66.5157 557.579 66.4037 558.123 66.4037C558.971 66.4037 559.499 66.7557 559.499 67.7957L559.499 72.5957C559.499 72.9157 559.659 73.0757 559.979 73.0757L561.211 73.0757C561.531 73.0757 561.691 72.9157 561.691 72.5957L561.691 67.5557C561.691 67.3637 561.675 67.1077 561.627 66.7877C562.155 66.5317 562.683 66.4037 563.243 66.4037C564.123 66.4037 564.555 66.8677 564.555 67.7957L564.555 72.5957C564.555 72.9157 564.715 73.0757 565.035 73.0757L566.299 73.0757C566.619 73.0757 566.779 72.9157 566.779 72.5957L566.779 67.5557C566.779 65.6517 565.803 64.6917 563.851 64.6917C562.843 64.6917 561.851 64.8997 560.859 65.3317C560.363 64.8997 559.579 64.6917 558.507 64.6917C557.435 64.6917 556.219 64.9637 554.827 65.5077C554.539 65.6197 554.395 65.8437 554.395 66.1797L554.395 72.5957ZM574.035 71.2837C575.379 70.3557 576.371 69.3637 576.995 68.2917C577.635 67.2197 577.955 66.2277 577.955 65.3317C577.955 64.2277 577.619 63.4277 576.947 62.9317C576.291 62.4357 575.443 62.1797 574.435 62.1797C573.411 62.1797 572.531 62.3557 571.779 62.7237C571.507 62.8677 571.411 63.0917 571.491 63.4117L571.683 64.0837C571.763 64.3717 571.955 64.4677 572.243 64.3557C572.867 64.1157 573.443 64.0037 573.955 64.0037C575.155 64.0037 575.763 64.5797 575.763 65.7157C575.763 66.3397 575.555 66.9957 575.107 67.6357C574.659 68.2757 574.323 68.7237 573.619 69.3637C573.283 69.6677 573.011 69.9237 572.803 70.0997C572.595 70.2757 572.323 70.4997 571.955 70.7877C571.587 71.0757 571.363 71.2517 571.283 71.3317C571.075 71.5077 570.979 71.7477 570.979 72.0517L570.979 72.5957C570.979 72.9157 571.139 73.0757 571.459 73.0757L577.859 73.0757C578.179 73.0757 578.339 72.9157 578.339 72.5957L578.339 71.7637C578.339 71.4437 578.179 71.2837 577.859 71.2837L574.035 71.2837ZM583.404 73.2837C586.284 73.2517 587.34 72.0517 587.404 67.7157C587.404 65.6037 587.116 64.1477 586.524 63.3637C585.932 62.5797 584.924 62.1797 583.5 62.1797C582.06 62.1797 581.036 62.5797 580.428 63.3957C579.82 64.2117 579.516 65.6677 579.516 67.7637C579.516 69.8917 579.804 71.3317 580.38 72.1157C580.956 72.8997 581.964 73.2837 583.404 73.2837ZM581.74 67.7317C581.74 66.3237 581.868 65.3637 582.108 64.8517C582.348 64.3397 582.812 64.0837 583.468 64.0837C584.124 64.0837 584.572 64.3397 584.812 64.8517C585.052 65.3477 585.18 66.3077 585.18 67.7317C585.18 69.1557 585.052 70.1157 584.812 70.6277C584.572 71.1397 584.124 71.3957 583.468 71.3957C582.812 71.3957 582.348 71.1397 582.108 70.6277C581.868 70.1157 581.74 69.1557 581.74 67.7317ZM592.814 73.0597C593.134 73.0597 593.294 72.8997 593.294 72.5797L593.294 62.8677C593.294 62.5477 593.134 62.3877 592.814 62.3877L592.046 62.3877C591.726 62.3877 591.422 62.4517 591.118 62.5637L588.654 63.5877C588.35 63.7317 588.254 63.9397 588.334 64.2437L588.462 64.6597C588.542 64.9637 588.734 65.0917 589.054 65.0117L591.07 64.4997L591.07 72.5797C591.07 72.8997 591.23 73.0597 591.55 73.0597L592.814 73.0597ZM598.505 62.1957C597.321 62.1957 596.409 62.5637 595.785 63.3157C595.161 64.0677 594.84 64.9957 594.84 66.0997C594.84 68.4197 595.977 69.5877 597.689 69.5877C598.505 69.5877 599.161 69.4437 599.673 69.1397C599.353 70.7877 598.601 71.3157 597.433 71.3157C596.969 71.3157 596.569 71.2837 596.201 71.2197C595.929 71.1717 595.737 71.2997 595.641 71.6037L595.449 72.3717C595.353 72.6917 595.465 72.8997 595.769 72.9957C596.345 73.1717 596.905 73.2677 597.449 73.2677C600.329 73.2677 602.153 71.2517 602.153 66.9157C602.153 63.7637 600.937 62.1957 598.505 62.1957ZM599.817 67.4597C599.353 67.6357 598.937 67.7317 598.536 67.7317C597.625 67.7317 597.033 67.2037 597.033 66.0997C597.033 64.8037 597.545 64.0517 598.457 64.0517C598.937 64.0517 599.289 64.3077 599.529 64.8037C599.769 65.2997 599.865 66.1797 599.817 67.4597Z" fill="white"/>
</g>
<defs>
<clipPath id="clip0">
<rect width="535" height="40" fill="white" transform="translate(68 48.0757)"/>
</clipPath>
</defs>
</svg>
