<svg width="148" height="166" viewBox="0 0 148 166" fill="none" xmlns="http://www.w3.org/2000/svg">
<path fill-rule="evenodd" clip-rule="evenodd" d="M45.3902 50.6327L103.671 89.9229C107.034 92.1894 106.729 97.0511 103.123 98.6739L40.618 126.806C37.0123 128.429 32.8098 125.596 33.0534 121.707L37.2774 54.2841C37.5211 50.3948 42.0282 48.3662 45.3902 50.6327ZM105.981 86.6156C112.033 90.6953 111.485 99.4463 104.994 102.367L42.489 130.5C35.9988 133.421 28.4342 128.321 28.8728 121.32L33.0968 53.8979C33.5354 46.8971 41.6482 43.2457 47.6998 47.3254L105.981 86.6156Z" fill="white"/>
<path fill-rule="evenodd" clip-rule="evenodd" d="M91.4543 27.7538L120.016 68.0997C122.338 71.3795 120.274 75.7213 116.3 75.9148L67.4238 78.2957C63.4504 78.4893 60.548 74.3895 62.1995 70.9161L82.5143 28.1893C84.1658 24.7159 89.1324 24.4739 91.4543 27.7538ZM123.391 65.8995C127.571 71.8032 123.855 79.6184 116.703 79.9668L67.826 82.3477C60.674 82.6961 55.4497 75.3164 58.4224 69.0643L78.7372 26.3375C81.7098 20.0854 90.6498 19.6499 94.8292 25.5536L123.391 65.8995Z" fill="#C2E085"/>
</svg>
