<svg width="84" height="82" viewBox="0 0 84 82" fill="none" xmlns="http://www.w3.org/2000/svg">
<path fill-rule="evenodd" clip-rule="evenodd" d="M25.453 65.865L32.9884 17.0167C33.4231 14.1988 36.7452 12.9082 38.9682 14.6936L77.5044 45.6436C79.7274 47.429 79.184 50.9513 76.5263 51.9838L30.4548 69.8821C27.7971 70.9146 25.0183 68.6829 25.453 65.865ZM30.06 16.565C30.8424 11.4928 36.8222 9.1697 40.8236 12.3834L79.3598 43.3334C83.3612 46.5471 82.3832 52.8873 77.5993 54.7457L31.5278 72.644C26.7439 74.5025 21.7422 70.4854 22.5246 65.4133L30.06 16.565Z" fill="#C2E085"/>
<path fill-rule="evenodd" clip-rule="evenodd" d="M3.43866 73.3316L20.8207 42.7544C22.2337 40.2687 25.7663 40.2687 27.1793 42.7544L44.5613 73.3316C45.9744 75.8173 44.2081 78.9244 41.382 78.9244H6.618C3.79192 78.9244 2.02562 75.8173 3.43866 73.3316ZM18.2772 41.263C20.8207 36.7887 27.1793 36.7887 29.7228 41.263L47.1048 71.8401C49.6483 76.3144 46.4689 81.9073 41.382 81.9073H6.618C1.53105 81.9073 -1.64829 76.3144 0.895184 71.8401L18.2772 41.263Z" fill="#44AADF"/>
</svg>
