<svg width="159" height="136" viewBox="0 0 159 136" fill="none" xmlns="http://www.w3.org/2000/svg">
<path d="M93.7137 34.9899C95.0595 30.5715 100.684 29.2668 103.837 32.6415L125.58 55.909C128.734 59.2837 127.052 64.8067 122.552 65.8504L91.5306 73.0468C87.0312 74.0906 83.0893 69.8722 84.435 65.4538L93.7137 34.9899Z" fill="#EBF5D6"/>
<path d="M46.0092 52.9598C47.9399 49.5591 53.2275 50.8027 54.81 55.0297L68.6884 92.1011C70.0633 95.7735 67.5338 99.0353 63.9625 98.1954L33.1514 90.9487C29.5801 90.1087 27.399 85.739 29.0764 82.7845L46.0092 52.9598Z" stroke="#F2F9FD" stroke-width="4" stroke-linecap="round" stroke-linejoin="round"/>
<path fill-rule="evenodd" clip-rule="evenodd" d="M143.281 89.5169L131.148 82.4755C130.784 82.264 130.327 82.5264 130.326 82.9478L130.294 96.9755C130.293 97.3969 130.749 97.6614 131.114 97.4515L143.278 90.4651C143.644 90.2553 143.645 89.7285 143.281 89.5169ZM132.247 80.5816C130.425 79.5239 128.141 80.8357 128.136 82.9428L128.104 96.9705C128.1 99.0777 130.378 100.4 132.205 99.3504L144.369 92.3641C146.196 91.3146 146.202 88.6807 144.38 87.623L132.247 80.5816Z" fill="#44AADF"/>
</svg>
