<svg width="186" height="180" viewBox="0 0 186 180" fill="none" xmlns="http://www.w3.org/2000/svg">
<path d="M133.454 99.9963C136.918 93.9963 145.578 93.9963 149.042 99.9963L168.746 134.124C172.21 140.124 167.88 147.624 160.952 147.624H121.544C114.616 147.624 110.286 140.124 113.75 134.124L133.454 99.9963Z" stroke="#C2E085" stroke-width="4" stroke-linecap="round" stroke-linejoin="round"/>
<path d="M100.207 52.3132C103.689 50.5319 107.424 54.4754 106.425 58.8769L90.4573 129.207C89.5891 133.031 85.6838 134.368 83.1608 131.704L43.5019 89.8379C40.9789 87.1744 41.5564 82.3249 44.5809 80.7773L100.207 52.3132Z" stroke="#F2F9FD" stroke-width="4" stroke-linecap="round" stroke-linejoin="round"/>
<path fill-rule="evenodd" clip-rule="evenodd" d="M53.7109 140.471L44.7256 151.243C44.4557 151.566 44.6373 152.061 45.0525 152.133L58.8742 154.528C59.2895 154.6 59.6269 154.196 59.4816 153.8L54.6452 140.632C54.4999 140.237 53.9808 140.147 53.7109 140.471ZM43.044 149.84C41.6943 151.458 42.6024 153.931 44.6786 154.291L58.5003 156.686C60.5765 157.046 62.2637 155.023 61.5372 153.045L56.7007 139.877C55.9742 137.9 53.379 137.45 52.0293 139.068L43.044 149.84Z" fill="#44AADF"/>
</svg>
