<svg width="17" height="23" viewBox="0 0 17 23" fill="none" xmlns="http://www.w3.org/2000/svg">
<path fill-rule="evenodd" clip-rule="evenodd" d="M9.6977 21.6283C12.0585 18.001 16.2162 11.1639 16.2162 8C16.2162 3.58172 12.5861 0 8.10811 0C3.63012 0 0 3.58172 0 8C0 11.1639 4.15767 18.001 6.51851 21.6283C7.27584 22.7919 8.94038 22.7919 9.6977 21.6283ZM8.10798 10C9.60064 10 10.8107 8.88071 10.8107 7.5C10.8107 6.11929 9.60064 5 8.10798 5C6.61531 5 5.40527 6.11929 5.40527 7.5C5.40527 8.88071 6.61531 10 8.10798 10Z" fill="#44AADF"/>
</svg>
