<svg width="191" height="84" viewBox="0 0 191 84" fill="none" xmlns="http://www.w3.org/2000/svg">
<path d="M16.4064 16.4154C16.2135 18.3521 15.4338 19.8753 14.0632 20.9849C12.6967 22.0946 11.1619 22.6514 9.45479 22.6514C7.75178 22.6514 6.32371 22.0946 5.1829 20.9849C4.03799 19.8753 3.56607 18.3521 3.75894 16.4154C3.95591 14.4746 4.7315 12.9514 6.10212 11.8418C7.46863 10.7322 9.0075 10.1753 10.7105 10.1753C12.4135 10.1753 13.8375 10.7322 14.9824 11.8418C16.1273 12.9514 16.5992 14.4746 16.4064 16.4154ZM10.5874 64.4774H0L3.74252 27.1882H14.3299L10.5874 64.4774Z" fill="white"/>
<path d="M19.0325 28.4613C20.8832 27.9454 23.2551 27.4581 26.14 27.0118C29.029 26.5614 32.0328 26.3403 35.1598 26.3403C38.336 26.3403 40.9295 26.7539 42.9567 27.581C44.9798 28.4081 46.5351 29.5791 47.6144 31.09C48.6895 32.6009 49.3872 34.3984 49.699 36.4785C50.0109 38.5585 50.0355 40.876 49.7852 43.4269L47.6677 64.4812H37.0844L39.0706 44.7045C39.4071 41.3019 39.2019 38.8902 38.4468 37.4735C37.6877 36.0567 36.079 35.3484 33.6127 35.3484C32.8536 35.3484 32.0452 35.3852 31.1875 35.4548C30.3298 35.5285 29.5625 35.6104 28.8895 35.7046L25.9964 64.4853H15.4131L19.0325 28.4613Z" fill="white"/>
<path d="M63.6308 56.8902C65.5718 56.8902 66.963 56.7019 67.8042 56.3252C68.6496 55.9444 69.1297 55.2156 69.2364 54.1264C69.3185 53.2788 68.8753 52.5336 67.8945 51.899C66.9178 51.2561 65.4036 50.5396 63.3518 49.7329C61.7554 49.1188 60.3151 48.48 59.0306 47.8208C57.7503 47.1616 56.6792 46.3672 55.8257 45.4459C54.968 44.5246 54.3484 43.4273 53.9544 42.1498C53.5605 40.8764 53.4538 39.3368 53.6343 37.5434C53.9872 34.0467 55.5671 31.2828 58.3781 29.2519C61.185 27.221 64.8619 26.2056 69.4087 26.2056C71.6822 26.2056 73.8407 26.4062 75.8843 26.8075C77.9279 27.2128 79.5447 27.6469 80.7266 28.1177L78.0551 36.3396C76.8651 35.9138 75.5683 35.533 74.1525 35.2054C72.7409 34.8738 71.1364 34.7059 69.339 34.7059C66.0232 34.7059 64.271 35.6272 64.0904 37.4738C64.0494 37.8996 64.0822 38.2763 64.1889 38.608C64.2956 38.9397 64.5459 39.259 64.944 39.562C65.3379 39.8732 65.8837 40.2049 66.5854 40.5611C67.283 40.9173 68.1776 41.3104 69.2692 41.7403C71.5057 42.6002 73.34 43.4437 74.7681 44.279C76.2003 45.1102 77.3041 46.0069 78.0838 46.9773C78.8635 47.9477 79.3683 49.0164 79.6063 50.1956C79.8484 51.3749 79.8853 52.7424 79.7294 54.2984C79.3601 57.9753 77.694 60.7555 74.7353 62.6431C71.7765 64.5307 67.7632 65.4724 62.6911 65.4724C59.3753 65.4724 56.6464 65.1899 54.5002 64.6208C52.354 64.0516 50.8726 63.5808 50.0601 63.2041L52.6946 54.6259C54.4222 55.3343 56.2114 55.8871 58.0704 56.2924C59.9334 56.6896 61.7842 56.8902 63.6308 56.8902Z" fill="white"/>
<path d="M118.095 45.8349C117.803 48.7133 117.184 51.3379 116.24 53.7005C115.292 56.0672 114.049 58.0981 112.502 59.7973C110.954 61.4966 109.116 62.8191 106.986 63.7691C104.856 64.7149 102.46 65.1858 99.809 65.1858C98.344 65.1858 96.9857 65.0425 95.734 64.7599C94.4865 64.4774 93.2924 64.0802 92.1639 63.552L91.1872 73.293H80.5957L85.0974 28.4657C86.0741 28.1873 87.1862 27.9129 88.446 27.6509C89.7017 27.3929 91.019 27.1677 92.3855 26.9794C93.752 26.791 95.1431 26.6354 96.5548 26.5208C97.9582 26.4021 99.3083 26.3447 100.585 26.3447C103.666 26.3447 106.367 26.8033 108.689 27.7246C111.012 28.6459 112.912 29.9439 114.406 31.6226C115.891 33.3014 116.954 35.3446 117.59 37.7563C118.226 40.1598 118.394 42.854 118.095 45.8349ZM107.269 46.1133C107.594 42.854 107.126 40.2417 105.854 38.2845C104.577 36.3232 102.501 35.3405 99.612 35.3405C98.6682 35.3405 97.7859 35.3773 96.9734 35.4469C96.1567 35.5206 95.4878 35.6025 94.9585 35.6967L93.0421 54.7651C93.6617 55.195 94.4906 55.5472 95.5289 55.8297C96.5671 56.1122 97.6258 56.2555 98.7174 56.2555C103.74 56.2514 106.588 52.8734 107.269 46.1133Z" fill="white"/>
<path d="M135.679 16.4154C135.486 18.3521 134.702 19.8753 133.34 20.9849C131.973 22.0946 130.438 22.6514 128.731 22.6514C127.028 22.6514 125.6 22.0946 124.459 20.9849C123.31 19.8753 122.838 18.3521 123.035 16.4154C123.228 14.4746 124.008 12.9514 125.374 11.8418C126.741 10.7322 128.28 10.1753 129.987 10.1753C131.69 10.1753 133.114 10.7322 134.255 11.8418C135.4 12.9514 135.876 14.4746 135.679 16.4154ZM129.86 64.4774H119.276L123.019 27.1923H133.606L129.86 64.4774Z" fill="white"/>
<path d="M160.017 36.5442C159.094 36.3108 158.003 36.061 156.751 35.799C155.499 35.541 154.133 35.41 152.672 35.41C152.011 35.41 151.207 35.4714 150.271 35.5902C149.34 35.7089 148.626 35.8358 148.137 35.9832L145.277 64.4773H134.694L138.239 29.174C140.201 28.5107 142.499 27.8883 145.142 27.2946C147.78 26.705 150.69 26.4102 153.862 26.4102C154.428 26.4102 155.114 26.4429 155.91 26.5166C156.71 26.5821 157.506 26.6804 158.298 26.7991C159.09 26.922 159.882 27.0612 160.674 27.2291C161.458 27.3929 162.127 27.5935 162.672 27.831L160.017 36.5442Z" fill="white"/>
<path d="M176.116 26.1973C179.243 26.1973 181.812 26.5494 183.827 27.2619C185.842 27.9702 187.401 28.9857 188.525 30.3082C189.65 31.6308 190.376 33.2358 190.708 35.1316C191.037 37.0192 191.086 39.1238 190.852 41.4372L188.644 63.4128C187.093 63.7444 184.951 64.1293 182.206 64.5797C179.464 65.0301 176.169 65.2512 172.336 65.2512C169.919 65.2512 167.749 65.0424 165.828 64.6166C163.908 64.1907 162.283 63.4947 160.961 62.5283C159.636 61.5579 158.675 60.2968 158.072 58.7368C157.469 57.1767 157.288 55.2646 157.514 52.9962C157.732 50.8261 158.359 48.9835 159.385 47.4685C160.415 45.9576 161.704 44.7538 163.267 43.853C164.827 42.9563 166.571 42.3053 168.508 41.904C170.441 41.5027 172.427 41.3021 174.466 41.3021C175.837 41.3021 177.052 41.3594 178.102 41.4782C179.157 41.5969 180.01 41.7525 180.65 41.9409L180.753 40.9459C180.929 39.1525 180.531 37.7071 179.551 36.622C178.57 35.537 176.736 34.9924 174.035 34.9924C172.234 34.9924 170.449 35.1275 168.668 35.3855C166.887 35.6434 165.336 36.0119 164.014 36.4828L163.514 27.9784C164.15 27.7901 164.942 27.5894 165.886 27.3724C166.829 27.1636 167.855 26.9711 168.959 26.8033C170.067 26.6395 171.228 26.4962 172.451 26.3774C173.662 26.2546 174.885 26.1973 176.116 26.1973ZM173.867 57.0989C174.905 57.0989 175.903 57.0785 176.855 57.0293C177.803 56.9802 178.57 56.9106 179.149 56.8164L179.953 48.8075C179.538 48.7092 178.911 48.6191 178.065 48.5208C177.22 48.4308 176.444 48.3816 175.734 48.3816C174.741 48.3816 173.801 48.443 172.915 48.5577C172.025 48.6805 171.228 48.9016 170.535 49.2333C169.837 49.5649 169.271 50.0154 168.836 50.5804C168.401 51.1454 168.143 51.8579 168.056 52.7055C167.888 54.3597 168.331 55.5062 169.378 56.1449C170.428 56.7837 171.922 57.0989 173.867 57.0989Z" fill="white"/>
<path d="M26.0132 6.34269L30.9909 12.6975C30.9909 12.6975 52.9782 10.1547 69.2984 21.8079C69.2984 21.8079 83.9566 7.93548 108.431 12.1693L113.544 3.6976C113.544 3.6976 97.7818 -5.19989 69.7827 18.5281C69.7827 18.5281 44.4057 0.0943847 26.0132 6.34269Z" fill="white"/>
<path d="M69.3928 17.4266C69.3928 17.4266 55.3296 -1.01121 30.2974 0.0451858L26.9775 3.7999C26.9816 3.7999 47.6271 -0.806483 69.3928 17.4266Z" fill="white"/>
<path d="M3.47978 77.5391C3.73421 77.5391 3.97633 77.5595 4.20613 77.6005C4.43593 77.6414 4.59187 77.6824 4.68215 77.7192L4.52621 78.3907C4.46056 78.358 4.33334 78.3252 4.13637 78.2884C3.93939 78.2515 3.68086 78.2351 3.36078 78.2351C3.02428 78.2351 2.75344 78.2597 2.55236 78.3088C2.34718 78.358 2.21176 78.3989 2.1502 78.4276V83.857H1.3623V77.9485C1.56338 77.8625 1.83833 77.7725 2.19124 77.6824C2.54826 77.5841 2.97093 77.5391 3.47978 77.5391Z" fill="white"/>
<path d="M10.2876 80.7533C10.2876 80.2087 10.3656 79.7378 10.5215 79.3324C10.6774 78.9312 10.8826 78.5913 11.1329 78.3211C11.3874 78.0508 11.6746 77.8461 11.9988 77.7151C12.323 77.5841 12.6595 77.5186 13.0001 77.5186C13.7593 77.5186 14.3666 77.7683 14.8221 78.2638C15.2735 78.7592 15.4992 79.5208 15.4992 80.5526C15.4992 80.614 15.4951 80.6795 15.4951 80.7451C15.491 80.8106 15.4828 80.8679 15.4746 80.9252H11.1165C11.1412 81.6827 11.3299 82.2682 11.6828 82.6777C12.0358 83.0831 12.5979 83.2878 13.3653 83.2878C13.788 83.2878 14.1245 83.2509 14.3748 83.169C14.621 83.0871 14.8057 83.0216 14.9124 82.9643L15.056 83.6358C14.9452 83.6972 14.7359 83.775 14.4241 83.861C14.1163 83.9511 13.7552 83.9921 13.3366 83.9921C12.7908 83.9921 12.3271 83.9102 11.9414 83.7546C11.5556 83.5949 11.2396 83.3697 10.9934 83.0831C10.7431 82.7964 10.5666 82.4525 10.4517 82.0594C10.345 81.6582 10.2876 81.2241 10.2876 80.7533ZM14.6949 80.2619C14.6826 79.6109 14.5308 79.1113 14.2394 78.751C13.948 78.3907 13.5418 78.2105 13.0124 78.2105C12.7293 78.2105 12.483 78.2638 12.2615 78.3784C12.044 78.489 11.8511 78.6405 11.6869 78.8247C11.5228 79.0131 11.3956 79.2301 11.3012 79.4798C11.2109 79.7296 11.1576 79.9917 11.1412 80.2619H14.6949Z" fill="white"/>
<path d="M26.9857 83.6643C26.7518 83.7421 26.4563 83.8199 26.0952 83.8895C25.7341 83.9632 25.2786 83.996 24.7246 83.996C24.2691 83.996 23.8546 83.9223 23.4812 83.7749C23.1119 83.6275 22.7877 83.4145 22.525 83.1361C22.2542 82.8536 22.049 82.5178 21.9013 82.1166C21.7536 81.7153 21.6797 81.2649 21.6797 80.7613C21.6797 80.2904 21.7412 79.8564 21.8644 79.4592C21.9916 79.0661 22.168 78.7222 22.4142 78.4355C22.6523 78.1489 22.9477 77.9237 23.2924 77.764C23.6412 77.6043 24.0393 77.5265 24.4866 77.5265C24.8969 77.5265 25.2499 77.5839 25.5494 77.6985C25.8531 77.8173 26.0706 77.9237 26.206 78.0261V74.6931L26.9857 74.5498V83.6643ZM26.2019 78.7877C26.128 78.7304 26.0419 78.6689 25.9311 78.6075C25.8203 78.542 25.6972 78.4847 25.5535 78.4274C25.4099 78.37 25.254 78.325 25.0857 78.2881C24.9175 78.2513 24.741 78.2349 24.5563 78.2349C24.1706 78.2349 23.8505 78.3045 23.592 78.4396C23.3294 78.5748 23.1201 78.7549 22.96 78.9842C22.8 79.2135 22.6851 79.4797 22.6112 79.7868C22.5415 80.0938 22.5045 80.4214 22.5045 80.7654C22.5045 81.5802 22.7097 82.2066 23.1201 82.6407C23.5263 83.0788 24.068 83.2958 24.741 83.2958C25.1267 83.2958 25.4345 83.2794 25.6725 83.2426C25.9064 83.2057 26.087 83.1689 26.206 83.1279V78.7877H26.2019Z" fill="white"/>
<path d="M33.4814 80.7533C33.4814 80.2087 33.5594 79.7378 33.7195 79.3324C33.8754 78.9312 34.0765 78.5913 34.3309 78.3211C34.5853 78.0508 34.8726 77.8461 35.1968 77.7151C35.521 77.5841 35.8534 77.5186 36.1981 77.5186C36.9572 77.5186 37.5646 77.7683 38.016 78.2638C38.4674 78.7592 38.6972 79.5208 38.6972 80.5526C38.6972 80.614 38.6972 80.6795 38.689 80.7451C38.6849 80.8106 38.6808 80.8679 38.6726 80.9252H34.3104C34.335 81.6827 34.5238 82.2682 34.8767 82.6777C35.2296 83.0831 35.7877 83.2878 36.5592 83.2878C36.9819 83.2878 37.3184 83.2509 37.5687 83.169C37.819 83.0871 37.9996 83.0216 38.1104 82.9643L38.254 83.6358C38.1391 83.6972 37.9298 83.775 37.622 83.861C37.3142 83.9511 36.949 83.9921 36.5346 83.9921C35.9888 83.9921 35.5251 83.9102 35.1434 83.7546C34.7577 83.5949 34.4417 83.3697 34.1955 83.0831C33.9452 82.7964 33.7646 82.4525 33.6538 82.0594C33.5389 81.6582 33.4814 81.2241 33.4814 80.7533ZM37.8888 80.2619C37.8723 79.6109 37.7164 79.1113 37.4333 78.751C37.146 78.3907 36.7397 78.2105 36.2063 78.2105C35.9272 78.2105 35.6769 78.2638 35.4553 78.3784C35.2337 78.489 35.0408 78.6405 34.8808 78.8247C34.7166 79.0131 34.5894 79.2301 34.4992 79.4798C34.4048 79.7296 34.3514 79.9917 34.335 80.2619H37.8888Z" fill="white"/>
<path d="M57.7178 83.6643C57.488 83.7421 57.1885 83.8199 56.8273 83.8895C56.4662 83.9632 56.0107 83.996 55.4567 83.996C55.0012 83.996 54.5868 83.9223 54.2133 83.7749C53.8399 83.6275 53.5198 83.4145 53.2531 83.1361C52.9863 82.8536 52.777 82.5178 52.6293 82.1166C52.4816 81.7153 52.4077 81.2649 52.4077 80.7613C52.4077 80.2904 52.4693 79.8564 52.5965 79.4592C52.7237 79.0661 52.9043 78.7222 53.1423 78.4355C53.3803 78.1489 53.6757 77.9237 54.0245 77.764C54.3734 77.6043 54.7714 77.5265 55.2187 77.5265C55.6291 77.5265 55.982 77.5839 56.2816 77.6985C56.5811 77.8173 56.7986 77.9237 56.934 78.0261V74.6931L57.7137 74.5498V83.6643H57.7178ZM56.9381 78.7877C56.8643 78.7304 56.774 78.6689 56.6673 78.6075C56.5565 78.542 56.4334 78.4847 56.2857 78.4274C56.142 78.37 55.9861 78.325 55.8178 78.2881C55.6496 78.2513 55.4731 78.2349 55.2885 78.2349C54.9068 78.2349 54.5826 78.3045 54.3241 78.4396C54.0615 78.5748 53.8522 78.7549 53.6922 78.9842C53.5321 79.2135 53.4172 79.4797 53.3433 79.7868C53.2736 80.0938 53.2366 80.4214 53.2366 80.7654C53.2366 81.5802 53.4418 82.2066 53.8481 82.6407C54.2585 83.0788 54.796 83.2958 55.4731 83.2958C55.8548 83.2958 56.1667 83.2794 56.4047 83.2426C56.6386 83.2057 56.8191 83.1689 56.9381 83.1279V78.7877Z" fill="white"/>
<path d="M64.2178 80.7533C64.2178 80.2087 64.2957 79.7378 64.4517 79.3324C64.6076 78.9312 64.8128 78.5913 65.0631 78.3211C65.3134 78.0508 65.6007 77.8461 65.9249 77.7151C66.2491 77.5841 66.5856 77.5186 66.9303 77.5186C67.6895 77.5186 68.2968 77.7683 68.7482 78.2638C69.1996 78.7592 69.4253 79.5208 69.4253 80.5526C69.4253 80.614 69.4212 80.6795 69.4212 80.7451C69.4171 80.8106 69.4089 80.8679 69.4007 80.9252H65.0426C65.0672 81.6827 65.2519 82.2682 65.6089 82.6777C65.9618 83.0831 66.524 83.2878 67.2914 83.2878C67.7141 83.2878 68.0547 83.2509 68.3009 83.169C68.5512 83.0871 68.7318 83.0216 68.8426 82.9643L68.9862 83.6358C68.8754 83.6972 68.6661 83.775 68.3542 83.861C68.0465 83.9511 67.6853 83.9921 67.2668 83.9921C66.721 83.9921 66.2573 83.9102 65.8715 83.7546C65.4899 83.5949 65.1698 83.3697 64.9236 83.0831C64.6733 82.7964 64.4968 82.4525 64.3819 82.0594C64.2752 81.6582 64.2178 81.2241 64.2178 80.7533ZM68.6251 80.2619C68.6087 79.6109 68.4568 79.1113 68.1696 78.751C67.8782 78.3907 67.472 78.2105 66.9426 78.2105C66.6635 78.2105 66.4132 78.2638 66.1916 78.3784C65.97 78.489 65.7772 78.6405 65.613 78.8247C65.4489 79.0131 65.3217 79.2301 65.2314 79.4798C65.1411 79.7296 65.0836 79.9917 65.0672 80.2619H68.6251Z" fill="white"/>
<path d="M83.1479 80.7533C83.1479 80.2087 83.23 79.7378 83.3819 79.3324C83.5378 78.9312 83.743 78.5913 83.9933 78.3211C84.2477 78.0508 84.535 77.8461 84.8592 77.7151C85.1834 77.5841 85.5199 77.5186 85.8605 77.5186C86.6196 77.5186 87.227 77.7683 87.6825 78.2638C88.1339 78.7592 88.3637 79.5208 88.3637 80.5526C88.3637 80.614 88.3596 80.6795 88.3555 80.7451C88.3514 80.8106 88.3432 80.8679 88.3391 80.9252H83.981C84.0056 81.6827 84.1944 82.2682 84.5432 82.6777C84.8961 83.0831 85.4583 83.2878 86.2257 83.2878C86.6484 83.2878 86.989 83.2509 87.2352 83.169C87.4814 83.0871 87.662 83.0216 87.7769 82.9643L87.9205 83.6358C87.8097 83.6972 87.5963 83.775 87.2885 83.861C86.9808 83.9511 86.6155 83.9921 86.2011 83.9921C85.6594 83.9921 85.1916 83.9102 84.8099 83.7546C84.4242 83.5949 84.1082 83.3697 83.862 83.0831C83.6117 82.7964 83.4311 82.4525 83.3203 82.0594C83.2013 81.6582 83.1479 81.2241 83.1479 80.7533ZM87.5553 80.2619C87.5389 79.6109 87.387 79.1113 87.0998 78.751C86.8125 78.3907 86.4021 78.2105 85.8769 78.2105C85.5937 78.2105 85.3434 78.2638 85.1259 78.3784C84.9043 78.489 84.7114 78.6405 84.5473 78.8247C84.3831 79.0131 84.2559 79.2301 84.1616 79.4798C84.0713 79.7296 84.0138 79.9917 83.9974 80.2619H87.5553Z" fill="white"/>
<path d="M99.8417 83.6643C99.6118 83.7421 99.3123 83.8199 98.9553 83.8895C98.5941 83.9632 98.1386 83.996 97.5847 83.996C97.125 83.996 96.7106 83.9223 96.3412 83.7749C95.9678 83.6275 95.6518 83.4145 95.381 83.1361C95.1143 82.8536 94.905 82.5178 94.7572 82.1166C94.6095 81.7153 94.5356 81.2649 94.5356 80.7613C94.5356 80.2904 94.5972 79.8564 94.7244 79.4592C94.8475 79.0661 95.0322 78.7222 95.2702 78.4355C95.5123 78.1489 95.8078 77.9237 96.1566 77.764C96.5054 77.6043 96.9034 77.5265 97.3507 77.5265C97.7611 77.5265 98.114 77.5839 98.4136 77.6985C98.7132 77.8173 98.9306 77.9237 99.0661 78.0261V74.6931L99.8499 74.5498V83.6643H99.8417ZM99.0579 78.7877C98.9881 78.7304 98.8978 78.6689 98.7911 78.6075C98.6844 78.542 98.5572 78.4847 98.4136 78.4274C98.27 78.37 98.114 78.325 97.9458 78.2881C97.7775 78.2513 97.6011 78.2349 97.4164 78.2349C97.0307 78.2349 96.7106 78.3045 96.4479 78.4396C96.1894 78.5748 95.9801 78.7549 95.816 78.9842C95.6559 79.2135 95.541 79.4797 95.4713 79.7868C95.3974 80.0938 95.3605 80.4214 95.3605 80.7654C95.3605 81.5802 95.5616 82.2066 95.9719 82.6407C96.3823 83.0788 96.924 83.2958 97.5929 83.2958C97.9786 83.2958 98.2864 83.2794 98.5244 83.2426C98.7624 83.2057 98.9388 83.1689 99.0579 83.1279V78.7877Z" fill="white"/>
<path d="M111.48 83.6399C111.246 83.7054 110.934 83.775 110.54 83.8528C110.15 83.9306 109.67 83.9715 109.099 83.9715C108.636 83.9715 108.246 83.9019 107.934 83.7668C107.622 83.6317 107.368 83.4392 107.179 83.1936C106.99 82.9479 106.851 82.649 106.764 82.2928C106.678 81.9447 106.637 81.5557 106.637 81.134V77.6577H107.417V80.8801C107.417 81.3224 107.45 81.6909 107.515 81.9939C107.581 82.2969 107.684 82.5425 107.827 82.7309C107.971 82.9192 108.16 83.0544 108.385 83.1403C108.615 83.2222 108.894 83.2673 109.218 83.2673C109.588 83.2673 109.908 83.2468 110.179 83.2059C110.454 83.1649 110.622 83.1322 110.696 83.0994V77.6577H111.48V83.6399Z" fill="white"/>
<path d="M120.922 83.988C120.442 83.988 120.019 83.9143 119.65 83.7587C119.28 83.6072 118.973 83.3902 118.73 83.1076C118.488 82.8251 118.3 82.4853 118.172 82.0881C118.045 81.695 117.979 81.2569 117.979 80.7778C117.979 80.2906 118.045 79.8484 118.176 79.4471C118.312 79.0458 118.501 78.7019 118.747 78.4153C118.997 78.1286 119.297 77.9075 119.65 77.7519C120.003 77.5963 120.397 77.5186 120.84 77.5186C121.176 77.5186 121.488 77.5472 121.784 77.6045C122.075 77.6578 122.301 77.7315 122.461 77.8215L122.255 78.4931C122.095 78.4112 121.915 78.3497 121.714 78.3006C121.513 78.2515 121.246 78.2269 120.909 78.2269C120.22 78.2269 119.695 78.448 119.342 78.8943C118.981 79.3365 118.804 79.963 118.804 80.7819C118.804 81.1463 118.845 81.4862 118.927 81.7933C119.005 82.1004 119.137 82.3665 119.317 82.5835C119.498 82.8046 119.728 82.9766 120.015 83.0994C120.298 83.2223 120.647 83.2878 121.053 83.2878C121.39 83.2878 121.669 83.2509 121.898 83.1731C122.128 83.0994 122.297 83.0298 122.399 82.9725L122.563 83.644C122.42 83.7259 122.194 83.8037 121.886 83.8774C121.578 83.9511 121.258 83.988 120.922 83.988Z" fill="white"/>
<path d="M130.565 77.5142C130.976 77.5142 131.32 77.5715 131.604 77.6902C131.891 77.8049 132.121 77.9646 132.297 78.1693C132.474 78.374 132.601 78.6156 132.679 78.894C132.761 79.1725 132.798 79.4796 132.798 79.8071V83.7133C132.72 83.7379 132.601 83.7625 132.449 83.7952C132.297 83.8198 132.121 83.8485 131.92 83.8853C131.718 83.9181 131.497 83.9426 131.255 83.9631C131.009 83.9836 130.758 83.9918 130.504 83.9918C130.176 83.9918 129.872 83.9549 129.593 83.8853C129.318 83.8116 129.076 83.7011 128.875 83.5414C128.669 83.3858 128.509 83.1892 128.395 82.9436C128.28 82.6979 128.222 82.4031 128.222 82.0509C128.222 81.7152 128.288 81.4286 128.415 81.187C128.542 80.9454 128.723 80.7489 128.957 80.5933C129.191 80.4418 129.466 80.3271 129.786 80.2534C130.106 80.1797 130.455 80.147 130.828 80.147C130.943 80.147 131.058 80.1511 131.181 80.1633C131.304 80.1756 131.427 80.192 131.542 80.2125C131.661 80.233 131.76 80.2493 131.846 80.2698C131.928 80.2903 131.985 80.3067 132.018 80.323V79.9381C132.018 79.7211 132.002 79.5123 131.969 79.3076C131.936 79.1029 131.866 78.9186 131.76 78.7548C131.653 78.591 131.501 78.46 131.304 78.3617C131.107 78.2635 130.853 78.2102 130.533 78.2102C130.077 78.2102 129.736 78.243 129.511 78.3044C129.285 78.3699 129.121 78.4232 129.018 78.46L128.912 77.7803C129.047 77.7148 129.256 77.6534 129.539 77.6001C129.823 77.5428 130.163 77.5142 130.565 77.5142ZM130.635 83.2916C130.943 83.2916 131.21 83.2793 131.435 83.2629C131.665 83.2425 131.858 83.2179 132.018 83.1851V81.0027C131.928 80.9618 131.788 80.9208 131.595 80.8799C131.402 80.8349 131.14 80.8144 130.803 80.8144C130.61 80.8144 130.409 80.8267 130.204 80.8553C129.995 80.884 129.802 80.9413 129.626 81.0355C129.449 81.1256 129.306 81.2525 129.195 81.4122C129.084 81.5719 129.026 81.7848 129.026 82.0469C129.026 82.2802 129.063 82.4727 129.141 82.6324C129.219 82.7921 129.326 82.919 129.466 83.0173C129.605 83.1114 129.773 83.1851 129.97 83.2261C130.167 83.2711 130.389 83.2916 130.635 83.2916Z" fill="white"/>
<path d="M144.534 83.6643C144.3 83.7421 144.005 83.8199 143.644 83.8895C143.283 83.9632 142.827 83.996 142.273 83.996C141.818 83.996 141.403 83.9223 141.03 83.7749C140.656 83.6275 140.336 83.4145 140.069 83.1361C139.799 82.8536 139.593 82.5178 139.446 82.1166C139.298 81.7153 139.224 81.2649 139.224 80.7613C139.224 80.2904 139.286 79.8564 139.409 79.4592C139.532 79.0661 139.712 78.7222 139.955 78.4355C140.197 78.1489 140.488 77.9237 140.837 77.764C141.182 77.6043 141.58 77.5265 142.031 77.5265C142.437 77.5265 142.794 77.5839 143.094 77.6985C143.393 77.8173 143.611 77.9237 143.746 78.0261V74.6931L144.53 74.5498V83.6643H144.534ZM143.755 78.7877C143.681 78.7304 143.59 78.6689 143.484 78.6075C143.377 78.542 143.25 78.4847 143.106 78.4274C142.963 78.37 142.807 78.325 142.638 78.2881C142.47 78.2513 142.294 78.2349 142.109 78.2349C141.723 78.2349 141.399 78.3045 141.145 78.4396C140.882 78.5748 140.673 78.7549 140.513 78.9842C140.353 79.2135 140.238 79.4797 140.164 79.7868C140.09 80.0938 140.053 80.4214 140.053 80.7654C140.053 81.5802 140.258 82.2066 140.665 82.6407C141.071 83.0788 141.612 83.2958 142.285 83.2958C142.671 83.2958 142.979 83.2794 143.217 83.2426C143.451 83.2057 143.631 83.1689 143.75 83.1279V78.7877H143.755Z" fill="white"/>
<path d="M156.702 80.7655C156.702 81.2528 156.632 81.695 156.493 82.0963C156.353 82.4975 156.156 82.8333 155.906 83.1158C155.655 83.3943 155.356 83.6113 155.011 83.7669C154.666 83.9225 154.285 84.0002 153.87 84.0002C153.456 84.0002 153.074 83.9225 152.729 83.7669C152.385 83.6113 152.089 83.3943 151.835 83.1158C151.585 82.8374 151.388 82.4975 151.244 82.0963C151.104 81.695 151.035 81.2528 151.035 80.7655C151.035 80.2783 151.104 79.8361 151.244 79.4348C151.388 79.0335 151.58 78.6937 151.835 78.4112C152.085 78.1286 152.385 77.9075 152.729 77.7519C153.074 77.5963 153.456 77.5186 153.87 77.5186C154.289 77.5186 154.666 77.6004 155.011 77.7519C155.356 77.9075 155.651 78.1286 155.906 78.4112C156.156 78.6937 156.353 79.0376 156.493 79.4348C156.632 79.832 156.702 80.2783 156.702 80.7655ZM155.873 80.7655C155.873 79.9917 155.692 79.3734 155.331 78.9148C154.974 78.4562 154.486 78.2269 153.866 78.2269C153.251 78.2269 152.762 78.4562 152.401 78.9148C152.04 79.3734 151.86 79.9917 151.86 80.7655C151.86 81.5394 152.04 82.1536 152.401 82.6122C152.762 83.0667 153.251 83.296 153.866 83.296C154.486 83.296 154.974 83.0667 155.331 82.6122C155.692 82.1536 155.873 81.5394 155.873 80.7655Z" fill="white"/>
<path d="M165.315 77.5391C165.57 77.5391 165.812 77.5595 166.042 77.6005C166.267 77.6414 166.427 77.6824 166.518 77.7192L166.362 78.3907C166.296 78.358 166.165 78.3252 165.972 78.2884C165.775 78.2515 165.521 78.2351 165.196 78.2351C164.86 78.2351 164.589 78.2597 164.388 78.3088C164.183 78.358 164.051 78.3989 163.986 78.4276V83.857H163.206V77.9485C163.407 77.8625 163.682 77.7725 164.035 77.6824C164.38 77.5841 164.811 77.5391 165.315 77.5391Z" fill="white"/>
<path d="M172.123 80.7533C172.123 80.2087 172.201 79.7378 172.357 79.3324C172.513 78.9312 172.718 78.5913 172.968 78.3211C173.219 78.0508 173.51 77.8461 173.834 77.7151C174.154 77.5841 174.491 77.5186 174.836 77.5186C175.595 77.5186 176.202 77.7683 176.653 78.2638C177.109 78.7592 177.331 79.5208 177.331 80.5526C177.331 80.614 177.331 80.6795 177.326 80.7451C177.322 80.8106 177.314 80.8679 177.31 80.9252H172.948C172.973 81.6827 173.157 82.2682 173.51 82.6777C173.863 83.0831 174.425 83.2878 175.193 83.2878C175.615 83.2878 175.952 83.2509 176.202 83.169C176.452 83.0871 176.629 83.0216 176.744 82.9643L176.887 83.6358C176.777 83.6972 176.563 83.775 176.255 83.861C175.948 83.9511 175.587 83.9921 175.172 83.9921C174.626 83.9921 174.163 83.9102 173.777 83.7546C173.395 83.5949 173.075 83.3697 172.829 83.0831C172.583 82.7964 172.398 82.4525 172.287 82.0594C172.18 81.6582 172.123 81.2241 172.123 80.7533ZM176.53 80.2619C176.514 79.6109 176.362 79.1113 176.075 78.751C175.788 78.3907 175.377 78.2105 174.852 78.2105C174.569 78.2105 174.323 78.2638 174.101 78.3784C173.879 78.489 173.687 78.6405 173.522 78.8247C173.358 79.0131 173.231 79.2301 173.141 79.4798C173.046 79.7296 172.993 79.9917 172.977 80.2619H176.53Z" fill="white"/>
<path d="M185.156 83.3039C185.604 83.3039 185.973 83.2302 186.269 83.0828C186.56 82.9354 186.708 82.6856 186.708 82.3335C186.708 82.1656 186.679 82.0223 186.63 81.9035C186.576 81.7848 186.49 81.6783 186.375 81.5842C186.252 81.4859 186.092 81.3958 185.899 81.3057C185.702 81.2198 185.46 81.1133 185.173 80.9945C184.943 80.9004 184.722 80.8021 184.516 80.6997C184.307 80.6015 184.122 80.4827 183.962 80.3517C183.802 80.2207 183.675 80.0651 183.577 79.8767C183.482 79.6925 183.433 79.4714 183.433 79.2052C183.433 78.7016 183.622 78.2962 184.003 77.9809C184.385 77.6698 184.906 77.5142 185.571 77.5142C185.998 77.5142 186.347 77.551 186.621 77.6247C186.896 77.6943 187.093 77.7598 187.204 77.8131L187.024 78.5091C186.929 78.46 186.765 78.3986 186.539 78.3167C186.31 78.2348 185.977 78.1939 185.538 78.1939C185.362 78.1939 185.193 78.2143 185.037 78.2471C184.882 78.2839 184.742 78.3372 184.623 78.4191C184.5 78.4928 184.41 78.591 184.336 78.7057C184.262 78.8244 184.225 78.9636 184.225 79.1315C184.225 79.2994 184.258 79.4427 184.319 79.5655C184.381 79.6843 184.475 79.7907 184.602 79.8849C184.726 79.975 184.877 80.061 185.058 80.1429C185.239 80.2248 185.444 80.3108 185.678 80.4049C185.92 80.4991 186.15 80.5974 186.367 80.6956C186.589 80.798 186.782 80.9168 186.95 81.056C187.118 81.1952 187.253 81.3631 187.356 81.5596C187.463 81.7561 187.512 82.0018 187.512 82.2966C187.512 82.8576 187.303 83.2793 186.88 83.57C186.461 83.8567 185.887 84 185.156 84C184.615 84 184.196 83.9549 183.909 83.8607C183.622 83.7707 183.429 83.7011 183.334 83.6519L183.54 82.9436C183.564 82.9599 183.618 82.9845 183.696 83.0214C183.774 83.0582 183.88 83.0992 184.02 83.1401C184.155 83.1811 184.319 83.222 184.504 83.2548C184.689 83.2875 184.906 83.3039 185.156 83.3039Z" fill="white"/>
</svg>
