<svg width="96" height="71" viewBox="0 0 96 71" fill="none" xmlns="http://www.w3.org/2000/svg">
<path d="M66.0525 22.3901C66.3362 20.2051 66.6151 18.0717 66.9028 15.991C67.1837 13.9601 67.4487 11.9769 67.7207 10.0348C61.8833 17.7518 55.9248 25.6355 49.8844 33.7447C43.7042 42.043 37.4333 50.5872 31.0096 59.3382C28.1806 59.3431 25.463 59.3529 22.8576 59.3568C20.3351 59.3607 17.9081 59.3694 15.5718 59.3743C23.6105 50.2887 31.5683 41.2344 39.5114 32.2844C47.3915 23.4066 55.2803 14.638 63.1367 5.93679C65.8268 5.1291 68.6065 4.29506 71.4641 3.43957C74.4173 2.55481 77.466 1.63982 80.6163 0.696533C80.4212 3.58784 80.2103 6.57865 80.0152 9.67969C79.8122 12.8978 79.5925 16.2427 79.3747 19.7271C74.7129 20.6509 70.2797 21.5356 66.0525 22.3901ZM64.4463 34.6343C64.9065 31.1089 65.3479 27.7006 65.7834 24.4201C70.0531 23.6066 74.5395 22.7608 79.2417 21.878C79.0239 25.3634 78.8002 28.9883 78.5775 32.7497C82.3111 32.2581 86.1826 31.7508 90.2099 31.2348C90.2099 35.2791 90.2099 39.4893 90.2099 43.8857C85.5648 44.2154 81.1208 44.5334 76.8758 44.8349C76.59 49.5435 76.2885 54.4813 75.984 59.6533H61.3778C61.9701 54.8462 62.5366 50.2507 63.0924 45.8484C59.4672 46.1215 55.976 46.3849 52.6425 46.6405C53.2909 42.9619 53.9274 39.4161 54.5403 35.9912C57.7093 35.5542 61.0202 35.1016 64.4463 34.6343Z" fill="white"/>
<path d="M15.1617 20.5201H16.4723C17.5473 20.5201 18.3218 20.3445 18.7997 19.9943C19.2786 19.6422 19.5161 19.0715 19.5161 18.2804C19.5161 17.5508 19.2914 17.0113 18.8401 16.6592C18.3878 16.309 17.6872 16.1324 16.7393 16.1324H15.1627V20.5201H15.1617ZM20.2344 18.2629C20.2344 19.1749 19.9211 19.8734 19.2954 20.3601C18.6697 20.8469 17.7818 21.0898 16.6339 21.0898H15.1607V24.9888H14.4946V15.551H16.829C19.0993 15.551 20.2344 16.4543 20.2344 18.2629Z" fill="white"/>
<path d="M22.9718 20.3094H24.7898C25.5929 20.3094 26.2156 20.1319 26.659 19.7739C27.1015 19.4188 27.3242 18.893 27.3242 18.1994C27.3242 17.4766 27.1074 16.9528 26.6728 16.624C26.2383 16.2963 25.5318 16.1324 24.5494 16.1324H22.9718V20.3094ZM22.9718 20.8771V24.9878H22.3066V15.551H24.574C25.7554 15.551 26.6305 15.7666 27.1951 16.2007C27.7577 16.6328 28.0405 17.2825 28.0405 18.1526C28.0405 18.7847 27.873 19.3203 27.535 19.7544C27.199 20.1884 26.6876 20.5016 26.0018 20.6908L28.5884 24.9888H27.7932L25.3367 20.8781H22.9718V20.8771Z" fill="white"/>
<path d="M30.4547 20.2568C30.4547 21.6088 30.7592 22.6535 31.3672 23.391C31.9751 24.1294 32.8492 24.4991 33.9892 24.4991C35.1352 24.4991 36.0122 24.1333 36.6162 23.4017C37.2242 22.6692 37.5267 21.6225 37.5267 20.2568C37.5267 18.898 37.2242 17.8532 36.6162 17.1285C36.0112 16.4037 35.1392 16.0398 34.0001 16.0398C32.8679 16.0398 31.9929 16.4056 31.379 17.1372C30.7621 17.8708 30.4547 18.9087 30.4547 20.2568ZM38.25 20.2588C38.25 21.7571 37.8716 22.9423 37.1168 23.8144C36.36 24.6845 35.3165 25.1205 33.9883 25.1205C32.661 25.1205 31.6204 24.6845 30.8636 23.8144C30.1088 22.9423 29.7314 21.7522 29.7314 20.248C29.7314 18.7458 30.1118 17.5625 30.8755 16.7012C31.6391 15.8379 32.6797 15.4058 33.9991 15.4058C35.3303 15.4058 36.3709 15.8398 37.1208 16.7051C37.8736 17.5733 38.25 18.7585 38.25 20.2588Z" fill="white"/>
<path d="M10.9927 30.79H14.5035V35.0987C13.5822 35.4869 12.5476 35.6801 11.3957 35.6801C9.89298 35.6801 8.74009 35.2597 7.93701 34.4178C7.13689 33.576 6.73584 32.3869 6.73584 30.8437C6.73584 29.8858 6.9339 29.0332 7.33199 28.2909C7.73008 27.5485 8.29766 26.9759 9.03866 26.5701C9.77966 26.1673 10.6291 25.9634 11.5908 25.9634C12.6294 25.9634 13.5625 26.1487 14.3873 26.5214L14.1202 27.1135C13.2945 26.735 12.4372 26.5448 11.5523 26.5448C10.295 26.5448 9.30077 26.9311 8.56371 27.6988C7.82763 28.4674 7.45812 29.5053 7.45812 30.8115C7.45812 32.2328 7.80793 33.3029 8.50853 34.0189C9.20617 34.7368 10.2349 35.0958 11.5898 35.0958C12.4668 35.0958 13.2117 34.9729 13.8266 34.728V31.4085H10.9917V30.79H10.9927Z" fill="white"/>
<path d="M17.5631 30.869H19.3811C20.1842 30.869 20.8079 30.6914 21.2503 30.3334C21.6928 29.9784 21.9155 29.4526 21.9155 28.759C21.9155 28.0362 21.6977 27.5124 21.2632 27.1836C20.8296 26.8559 20.1221 26.692 19.1407 26.692H17.5631V30.869ZM17.5631 31.4377V35.5483H16.8979V26.1116H19.1653C20.3468 26.1116 21.2208 26.3272 21.7864 26.7612C22.349 27.1934 22.6318 27.843 22.6318 28.7132C22.6318 29.3453 22.4643 29.8808 22.1263 30.3149C21.7903 30.749 21.2789 31.0621 20.5931 31.2514L23.1797 35.5493H22.3845L19.929 31.4386H17.5631V31.4377Z" fill="white"/>
<path d="M25.7902 31.623H29.1986L27.9008 28.2215C27.7924 27.9552 27.6624 27.5855 27.5096 27.1114C27.3914 27.523 27.2653 27.8976 27.1253 28.2342L25.7902 31.623ZM29.4213 32.2044H25.5497L24.2185 35.5483H23.4824L27.3136 26.0715H27.7382L31.4925 35.5483H30.7436L29.4213 32.2044Z" fill="white"/>
<path d="M10.0253 46.1077L6.47104 37.3927H6.41783C6.45429 37.9254 6.47104 38.4746 6.47104 39.0315V46.1067H5.83252V36.6699H6.86026L10.2401 44.9702H10.2785L13.6564 36.6699H14.6605V46.1067H13.9904V38.9545C13.9904 38.457 14.016 37.939 14.0683 37.4054H14.0151L10.448 46.1067H10.0253V46.1077Z" fill="white"/>
<path d="M18.3092 42.1823H21.7176L20.4199 38.7808C20.3115 38.5145 20.1824 38.1438 20.0287 37.6707C19.9104 38.0824 19.7843 38.457 19.6434 38.7935L18.3092 42.1823ZM21.9413 42.7637H18.0688L16.7385 46.1076H16.0024L19.8346 36.6309H20.2593L24.0135 46.1076H23.2637L21.9413 42.7637Z" fill="white"/>
<path d="M22.7535 66.1893C22.7535 67.7033 22.3179 68.8621 21.4479 69.6669C20.5778 70.4716 19.3204 70.8745 17.6778 70.8745H15.0469V61.6797H17.9626C19.4791 61.6797 20.6566 62.0757 21.4952 62.8688C22.3347 63.6609 22.7535 64.768 22.7535 66.1893ZM20.7078 66.2391C20.7078 64.2647 19.8269 63.2765 18.0651 63.2765H17.0166V69.264H17.8621C19.7589 69.265 20.7078 68.2563 20.7078 66.2391Z" fill="white"/>
<path d="M26.5 70.8745V61.6797H28.4698V70.8745H26.5Z" fill="white"/>
<path d="M36.1544 65.7112H39.8387V70.4783C39.2415 70.6715 38.6789 70.8061 38.1517 70.8841C37.6245 70.9612 37.0855 71.0002 36.5347 71.0002C35.1325 71.0002 34.0624 70.5925 33.3234 69.777C32.5844 68.9615 32.2148 67.7909 32.2148 66.2643C32.2148 64.7796 32.6435 63.6227 33.5017 62.7926C34.359 61.9624 35.5484 61.5469 37.0688 61.5469C38.0216 61.5469 38.941 61.7351 39.8259 62.1126L39.1716 63.6724C38.4936 63.3369 37.7891 63.1691 37.056 63.1691C36.2046 63.1691 35.5227 63.452 35.0103 64.0178C34.498 64.5835 34.2418 65.3444 34.2418 66.3004C34.2418 67.2983 34.4487 68.0601 34.8616 68.5869C35.2744 69.1127 35.8745 69.376 36.6628 69.376C37.0737 69.376 37.4905 69.3341 37.9142 69.2502V67.3324H36.1544V65.7112Z" fill="white"/>
<path d="M43.8721 70.8745V61.6797H45.8418V70.8745H43.8721Z" fill="white"/>
<path d="M53.5836 70.8745H51.6139V63.3029H49.0913V61.6797H56.1052V63.3019H53.5826V70.8745H53.5836Z" fill="white"/>
<path d="M65.0427 70.8745L64.3697 68.6855H60.984L60.311 70.8745H58.1895L61.4678 61.6416H63.876L67.1672 70.8745H65.0427ZM63.8997 67.0506C63.2769 65.0675 62.9261 63.9457 62.8483 63.6862C62.7695 63.4257 62.7133 63.2209 62.6798 63.0697C62.5399 63.6062 62.1398 64.9338 61.4796 67.0506H63.8997Z" fill="white"/>
<path d="M70.1548 70.8745V61.6797H72.1245V69.264H75.8916V70.8735H70.1548V70.8745Z" fill="white"/>
<path d="M54.2465 11.3419H52.0974C51.99 11.3419 51.9023 11.2551 51.9023 11.1487V10.7624H54.4426V11.1487C54.4416 11.2551 54.354 11.3419 54.2465 11.3419ZM48.5806 8.63494V7.47412H51.5111V8.63494H48.5806ZM50.2607 9.9889H48.5806V9.0222H49.9947L50.2607 9.9889ZM50.374 10.6864C50.3366 10.7351 50.2804 10.7624 50.2183 10.7624H48.5806V10.3752H50.3671L50.4065 10.5176C50.4233 10.5761 50.4115 10.6376 50.374 10.6864ZM47.9953 11.3419H43.6971C43.5897 11.3419 43.502 11.2551 43.502 11.1487V10.7624H48.1904V11.1487C48.1904 11.2551 48.1027 11.3419 47.9953 11.3419ZM43.6971 5.15346H47.9953C48.1027 5.15346 48.1904 5.24028 48.1904 5.34661V5.73387H43.502V5.34661C43.502 5.24028 43.5897 5.15346 43.6971 5.15346ZM48.1904 10.3752H43.502V6.12016H48.1904V10.3752ZM44.0873 1.86611C44.0873 1.54615 44.3504 1.2857 44.6736 1.2857H53.27C53.5932 1.2857 53.8563 1.54615 53.8563 1.86611V6.12114H52.0984C51.7752 6.12114 51.5121 6.38159 51.5121 6.70154V7.08881H48.5816V5.34661C48.5816 5.02665 48.3185 4.7662 47.9953 4.7662H44.0883V1.86611H44.0873ZM51.9023 7.47412H54.4426V10.3752H51.9023V7.47412ZM54.4416 6.70057V7.08783H51.9014V6.70057C51.9014 6.59424 51.9891 6.50742 52.0965 6.50742H54.2456C54.354 6.50742 54.4416 6.59424 54.4416 6.70057ZM54.2465 6.12016V1.86611C54.2465 1.33253 53.8081 0.899414 53.27 0.899414H44.6736C44.1346 0.899414 43.6971 1.3335 43.6971 1.86611V4.76718C43.3739 4.76718 43.1108 5.02763 43.1108 5.34758V11.1497C43.1108 11.4697 43.3739 11.7301 43.6971 11.7301H47.9953C48.3185 11.7301 48.5816 11.4697 48.5816 11.1497H50.2193C50.4036 11.1497 50.5731 11.0668 50.6854 10.9215C50.7968 10.7771 50.8332 10.5927 50.7849 10.4171L50.4006 9.0222H51.5121V11.1497C51.5121 11.4697 51.7752 11.7301 52.0984 11.7301H54.2475C54.5707 11.7301 54.8338 11.4697 54.8338 11.1497V6.70154C54.8328 6.38061 54.5697 6.12016 54.2465 6.12016Z" fill="white"/>
<path d="M44.1445 8.88464L44.9259 8.11108L45.2028 8.38422L44.4214 9.15777L44.1445 8.88464Z" fill="white"/>
<path d="M44.9258 9.46519L47.271 7.14453L47.5469 7.41766L45.2027 9.73832L44.9258 9.46519Z" fill="white"/>
<path d="M45.3169 7.72478L46.4885 6.56396L46.7654 6.8371L45.5928 7.99791L45.3169 7.72478Z" fill="white"/>
<path d="M52.3496 8.88467L53.3261 7.91797L53.603 8.1911L52.6265 9.15877L52.3496 8.88467Z" fill="white"/>
<path d="M52.7407 9.65932L53.7172 8.69263L53.9931 8.96576L53.0166 9.93343L52.7407 9.65932Z" fill="white"/>
<path d="M48.2476 4.24334L49.4192 3.08252L49.6961 3.35663L48.5235 4.51647L48.2476 4.24334Z" fill="white"/>
<path d="M50.0054 3.85613L51.178 2.69629L51.4539 2.96942L50.2823 4.13024L50.0054 3.85613Z" fill="white"/>
<path d="M48.833 5.01696L49.6154 4.24341L49.8913 4.51654L49.1099 5.29009L48.833 5.01696Z" fill="white"/>
<path d="M49.8096 2.69811L50.5929 1.92261L50.8688 2.19672L50.0855 2.97222L49.8096 2.69811Z" fill="white"/>
<path d="M44.4785 1.67212H44.8687V2.05938H44.4785V1.67212Z" fill="white"/>
<path d="M45.2598 1.67212H45.65V2.05938H45.2598V1.67212Z" fill="white"/>
<path d="M46.0415 1.67212H46.4317V2.05938H46.0415V1.67212Z" fill="white"/>
</svg>
