<svg width="526" height="224" viewBox="0 0 526 224" fill="none" xmlns="http://www.w3.org/2000/svg">
<g clip-path="url(#clip0)">
<path d="M478.318 69.5329C478.196 69.5549 478.075 69.6212 477.953 69.6653L477.964 69.4997C477.622 68.6496 477.269 69.1133 476.916 69.1354C476.806 69.1464 476.685 69.1685 476.574 69.1796C476.563 68.9808 476.552 68.7821 476.541 68.5834C476.641 68.5061 476.74 68.4178 476.839 68.3405C477.016 68.3626 477.203 68.4398 477.369 68.4288C477.325 68.3074 477.291 68.2301 477.258 68.1307C477.391 68.0645 477.413 67.7885 477.711 68.0093C477.777 68.0976 477.854 68.208 477.931 68.3184C478.075 68.4178 478.163 68.4178 478.207 68.2742C478.141 68.1859 478.075 68.0976 478.031 68.0313C477.964 67.8547 477.898 67.6891 477.843 67.5345C478.593 66.9273 479.366 66.298 480.204 65.6135C479.509 64.7855 479.079 65.6466 478.604 65.481C478.24 65.1056 477.909 64.2997 477.501 64.4101C477.325 64.399 477.148 64.388 476.972 64.3659C477.148 63.9574 477.314 63.5379 477.49 63.1294C477.931 62.9086 478.373 62.6878 478.825 62.467C479.09 61.7935 479.355 61.12 479.686 60.292C479.233 60.0381 478.869 59.8172 478.505 59.6075C478.251 59.5854 477.998 59.5744 477.744 59.5523C477.303 58.647 476.839 59.2321 476.398 59.0886C477.071 58.0618 477.06 58.0618 476.685 57.3221C476.563 55.4231 477.17 56.6266 477.358 56.0524C477.446 56.0524 477.534 56.0635 477.622 56.0635C477.645 56.207 477.7 56.2843 477.81 56.2733C477.788 56.196 477.766 56.1297 477.755 56.0745C477.953 56.0856 478.152 56.1076 478.351 56.0856C478.395 56.2512 478.461 56.4057 478.549 56.5161C478.527 56.3285 478.505 56.1849 478.483 56.0524C478.549 56.0414 478.604 56.0304 478.671 56.0193C478.847 55.9531 479.31 55.5004 478.693 54.8159C478.604 54.2639 478.505 53.7119 478.417 53.1598C478.086 51.6252 477.622 52.2766 477.203 52.1552V52.1C477.17 49.4171 476.1 50.8303 475.802 49.0528C476.1 48.556 476.453 48.9534 476.641 48.2137L476.618 48.0591C477.093 48.015 477.567 47.9708 478.075 47.9156C477.81 47.0324 477.501 47.5955 477.236 47.3415C476.751 46.8557 476.265 47.0876 475.78 47.0545C475.482 46.2706 475.14 46.4914 474.809 46.4362C474.787 46.116 474.765 45.7848 474.754 45.4646C474.677 45.2217 474.6 44.9789 474.522 44.736C474.213 43.2013 473.86 44.7801 473.54 44.3606C473.11 45.1445 472.614 44.482 472.139 44.4931C472.04 44.4489 471.952 44.3385 471.863 44.206C471.908 43.919 471.952 43.5105 471.985 42.8701C471.83 43.1682 471.72 43.4553 471.654 43.8196C471.312 43.1461 470.992 42.296 470.54 42.9585C470.319 42.7818 470.109 42.6052 469.889 42.4285C469.315 42.4948 468.741 42.55 468.168 42.6162C467.307 41.8102 466.568 42.6383 465.818 43.378V43.3449C465.52 42.4837 465.123 41.9317 464.77 41.8875C464.372 41.8434 463.743 40.7504 463.644 43.0137C462.265 42.7597 460.875 42.4948 459.496 42.2408C459.353 40.4964 458.955 41.3024 458.646 41.2582C458.205 40.9491 457.819 41.3024 457.444 41.7661C457.411 41.7661 457.378 41.7771 457.345 41.7771C457.356 41.7992 457.367 41.8213 457.378 41.8434C457.356 41.8654 457.334 41.8986 457.323 41.9207C457.278 41.9207 457.234 41.9096 457.19 41.9096C457.201 41.9096 457.212 41.9096 457.223 41.9096C457.168 41.755 457.223 41.9096 457.234 41.733C457.256 41.755 457.267 41.7882 457.289 41.8102C457.289 41.7882 457.278 41.7771 457.278 41.755H457.289C457.289 41.7771 457.289 41.7992 457.289 41.8102C457.3 41.8213 457.311 41.8434 457.323 41.8544C457.323 41.7882 457.323 41.7109 457.334 41.6446C457.212 41.6667 457.245 41.6446 457.19 41.7771C457.19 41.744 457.201 41.7109 457.201 41.6778C457.19 41.6778 457.168 41.6778 457.157 41.6888C457.157 41.7219 457.146 41.755 457.146 41.7882C457.135 41.6888 457.124 41.755 457.157 41.6888C457.113 41.6998 457.069 41.6998 457.025 41.7109C457.025 41.733 457.014 41.755 457.014 41.7771C457.014 41.7771 457.025 41.7771 457.025 41.7882C457.014 41.8213 457.014 41.8434 457.003 41.8765C457.003 41.8875 457.003 41.8875 457.003 41.8986C457.003 41.8986 457.003 41.8986 456.992 41.8986C456.992 41.8875 456.992 41.8875 457.003 41.8765C457.003 41.8434 457.014 41.8213 457.014 41.7882C456.98 41.7661 456.936 41.744 456.903 41.7219C456.892 41.7771 456.87 41.8323 456.859 41.8875C456.76 41.8765 456.661 41.8654 456.572 41.8654C456.583 41.7992 456.594 41.733 456.605 41.6557C456.661 41.7771 456.716 41.7882 456.881 41.7771C456.87 41.755 456.87 41.744 456.859 41.7219C456.859 41.7109 456.859 41.6998 456.859 41.6998C456.837 41.6446 456.804 41.6005 456.782 41.5453C456.716 41.5674 456.661 41.5563 456.628 41.5563C456.672 41.3024 456.727 41.0485 456.705 41.0043C456.506 40.4743 456.297 40.9712 456.098 40.8608L456.087 40.8387C455.877 40.0548 455.612 40.2867 455.359 40.3087C454.465 40.375 453.56 40.4633 452.667 40.5406C452.656 40.5406 452.645 40.5406 452.634 40.5516C452.623 40.5516 452.601 40.5516 452.59 40.5516C452.59 40.5406 452.59 40.5406 452.601 40.5185C452.601 40.5075 452.59 40.4964 452.59 40.4964C452.59 40.5185 452.59 40.5406 452.59 40.5627C452.568 40.5627 452.556 40.5627 452.534 40.5627C452.523 40.5296 452.523 40.5075 452.512 40.4743C452.457 40.5737 452.523 40.5185 452.446 40.5516V40.5627C452.358 40.5737 452.281 40.5737 452.192 40.5848C449.743 39.1164 447.978 38.6196 446.897 39.1164C445.981 39.5359 444.933 39.9223 443.763 40.2867C443.521 40.2977 443.289 40.3639 443.057 40.4964C442.793 40.5737 442.528 40.651 442.263 40.7172C442.164 40.64 442.053 40.5848 441.954 40.5848C438.468 40.6179 434.993 40.9601 431.517 41.4349C430.955 41.4238 430.381 41.4349 429.862 41.4349C429.873 41.4901 429.885 41.5563 429.896 41.6115C429.885 41.6115 429.874 41.6115 429.874 41.6115C429.874 41.5563 429.873 41.4901 429.862 41.4349C429.035 41.4349 428.351 41.4128 428.13 41.3134C427.998 41.3576 427.866 41.4128 427.733 41.4569C427.755 41.4238 427.766 41.3907 427.788 41.3465C427.755 41.3797 427.722 41.4128 427.689 41.4569C427.667 41.468 427.634 41.479 427.612 41.4901C427.634 41.5011 427.667 41.5232 427.689 41.5342C427.634 41.5674 427.568 41.5784 427.49 41.6005C427.27 41.5453 427.06 41.4901 426.84 41.4349C425.085 41.4128 423.342 41.3797 421.588 41.3576C421.268 41.3024 420.099 41.3465 420.043 41.5122C419.326 41.0816 417.804 41.7661 417.197 41.5011C417.219 41.479 417.252 41.468 417.274 41.4459C417.252 41.4349 417.219 41.4349 417.197 41.4238C417.164 41.3907 417.12 41.3576 417.087 41.3245C417.109 41.3576 417.12 41.3907 417.142 41.4238C417.009 41.3797 416.877 41.3465 416.734 41.3024C416.513 41.4238 415.84 41.4901 415.013 41.5453C415.013 41.6005 415.013 41.6667 415.024 41.7219C415.013 41.7219 415.002 41.7219 415.002 41.7219C415.013 41.6667 415.013 41.6005 415.024 41.5453C413.578 41.6446 411.692 41.7219 410.997 42.0752C410.522 42.0752 410.015 42.0752 409.507 42.0752C409.518 42.0531 409.518 42.0421 409.529 42.02C409.375 41.9869 409.507 42.0421 409.397 41.9427C409.386 41.9869 409.375 42.0311 409.353 42.0752C409.32 42.0752 409.298 42.0752 409.265 42.0752C409.265 42.0421 409.265 42.009 409.265 41.9759C409.254 41.9869 409.243 41.9979 409.243 41.9979C409.309 42.0973 409.221 42.02 409.11 42.0311C409.121 42.0421 409.143 42.0642 409.154 42.0752C409.11 42.0752 409.066 42.0752 409.022 42.0752C409.022 42.0752 409.033 42.0642 409.033 42.0531C409.011 42.0531 409 42.0531 408.978 42.0531V42.0642C407.191 42.0863 405.392 42.2408 404.3 43.0357C404.267 43.0578 404.234 43.0909 404.201 43.113C404.201 43.0909 404.201 43.0578 404.201 43.0357C404.19 43.0468 404.179 43.0578 404.179 43.0578C404.19 43.0799 404.19 43.0909 404.201 43.113C404.013 43.2676 403.848 43.4332 403.704 43.6319C403.66 43.654 403.638 43.6761 403.616 43.6982C403.539 43.643 403.572 43.7754 403.561 43.8086C403.528 43.7644 403.484 43.7202 403.45 43.6871C403.296 43.7754 403.428 43.7313 403.263 43.7423C403.241 43.7644 403.23 43.7754 403.208 43.7975C403.23 43.8196 403.252 43.8417 403.274 43.8638C403.285 43.8638 403.285 43.8748 403.296 43.8748C403.296 43.8748 403.296 43.8748 403.296 43.8859C403.329 43.919 403.351 43.9521 403.384 43.9742C403.428 43.9631 403.473 43.9631 403.528 43.9521C403.495 44.0183 403.462 44.0846 403.428 44.1619C403.395 44.1508 403.351 44.1729 403.307 44.206C402.965 44.2502 402.645 44.3496 402.447 44.5262C402.347 44.6145 401.796 44.6256 401.343 44.6587C401.112 44.6476 400.88 44.6476 400.659 44.6366C401.255 44.5152 402.049 44.2723 402.259 44.2833C402.27 44.2833 402.281 44.2833 402.281 44.2833C402.292 44.2612 402.292 44.2281 402.303 44.206C402.259 44.195 402.215 44.1729 402.171 44.1619C401.509 44.3164 400.847 44.471 400.185 44.6256C399.611 44.5924 399.026 44.5704 398.453 44.5372C398.442 44.3827 398.497 44.3606 398.629 44.3275C398.519 44.3164 398.42 44.3054 398.309 44.2833C398.32 44.3385 398.331 44.3827 398.342 44.4379C398.331 44.4489 398.32 44.46 398.32 44.46C398.309 44.471 398.298 44.482 398.298 44.482C398.089 44.3275 398.056 44.4048 397.89 44.4931C397.835 44.4931 397.791 44.4931 397.736 44.482C397.736 44.46 397.736 44.4379 397.736 44.4158C397.691 44.4379 397.647 44.4489 397.592 44.471C390.388 44.1177 383.184 43.919 376.046 45.3211C375.979 45.3322 375.913 45.3542 375.858 45.3653C371.092 45.0561 365.973 44.7028 360.49 44.3054C347.725 44.2502 339.594 43.8859 336.086 43.2124L305.823 43.113C293.213 43.4884 273.421 43.6761 246.457 43.6761C219.493 43.6761 189.308 45.4426 155.902 48.9645L149.392 50.6205C138.68 52.1552 131.442 53.0384 127.68 53.2702C123.907 53.5021 115.555 55.0698 102.592 57.9735C89.6399 60.8771 79.9312 63.2287 73.4772 65.0394C68.4353 65.8453 64.0774 66.7065 60.3926 67.6008C59.8851 67.7222 59.4107 67.8657 58.9473 68.0313C58.7487 67.9982 58.5281 67.9209 58.3736 67.7995C58.3846 67.8437 58.3957 67.8878 58.3957 67.9209C58.3846 67.9209 58.3846 67.932 58.3736 67.932C58.3515 67.8989 58.3295 67.8657 58.3074 67.8326C58.3074 67.9209 58.2743 67.9982 58.2302 67.9651C58.1088 67.9872 58.0757 67.9761 57.9213 67.932C57.8661 68.0755 57.7447 68.0865 57.6675 68.208C57.2041 68.208 56.8952 68.0645 56.6194 68.219C56.6415 68.219 56.6635 68.219 56.6746 68.219C56.6856 68.2301 56.6856 68.2411 56.6966 68.2411C56.6966 68.2742 56.6856 68.3074 56.6856 68.3405C56.5643 68.2522 56.6084 68.3294 56.4429 68.2963C56.4208 68.2742 56.3988 68.2632 56.3767 68.2411C56.3436 68.3074 56.3657 68.2742 56.2995 68.3184C56.3105 68.2963 56.3215 68.2853 56.3326 68.2632C56.2002 68.2963 56.2774 68.2853 56.134 68.2522C56.1781 68.3515 56.2553 68.3626 56.3988 68.3736C56.3877 68.3957 56.3767 68.4067 56.3657 68.4288C56.2774 68.4619 56.1891 68.495 56.1119 68.5282C56.123 68.5282 56.123 68.5392 56.134 68.5392C54.6667 68.8042 53.1883 69.0471 51.743 69.4224C51.732 69.4224 51.732 69.4224 51.721 69.4224C50.7391 69.6764 49.7682 69.9855 48.8194 70.405C48.7311 70.405 48.6429 70.405 48.5436 70.4161C48.2347 70.5044 47.9147 70.5927 47.6058 70.6921C47.5396 70.6479 47.4624 70.6479 47.341 70.7252C47.3521 70.7363 47.3631 70.7583 47.3741 70.7694C46.4694 71.0564 45.5758 71.3876 44.7263 71.8845C44.6932 71.8403 44.6491 71.8072 44.616 71.763C44.5167 71.8403 44.4505 71.8845 44.3291 71.9728C44.3622 71.9949 44.3953 72.017 44.4284 72.039C43.7665 72.4696 44.7042 72.8008 44.7042 73.1983H44.7153C44.3953 73.2204 43.9209 73.11 43.8878 73.5957C43.8547 74.0042 44.2629 73.7613 44.4726 73.8166C44.7704 74.2913 45.1345 74.1146 45.4986 74.0042C45.6199 74.1478 45.7303 74.2803 45.8516 74.4238C45.4324 74.2692 45.2007 74.766 44.8366 74.7881C43.9761 75.042 44.5718 75.3622 44.8256 75.6714C44.4946 75.8149 44.1636 75.9584 43.8327 76.1019C43.5238 76.113 43.1486 76.2344 43.2369 76.6319C43.3031 76.9631 43.6672 76.7092 43.8989 76.6871C44.0644 76.676 44.2298 76.6319 44.4064 76.5987L44.3953 76.6871C44.8477 77.1397 45.3331 76.8748 45.8185 76.8527C45.973 76.8416 46.1274 76.8306 46.2819 76.8196C46.2929 76.93 46.304 77.0404 46.304 77.1397C46.1605 77.1839 46.0281 77.2391 45.8847 77.2833C45.5537 77.3164 45.289 77.2833 45.0683 77.2833C45.1235 77.3495 45.1676 77.3937 45.2117 77.4378C45.0242 77.482 44.9911 77.6255 44.5939 77.5261C44.5057 77.482 44.3953 77.4157 44.296 77.3605C44.0974 77.3053 43.9761 77.3164 43.9209 77.3937C44.0092 77.4378 44.0864 77.482 44.1526 77.5261C44.2409 77.6255 44.3181 77.7028 44.3953 77.7911C43.3583 78.1444 42.2881 78.5198 41.1187 78.9173C42.0454 79.3478 42.6632 78.862 43.3031 78.9393C43.7885 79.127 44.2188 79.5576 44.7815 79.4803C45.0242 79.4803 45.2669 79.4803 45.5096 79.4803C45.2669 79.7122 45.0132 79.944 44.7704 80.1648C44.1636 80.2973 43.5458 80.4298 42.939 80.5623C42.5529 80.9377 42.1778 81.313 41.7034 81.7767C42.3102 81.8982 42.8066 82.0086 43.3031 82.1079C43.6451 82.1079 43.9982 82.1079 44.3402 82.119C44.9249 82.5937 45.5648 82.2625 46.1716 82.3288C45.2338 82.9029 45.2338 82.9139 45.7303 83.3003C45.8516 84.3271 45.0463 83.6867 44.7704 84.0179C44.6491 84.0179 44.5277 84.0179 44.4064 84.0179C44.3843 83.9407 44.3071 83.8965 44.1526 83.9075C44.1747 83.9517 44.1967 83.9848 44.2188 84.0179C43.943 84.0179 43.6782 84.0179 43.4134 84.029C43.3583 83.9407 43.281 83.8634 43.1486 83.7971C43.1817 83.8965 43.2038 83.9738 43.2259 84.0511C43.1376 84.0621 43.0604 84.0621 42.9721 84.0731C42.7184 84.1173 42.0895 84.3823 42.9059 84.7245C43.0163 85.0226 43.1266 85.3207 43.2479 85.6188C43.6561 86.4468 44.3071 86.0715 44.8808 86.1267L44.8697 86.1598C44.8477 87.6171 46.3481 86.8112 46.7011 87.7717C46.2929 88.0477 45.8185 87.849 45.5317 88.2575L45.5537 88.3458C44.9028 88.39 44.2519 88.4231 43.5569 88.4672C43.8989 88.942 44.3291 88.6218 44.6822 88.7543C45.3331 88.9972 45.9951 88.8647 46.657 88.8647C47.0431 89.2842 47.5175 89.1518 47.9699 89.1738C47.9919 89.3505 48.003 89.5271 48.025 89.7038C48.1243 89.8363 48.2236 89.9688 48.334 90.0902C48.7201 90.9072 49.2386 90.046 49.6689 90.2558C50.2757 89.8142 50.9376 90.1564 51.5775 90.1344C51.7099 90.1564 51.8313 90.2116 51.9526 90.2889C51.8864 90.4435 51.8203 90.6753 51.743 91.0176C51.9637 90.852 52.1292 90.6864 52.2285 90.4877C52.6698 90.8409 53.1 91.2936 53.7289 90.9182C54.0157 91.0066 54.3136 91.0949 54.6005 91.1832C55.3838 91.128 56.1781 91.0838 56.9614 91.0286C58.1088 91.4371 59.1569 90.9624 60.194 90.5429L60.1829 90.5649C60.5691 91.0286 61.0876 91.3157 61.5841 91.3267C61.9261 91.3378 62.3895 91.5586 62.7204 91.4261C66.306 92.8724 72.8373 93.1926 82.3253 92.4087C95.2665 91.7352 103.056 91.4371 105.681 91.5255C108.307 91.6138 117.497 91.7352 133.263 91.8898C156.409 89.1076 172.517 87.9483 181.563 88.39C190.61 88.8316 197.527 88.8978 202.316 88.6108C208.196 89.3174 217.121 88.9862 229.081 87.6282C241.823 85.9721 250.671 85.2655 255.647 85.4974C260.623 85.7292 265.951 86.0163 271.633 86.3806C277.315 86.7339 290.797 87.043 312.09 87.319C331.783 87.9925 351.84 88.8978 372.239 90.0129C372.526 90.4987 372.813 90.9403 373.122 91.2494C376.299 94.4291 379.532 95.4007 382.731 95.224C386.868 95.0032 390.984 94.0206 395.11 93.6121C399.435 93.1815 403.781 93.027 408.117 92.7509C408.967 92.8062 409.805 92.8503 410.655 92.9055C412.453 93.0159 414.251 92.9166 416.039 92.6847C417.539 92.7841 419.039 92.8834 420.551 92.9938C420.683 93.027 420.805 93.038 420.926 93.0159C421.356 93.049 421.776 93.0711 422.206 93.1042C431.528 95.5331 440.917 96.6924 450.361 96.593C457.642 96.6372 461.691 94.4291 462.53 89.9688C462.894 88.0035 463.346 86.4468 463.865 85.2545C464.13 85.2986 464.35 85.3207 464.549 85.1661C464.527 85.1661 464.494 85.1661 464.472 85.1661C464.461 85.1441 464.45 85.133 464.439 85.1109C464.45 85.0447 464.45 84.9895 464.461 84.9233C464.615 85.0778 464.571 84.9453 464.781 85.0116C464.814 85.0447 464.836 85.0778 464.869 85.1109C464.913 84.9895 464.88 85.0557 464.968 84.9785C464.957 85.0116 464.935 85.0447 464.913 85.0889C465.089 85.0337 464.99 85.0447 465.178 85.1109C465.123 84.9233 465.023 84.9012 464.825 84.8901C464.847 84.857 464.858 84.8239 464.88 84.7797C464.99 84.7245 465.112 84.6693 465.222 84.6141C465.1 84.5368 464.99 84.4485 464.869 84.3712C464.924 84.2939 464.935 84.3602 464.924 84.2608C465.145 84.2388 465.365 84.2167 465.586 84.1946C465.564 84.4264 465.542 84.6141 465.531 84.6693C465.63 84.5589 465.707 84.4044 465.796 84.3602C466.027 84.2498 466.27 84.2167 466.513 84.1283C466.546 84.1173 466.59 84.0952 466.623 84.0731C466.634 84.0731 466.656 84.0731 466.667 84.0731C466.689 84.0952 466.7 84.1173 466.722 84.1394C466.722 84.1173 466.722 84.0842 466.722 84.0621C466.733 84.0621 466.744 84.0621 466.755 84.0621C466.811 84.1283 466.877 84.1283 466.866 84.1394C466.888 84.1835 466.921 84.2277 466.943 84.2719C466.976 84.2498 466.998 84.2167 467.031 84.1946C467.009 84.2167 466.987 84.2498 466.965 84.2719C467.009 84.3271 467.042 84.3712 467.086 84.4264C467.108 84.305 467.097 84.3492 467.142 84.316C467.142 84.3271 467.153 84.3381 467.153 84.3381C467.142 84.4154 467.13 84.3492 467.153 84.4154C467.153 84.4375 467.153 84.4485 467.153 84.4706C467.175 84.4485 467.197 84.4154 467.219 84.3933C467.219 84.4264 467.208 84.4596 467.208 84.4927C467.175 84.4816 467.197 84.4706 467.175 84.5148C467.252 84.5589 467.34 84.592 467.417 84.6362C467.417 84.6473 467.417 84.6583 467.417 84.6583C467.362 84.6804 467.307 84.6914 467.252 84.7135C467.263 84.7577 467.263 84.8018 467.274 84.846C467.296 84.8239 467.307 84.8129 467.329 84.7908C467.318 84.8239 467.307 84.857 467.307 84.8901C467.473 84.6914 467.781 84.9453 467.991 85.3097C467.98 85.2324 467.98 85.1551 467.969 85.0778C467.969 85.0668 467.98 85.0557 467.98 85.0557C468.002 85.1109 468.013 85.1772 468.035 85.2324C468.035 85.0778 468.057 84.9343 468.09 85.0005C468.179 84.9785 468.201 84.9895 468.311 85.0668C468.355 84.8129 468.432 84.7908 468.488 84.57C468.83 84.592 469.061 84.8681 469.26 84.592C469.249 84.592 469.227 84.592 469.216 84.592C469.205 84.57 469.205 84.5589 469.194 84.5368C469.194 84.4706 469.205 84.4154 469.205 84.3602C469.293 84.5258 469.26 84.3823 469.381 84.4596C469.392 84.4927 469.414 84.5258 469.425 84.5589C469.447 84.4375 469.436 84.5037 469.48 84.4264C469.469 84.4596 469.458 84.4927 469.458 84.5258C469.558 84.4706 469.502 84.4816 469.602 84.5479C469.569 84.3602 469.514 84.3381 469.403 84.316C469.414 84.2829 469.425 84.2498 469.425 84.2167C469.491 84.1615 469.547 84.1063 469.613 84.0511C469.613 84.04 469.602 84.04 469.602 84.029C470.672 83.6094 471.742 83.223 472.79 82.6048L472.801 82.5937C473.518 82.1742 474.213 81.6332 474.897 80.9045C474.964 80.9045 475.03 80.9045 475.096 80.9045C475.317 80.75 475.548 80.5954 475.769 80.4408C475.813 80.5292 475.879 80.5292 475.968 80.3967C475.957 80.3635 475.945 80.3415 475.945 80.3083C476.596 79.8226 477.247 79.2374 477.843 78.3652C477.876 78.4425 477.898 78.5088 477.931 78.586C477.998 78.4535 478.053 78.3652 478.13 78.2107C478.097 78.1775 478.075 78.1334 478.053 78.0892C478.527 77.3385 477.821 76.665 477.81 75.9474V75.9363C478.042 75.9032 478.395 76.1351 478.406 75.2408C478.417 74.49 478.13 74.9096 477.964 74.8102C477.733 73.927 477.468 74.2251 477.203 74.4238C477.115 74.1588 477.027 73.8938 476.938 73.6289C477.247 73.938 477.402 73.0216 477.667 73.0106C478.295 72.58 477.843 71.9618 477.645 71.3766C477.887 71.1227 478.119 70.8687 478.362 70.6148C478.593 70.6038 478.858 70.405 478.781 69.6543C478.737 69.0581 478.483 69.5108 478.318 69.5329ZM403.296 43.9411C403.307 43.919 403.307 43.8859 403.318 43.8638C403.329 43.8638 403.34 43.8638 403.34 43.8638C403.34 43.8859 403.318 43.9079 403.296 43.9411ZM47.2748 72.7567V72.7456V72.7567ZM48.4884 71.9618C48.4994 71.9507 48.5105 71.9397 48.5215 71.9397C48.5215 71.9507 48.5325 71.9618 48.5325 71.9728C48.5215 71.9618 48.4994 71.9618 48.4884 71.9618ZM58.2302 67.9872C58.2412 67.9872 58.2412 67.9982 58.2522 67.9982C58.2522 68.0203 58.2522 68.0424 58.2522 68.0645C58.2412 68.0424 58.2412 68.0093 58.2302 67.9872ZM428.98 41.4349C428.991 41.4569 429.002 41.4901 429.013 41.5122C428.991 41.4901 428.98 41.4569 428.958 41.4349C428.958 41.4349 428.969 41.4349 428.98 41.4349ZM428.903 41.5894C428.925 41.6115 428.936 41.6226 428.958 41.6446C428.936 41.6336 428.903 41.6115 428.881 41.6005C428.881 41.5894 428.892 41.5894 428.903 41.5894ZM424.931 41.5674C424.876 41.5674 424.92 41.5674 424.876 41.5453C424.898 41.5453 424.92 41.5563 424.931 41.5674ZM424.534 41.5011C424.556 41.5232 424.567 41.5563 424.589 41.5784C424.567 41.5784 424.534 41.5784 424.512 41.5784C424.523 41.5453 424.523 41.5232 424.534 41.5011ZM423.916 41.4901C423.927 41.5122 423.938 41.5232 423.949 41.5453C423.96 41.5674 423.982 41.5894 423.993 41.6115C423.982 41.6115 423.982 41.6115 423.971 41.6115C423.949 41.6115 423.938 41.6005 423.916 41.6005C423.916 41.6115 423.916 41.6115 423.905 41.6226H423.894C423.905 41.5784 423.916 41.5342 423.916 41.4901ZM423.342 41.5894C423.276 41.5122 423.287 41.5342 423.287 41.4349C423.298 41.4901 423.32 41.5342 423.342 41.5894ZM421.974 41.5342C421.996 41.5784 422.018 41.6226 422.04 41.6557C422.018 41.6446 421.996 41.6446 421.985 41.6336C421.985 41.6226 421.985 41.6005 421.974 41.5894C421.974 41.5674 421.974 41.5453 421.974 41.5342ZM421.445 41.6005C421.489 41.6446 421.489 41.6446 421.489 41.6557C421.478 41.6557 421.478 41.6446 421.467 41.6446C421.456 41.6778 421.456 41.7109 421.445 41.744C421.445 41.755 421.445 41.7661 421.434 41.7771C421.423 41.7771 421.411 41.7771 421.411 41.7771C421.434 41.7219 421.445 41.6667 421.445 41.6005ZM419.679 41.9427C419.69 41.9427 419.69 41.9427 419.701 41.9427C419.712 41.9427 419.712 41.9427 419.724 41.9427C419.701 41.9427 419.69 41.9427 419.679 41.9427ZM418.863 41.5342C418.863 41.5563 418.863 41.5894 418.863 41.6115C418.852 41.6226 418.841 41.6336 418.841 41.6336C418.841 41.6005 418.852 41.5674 418.863 41.5342ZM418.289 41.9207C418.311 41.9538 418.322 41.9869 418.344 42.02C418.322 42.0311 418.311 42.0421 418.289 42.0531C418.278 42.0421 418.267 42.0311 418.267 42.0311C418.267 41.9869 418.278 41.9538 418.289 41.9207ZM418.168 41.5342C418.179 41.5342 418.19 41.5342 418.19 41.5342C418.179 41.5563 418.179 41.5894 418.168 41.6115C418.168 41.5894 418.168 41.5563 418.168 41.5342ZM417.914 41.9096C417.925 41.9096 417.936 41.9096 417.936 41.9096C417.914 41.9317 417.903 41.9648 417.881 41.9869C417.892 41.9538 417.903 41.9317 417.914 41.9096ZM417.01 42.009C417.021 42.009 417.032 42.009 417.032 42.009C417.021 42.0311 417.021 42.0642 417.01 42.0863C417.01 42.0642 417.01 42.0421 417.01 42.009ZM416.932 41.9648C416.954 41.9869 416.965 41.9979 416.987 42.02C416.965 42.0421 416.932 42.0752 416.91 42.0973C416.91 42.0531 416.921 42.009 416.932 41.9648ZM416.701 42.3071C416.723 42.3181 416.734 42.3181 416.756 42.3291C416.734 42.3402 416.701 42.3512 416.679 42.3623C416.69 42.3402 416.69 42.3291 416.701 42.3071ZM416.182 41.8654C416.193 41.8654 416.204 41.8654 416.204 41.8654C416.171 41.9206 416.215 41.8986 416.149 41.8986C416.16 41.8765 416.171 41.8654 416.182 41.8654ZM415.928 41.6336C415.906 41.6557 415.873 41.6667 415.851 41.6888C415.873 41.6667 415.884 41.6557 415.906 41.6336C415.917 41.6336 415.928 41.6336 415.928 41.6336ZM415.818 41.479C415.829 41.479 415.84 41.479 415.84 41.479C415.818 41.5011 415.807 41.5342 415.785 41.5563C415.807 41.5342 415.818 41.5122 415.818 41.479ZM413.722 41.7882C413.722 41.8102 413.722 41.8434 413.722 41.8654C413.711 41.8434 413.7 41.8102 413.689 41.7882C413.711 41.7882 413.722 41.7882 413.722 41.7882ZM398.254 44.471C398.276 44.482 398.287 44.482 398.309 44.4931C398.298 44.5041 398.287 44.5152 398.276 44.5372H398.265C398.254 44.5152 398.254 44.4931 398.254 44.471ZM464.648 84.2829L464.637 84.2719C464.681 84.2719 464.736 84.2608 464.781 84.2608C464.736 84.2608 464.692 84.2719 464.648 84.2829ZM467.02 84.0621C467.031 84.0621 467.042 84.0621 467.053 84.0621C467.064 84.0842 467.075 84.0952 467.086 84.1173C467.009 84.1173 467.064 84.1173 467.02 84.0621ZM468.035 84.9674C468.035 84.9233 468.035 84.8791 468.035 84.8349C468.046 84.8901 468.046 84.9343 468.057 84.9895C468.046 84.9785 468.046 84.9785 468.035 84.9674ZM475.052 78.1003C475.041 78.1223 475.041 78.1334 475.03 78.1444C475.03 78.1223 475.019 78.1113 475.019 78.0892C475.03 78.0892 475.041 78.0892 475.052 78.1003ZM475.912 76.7092C475.912 76.6981 475.912 76.6981 475.901 76.6871C475.912 76.6871 475.912 76.6981 475.912 76.7092Z" fill="#99CC33"/>
<path d="M95.7073 97.0567H62.8964C60.712 97.0567 59.4102 95.7539 59.4102 93.5679V45.2328C59.4102 43.0468 60.712 41.744 62.8964 41.744H94.9902C97.1747 41.744 98.4765 43.0468 98.4765 45.2328V51.1946C98.4765 53.3806 97.1747 54.6834 94.9902 54.6834H75.9149V62.0916H93.7215C95.9059 62.0916 97.2078 63.3944 97.2078 65.5804V71.2993C97.2078 73.4853 95.9059 74.7881 93.7215 74.7881H75.9149V84.029H95.7073C97.8918 84.029 99.1936 85.3317 99.1936 87.5178V93.5569C99.1936 95.7429 97.8918 97.0567 95.7073 97.0567ZM62.8964 43.9521C61.9146 43.9521 61.6167 44.2502 61.6167 45.2328V93.5679C61.6167 94.5505 61.9146 94.8486 62.8964 94.8486H95.7073C96.6892 94.8486 96.9871 94.5505 96.9871 93.5679V87.5288C96.9871 86.5462 96.6892 86.2481 95.7073 86.2481H73.7084V72.58H93.7215C94.7034 72.58 95.0012 72.2819 95.0012 71.2993V65.5804C95.0012 64.5978 94.7034 64.2997 93.7215 64.2997H73.7084V52.4753H94.9902C95.9721 52.4753 96.27 52.1772 96.27 51.1946V45.2328C96.27 44.2502 95.9721 43.9521 94.9902 43.9521H62.8964Z" fill="white"/>
<path d="M125.881 97.6087C120.244 97.6087 114.937 97.2113 109.664 96.4053C107.678 96.0741 106.585 94.7272 106.585 92.6074V46.5024C106.585 44.3606 107.854 42.9474 110.072 42.6272C115.941 41.7771 121.391 41.3465 126.279 41.3465C144.295 41.3465 152.326 50.1458 152.326 69.8751C152.326 78.1886 150.296 85.3869 146.755 89.6486C145.233 91.5806 143.158 93.2257 140.61 94.5395C136.329 96.7255 132.071 97.6087 125.881 97.6087ZM126.279 43.5546C121.501 43.5546 116.162 43.9742 110.392 44.8132C109.255 44.9788 108.792 45.4646 108.792 46.5024V92.6074C108.792 93.7887 109.244 94.0979 110.017 94.2193C115.158 95.0142 120.354 95.4007 125.881 95.4007C130.791 95.4007 135.005 94.9259 139.606 92.5743C141.879 91.404 143.71 89.9467 145.045 88.2575L145.067 88.2354C148.289 84.3712 150.131 77.6697 150.131 69.8641C150.12 46.6791 138.072 43.5546 126.279 43.5546ZM125.087 86.4027C123.719 86.4027 122.638 86.4027 121.866 86.3144L120.884 86.2039V52.2655L121.866 52.1551C123.333 51.9895 124.789 51.9123 126.201 51.9123C136.737 51.9123 138.183 60.314 138.183 69.3893C138.194 79.6017 135.965 86.4027 125.087 86.4027ZM123.101 84.1725C123.653 84.1835 124.326 84.1835 125.098 84.1835C133.141 84.1835 135.987 80.3083 135.987 69.3893C135.987 58.117 133.428 54.1203 126.212 54.1203C125.197 54.1203 124.16 54.1645 123.101 54.2528V84.1725Z" fill="white"/>
<path d="M181.574 97.9289C166.195 97.9289 159.343 91.2163 159.343 76.1571V45.2328C159.343 43.0468 160.645 41.744 162.83 41.744H172.516C174.701 41.744 176.002 43.0468 176.002 45.2328V75.7597C176.002 83.0022 177.073 84.6693 181.728 84.6693C186.307 84.6693 187.3 83.0905 187.3 75.7597V45.2328C187.3 43.0468 188.602 41.744 190.786 41.744H200.484C202.668 41.744 203.97 43.0468 203.97 45.2328V76.1571C203.97 83.5763 202.26 89.1186 198.895 92.6626C195.475 96.1514 189.65 97.9289 181.574 97.9289ZM162.819 43.9521C161.837 43.9521 161.539 44.2502 161.539 45.2328V76.1571C161.539 90.0571 167.342 95.7208 181.563 95.7208C189.032 95.7208 194.328 94.1752 197.295 91.128C200.252 88.0256 201.753 82.9801 201.753 76.1571V45.2328C201.753 44.2502 201.455 43.9521 200.473 43.9521H190.775C189.793 43.9521 189.495 44.2502 189.495 45.2328V75.7597C189.495 83.3003 188.337 86.8774 181.717 86.8774C174.37 86.8774 173.785 82.0527 173.785 75.7597V45.2328C173.785 44.2502 173.487 43.9521 172.505 43.9521H162.819Z" fill="white"/>
<path d="M238.524 98.0835C220.188 98.0835 210.887 88.3237 210.887 69.0802C210.887 59.5854 213.756 51.8571 218.974 47.3415C223.917 43.0468 230.172 40.8718 237.575 40.8718C242.176 40.8718 246.809 41.6446 251.355 43.1572L251.388 43.1682C253.418 43.919 254.345 45.5088 253.914 47.5292L252.646 53.8002C252.425 54.849 251.95 55.5777 251.255 55.9641C250.516 56.3726 249.601 56.3726 248.486 55.9641C244.956 54.5841 241.723 53.8885 238.855 53.8885C231.573 53.8885 228.043 58.8346 228.043 69.0029C228.12 75.1524 229.29 79.4141 231.529 81.6553C233.769 83.8965 237.023 84.9895 241.47 84.9895C242.86 84.9895 245.309 84.8901 249.126 84.4375C250.296 84.3271 251.2 84.5589 251.851 85.122C252.491 85.674 252.844 86.5241 252.899 87.6282L253.219 93.1042C253.33 95.1357 252.171 96.6041 250.119 97.0346C246.07 97.7412 242.297 98.0835 238.524 98.0835ZM237.575 43.0688C230.724 43.0688 224.954 45.0672 220.419 48.9976C215.697 53.0936 213.094 60.2257 213.094 69.0691C213.094 87.0982 221.412 95.8644 238.524 95.8644C242.165 95.8644 245.816 95.5331 249.689 94.8486C250.649 94.6499 251.057 94.1531 251.002 93.2146L250.682 87.7386C250.66 87.2638 250.56 86.9216 250.395 86.7891C250.218 86.6345 249.843 86.5793 249.347 86.6345C246.269 86.9989 243.533 87.1976 241.458 87.1976C236.461 87.1976 232.588 85.8617 229.951 83.212C227.249 80.5071 225.903 75.8701 225.814 69.0139C225.814 57.5098 230.194 51.6804 238.833 51.6804C241.977 51.6804 245.474 52.4312 249.247 53.8995C249.92 54.1535 250.141 54.0431 250.163 54.032C250.251 53.9879 250.373 53.7781 250.461 53.3475L251.73 47.0765C251.895 46.2816 251.774 45.6634 250.616 45.2328C246.324 43.7975 241.922 43.0688 237.575 43.0688Z" fill="white"/>
<path d="M304.532 97.0567H295.077C293.025 97.0567 291.558 95.9637 290.929 93.9764L288.071 84.8901H275.957L273.177 93.9654C272.548 95.9637 271.07 97.0457 269.029 97.0457H259.254C258.063 97.0457 257.213 96.6924 256.739 96.0079C256.264 95.3234 256.231 94.4291 256.628 93.3361L272.901 44.7139C273.619 42.7597 275.075 41.733 277.127 41.733H287.222C289.274 41.733 290.741 42.826 291.37 44.8132L307.257 93.2919C307.61 94.418 307.533 95.3344 307.036 96.0189C306.529 96.7034 305.69 97.0567 304.532 97.0567ZM274.325 82.682H289.693L293.036 93.314C293.378 94.3849 293.985 94.8486 295.077 94.8486H304.532C305.006 94.8486 305.216 94.7493 305.249 94.7161C305.271 94.683 305.304 94.4512 305.15 93.9764L289.263 45.4978C288.921 44.4158 288.303 43.9521 287.211 43.9521H277.116C275.991 43.9521 275.373 44.3827 274.976 45.4536L258.714 94.0758C258.548 94.5285 258.559 94.7272 258.559 94.7713C258.581 94.7603 258.769 94.8486 259.254 94.8486H269.029C270.121 94.8486 270.739 94.3849 271.07 93.314L274.325 82.682ZM287.178 74.7108H276.84L280.977 57.5319H283.129L287.178 74.7108ZM279.642 72.5027H284.397L282.047 62.5442L279.642 72.5027Z" fill="white"/>
<path d="M330.9 121.832C329.852 121.832 328.87 121.324 328.064 120.33L325.858 117.724C324.556 116.102 324.622 114.324 326.023 112.712C327.634 110.89 328.373 109.102 328.373 107.081C328.373 106.077 328.175 104.84 327.778 103.306C327.48 102.18 327.59 101.274 328.108 100.601C328.616 99.9493 329.421 99.6181 330.514 99.6181H338.303C340.476 99.6181 341.899 100.777 342.318 102.886C342.55 103.869 342.66 104.962 342.66 106.287C342.66 112.171 339.494 117.139 333.25 121.059C332.455 121.567 331.661 121.832 330.9 121.832ZM330.503 101.815C330.039 101.815 329.874 101.915 329.852 101.937C329.83 101.97 329.763 102.202 329.907 102.732C330.37 104.476 330.58 105.856 330.58 107.07C330.58 109.621 329.631 111.939 327.678 114.158C326.884 115.075 327.049 115.693 327.557 116.311L329.763 118.906C330.337 119.612 330.933 119.922 332.047 119.182C337.707 115.627 340.454 111.409 340.454 106.264C340.454 105.116 340.366 104.189 340.167 103.339C339.946 102.213 339.439 101.804 338.303 101.804H330.503V101.815ZM337.266 98.0835C318.929 98.0835 309.629 88.3237 309.629 69.0802C309.629 59.5854 312.497 51.8571 317.716 47.3415C322.658 43.0468 328.914 40.8718 336.317 40.8718C340.917 40.8718 345.551 41.6446 350.096 43.1572L350.129 43.1682C352.159 43.919 353.086 45.5088 352.656 47.5292L351.387 53.8002C351.167 54.849 350.692 55.5777 349.997 55.9641C349.258 56.3726 348.342 56.3726 347.228 55.9641C343.698 54.5841 340.465 53.8885 337.596 53.8885C330.315 53.8885 326.785 58.8346 326.785 69.0029C326.862 75.1524 328.031 79.4141 330.271 81.6553C332.51 83.8965 335.765 84.9895 340.211 84.9895C341.601 84.9895 344.051 84.8901 347.868 84.4375C349.037 84.3271 349.942 84.5589 350.593 85.122C351.233 85.674 351.586 86.5241 351.641 87.6282L351.961 93.1042C352.071 95.1357 350.913 96.6041 348.861 97.0346C344.812 97.7412 341.028 98.0835 337.266 98.0835ZM336.306 43.0688C329.454 43.0688 323.684 45.0672 319.15 48.9976C314.428 53.0936 311.824 60.2257 311.824 69.0691C311.824 87.0982 320.143 95.8644 337.254 95.8644C340.895 95.8644 344.547 95.5331 348.419 94.8486C349.379 94.6499 349.787 94.1531 349.732 93.2146L349.412 87.7386C349.39 87.2638 349.291 86.9216 349.126 86.7891C348.949 86.6345 348.585 86.5793 348.077 86.6345C344.999 86.9989 342.263 87.1976 340.189 87.1976C335.191 87.1976 331.319 85.8617 328.682 83.212C325.979 80.5071 324.633 75.8701 324.545 69.0139C324.545 57.5098 328.925 51.6804 337.563 51.6804C340.708 51.6804 344.205 52.4312 347.978 53.8995C348.651 54.1535 348.872 54.0431 348.894 54.032C348.982 53.9879 349.103 53.7781 349.192 53.3475L350.46 47.0765C350.626 46.2816 350.505 45.6634 349.346 45.2328C345.055 43.7975 340.664 43.0688 336.306 43.0688Z" fill="white"/>
<path d="M403.274 97.0567H393.819C391.767 97.0567 390.299 95.9637 389.67 93.9764L386.813 84.8901H374.699L371.919 93.9654C371.29 95.9637 369.812 97.0457 367.771 97.0457H357.996C356.804 97.0457 355.955 96.6924 355.48 96.0079C355.006 95.3234 354.973 94.4291 355.37 93.3361L371.643 44.7139C372.36 42.7597 373.817 41.733 375.869 41.733H385.963C388.016 41.733 389.483 42.826 390.112 44.8132L405.999 93.2919C406.352 94.4181 406.274 95.3344 405.778 96.0189C405.259 96.7034 404.421 97.0567 403.274 97.0567ZM373.066 82.682H388.435L391.778 93.314C392.12 94.3849 392.726 94.8486 393.819 94.8486H403.274C403.748 94.8486 403.958 94.7493 403.991 94.7161C404.013 94.683 404.046 94.4512 403.891 93.9764L388.004 45.4977C387.662 44.4158 387.045 43.9521 385.952 43.9521H375.858C374.732 43.9521 374.114 44.3827 373.717 45.4536L357.444 94.0758C357.279 94.5285 357.29 94.7272 357.29 94.7713C357.312 94.7603 357.499 94.8486 357.985 94.8486H367.76C368.852 94.8486 369.47 94.3849 369.801 93.314L373.066 82.682ZM385.919 74.7108H375.582L379.719 57.5319H381.87L385.919 74.7108ZM378.373 72.5027H383.128L380.778 62.5442L378.373 72.5027ZM385.632 38.7851C383.735 38.7851 381.628 38.1448 379.377 36.8972C376.851 35.4951 375.747 35.2853 375.306 35.2853C374.821 35.2853 374.114 35.4178 373.066 36.4777C372.327 37.2174 371.544 37.5817 370.75 37.5597C369.933 37.5265 369.161 37.096 368.444 36.2679L367.109 34.7664C365.564 33.2318 365.355 31.377 366.568 29.7209C369.282 26.0445 372.118 24.2669 375.24 24.2669C377.159 24.2669 379.311 24.8962 381.639 26.1438C384.264 27.4135 385.445 27.6784 385.963 27.6784C386.714 27.6784 387.354 27.4687 387.905 27.0381L387.927 27.016C390.145 25.3931 391.767 26.4309 392.539 27.2037L394.227 28.9702C395.805 30.549 395.981 32.459 394.69 34.0819C392.925 36.3342 389.339 38.7851 385.632 38.7851ZM375.306 33.0772C376.497 33.0772 378.13 33.6734 380.447 34.9651C382.367 36.0361 384.11 36.5771 385.632 36.5771C388.457 36.5771 391.447 34.6339 392.947 32.7129C393.366 32.183 393.653 31.5205 392.638 30.5158L390.95 28.7494C390.564 28.363 390.178 28.098 389.229 28.7935C388.291 29.5222 387.188 29.8865 385.941 29.8865C384.805 29.8865 383.161 29.3345 380.613 28.109C378.594 27.0271 376.74 26.475 375.218 26.475C372.835 26.475 370.584 27.9655 368.322 31.0347C367.936 31.5647 367.671 32.2382 368.686 33.2539L370.077 34.8106C370.507 35.3074 370.75 35.3516 370.805 35.3626C370.948 35.3736 371.213 35.208 371.489 34.932C372.757 33.6513 373.971 33.0772 375.306 33.0772Z" fill="white"/>
<path d="M432.818 97.9289C421.885 97.9289 414.802 93.866 411.15 85.4974C408.966 79.9771 408.514 75.0752 408.514 69.4004C408.514 62.4449 409.319 57.7858 411.305 53.2923C413.71 47.6727 417.141 44.4158 422.757 42.4395C425.791 41.3465 429.255 40.7835 433.05 40.7835C436.878 40.7835 440.321 41.3465 443.288 42.4395C449.003 44.4268 452.534 47.7831 454.729 53.3254C456.969 58.393 457.432 63.2398 457.432 69.3893C457.432 75.1414 456.958 80.0765 454.641 85.4753C451.232 93.7446 443.884 97.9289 432.818 97.9289ZM433.061 42.9916C429.52 42.9916 426.309 43.4994 423.507 44.5152C418.465 46.2927 415.519 49.0859 413.346 54.1645C411.173 59.0665 410.731 63.8029 410.731 69.3893C410.731 74.8102 411.15 79.4803 413.191 84.6473C416.435 92.0885 422.867 95.7208 432.818 95.7208C442.913 95.7208 449.577 91.9892 452.611 84.6362V84.6252C454.773 79.5686 455.226 74.8764 455.226 69.4004C455.226 63.5379 454.806 58.945 452.699 54.1866C450.713 49.1963 447.69 46.3148 442.538 44.5262C439.813 43.5105 436.625 42.9916 433.061 42.9916ZM432.973 86.7229C428.637 86.7229 425.592 84.8349 424.158 81.2578C422.889 78.0671 422.415 74.8544 422.415 69.4004C422.415 63.7918 422.889 60.4907 424.158 57.2338C425.592 53.5463 428.637 51.6031 432.973 51.6031C438.026 51.6031 441.214 54.2087 442.461 59.3315C443.388 62.4559 443.454 65.3485 443.454 69.4004C443.454 74.2692 443.178 77.769 441.788 81.2578C440.365 84.8239 437.309 86.7229 432.973 86.7229ZM432.973 53.8002C429.531 53.8002 427.324 55.1803 426.221 58.0287C425.063 61.0096 424.632 64.0899 424.632 69.3893C424.632 74.5342 425.063 77.5262 426.221 80.4298C427.313 83.1678 429.531 84.5037 432.984 84.5037C436.437 84.5037 438.655 83.1678 439.747 80.4298C441.016 77.2722 441.258 73.9932 441.258 69.3893C441.258 65.4037 441.192 62.7761 440.354 59.9276L440.343 59.8724C439.317 55.6771 437.055 53.8002 432.973 53.8002Z" fill="white"/>
<path d="M79.0925 114.622C82.6891 114.81 84.708 115.66 85.2266 116.786C85.7561 117.934 86.6718 118.751 87.5103 119.082C88.6798 119.745 89.4631 120.474 89.8603 121.257C90.9083 122.781 88.4701 123.984 82.5346 124.713C78.4857 125.331 76.4667 125.618 72.4178 126.148C69.0639 126.292 64.8935 126.943 63.1283 128.379C61.6058 129.626 60.6791 132.022 60.2599 133.159C59.8406 134.285 59.0904 136.372 57.9982 139.419C57.7665 139.872 57.3914 141.55 56.6963 144.2C55.8358 147.534 54.8208 150.239 54.0044 152.149C52.6143 155.317 51.7317 158.11 51.3455 160.528C50.5512 163.112 50.154 164.393 49.3597 166.965C47.6165 173.059 46.6898 176.305 46.5795 176.692C46.4692 177.089 46.414 177.906 46.3257 179.076C46.2595 179.871 46.0609 180.666 45.8624 181.362C45.6307 182.201 45.1342 186.308 44.3288 193.606C44.373 195.229 43.9317 196.653 43.0049 197.867C43.0711 199.004 41.9458 202.615 39.629 208.654C38.305 210.762 36.8267 212.297 35.1828 213.258C34.554 213.765 32.2482 214.13 29.7107 213.523C27.2063 212.926 24.9887 211.999 24.1944 211.844C20.9177 211.248 19.0753 209.482 19.2849 208.168C19.4614 207.009 20.4323 205.386 22.4181 203.542C23.4662 202.074 24.051 200.936 24.1503 200.164C24.2606 199.38 24.8012 197.657 25.3418 195.24C25.8272 193.054 26.2906 189.708 27.2283 185.877C27.7138 183.934 28.0117 182.488 27.9675 181.66C28.2102 179.761 28.4861 178.061 28.7839 176.548C29.0377 174.528 29.159 173.523 29.4128 171.503C29.6003 170.686 29.6996 170.277 29.8872 169.471C30.6264 167.12 31.84 162.35 33.5169 155.152C33.8038 154.125 34.1789 153.021 34.6312 151.828C34.8077 151.299 34.896 151.034 35.0835 150.515C37.621 143.062 38.956 138.911 39.0884 138.116C39.2208 137.31 39.2759 136.747 39.2538 136.427C39.2318 136.107 39.8827 133.755 41.2066 129.372C41.3169 129.03 41.3721 128.864 41.4824 128.522C41.0411 128.533 40.8205 128.533 40.3681 128.544C39.2208 128.401 38.305 128.323 37.61 128.301C36.9149 128.279 36.264 128.323 35.6572 128.423C35.0504 128.522 30.6374 128.655 23.2125 127.904C18.3913 127.407 15.5338 126.325 15.0594 125.254C14.585 124.183 13.3604 122.306 11.3745 119.623C11.2421 119.138 11.1759 118.895 11.0436 118.409C10.8339 114.799 14.3313 113.43 21.5135 114.004C24.2495 114.633 29.137 114.622 35.1497 114.677C39.4193 114.721 42.9718 114.832 45.1121 114.479C47.2525 114.114 48.9735 114.037 50.2975 114.258C51.6214 114.468 52.7688 114.523 53.7727 114.412C55.5931 114.203 58.0203 114.169 60.7674 114.479C61.9258 114.611 63.338 114.644 64.9156 114.468C66.4933 114.302 67.4641 114.225 67.8172 114.269C68.7549 114.203 69.2183 114.169 70.1561 114.103C70.6525 114.158 73.6755 114.335 79.0925 114.622Z" fill="white"/>
<path d="M77.7577 132C79.247 131.878 81.9611 132.32 85.8225 133.303C89.0109 134.12 92.3979 135.179 95.6525 136.504C99.7676 138.182 102.471 139.728 103.629 140.898C104.787 142.069 105.604 143.084 106.089 143.957C106.575 144.829 106.531 146.452 105.946 148.814C105.891 149.499 105.637 150.393 105.196 151.508C104.754 152.623 103.795 153.915 102.702 155.317C101.809 156.477 100.871 157.967 99.8228 159.491C98.7747 161.014 96.9433 163.222 94.3506 166.071C93.4239 166.965 92.431 167.981 91.3608 169.118C86.9588 172.75 83.8256 175.444 81.9831 177.277C82.623 177.641 84.1896 179.728 85.9328 183.25C87.6759 186.772 88.6468 189.62 89.1543 191.144C89.6618 192.678 90.1914 194.555 90.743 196.796C91.2946 199.038 91.9124 201.853 92.5854 205.275C93.2694 208.687 93.446 210.807 93.115 211.635C92.784 212.463 92.4089 213.081 91.9786 213.478C91.5484 213.876 90.5003 214.638 88.8454 215.753C87.1905 216.868 86.2196 217.74 85.9438 218.369C85.668 219.01 85.0502 219.186 84.0683 218.899C83.0974 218.612 82.7444 218.005 83.0202 217.089C83.296 216.172 83.2077 214.174 82.7775 211.105C81.0343 203.807 79.7987 199.402 79.0816 197.878C78.3644 196.355 77.6915 194.732 77.0736 193.009C76.4558 191.287 75.9483 189.918 75.5511 188.891C75.154 187.865 74.481 186.827 73.5432 185.767C72.6054 184.718 71.767 184.31 71.0167 184.563C70.2665 184.817 68.8544 185.204 66.7692 185.69C65.8645 188.218 65.4012 189.476 64.4965 191.994C64.1765 193.263 63.8014 194.864 63.3822 196.807C62.9519 198.75 62.6872 199.965 62.5658 200.44C62.4444 200.925 62.3231 201.389 62.2128 201.864C62.0914 202.328 61.7935 203.586 61.3301 205.618C61.297 206.854 60.0393 207.804 57.546 208.422C55.0416 209.04 53.2984 208.897 52.3055 208.013C51.3126 207.141 50.8051 206.203 50.5624 205.651C50.3307 205.121 50.1872 203.752 50.4851 201.798C51.0478 198.165 51.2684 196.023 51.3015 195.582C51.2905 195.471 51.7539 192.987 52.6806 188.13C53.0336 185.811 54.8209 180.225 58.0093 171.293C61.628 162.483 63.4263 158.044 67.034 149.124C67.9607 146.065 68.4131 144.365 68.38 144.023C68.3469 143.681 68.2255 143.162 68.0269 142.455C67.8283 141.749 67.9497 141.086 68.402 140.479C70.1672 138.326 71.5684 136.493 72.6275 134.981C73.6646 133.457 75.3856 132.475 77.7577 132ZM85.1164 144.023C83.3291 146.22 82.2369 147.744 81.8618 148.605C81.4867 149.466 81.0674 150.404 80.604 151.409C80.1407 152.425 79.6883 153.418 79.236 154.39C78.7837 155.372 77.8238 157.901 76.3234 161.964C75.6173 163.189 74.8561 165.53 74.0397 168.974C74.5913 168.952 75.849 168.29 77.8238 166.965C78.3865 166.49 79.0926 165.872 79.9642 165.132C83.3401 161.655 85.5025 159.325 86.4403 158.188C87.378 157.062 88.4261 155.428 89.5735 153.286C90.7209 151.144 91.0298 149.267 90.7761 147.81C90.5444 146.54 89.1212 145.237 86.3189 144.045C85.8445 144.045 85.6018 144.045 85.1164 144.023Z" fill="white"/>
<path d="M125.793 135.776C127.106 135.776 128.805 136.405 130.89 137.641C132.976 138.878 133.273 139.949 132.722 140.711C132.115 141.539 131.541 143.383 131.221 145.094C130.923 146.662 130.482 148.947 130.019 151.332C129.6 153.44 129.191 155.56 128.794 157.216C128.32 159.148 127.989 161.577 127.581 164.227C127.183 166.888 126.709 169.383 126.179 171.712C125.65 174.053 125.319 176.14 125.198 177.972C125.076 179.816 124.988 181.273 124.933 182.355C124.878 183.437 124.679 185.502 124.337 188.527C124.37 189.134 124.392 189.443 124.425 190.062C127.062 189.598 128.287 189.874 128.099 190.912C127.912 191.95 127.912 193.153 128.088 194.533C128.265 195.913 126.897 197.834 123.973 200.23C123.565 202.835 123.344 204.635 123.3 205.618C123.256 206.6 123.157 207.958 122.991 209.703C122.826 211.447 122.759 213.103 122.781 214.682C122.803 216.261 122.605 217.232 122.164 217.608C121.733 217.983 121.104 218.767 120.299 219.948C119.494 221.13 118.236 221.726 116.548 221.715C114.86 221.704 113.845 221.56 113.525 221.306C113.205 221.041 113.029 220.511 113.018 219.705C113.007 218.899 112.984 218.071 112.973 217.21C112.962 216.36 112.984 215.388 113.051 214.295C113.117 213.202 113.139 212.275 113.117 211.524C113.095 210.774 113.04 209.647 112.951 208.146C112.863 206.644 112.819 205.783 112.808 205.551C112.929 204.779 112.521 204.569 111.605 204.9C108.538 206.313 106.718 207.219 106.155 207.66C105.593 208.091 105.008 208.521 104.401 208.941C103.794 209.36 103.364 209.99 103.121 210.829C102.879 211.668 102.658 213.478 102.139 215.874C101.621 218.281 100.694 219.716 99.8116 219.915C98.929 220.114 97.9691 220.986 96.9431 222.543C95.906 224.088 94.5601 224.397 92.8721 223.448C91.1951 222.499 90.6876 220.611 90.82 218.204C90.8973 216.901 90.9414 215.223 91.2282 213.412C91.1841 212.617 91.2724 211.856 91.3055 211.292C91.3275 210.928 89.7499 210.133 86.6938 208.974C85.9105 208.356 85.6457 207.583 85.7892 206.744C86.0981 204.9 86.5614 203.697 87.3448 203.332C88.1391 202.968 90.3567 202.328 94.0084 201.323C94.5601 200.142 95.0565 198.971 95.5199 197.812C95.9722 196.653 96.4577 195.416 96.9652 194.08C97.4727 192.755 98.0464 190.89 98.8076 188.682C99.3703 187.037 100.109 185.347 100.838 183.702C101.577 182.057 102.945 178.8 104.964 173.909C106.983 169.03 108.902 164.083 110.999 159.634C112.488 156.488 114.099 153.573 115.191 151.133C116.195 148.903 116.912 147.048 117.442 145.745C117.971 144.442 118.291 143.228 118.401 142.102C118.512 140.976 118.688 139.772 119.063 138.723C119.593 137.244 120.487 136.394 121.369 136.339C123.002 135.963 124.48 135.776 125.793 135.776ZM108.296 195.339C107.799 196.399 108.141 196.752 109.289 196.421C110.712 196.012 111.958 195.317 112.973 194.323C113.646 194.158 113.569 192.744 113.393 190.558C113.238 188.593 113.503 186.805 113.702 185.668C113.9 184.541 114.022 182.753 114.077 180.313C111.859 185.392 110.381 189.013 109.631 191.199C108.869 193.396 108.417 194.776 108.296 195.339Z" fill="white"/>
<path d="M183.825 126.833C184.111 126.237 184.762 125.972 185.755 126.049C186.748 126.126 187.278 126.877 187.322 128.301C187.366 129.725 187.774 130.818 188.535 131.569C189.297 132.32 189.584 133.336 189.573 134.473C189.562 136.272 189.584 137.741 189.396 138.635C189.208 139.529 189.12 140.148 189.131 140.457C189.153 140.766 189.01 141.561 188.734 142.831C187.785 145.061 186.936 147.655 186.175 150.614C185.413 153.573 184.817 155.936 184.553 157.603C183.957 161.312 183.67 163.807 183.394 164.757C183.096 165.143 182.655 167.197 182.081 170.906C180.096 178.281 178.694 184.299 177.889 188.98C177.878 189.267 177.746 190.415 177.503 192.413C177.503 194.091 177.503 194.93 177.503 196.609C177.437 197.702 177.613 199.126 178.032 200.859C178.452 202.604 178.374 203.663 177.801 204.039C177.216 204.414 176.344 204.624 175.186 204.668C174.017 204.712 172.957 204.569 171.998 204.249C171.038 203.928 170.243 203.84 169.615 203.995C168.986 204.149 167.75 204.414 166.161 204.525C165.334 204.58 164.639 204.238 164.209 203.597C163.039 201.93 161.848 199.998 160.634 197.779C159.421 195.56 158.262 193.473 157.159 191.508C156.056 189.543 154.765 186.672 153.286 182.885C152.845 182.499 152.128 180.269 151.146 176.173C150.418 177.718 150.054 178.491 149.315 180.026C148.553 180.92 147.516 183.25 146.203 186.981C145.564 187.699 143.622 193.341 140.389 203.873C140.125 204.679 139.992 205.088 139.727 205.883C138.812 209.25 138.072 211.171 137.521 211.635C136.958 212.098 136.197 212.452 135.215 212.695C134.233 212.926 133.02 213.368 131.563 214.008C130.107 214.649 128.915 214.638 128 213.997C127.084 213.346 126.389 211.999 126.378 210.354C126.378 209.934 126.61 208.808 127.139 207.417C127.514 206.435 128.22 204.779 129.004 202.537C129.5 201.511 130.736 198.221 132.733 192.634C133.494 189.995 134.939 185.977 137.068 180.556C137.3 179.485 137.73 178.248 138.37 176.835C138.999 175.422 139.683 173.711 140.422 171.701C141.151 169.692 141.768 167.87 142.254 166.236C143.611 162.703 144.151 160.175 144.019 158.773C143.953 158.033 144.405 156.201 145.321 153.363C145.641 151.729 145.795 150.912 146.115 149.278C146.192 148.174 146.226 147.622 146.303 146.529C146.998 145.072 147.947 144.111 149.16 143.648C150.837 142.797 153.22 143.316 156.309 145.171C158.273 146.662 159.145 148.251 158.891 149.952C158.637 151.652 157.942 153.164 157.501 154.235C156.872 155.759 156.894 157.625 157.258 158.541C157.556 159.292 158.041 161.158 158.703 163.388C159.045 164.536 159.465 166.832 160.248 169.118C160.844 170.851 161.892 173.269 162.532 175.952C162.929 176.681 163.558 178.381 164.429 181.075C165.29 183.57 165.72 184.828 166.592 187.324C167.022 182.333 167.518 178.811 168.059 176.758C168.611 174.704 169.217 172.055 169.879 168.798C173.244 157.636 175.683 150.095 177.205 146.209C178.728 142.323 180.007 139.165 180.846 136.847C182.247 132.938 182.865 130.542 182.898 129.99C183.218 128.489 183.527 127.44 183.825 126.833Z" fill="white"/>
<path d="M218.39 125.74C221.711 124.536 225.219 124.227 227.514 125.033C228.992 125.552 230.283 127.032 230.647 128.655C230.868 129.637 230.956 130.83 231.077 131.967C231.254 133.645 230.967 134.771 230.272 135.301C229.566 135.831 228.463 136.869 226.962 138.392C225.462 139.916 224.27 140.512 223.41 140.17C222.549 139.828 222.218 138.447 222.439 136.008C222.659 133.579 221.501 133.479 218.964 135.72C217.86 136.869 216.956 137.929 216.272 138.9C215.577 139.872 214.396 141.815 212.642 144.465C210.601 147.545 208.648 150.813 207.148 154.191C206.055 156.642 205.118 158.883 204.334 160.904C203.551 162.924 202.79 165.331 202.04 168.113C201.665 169.493 201.488 170.719 201.521 171.801C202.062 172.717 203.639 172.055 206.254 169.813C208.869 167.572 210.788 165.905 211.991 164.801C213.194 163.697 214.451 162.494 215.753 161.169C217.055 159.844 218.081 158.95 218.82 158.464C219.559 157.989 220.365 157.669 221.247 157.503C222.13 157.338 223.476 157.062 225.274 156.675C227.073 156.289 228.529 156.543 229.654 157.448C232.567 159.502 234.078 161.147 234.122 162.317C234.2 164.172 233.758 166.225 232.909 168.389C232.666 169.272 232.092 170.63 231.188 172.496C229.61 175.72 227.977 178.425 226.267 180.633C224.557 182.841 222.119 185.701 218.953 189.212C215.786 192.722 212.951 195.582 210.424 197.812C207.898 200.042 205.934 201.654 204.511 202.67C203.088 203.686 201.433 204.668 199.535 205.618C197.638 206.567 195.762 207.252 193.898 207.66C189.065 208.72 185.667 208.367 184.001 206.689C182.545 205.22 181.993 203.752 182.324 202.471C182.655 201.19 183.185 200.55 183.924 200.528C184.652 200.506 185.546 200.66 186.605 200.992C187.664 201.323 189.12 201.312 190.687 200.837C191.735 200.528 193.048 199.788 194.515 198.773C195.983 197.768 197.913 196.167 200.307 193.948C202.702 191.74 204.963 189.41 207.104 186.981C209.244 184.552 210.822 182.819 211.859 181.803C212.885 180.777 213.844 179.695 214.716 178.546C215.599 177.398 217.309 174.682 219.857 170.388C218.633 171.492 218.026 172.033 216.801 173.137C215.941 173.954 214.385 175.245 212.145 177.012C211.395 177.63 209.641 178.624 206.861 179.993C205.769 180.313 205.217 180.479 204.125 180.799C201.753 181.284 199.734 181.329 198.244 181.141C196.038 180.854 194.173 180.39 192.993 179.54C191.404 177.873 190.4 176.725 190.124 176.129C189.926 175.698 189.705 175.201 189.507 174.771C189.22 174.108 189.231 173.269 189.474 172.375C190.058 170.365 190.356 169.361 190.941 167.34C191.206 166.38 191.647 164.823 192.232 162.67C192.585 161.467 193.037 160.164 193.589 158.74C194.14 157.327 195.1 154.975 196.479 151.685C197.119 150.459 197.825 149.146 198.597 147.732C198.984 147.037 199.458 146.22 200.021 145.259C202.525 141.274 203.772 139.264 206.276 135.268C208.516 132.441 210.535 130.377 212.333 129.052C214.109 127.749 216.172 126.546 218.39 125.74Z" fill="white"/>
<path d="M290.013 119.336C291.845 119.579 293.124 120.385 293.852 121.732C293.566 123.62 292.793 124.636 291.514 124.779C290.234 124.923 288.645 125.265 286.748 125.795C284.839 126.325 282.897 126.998 280.889 127.827C278.892 128.655 276.178 129.913 272.769 131.624C267.264 134.749 264.252 136.604 263.734 137.2C263.05 139.43 262.2 141.958 261.196 144.796C261.02 145.381 260.92 145.679 260.744 146.264C269.471 141.528 276.498 138.9 281.331 138.105C285.446 137.432 287.785 137.377 288.071 138.315C288.347 139.253 287.531 140.159 285.589 141.031C283.658 141.914 282.434 143.029 281.904 144.398C281.386 145.767 280.073 146.739 277.977 147.324C275.88 147.909 272.924 149.068 269.106 150.802C265.289 152.535 262.774 153.904 261.571 154.92C259.718 156.333 258.802 157.04 256.949 158.453C255.018 161.158 253.606 163.818 252.701 166.446C251.796 169.074 250.737 172.143 249.546 175.643C247.284 181.671 245.662 185.668 244.669 187.644C244.603 188.174 244.029 189.775 242.948 192.446C241.867 195.118 241.106 196.631 240.676 196.973C240.058 198.121 239.208 198.993 238.116 199.59C237.024 200.186 235.998 200.749 235.016 201.279C234.034 201.809 233.306 201.72 232.831 201.003C232.357 200.296 232.169 199.435 232.269 198.441C232.401 197.381 232.467 196.852 232.611 195.803C232.842 195.218 233.317 193.341 234.045 190.183C234.773 187.025 235.843 182.963 237.255 177.994C237.928 175.455 238.657 172.916 239.451 170.354C239.142 170.686 238.988 170.862 238.668 171.193C237.884 171.69 237.255 171.977 236.792 172.066C236.329 172.154 235.093 171.911 233.096 171.326C231.099 170.741 230.15 170.034 230.25 169.206C230.349 168.367 230.945 167.285 232.037 165.949C233.129 164.613 233.857 163.896 234.21 163.796C237.542 160.672 241.282 157.603 245.431 154.578C246.236 152.811 247.438 149.642 249.038 145.061C246.501 147.28 244.835 148.362 244.051 148.318C243.268 148.273 242.264 147.578 241.194 146.982C240.19 146.419 239.583 145.624 239.98 144.509C240.642 142.643 242.021 140.589 244.283 138.779C246.335 137.134 248.795 135.279 251.476 133.203C256.64 129.207 262.818 125.751 269.989 122.836C272.339 121.909 275.042 121.004 277.844 120.463C279.256 120.187 280.823 119.822 282.081 119.59C285.214 118.972 288.182 119.094 290.013 119.336Z" fill="white"/>
<path d="M305.989 121.302C308.548 120.794 311.317 120.926 313.061 120.959C314.804 120.992 316.79 121.754 318.941 122.914C320.905 123.973 322.438 125.1 323.21 126.358C323.983 127.617 324.612 128.953 325.163 130.255C325.847 131.845 326.796 134.484 327.491 137.884C327.822 139.474 327.91 141.042 327.899 142.455C327.877 143.857 327.888 144.862 327.921 145.458C327.513 149.731 327.061 153.308 326.366 155.891C325.395 159.524 323.994 163.973 322.471 168.798C321.578 171.635 320.044 174.715 318.731 177.707C317.771 179.893 316.315 182.863 314.098 186.186C313.016 187.82 311.56 189.587 309.718 191.497C308.802 193.153 307.324 194.599 305.283 195.847C304.312 196.575 303.065 197.006 301.531 197.139C299.998 197.271 298.321 197.293 296.512 197.216C294.702 197.128 292.992 196.598 291.613 195.582C290.355 194.654 288.392 191.784 285.722 187.147C285.413 185.745 285.126 184.663 284.85 183.901C284.574 183.139 283.99 180.611 283.923 177.012C283.901 175.632 283.824 172.143 284.387 167.892C284.552 166.656 284.861 164.26 285.336 161.345C285.6 159.667 286.251 157.36 287.046 154.611C287.873 151.729 288.767 148.792 289.66 145.811C292.783 137.299 296.181 130.487 299.855 125.387C300.439 123.775 302.789 121.942 305.989 121.302ZM303.705 142.93C302.16 146.673 300.594 151.023 299.082 155.936C296.765 163.476 295.618 168.433 295.585 170.719C295.552 173.004 295.574 175.069 295.64 176.912C295.739 178.005 295.795 178.557 295.894 179.661C296.931 185.303 298.056 188.019 299.281 187.776C300.362 188.483 302.591 185.712 305.978 179.463C307.655 176.338 308.802 173.898 309.431 172.121C310.06 170.343 310.6 169.03 311.064 168.19C311.516 167.351 312.211 165.077 313.138 161.39C313.59 160.186 314.197 158.188 314.969 155.395C315.741 152.59 316.227 149.93 316.436 147.401C316.646 144.873 316.734 142.698 316.679 140.876C316.624 139.055 316.558 137.785 316.492 137.089C316.017 132.077 314.748 129.218 312.597 128.599C311.262 128.61 310.016 130.068 308.681 132.618C307.07 135.698 305.249 139.187 303.705 142.93Z" fill="white"/>
<path d="M352.325 107.733C353.793 107.324 356.485 107.258 360.313 107.634C363.468 107.943 366.833 108.528 370.066 109.466C374.137 110.648 376.84 111.95 377.987 113.01C379.134 114.07 379.951 115.02 380.436 115.859C380.922 116.698 380.878 118.321 380.304 120.75C380.249 121.434 379.995 122.362 379.565 123.521C379.123 124.68 378.175 126.06 377.093 127.584C376.2 128.842 375.273 130.432 374.225 132.088C373.177 133.744 371.367 136.173 368.786 139.397C367.87 140.424 366.877 141.583 365.818 142.886C361.449 147.203 358.349 150.493 356.529 152.69C357.158 152.944 358.724 154.798 360.434 158.022C362.166 161.279 363.126 163.995 363.634 165.452C364.141 166.91 364.66 168.731 365.211 170.895C365.752 173.07 366.37 175.819 367.043 179.165C367.716 182.499 367.892 184.619 367.572 185.502C367.252 186.385 366.877 187.059 366.447 187.533C366.017 188.008 364.98 188.936 363.336 190.338C361.692 191.74 360.743 192.8 360.467 193.484C360.203 194.18 359.585 194.467 358.614 194.367C357.654 194.257 357.301 193.716 357.566 192.733C357.831 191.751 357.753 189.753 357.323 186.727C355.591 179.684 354.366 175.466 353.66 174.075C352.943 172.673 352.281 171.171 351.674 169.56C351.068 167.948 350.56 166.667 350.163 165.706C349.766 164.746 349.104 163.841 348.177 162.979C347.25 162.118 346.423 161.897 345.684 162.328C344.944 162.759 343.543 163.465 341.491 164.481C340.598 167.263 340.145 168.654 339.252 171.447C338.943 172.816 338.579 174.539 338.159 176.625C337.74 178.712 337.475 180.015 337.354 180.534C337.233 181.053 337.122 181.56 337.001 182.068C336.88 182.576 336.593 183.923 336.129 186.12C336.107 187.379 334.861 188.682 332.4 190.017C329.94 191.364 328.23 191.74 327.248 191.155C326.277 190.57 325.781 189.775 325.538 189.289C325.318 188.858 325.163 187.489 325.461 185.392C326.013 181.527 326.222 179.275 326.255 178.811C326.244 178.701 326.697 176.029 327.601 170.807C327.954 168.345 329.686 162.118 332.831 152.16C336.383 142.212 338.159 137.255 341.712 127.352C342.628 124.04 343.069 122.207 343.036 121.876C343.003 121.533 342.881 121.037 342.683 120.363C342.484 119.69 342.606 118.994 343.047 118.265C344.779 115.682 346.169 113.518 347.206 111.763C348.276 110.018 349.964 108.671 352.325 107.733ZM359.607 118.564C357.831 121.081 356.76 122.814 356.396 123.753C356.032 124.691 355.613 125.707 355.161 126.811C354.708 127.915 354.256 129.008 353.815 130.09C353.373 131.172 352.414 133.91 350.946 138.326C350.24 139.717 349.49 142.234 348.696 145.9C349.236 145.756 350.483 144.818 352.436 143.084C352.987 142.488 353.693 141.738 354.554 140.81C357.897 136.659 360.026 133.943 360.964 132.651C361.902 131.359 362.928 129.549 364.064 127.219C365.2 124.89 365.509 122.947 365.255 121.522C365.024 120.264 363.612 119.16 360.842 118.409C360.335 118.464 360.092 118.497 359.607 118.564Z" fill="white"/>
<path d="M434.992 103.802C435.842 104.465 436.36 105.039 436.548 105.503C436.735 105.966 437.552 106.507 438.975 107.104C440.409 107.711 441.248 108.451 441.49 109.323C441.733 110.195 441.733 111.045 441.49 111.895C440.122 115.815 438.313 120.385 436.559 125.42C434.529 131.238 433.503 134.937 433.183 135.996C432.874 137.067 431.572 142.334 429.277 151.862C428.836 153.739 427.887 157.106 426.442 161.975C425.912 164.094 425.405 165.508 424.93 166.236C424.456 166.965 424.037 167.517 423.684 167.914C423.331 168.312 423.154 168.742 423.143 169.206C423.132 169.67 422.757 170.189 422.018 170.763C421.268 171.326 419.778 171.878 418.278 172.618C416.524 173.479 415.255 174.219 414.681 174.097C414.107 173.976 414.052 173.115 414.538 171.525C415.012 169.935 415.321 168.831 415.442 168.213C415.575 167.594 415.795 166.303 416.126 164.337C416.457 162.372 416.557 161.058 416.568 160.495C416.59 159.181 416.788 158.232 416.888 157.901C416.987 157.57 417.141 156.719 417.208 155.483C417.252 154.611 417.252 153.75 417.307 153.01C417.704 150.294 418.653 147.258 419.392 144.31C420.087 141.539 420.396 139.176 420.782 137.829C421.157 136.482 421.411 135.378 421.543 134.517C421.676 133.656 421.885 132.309 422.161 130.454C421.488 131.635 421.146 132.221 420.473 133.413C419.017 135.798 416.766 139.96 413.732 145.944C413.037 147.456 412.331 148.892 411.614 150.239C410.897 151.586 410.092 152.922 409.286 154.213C408.393 155.637 407.709 156.841 407.223 157.757C406.738 158.674 406.043 159.954 405.127 161.61C404.211 163.266 403.284 164.304 402.336 164.713C401.387 165.121 400.526 165.375 399.743 165.452C398.971 165.53 398.353 165.342 397.879 164.878C397.415 164.415 396.654 163.454 395.595 161.975C394.536 160.506 393.344 158.596 392.009 156.256C390.674 153.915 389.67 152.623 389.218 152.612C388.644 152.59 388.06 154.997 387.398 159.115C386.736 163.189 385.776 166.523 385.07 168.765C384.485 170.608 383.878 172.044 383.238 173.048C382.598 174.042 381.981 174.991 381.407 175.897C380.822 176.802 379.862 177.498 378.527 177.994C377.192 178.491 376.001 178.624 374.942 178.381C373.894 178.138 373.408 176.769 373.485 174.274C373.938 171.227 374.158 169.692 374.611 166.645C374.633 165.386 374.842 164.161 375.229 162.979C375.835 159.91 376.354 157.282 376.784 155.096C376.983 154.456 377.082 154.136 377.281 153.496C380.149 143.835 381.572 138.9 381.561 138.646C382.345 136.306 382.742 135.135 383.525 132.795C382.808 132.099 382.587 131.393 382.874 130.686C383.161 129.968 383.183 129.394 382.951 128.942C382.72 128.5 382.51 127.937 382.499 127.385C382.466 126.237 383.922 125.486 384.893 124.956C385.456 124.647 386.118 122.494 386.879 119.623C387.585 116.996 388.92 115.483 390.321 115.064C391.822 114.622 393.013 114.523 393.708 115.042C394.403 115.572 395.749 116.201 397.525 116.631C400.129 117.25 401.012 118.277 400.427 119.657C399.379 122.163 398.927 125.088 398.32 127.12C397.647 129.361 397.161 131.271 396.886 132.828C397.128 134.34 397.25 135.102 397.492 136.626C397.879 139.441 398.254 141.219 398.618 141.958C399.269 144.895 399.853 146.341 400.372 146.308C400.89 146.264 401.961 144.619 403.604 141.373C403.957 140.7 405.072 138.646 406.958 135.257C408.845 131.867 410.003 129.88 410.423 129.273C410.842 128.666 411.449 127.738 412.243 126.491C413.037 125.243 414.019 123.521 415.189 121.335C416.546 118.806 419.855 114.777 425.14 109.4C428.67 105.801 430.987 103.825 432.091 103.427C433.161 103.008 434.143 103.14 434.992 103.802Z" fill="white"/>
<path d="M466.093 99.4857C467.417 99.6733 469.138 100.546 471.234 102.124C473.341 103.703 473.617 104.851 473.076 105.47C472.481 106.165 471.885 107.943 471.554 109.555C471.245 111.067 470.804 113.275 470.329 115.538C469.91 117.57 469.491 119.612 469.094 121.18C468.619 123.035 468.277 125.376 467.869 127.959C467.461 130.531 466.987 132.949 466.457 135.191C465.916 137.432 465.585 139.463 465.464 141.274C465.343 143.084 465.254 144.531 465.199 145.591C465.144 146.662 464.946 148.682 464.592 151.652C464.626 152.259 464.648 152.568 464.681 153.186C467.34 153.054 468.575 153.507 468.388 154.511C468.2 155.516 468.2 156.708 468.377 158.111C468.553 159.502 467.174 161.202 464.228 163.244C463.82 165.784 463.6 167.55 463.555 168.522C463.511 169.493 463.412 170.84 463.247 172.551C463.081 174.263 463.015 175.908 463.037 177.476C463.059 179.043 462.849 179.993 462.419 180.324C461.978 180.655 461.36 181.362 460.544 182.466C459.727 183.57 458.469 184.045 456.77 183.901C455.071 183.758 454.056 183.559 453.736 183.272C453.416 182.996 453.24 182.444 453.229 181.638C453.218 180.832 453.196 180.004 453.185 179.154C453.174 178.304 453.196 177.332 453.262 176.25C453.328 175.168 453.35 174.241 453.328 173.49C453.306 172.739 453.251 171.613 453.163 170.112C453.074 168.61 453.03 167.749 453.019 167.517C453.141 166.755 452.732 166.512 451.806 166.799C448.728 168.036 446.907 168.886 446.345 169.295C445.782 169.714 445.197 170.123 444.59 170.52C443.984 170.917 443.553 171.547 443.311 172.375C443.068 173.203 442.847 175.013 442.329 177.398C441.81 179.794 440.884 181.229 440.001 181.428C439.118 181.627 438.158 182.51 437.132 184.067C436.095 185.634 434.749 185.966 433.072 185.06C431.396 184.166 430.888 182.311 431.02 179.882C431.098 178.569 431.142 176.89 431.429 175.069C431.384 174.274 431.473 173.512 431.506 172.938C431.528 172.574 429.95 171.823 426.905 170.829C426.122 170.255 425.857 169.504 426.001 168.643C426.31 166.777 426.762 165.53 427.556 165.132C428.351 164.735 430.557 163.951 434.198 162.869C434.749 161.677 435.246 160.495 435.698 159.325C436.151 158.166 436.636 156.907 437.143 155.582C437.651 154.246 438.225 152.381 438.986 150.183C439.549 148.538 440.288 146.86 441.016 145.226C441.755 143.592 443.123 140.357 445.142 135.555C447.161 130.752 449.092 125.917 451.199 121.633C452.688 118.608 454.321 115.826 455.413 113.496C456.417 111.365 457.145 109.599 457.675 108.362C458.205 107.115 458.525 105.944 458.646 104.84C458.756 103.736 458.933 102.555 459.308 101.55C459.837 100.148 460.742 99.3973 461.625 99.4525C463.28 99.2869 464.769 99.298 466.093 99.4857ZM448.474 157.084C447.977 158.122 448.319 158.486 449.467 158.21C450.901 157.879 452.137 157.26 453.163 156.333C453.836 156.223 453.759 154.82 453.582 152.612C453.428 150.658 453.692 148.881 453.891 147.766C454.089 146.662 454.211 144.884 454.277 142.455C452.048 147.335 450.559 150.868 449.809 153.01C449.048 155.163 448.606 156.521 448.474 157.084Z" fill="white"/>
<path d="M497.017 99.9604C498.518 100.016 501.254 100.788 505.148 102.389C508.37 103.714 511.779 105.403 515.089 107.446C519.281 110.029 521.995 112.248 523.165 113.695C524.334 115.152 525.173 116.378 525.658 117.371C526.154 118.365 526.099 119.944 525.515 122.108C525.459 122.759 525.195 123.576 524.753 124.559C524.301 125.53 523.308 126.568 522.227 127.661C521.333 128.566 520.362 129.814 519.303 131.072C518.233 132.331 516.391 134.086 513.754 136.383C512.816 137.078 511.812 137.884 510.72 138.812C506.263 141.605 503.107 143.857 501.254 145.447C501.894 145.889 503.46 148.13 505.226 151.917C506.98 155.671 507.962 158.652 508.48 160.241C508.999 161.842 509.528 163.796 510.08 166.104C510.632 168.411 511.249 171.315 511.933 174.815C512.617 178.315 512.794 180.445 512.463 181.207C512.132 181.969 511.746 182.51 511.316 182.83C510.874 183.15 509.826 183.724 508.149 184.575C506.472 185.425 505.501 186.153 505.226 186.749C504.95 187.346 504.321 187.434 503.339 187.037C502.357 186.628 502.004 185.988 502.28 185.104C502.556 184.221 502.479 182.234 502.037 179.132C500.283 171.679 499.047 167.164 498.319 165.574C497.591 163.984 496.929 162.306 496.3 160.539C495.682 158.773 495.175 157.36 494.767 156.3C494.37 155.24 493.697 154.147 492.759 153.032C491.821 151.917 490.972 151.453 490.221 151.663C489.471 151.873 488.048 152.16 485.963 152.579C485.047 155.063 484.595 156.311 483.679 158.806C483.359 160.065 482.984 161.655 482.565 163.598C482.134 165.53 481.87 166.744 481.748 167.219C481.627 167.694 481.506 168.168 481.395 168.632C481.274 169.096 480.976 170.343 480.513 172.386C480.48 173.622 479.222 174.561 476.728 175.234C474.235 175.908 472.492 175.853 471.499 175.025C470.506 174.196 470.01 173.302 469.767 172.75C469.535 172.242 469.392 170.873 469.69 168.897C470.252 165.221 470.462 163.057 470.506 162.615C470.495 162.505 470.958 159.987 471.885 155.074C472.238 152.734 474.014 147.037 477.203 138.072C480.811 129.229 482.62 124.835 486.239 116.124C487.176 113.121 487.618 111.454 487.585 111.111C487.551 110.769 487.43 110.239 487.232 109.521C487.033 108.804 487.154 108.152 487.607 107.567C489.372 105.536 490.784 103.814 491.843 102.4C492.902 100.965 494.623 100.148 497.017 99.9604ZM504.431 112.889C502.622 114.788 501.53 116.157 501.155 116.963C500.779 117.769 500.36 118.641 499.886 119.579C499.422 120.529 498.959 121.456 498.507 122.373C498.054 123.289 497.084 125.696 495.572 129.582C494.855 130.73 494.094 132.993 493.277 136.35C493.829 136.372 495.098 135.82 497.084 134.705C497.646 134.285 498.363 133.766 499.235 133.126C502.633 130.079 504.817 128.114 505.766 127.142C506.715 126.17 507.774 124.735 508.933 122.825C510.091 120.915 510.411 119.138 510.146 117.625C509.914 116.333 508.469 114.755 505.656 113.121C505.17 113.032 504.928 112.988 504.431 112.889Z" fill="white"/>
<path d="M120.123 121.158C118.898 122.781 116.813 123.764 114.154 123.764C113.271 123.764 112.223 123.576 111.065 123.178L110.304 129.273C110.237 129.67 110.028 129.88 109.664 129.88H108.373C107.976 129.88 107.788 129.67 107.854 129.273L110.304 109.4C110.337 108.969 110.546 108.693 110.943 108.539C113.084 107.865 115.081 107.523 116.912 107.523C118.898 107.523 120.365 108.108 121.347 109.267C122.362 110.427 122.66 112.425 122.329 115.207C122.042 117.636 121.347 119.535 120.123 121.158ZM111.33 120.915C112.19 121.346 113.227 121.556 114.485 121.556C117.662 121.556 119.262 119.016 119.714 115.251C120.233 111.089 118.887 109.588 116.316 109.588C115.125 109.588 113.9 109.797 112.642 110.206L111.33 120.915Z" fill="#99CC33"/>
<path d="M135.513 121.887C135.447 122.284 135.204 122.527 134.807 122.682C133.097 123.267 131.221 123.543 129.18 123.543C126.521 123.543 123.763 122.472 124.194 119.193C124.348 118.034 124.745 117.084 125.418 116.344C126.797 114.876 128.474 114.479 130.592 114.479C131.729 114.479 132.821 114.633 133.836 114.964L134.079 113.099C134.355 110.769 133.77 109.731 131.354 109.731C130.372 109.731 129.059 109.941 127.437 110.349C127.007 110.438 126.797 110.316 126.764 109.919L126.676 109.124C126.61 108.727 126.742 108.451 127.073 108.362C128.761 107.81 130.405 107.534 132.005 107.534C135.767 107.534 137.058 109.19 136.594 112.988L135.513 121.887ZM133.648 116.62C132.854 116.344 131.96 116.223 131.012 116.223C128.805 116.223 127.007 117.172 126.753 119.16C126.51 120.992 127.978 121.611 130.063 121.611C131.133 121.611 132.148 121.456 133.097 121.147L133.648 116.62Z" fill="#99CC33"/>
<path d="M148.002 109.455C147.88 109.886 147.638 110.062 147.296 109.974C146.987 109.908 146.656 109.886 146.259 109.886C144.791 109.886 143.655 110.195 142.86 110.802L141.426 122.56C141.36 122.958 141.15 123.167 140.786 123.167H139.473C139.076 123.167 138.889 122.958 138.955 122.56L140.698 108.406C140.731 108.009 140.941 107.799 141.338 107.799H142.32C142.717 107.799 142.927 108.009 142.96 108.406V109.268C144.03 108.163 145.442 107.611 147.119 107.611C147.395 107.611 147.671 107.645 147.98 107.7C148.289 107.788 148.377 108.009 148.288 108.373L148.002 109.455Z" fill="#99CC33"/>
<path d="M159.476 121.887C159.41 122.284 159.167 122.527 158.77 122.682C157.06 123.267 155.184 123.543 153.143 123.543C150.484 123.543 147.726 122.472 148.156 119.193C148.311 118.034 148.708 117.084 149.381 116.344C150.76 114.876 152.437 114.479 154.555 114.479C155.692 114.479 156.784 114.633 157.799 114.964L158.042 113.099C158.317 110.769 157.733 109.731 155.317 109.731C154.335 109.731 153.022 109.941 151.4 110.349C150.97 110.438 150.76 110.316 150.727 109.919L150.639 109.124C150.573 108.727 150.705 108.451 151.036 108.362C152.724 107.81 154.368 107.534 155.967 107.534C159.73 107.534 161.02 109.19 160.557 112.988L159.476 121.887ZM157.611 116.62C156.817 116.344 155.923 116.223 154.975 116.223C152.768 116.223 150.97 117.172 150.716 119.16C150.473 120.992 151.941 121.611 154.026 121.611C155.096 121.611 156.111 121.456 157.06 121.147L157.611 116.62Z" fill="#99CC33"/>
</g>
<defs>
<clipPath id="clip0">
<rect width="526" height="224" fill="white"/>
</clipPath>
</defs>
</svg>
