<svg width="16" height="12" viewBox="0 0 16 12" fill="none" xmlns="http://www.w3.org/2000/svg">
<path d="M15.8787 5.64844C15.8787 5.44531 15.7943 5.25781 15.6253 5.10938L10.3466 0.234375C10.1608 0.0703125 9.975 0 9.7723 0C9.34156 0 9.01217 0.289062 9.01217 0.6875C9.01217 0.882812 9.08818 1.0625 9.23176 1.1875L11.0223 2.875L13.5814 5.03906L11.6811 4.92969H1.71487C1.26723 4.92969 0.946289 5.22656 0.946289 5.64844C0.946289 6.0625 1.26723 6.35938 1.71487 6.35938H11.6811L13.5899 6.25L11.0223 8.41406L9.23176 10.1016C9.09663 10.2266 9.01217 10.4062 9.01217 10.6016C9.01217 11 9.34156 11.2891 9.7723 11.2891C9.975 11.2891 10.1524 11.2188 10.3297 11.0703L15.6253 6.17969C15.7943 6.03125 15.8787 5.84375 15.8787 5.64844Z" fill="#0D354A"/>
</svg>
