<svg width="2357" height="851" viewBox="0 0 2357 851" fill="none" xmlns="http://www.w3.org/2000/svg">
<g clip-path="url(#clip0)">
<g opacity="0.8" clip-path="url(#clip1)">
<path d="M536.274 76.7105C543.644 77.4311 551.016 78.1333 558.404 78.8935C562.681 79.3375 566.993 80.2332 571.25 80.2833C576.456 80.3407 581.649 79.7628 586.839 79.3897C589.668 79.1858 591.495 79.583 590.428 82.3565L590.581 82.2452C586.838 82.3528 583.071 82.4575 579.325 82.5834C577.418 82.6421 575.527 82.7587 573.64 82.8385C573.701 83.4612 573.736 84.0993 573.797 84.722C625.728 89.2501 677.68 93.7995 731.377 98.4748C728.663 97.5749 727.619 97.2201 726.572 96.8836C726.613 97.1124 726.654 97.3411 726.694 97.5699C753.772 97.9888 780.847 98.426 807.925 98.8449C807.944 98.3254 807.983 97.8271 808.002 97.3077C800.544 96.3709 793.102 94.9331 785.659 94.6133C771.6 94.0217 757.55 94.1022 743.496 93.8466C728.08 93.5505 712.629 93.3432 697.197 92.8029C686.565 92.418 675.906 91.5079 665.285 90.845C665.225 90.0359 665.141 89.2241 665.081 88.4151C667.898 88.1166 670.691 87.6474 673.527 87.5749C677.013 87.4908 680.528 87.7273 684.074 86.7935C677.45 86.2225 670.828 85.6331 663.381 84.9773C667.49 84.5429 670.8 84.1946 674.09 83.825C658.452 82.1591 643.353 75.2865 627.631 78.7167C625.645 77.9268 623.625 76.6667 621.483 76.3791C606.035 74.3084 590.564 72.4212 575.738 70.5592C577.288 69.8406 580.819 70.5077 583.03 69.8722C589.858 67.8969 596.263 70.0246 602.778 70.1719C639.482 71.0543 676.204 72.349 712.892 72.9871C727.594 73.2495 742.388 72.9643 756.839 71.5364C770.049 70.2135 782.779 73.4524 795.764 73.7413C811.891 74.0895 828.035 74.8684 844.162 75.7756C860.221 76.6743 876.252 77.9795 892.305 79.1012C892.066 79.1643 891.587 79.2905 891.13 79.4195C891.1 79.6581 891.073 79.8782 891.043 80.1167C900.486 80.93 909.929 81.7433 919.37 82.575C919.368 82.7797 919.363 83.0027 919.36 83.2074C880.589 82.3636 841.841 81.5227 803.071 80.6789C821.284 84.1592 973.744 92.9265 979.744 90.7168C967.958 89.7397 957.368 88.8383 946.775 87.9551C946.794 87.4357 946.812 86.9162 946.808 86.3938C957.676 86.9387 968.577 87.0219 979.398 88.12C995.803 89.7703 1011.85 88.766 1027.91 87.3919C1028.92 87.3133 1029.97 86.9043 1030.92 87.0614C1045.52 89.4538 1060.05 86.9927 1074.64 88.5451C1075.12 88.6053 1075.64 88.1305 1076.21 87.0657C1052.01 82.4226 1027.08 83.0946 1002.99 77.1798C1015.83 77.1155 1028.67 76.5472 1041.51 77.0603C1070.42 78.2124 1099.34 79.795 1128.28 81.5089C1133.75 81.8421 1139.18 83.5869 1142.52 84.2678C1142.99 89.7686 1143.32 93.4621 1143.67 97.4395C1147.26 97.4432 1152 94.963 1151.71 100.574C1151.69 100.925 1154.53 101.598 1156.08 101.979C1159.34 102.78 1162.63 103.492 1165.92 104.222C1165.85 104.809 1165.75 105.393 1165.68 105.981C1158.78 105.711 1151.86 105.457 1144.72 105.175C1144.61 106.055 1144.47 107.175 1144.29 108.569C1178.88 111.161 1213.47 113.604 1248.03 116.417C1281.05 119.092 1314.03 122.321 1347.06 124.979C1364.86 126.413 1382.74 126.477 1400.49 128.315C1437.84 132.186 1475.14 136.778 1512.45 141.147C1523.23 142.407 1533.98 143.814 1544.72 145.405C1547.5 145.809 1550.11 147.162 1552.79 148.078C1529.88 145.498 1506.99 142.735 1484.04 140.412C1467.37 138.727 1450.65 137.523 1433.93 136.336C1429.27 136.011 1422.49 134.993 1420.35 136.941C1417.19 139.805 1414.33 139.298 1410.85 139.327C1399.74 139.441 1388.61 139.533 1376.5 139.671C1380.52 143.942 1375.9 142.914 1374.19 144.172C1378.12 144.664 1382.02 145.154 1385.94 145.647C1385.92 145.794 1385.88 145.919 1385.86 146.066C1377.8 145.556 1369.72 145.064 1361.66 144.554C1361.64 145.241 1361.62 145.929 1361.58 146.632C1372.89 148.053 1384.22 149.345 1395.49 150.928C1406.56 152.467 1417.56 154.538 1428.62 155.946C1439.57 157.34 1450.56 158.198 1461.54 159.298C1461.59 158.671 1461.63 158.023 1461.68 157.397C1441.65 150.483 1420.18 150.674 1399.52 146.496C1407 146.745 1414.35 148.34 1421.71 148.798C1429.69 149.296 1437.68 148.735 1445.69 148.622C1445.7 148.326 1445.72 148.029 1445.73 147.733C1436.06 146.518 1426.39 145.304 1416.74 144.092C1419.37 143.08 1422.06 143.455 1424.49 143.053C1428.97 142.292 1434.63 145.183 1437.99 140.405C1439.14 138.743 1447.18 141.523 1447.6 143.532C1451.64 143.312 1455.68 142.628 1459.7 142.946C1489.35 145.179 1519 147.654 1548.65 149.905C1549.8 149.994 1551.01 148.618 1552.21 147.948C1554.59 148.936 1556.87 150.509 1559.35 150.858C1586.17 154.618 1612.99 158.378 1639.86 161.752C1652.68 163.362 1665.62 164 1678.47 165.353C1685.49 166.085 1692.81 168.887 1699.41 168.169C1716.77 166.268 1733.92 170.472 1751.14 170.175C1765.79 169.928 1780.47 169.497 1795.05 172.782C1801.11 174.14 1807.22 175.28 1813.28 177.197C1792.01 175.364 1770.72 173.528 1749.45 171.696C1749.36 172.206 1749.29 172.739 1749.21 173.249C1750.81 173.6 1752.41 174.118 1754.03 174.284C1763.36 175.288 1772.78 175.726 1781.99 177.293C1792.11 179.011 1801.99 181.873 1812.04 183.955C1819.76 185.559 1827.7 186.388 1835.38 188.135C1853.33 192.216 1871.13 196.763 1889.05 200.896C1898.35 203.052 1907.8 204.724 1917.22 207.248C1914.62 207.239 1912.03 207.248 1909.41 207.236C1909.3 207.54 1909.19 207.861 1909.06 208.162C1911.07 208.6 1913.05 209.277 1915.07 209.438C1933.21 210.86 1951.39 212.043 1969.52 213.575C1978.76 214.363 1987.95 216.113 1997.2 216.79C2021.45 218.549 2045.71 219.807 2069.96 221.511C2090.12 222.944 2110.03 225.482 2129.8 230.183C2140.44 232.712 2152.06 231.934 2163.2 233.017C2175.29 234.2 2187.32 235.804 2199.37 237.243C2213.57 238.952 2227.73 241.158 2241.95 242.255C2257.67 243.447 2273.45 243.621 2289.2 244.202C2290.43 244.243 2291.62 244.114 2293.42 243.091C2291.24 241.979 2289.07 240.867 2287.65 240.167C2314.01 243.479 2341.27 246.902 2368.53 250.325C2368.7 249.676 2368.88 249.027 2369.05 248.378C2357.81 245.047 2346.6 241.719 2335.37 238.389C2335.48 238.049 2335.59 237.69 2335.71 237.35C2377.47 247.758 2419.23 258.166 2460.99 268.573C2461.27 267.826 2461.58 267.081 2461.85 266.333C2434.3 253.684 2406.07 242.348 2375.5 234.874C2386.67 235.887 2397.83 236.897 2409.01 237.928C2415.79 238.555 2421.65 240 2427.53 243.962C2432.41 247.279 2439.78 248.763 2446.27 249.708C2459.14 251.604 2469.54 257.737 2479.93 263.366C2491.82 269.798 2504.14 274.403 2517.77 276.562C2533.36 279.041 2549.02 281.064 2564.57 283.577C2569.41 284.352 2574.13 285.913 2578.84 287.307C2587.66 289.943 2596.63 291.536 2605.9 292.271C2609.41 292.544 2613.23 294.44 2616.16 296.374C2619.45 298.558 2620.82 301.543 2617.29 304.548C2613.42 307.828 2613.99 311.626 2616.77 315.684C2614.76 316.364 2612.78 317.028 2610 317.946C2617.19 321.161 2627.21 318.56 2631.74 326.883C2627.22 326.948 2623.78 327.002 2621.62 327.029C2620.2 330.224 2619.04 332.854 2617.56 336.172C2621.13 338.131 2626.01 340.794 2630.89 343.475C2637.24 346.956 2643.72 350.305 2649.94 353.956C2654.97 356.898 2656.84 361.123 2656.66 365.926C2656.63 366.929 2656.27 368.077 2656.79 368.907C2664.05 380.46 2659.2 391.406 2657.12 402.626C2655.34 412.242 2654.2 422.014 2653.81 431.805C2653.43 441.058 2652.37 449.889 2647.13 458.177C2644.73 461.994 2644.93 466.902 2643.37 471.161C2642.31 474.066 2640.62 476.872 2638.63 479.418C2636.47 482.185 2633.67 484.609 2631.41 486.898C2631.27 485.818 2630.98 483.844 2630.7 481.665C2623.21 485.234 2619.91 490.653 2618.47 497.517C2615.32 512.423 2611.38 527.174 2608.19 542.074C2607.51 545.306 2608.87 548.887 2608.88 552.299C2608.89 560.296 2610.23 568.664 2608.1 576.206C2605.28 586.084 2599.11 595.169 2595.39 604.895C2592.74 611.794 2592.04 619.235 2589.99 626.321C2585.13 643.043 2580.05 659.719 2574.94 676.373C2572.31 685.007 2569.29 693.555 2566.7 702.194C2564.83 708.371 2568.32 712.295 2576.2 713.246C2579.3 713.617 2582.48 714.11 2585.54 713.953C2592.91 713.574 2598.7 716.892 2605.16 719.12C2611.71 721.397 2616.14 725.047 2620.72 729.032C2622.66 730.711 2625.34 731.831 2628.15 733.47C2625.63 736.377 2616.49 731.856 2616.76 739.084C2622.03 739.019 2627.11 738.968 2632.52 738.883C2632.38 738.175 2632.2 737.221 2632.01 736.284C2632.64 736.307 2633.26 736.329 2633.88 736.351C2633.67 739.921 2633.45 743.491 2633.21 747.039C2634.94 748.617 2637.16 750.629 2640.3 753.484C2634.85 755.203 2630.89 756.458 2626.65 757.807C2627.85 758.518 2630.2 759.913 2633.57 761.901C2631.8 767.307 2633.66 774.978 2626.45 780.185C2624.06 781.897 2627.2 784.379 2626.41 784.951C2623.38 787.105 2619.22 790.57 2616.23 790.009C2605.75 788.077 2597.06 793.266 2586.62 791.676C2588.13 793.823 2588.38 793.873 2596.25 794.73C2599.92 795.136 2603.59 795.634 2607.26 796.095C2607.46 796.604 2607.65 797.094 2607.82 797.6C2605.74 798.271 2603.33 799.907 2601.65 799.453C2591.09 796.636 2580.55 799.076 2570.04 797.664C2560.43 796.363 2550.75 795.445 2541.15 794.034C2537.23 793.45 2535.27 793.613 2534.1 797.212C2532.41 802.367 2529.41 807.21 2526.39 813.409C2525.45 810.905 2525.05 809.83 2524.15 807.406C2522.75 810.268 2522.13 812.036 2521.04 813.557C2520.06 814.925 2518.48 817.131 2517.29 817.037C2514.97 816.858 2511.89 815.744 2510.62 814.224C2508.67 811.873 2504.97 809.414 2507.94 805.892C2508.62 805.101 2507.81 803.452 2507.63 801.734C2504.87 803.177 2505.38 807.639 2500.61 805.754C2499.98 806.942 2498.81 808.082 2498.78 809.307C2498.51 816.207 2491.3 818.824 2486.3 822.519C2483.64 824.478 2478.9 822.895 2475.12 821.451C2473.22 820.728 2470.87 820.656 2468.72 820.573C2466.79 820.498 2464.85 820.831 2461.97 821.048C2463.82 817.18 2465.46 814.106 2466.74 810.93C2467.65 808.659 2469.95 806.545 2466.63 803.686C2465.41 802.657 2466.66 799.775 2466.78 797.889C2463.89 795.793 2466.1 804.197 2461.92 798.397C2459.95 803.145 2458.19 807.379 2456.34 811.787C2442.84 807.519 2451.77 800.422 2451.16 793.673C2449.23 797.623 2447.77 800.571 2446.3 803.592C2442.47 801.229 2442.47 801.229 2440.38 787.418C2429.28 786.881 2418.09 786.314 2406.9 785.784C2405.04 785.699 2403.16 785.91 2401.33 785.681C2383.19 783.459 2365.08 781.016 2346.92 778.941C2330.82 777.105 2314.67 775.394 2298.51 774.221C2294.68 773.945 2290.75 776.042 2286.87 777.046C2287.52 778.321 2287.75 780.194 2288.91 780.75C2291.69 782.086 2294.89 782.805 2297.91 783.782C2297.92 784.267 2297.93 784.753 2297.96 785.241C2293.61 785.571 2289.11 786.72 2284.93 786.083C2266.06 783.192 2247.29 779.716 2228.46 776.568C2209.55 773.411 2190.65 770.291 2171.71 767.391C2157.94 765.269 2144.11 763.048 2130.25 761.755C2113.33 760.17 2096.16 758.126 2079.42 758.818C2058.27 759.685 2036.99 760.198 2016.17 757.546C1995.57 754.923 1976.33 759.085 1956.35 758.439C1939.8 757.908 1923.25 757.973 1906.71 758.019C1902.19 758.029 1897.69 758.769 1893.3 759.447C1876.95 761.978 1861.09 758.347 1844.99 755.038C1846.11 747.426 1836.77 750.781 1833.09 747.021C1837.15 747.531 1840.8 747.989 1844.45 748.448C1844.56 747.958 1844.67 747.45 1844.77 746.96C1840.18 746.085 1835.54 745.372 1831.03 744.265C1824.44 742.655 1818 740.597 1811.41 739.043C1809.45 738.573 1807.2 739.166 1805.08 739.272C1806.11 740.819 1807.12 742.38 1808.08 743.805C1800.71 742.88 1793.04 742.308 1785.53 740.899C1763.37 736.755 1741.41 731.76 1719.16 728.09C1686.84 722.782 1654.54 716.843 1621.67 715.379C1619.39 715.279 1617.08 714.095 1614.43 714.135C1615.59 714.709 1616.72 715.28 1618.73 716.296C1603.55 716.441 1589.39 715.761 1575.51 712.135C1575.55 711.582 1575.58 711.026 1575.62 710.472C1587.05 711.907 1598.48 713.343 1609.88 714.775C1609.97 714.227 1610.07 713.661 1610.16 713.114C1606.94 712.524 1603.73 711.933 1599.58 711.189C1601.14 710.788 1601.81 710.611 1603.82 710.1C1588.95 708.959 1575.39 707.871 1561.82 706.876C1550.67 706.052 1539.5 705.171 1528.33 704.57C1523.23 704.301 1517.7 702.899 1513.59 707.024C1512.61 708.019 1509.21 707.76 1507 707.501C1483.26 704.687 1459.49 701.888 1435.76 698.796C1425.18 697.411 1414.71 695.406 1404.18 693.673C1404.16 693.261 1404.16 692.852 1404.15 692.439C1405.4 692.075 1406.67 691.713 1409.15 690.98C1401.86 689.599 1396.66 688.405 1389.97 689.634C1382.03 691.096 1372.79 689.341 1364.2 688.373C1338.32 685.476 1312.48 681.989 1286.57 679.312C1271.24 677.742 1255.82 677.519 1240.46 676.223C1224.09 674.839 1207.76 672.787 1191.39 671.216C1182.92 670.413 1174.41 670.127 1165.9 669.413C1160.47 668.954 1160.52 666.855 1164.71 663.392C1122.04 659.841 1080.4 656.363 1038.77 652.886C1038.7 652.486 1038.64 652.068 1038.57 651.669C1041.2 651.384 1043.81 651.115 1046.44 650.83C1046.5 650.521 1046.56 650.212 1046.62 649.903C1029.37 647.121 1012.13 644.118 994.841 641.61C977.297 639.071 959.668 637.025 942.085 634.798C924.593 632.582 907.074 630.401 889.512 627.636C894.147 627.994 898.782 628.353 903.417 628.711C903.467 628.308 903.52 627.886 903.571 627.482C897.458 626.714 891.364 625.986 885.256 625.182C864.379 622.429 843.507 619.454 822.598 616.958C810.706 615.539 798.711 615.114 786.805 613.805C782.075 613.285 777.422 610.856 772.761 610.699C765.448 610.451 758.18 611.868 750.878 611.715C745.725 611.608 740.533 609.968 735.328 609.166C732.988 608.797 730.404 608.342 728.241 608.779C724.725 609.474 721.486 610.912 718.088 611.958C707.583 615.167 697.029 617.849 685.308 614.14C683.705 613.622 681.681 614.058 678.994 614.056C679.799 612.069 680.465 610.457 681.131 608.845C680.885 608.404 680.66 607.984 680.414 607.543C675.866 609.264 670.389 610.254 667.039 612.945C663.998 615.396 661.763 616.774 658.177 614.516C654.936 612.469 655.05 607.134 657.765 604.885C658.283 604.447 658.613 603.854 660.1 601.973C654.391 601.125 649.702 600.089 645.01 599.816C616.155 598.056 587.281 596.442 558.435 594.795C521.468 592.687 484.487 590.875 447.554 588.305C431.936 587.22 416.379 584.539 407.393 583.41C461.833 585.849 523.024 588.596 584.194 591.321C584.192 590.967 584.213 590.615 584.209 590.279C578.7 589.867 573.18 589.546 567.683 589.042C557.15 588.055 546.616 587.067 536.129 585.899C522.055 584.318 508.022 582.239 493.932 580.972C477.345 579.485 460.693 578.698 444.103 577.416C441.142 577.193 437.416 578.272 435.831 573.917C435.315 572.492 429.376 571.261 426.137 571.414C407.309 572.273 389.12 567.305 370.624 565.522C363.297 564.826 355.903 565.407 348.537 565.022C335.3 564.347 322.059 563.337 308.81 562.567C305.43 562.366 302.033 562.48 298.492 563.191C310.803 570.869 324.441 575.545 338.998 579.181C337.816 579.368 336.67 579.634 335.477 579.727C334.049 579.846 332.568 580.014 331.147 579.891C307.751 577.829 284.362 575.897 260.982 573.52C254.851 572.899 248.891 570.548 242.742 569.515C231.01 567.557 219.229 565.797 207.419 564.277C196.772 562.902 186.051 561.929 175.365 560.866C169.736 560.308 164.231 560.232 158.558 558.364C154.998 557.19 150.091 558.996 145.687 560.68C148.692 561.281 151.877 561.569 154.695 562.557C160.553 564.616 166.029 567.689 172.026 569.188C185.616 572.59 199.341 576.756 213.155 577.82C222.838 578.57 232.845 579.51 242.549 579.35C258.755 579.074 291.38 582.184 302.685 586.436C301.802 586.642 300.944 586.833 299.561 587.144C304.582 589.042 309.241 590.316 313.258 592.461C316.862 594.386 319.696 597.277 322.884 599.746C322.571 600.21 322.281 600.676 321.965 601.159C318.758 601.24 315.529 601.674 312.354 601.312C301.798 600.135 290.467 600.334 280.879 596.986C251.674 586.758 220.629 586.195 190.696 580.106C169.504 575.804 148.076 572.274 126.68 568.86C110.238 566.217 93.6034 564.556 77.1362 561.929C60.758 559.332 44.4924 556.021 28.1693 553.17C26.0391 552.791 23.6932 553.391 20.9578 553.587C21.1543 553.314 21.5222 552.782 21.8033 552.389C6.48746 548.527 -9.52099 545.752 -24.283 540.432C-42.7229 533.773 -61.8803 529.876 -80.829 525.055C-83.073 524.475 -85.7911 525.457 -88.3234 525.512C-89.4161 525.542 -90.9945 525.381 -91.5938 524.803C-97.2352 519.36 -99.6419 519.337 -104.366 524.857C-104.691 525.226 -105.316 525.409 -105.837 525.679C-109.046 519.685 -113.789 518.716 -123.357 522.211C-126.553 519.07 -127.941 516.286 -121.991 514.108C-125.985 511.593 -126.249 509.081 -123.227 506.05C-121.052 503.863 -119.712 501.124 -117.328 497.64C-120.491 498.1 -122.238 498.365 -124.385 498.674C-124.535 498.021 -124.723 497.121 -124.975 495.99C-130.364 499.973 -135.65 503.875 -141.294 508.049C-143.696 505.958 -145.104 504.067 -147.162 503.119C-149.132 502.2 -152.343 501.387 -154.002 502.055C-159.859 504.413 -165.267 507.442 -170.828 510.21C-168.857 507.066 -166.8 503.783 -164.743 500.501C-165.324 500.148 -165.882 499.798 -166.464 499.446C-169.197 501.469 -171.955 503.509 -174.688 505.532C-175.03 505.303 -175.372 505.074 -175.691 504.847C-174.511 502.647 -173.311 500.468 -172.131 498.268C-172.733 497.894 -173.31 497.505 -173.911 497.131C-181.481 504.456 -188.396 512.663 -201.607 511.041C-204.303 508.709 -206.477 506.833 -209.193 504.479C-208.38 503.537 -207.057 502.045 -205.949 500.786C-208.942 498.975 -211.7 497.324 -214.456 495.655C-217.577 493.753 -220.438 492.369 -224.33 494.582C-226.825 496.002 -228.788 500.191 -233.125 497.28C-235.218 495.861 -237.085 493.018 -236.968 490.982C-236.877 489.335 -233.889 487.679 -231.796 486.507C-229.654 485.322 -227.005 484.704 -222.956 483.274C-227.488 482.276 -230.261 481.667 -234.612 480.711C-231.775 477.675 -229.258 474.972 -225.697 471.151C-232.746 473.043 -238.478 474.597 -242.627 475.716C-240.844 469.081 -238.618 460.769 -236.051 451.214C-239.542 450.048 -243.924 447.858 -248.527 447.243C-255.178 446.333 -257.696 442.96 -259.762 438.563C-252.002 437.282 -248.558 430.521 -253.853 425.271C-258.592 420.576 -257.008 416.637 -255.331 412.319C-253.406 407.324 -251.718 402.187 -249.064 397.47C-237.806 377.562 -226.151 357.817 -214.761 337.964C-212.891 334.695 -212.531 331.274 -216.505 328.24C-216.996 328.458 -217.573 328.627 -218.048 328.903C-219.623 329.824 -221.155 330.768 -222.71 331.71C-223.105 330.244 -223.591 328.766 -223.87 327.296C-224.36 324.737 -224.71 322.177 -226.272 319.856C-224.385 315.9 -222.432 311.971 -220.654 307.963C-219.46 305.28 -217.545 302.576 -221.778 299.939C-222.681 299.378 -222.614 297.373 -222.435 296.129C-221.257 288.412 -220.417 280.615 -218.493 273.048C-216.302 264.451 -212.755 256.137 -210.449 247.556C-206.381 232.504 -202.516 217.409 -199.125 202.217C-192.426 172.307 -186.336 142.264 -179.5 112.372C-176.929 101.121 -172.749 90.1652 -169.678 78.9958C-169.076 76.7791 -170.254 74.171 -170.783 70.6379C-169.38 69.9756 -166.989 68.468 -164.264 67.6174C-156.001 65.0956 -154.593 63.1105 -155.969 55.7997C-156.318 53.9666 -156.328 51.6543 -155.245 50.2248C-150.849 44.3657 -147.443 44.7375 -143.088 51.1926C-142.598 51.9064 -142.134 52.6357 -140.754 54.7473C-140.265 47.1674 -134.545 46.2643 -128.346 45.6078C-124.283 45.1677 -121.15 45.1324 -118.86 48.8493C-118.031 50.1834 -115.112 50.7364 -112.748 51.8348C-110.946 49.8433 -108.924 47.5812 -106.717 45.1373C-101.524 51.3808 -88.1535 55.0542 -80.2667 52.7646C-72.0923 50.3993 -63.5024 51.3663 -54.9795 51.2067C-38.1414 50.88 -21.4043 49.3292 -4.57278 48.8712C10.6778 48.457 26.0391 48.8208 41.3507 48.8428C42.6008 48.8508 43.8553 49.0083 45.0964 48.9033C74.655 46.54 104.396 48.0761 134.126 50.6173C147.49 51.7553 160.792 54.1341 174.158 55.0674C187.616 56.0122 201.103 55.9914 214.585 56.1937C241.366 56.5753 268.143 56.621 294.926 57.1706C338.695 58.0644 382.473 59.2575 426.251 60.2642C433.92 60.4446 441.601 60.1607 449.273 60.5091C463.42 61.1305 477.574 62.0695 491.742 62.8984C492.661 62.9579 493.6 63.225 496.089 63.7052C482.548 64.8934 470.671 65.9363 458.677 66.9832C468.533 71.3336 479.018 71.234 489.444 71.9657C500.745 72.7513 512.001 74.0719 523.28 75.2089C527.605 75.6403 531.934 76.2212 536.27 76.7472C534.415 77.1292 532.536 77.8811 530.673 77.7775C526.854 77.5588 523.068 76.8969 517.936 76.2524C520.11 77.7555 520.942 78.326 522.777 79.5815C514.703 78.5674 507.838 77.7051 500.995 76.8457C500.702 77.3308 500.385 77.8314 500.092 78.3164C502.308 79.6757 504.506 82.0951 506.76 82.229C522.287 83.1168 537.847 83.5615 553.374 84.0766C555.404 84.1452 557.412 83.8383 559.445 83.7022C559.373 83.1713 559.326 82.6249 559.253 82.0939C557.159 81.98 555.054 81.7715 552.989 81.7918C546.739 81.9386 540.991 80.6577 536.274 76.7105ZM130.088 542.096C131.182 542.793 132.203 543.89 133.425 544.118C149.826 547.278 166.212 550.547 182.684 553.324C192.552 554.992 202.571 555.84 212.543 557.056C212.619 556.45 212.715 555.866 212.791 555.26C206.107 553.88 199.429 552.445 192.717 551.099C178.885 548.337 165.11 545.302 151.211 543.072C144.33 541.965 137.381 538.446 130.205 541.347C125.204 538.557 119.923 538.359 114.564 538.6C114.5 539.113 114.412 539.624 114.348 540.138C119.573 540.776 124.819 541.434 130.088 542.096ZM942.392 131.892C942.633 132.556 942.874 133.22 943.115 133.884C944.301 134.033 945.482 134.218 946.696 134.333C970.463 136.573 994.263 138.742 1018.02 141.092C1021.08 141.402 1024.07 143.25 1027.07 143.329C1033.95 143.503 1040.78 142.833 1047.66 142.839C1052.11 142.839 1056.95 142.478 1059.51 147.03C1059.9 147.75 1062 148.237 1063.33 148.311C1075.35 149.076 1087.36 149.745 1099.39 150.436C1105.01 150.75 1110.65 150.675 1116.18 151.408C1119.67 151.865 1122.98 154.275 1126.37 154.439C1134.66 154.847 1142.95 154.49 1151.23 154.375C1158.59 154.274 1165.96 154.305 1173.27 153.844C1179.29 153.463 1185.2 151.578 1191.17 151.825C1227.34 153.329 1263.49 155.242 1299.67 157.027C1308.67 157.468 1317.66 157.87 1326.64 158.308C1324.79 156.995 1322.84 156.47 1320.89 156.319C1311.54 155.611 1302.07 155.764 1292.91 154.203C1266.21 149.657 1239.38 148.374 1212.49 147.346C1178.28 146.049 1144.07 144.623 1109.85 143.195C1108.05 143.118 1106.22 142.703 1104.47 142.277C1099.91 141.164 1095.4 139.423 1090.79 138.9C1079.66 137.633 1068.46 137.027 1057.28 135.959C1045.7 134.858 1033.81 131.912 1022.65 132.821C1014.34 133.492 1006.16 133.88 997.867 133.473C981.288 132.658 964.7 131.544 948.103 130.689C946.189 130.617 944.297 131.479 942.392 131.892ZM1024.93 116.11C1024.89 115.509 1024.85 114.907 1024.81 114.324C960.918 109.636 897.006 104.945 833.117 100.257C833.087 100.309 833.078 100.383 833.049 100.435C839.8 101.283 846.551 102.131 853.303 102.979C843.963 103.371 834.708 102.898 825.447 102.667C823.969 102.63 822.537 103.699 821.079 104.243C821.725 105.182 822.347 106.136 822.445 106.278C796.3 104.336 769.078 102.297 741.854 100.275C741.817 100.755 741.757 101.232 741.718 101.731C743.451 101.948 745.155 102.218 746.895 102.381C767.338 104.165 787.758 105.016 807.883 110.246C821.637 113.818 836.057 115.592 850.25 117.505C864.262 119.395 878.358 120.979 892.441 121.742C920.863 123.261 949.309 124.038 977.759 125.338C987.871 125.806 997.957 126.85 1008.08 127.636C1005.37 126.308 1002.57 125.882 999.782 125.606C979.114 123.588 958.389 122.029 937.811 119.482C913.013 116.405 888.321 112.483 863.609 108.914C863.312 108.876 863.062 108.472 861.911 107.489C863.931 106.904 865.556 105.953 867.116 106.074C888.236 107.813 909.369 109.629 930.461 111.588C945.164 112.95 959.835 114.942 974.54 115.913C986.673 116.71 998.824 116.447 1010.98 116.538C1015.63 116.545 1020.28 116.253 1024.93 116.11ZM1294.64 167.559C1294.62 168.042 1294.61 168.543 1294.59 169.026C1296 169.277 1297.42 169.586 1298.83 169.763C1313.05 171.493 1327.25 173.314 1341.49 174.86C1351.6 175.961 1361.74 176.937 1371.86 177.464C1382.15 178.01 1392.58 178.724 1402.67 177.922C1412.07 177.183 1421.36 179.244 1430.68 178.458C1434.24 178.159 1438.04 179.084 1441.74 179.53C1458.63 181.539 1475.52 183.549 1492.4 185.632C1506.21 187.347 1519.95 189.67 1533.78 190.829C1548.36 192.045 1563 192.226 1577.64 192.815C1578.59 192.86 1579.55 192.589 1580.49 192.447C1485.6 175.422 1390.05 172.461 1294.64 167.559ZM112.253 528.04C127.934 539.142 146.759 538.487 165.57 542.75C161.484 538.752 158.532 535.884 155.829 533.234C177.369 535.137 196.992 545.467 218.956 545.467C219.089 544.962 219.22 544.475 219.375 543.973C205.264 540.486 191.154 536.981 177.156 533.508C194.742 535.717 212.601 537.96 231.008 540.271C230.498 538.791 230.406 537.68 230.046 537.597C221.699 535.804 213.421 533.646 204.968 532.509C188.336 530.271 171.638 528.193 154.941 526.841C141.015 525.745 126.718 522.626 112.253 528.04ZM1664.47 185.68C1690.18 191.816 1716.01 194.24 1742.45 191.821C1740.03 189.709 1737.29 187.669 1734.42 187.345C1719.13 185.649 1703.78 184.411 1688.47 182.917C1682.7 182.36 1676.95 181.489 1671.2 180.767C1671.21 180.693 1671.22 180.62 1671.23 180.546C1677.51 180.757 1683.8 180.97 1690.08 181.181C1690.08 180.976 1690.09 180.771 1690.09 180.548C1688.6 180.026 1687.12 179.504 1685.61 178.979C1685.7 178.767 1685.78 178.553 1685.87 178.341C1692.36 178.69 1698.83 179.036 1705.32 179.367C1705.33 178.94 1705.36 178.515 1705.37 178.087C1679.76 175.896 1654.16 173.687 1627.25 171.388C1630.84 174.132 1632.84 176.712 1635.5 177.438C1642.56 179.386 1649.89 180.605 1657.15 181.965C1662.65 183.01 1668.17 183.853 1673.69 184.769C1673.65 184.931 1673.63 185.096 1673.58 185.24C1670.55 185.418 1667.52 185.541 1664.47 185.68ZM45.6543 510.245C46.9678 510.671 48.2695 511.375 49.6198 511.507C69.2176 513.559 88.7925 515.607 108.386 517.509C136.654 520.258 164.965 522.845 193.228 525.63C202.84 526.576 212.415 528.003 221.995 529.206C215.195 527.084 208.314 525.605 201.378 524.566C184.963 522.076 168.56 519.308 152.055 517.533C116.649 513.701 81.3488 506.621 45.6543 510.245ZM1519.11 158.198C1528.84 160.017 1538.35 161.844 1548.08 162.936C1564.1 164.705 1579.97 168.04 1595.92 170.492C1604.77 171.844 1613.66 172.757 1622.54 173.871C1622.64 173.195 1622.77 172.522 1622.88 171.865C1608.57 166.675 1592.77 167.915 1577.68 164.323C1580.07 160.393 1577.06 159.642 1573.05 159.456C1568.72 159.248 1564.26 158.408 1560.07 158.776C1549.39 159.708 1538.78 159.68 1528.01 158.011C1525.12 157.537 1522.06 158.103 1519.11 158.198ZM1262.27 144.671C1262.31 144.191 1262.33 143.69 1262.36 143.21C1228.86 141.574 1195.36 139.919 1161.85 138.283C1170.59 140.685 1179.51 143.967 1188.43 144.36C1210.66 145.363 1233.13 148.894 1255.1 144.776C1257.35 144.351 1259.88 144.687 1262.27 144.671ZM1781.82 195.629C1782.01 195.951 1782.2 196.273 1782.39 196.595C1803.06 199.191 1823.72 201.786 1844.39 204.382C1827.16 197.484 1809.16 194.124 1790.66 193.459C1787.71 193.35 1784.77 194.862 1781.82 195.629ZM1128.72 134.625C1128.73 134.124 1128.75 133.622 1128.77 133.121C1103.61 130.298 1078.52 126.288 1053.22 127.715C1053.2 128.439 1053.18 129.163 1053.13 129.884C1078.33 131.483 1103.52 133.045 1128.72 134.625ZM8.68789 151.923C18.2675 153.127 27.8928 154.335 35.3056 155.266C39.6963 154.066 42.405 153.344 45.5245 152.487C35.7795 150.387 26.3058 148.34 16.8345 146.274C9.37004 144.647 9.37235 144.629 8.68789 151.923ZM854.527 90.6454C875.017 94.4489 895.481 93.8507 915.918 92.3546C895.471 90.2339 875.007 87.8873 854.527 90.6454ZM1547.89 179.033C1547.86 179.439 1547.83 179.846 1547.8 180.271C1575.35 183.731 1602.91 187.192 1630.46 190.652C1630.51 190.249 1630.56 189.845 1630.61 189.423C1603.02 185.957 1575.44 182.493 1547.89 179.033ZM-46.5251 527.891C-46.7723 528.568 -47.0424 529.243 -47.2873 529.901C-35.2229 532.535 -23.1357 535.171 -11.0736 537.823C-21.241 528.756 -34.3229 529.796 -46.5251 527.891ZM1385.77 154.907C1385.77 154.348 1385.8 153.792 1385.8 153.233C1372.12 152.223 1358.43 151.231 1344.75 150.221C1344.72 150.664 1344.71 151.11 1344.68 151.554C1358.19 155.525 1371.98 155.151 1385.77 154.907ZM-182.824 182.925C-182.238 183.054 -181.65 183.165 -181.064 183.295C-176.968 168.024 -172.872 152.752 -168.774 137.463C-169.474 137.319 -170.174 137.175 -170.872 137.013C-174.835 152.338 -178.82 167.642 -182.824 182.925ZM1265.61 143.357C1265.63 143.937 1265.63 144.514 1265.65 145.113C1278.33 145.924 1291.04 146.737 1303.73 147.529C1291.06 144.745 1278.39 142.502 1265.61 143.357ZM1612.81 177.365C1612.8 176.693 1612.79 176.021 1612.8 175.352C1600.03 174.306 1587.23 173.258 1574.46 172.213C1574.42 172.916 1574.37 173.637 1574.36 174.343C1587.16 175.336 1599.98 176.35 1612.81 177.365ZM2249.32 777.063C2258.4 778.557 2267.5 780.055 2276.58 781.549C2276.66 781.057 2276.75 780.582 2276.83 780.09C2268.27 775.567 2259.07 774.672 2249.32 777.063ZM1138.34 100.236C1138.36 99.6802 1138.39 99.1056 1138.41 98.5495C1127.17 98.0322 1115.93 97.5149 1104.69 96.9793C1104.69 97.7614 1104.71 98.528 1104.7 99.3101C1115.95 99.6226 1127.14 99.9295 1138.34 100.236ZM942.467 131.473C935.351 130.579 928.782 129.754 922.19 128.926C922.142 129.125 922.115 129.345 922.066 129.544C923.952 130.023 925.861 130.505 928.174 131.094C927.11 131.818 926.477 132.241 925.744 132.727C937.433 135.034 940.088 134.92 942.467 131.473ZM1890.06 753.487C1890.12 753.233 1890.17 752.96 1890.25 752.709C1876.91 751.033 1863.56 749.358 1850.22 747.682C1850.19 747.939 1850.18 748.217 1850.15 748.474C1863.44 750.144 1876.74 751.814 1890.06 753.487ZM1802.51 203.558C1802.54 204.083 1802.54 204.605 1802.57 205.13C1809.99 206.938 1817.38 207.68 1824.65 206.244C1824.63 205.646 1824.59 205.044 1824.57 204.446C1817.22 204.156 1809.86 203.848 1802.51 203.558ZM1463.2 152.163C1463.56 151.519 1463.94 150.877 1464.3 150.233C1462.52 149.487 1460.7 148.103 1458.98 148.13C1455.08 148.162 1450.4 145.971 1446.83 149.324C1452.79 150.353 1458.01 151.25 1463.2 152.163ZM1329.5 583.765C1329.07 583.283 1328.62 582.816 1328.2 582.334C1324.62 584.624 1321.04 586.896 1316.94 589.512C1325.78 592.206 1325.96 586.098 1329.5 583.765ZM1095.7 101.05C1095.71 101.572 1095.73 102.097 1095.73 102.638C1100.48 102.153 1105.19 107.386 1110.66 102.929C1105.19 102.242 1100.45 101.646 1095.7 101.05ZM1940.84 642.469C1941.78 640.313 1942.56 638.547 1943.94 635.328C1939.36 637.642 1936.29 639.195 1932.01 641.36C1936.05 641.867 1938.24 642.142 1940.84 642.469ZM1172.1 659.567C1167.45 659.319 1163.51 659.104 1159.58 658.89C1161.96 662.245 1165.62 662.016 1168.88 662.09C1169.97 662.114 1171.01 660.475 1172.1 659.567ZM-185.726 194.041C-186.712 193.954 -187.697 193.868 -188.66 193.784C-189.084 197.16 -189.508 200.536 -189.932 203.912C-189.295 204.011 -188.657 204.091 -188.02 204.19C-187.247 200.801 -186.497 197.411 -185.726 194.041Z" fill="#0B366A"/>
</g>
</g>
<defs>
<clipPath id="clip0">
<rect width="2357" height="851" fill="white"/>
</clipPath>
<clipPath id="clip1">
<rect width="2916.57" height="622.643" fill="white" transform="translate(-193.408 -89) rotate(7.15861)"/>
</clipPath>
</defs>
</svg>
