<svg width="1980" height="340" viewBox="0 0 1980 340" fill="none" xmlns="http://www.w3.org/2000/svg">
<g clip-path="url(#clip0)">
<path opacity="0.8" d="M440.629 299.367C446.337 299.385 452.046 299.41 457.771 299.411C461.086 299.409 464.469 299.208 467.733 299.381C471.725 299.595 475.649 300.091 479.589 300.496C481.737 300.717 483.172 300.624 482.606 299.338L482.713 299.395C479.856 299.175 476.981 298.955 474.124 298.727C472.669 298.613 471.232 298.474 469.794 298.352C469.897 298.077 469.982 297.794 470.085 297.519C510.259 297.886 550.45 298.244 591.989 298.627C589.83 298.904 588.998 299.014 588.167 299.116C588.218 299.016 588.27 298.916 588.322 298.815C609.094 299.873 629.866 300.923 650.638 301.98C650.605 302.213 650.59 302.437 650.558 302.669C644.762 302.744 638.934 303.044 633.206 302.844C622.387 302.462 611.636 301.78 600.851 301.248C589.02 300.672 577.17 300.054 565.305 299.586C557.129 299.269 548.885 299.185 540.692 298.993C540.573 299.351 540.436 299.709 540.316 300.067C542.447 300.33 544.543 300.667 546.708 300.83C549.369 301.028 552.082 301.084 554.713 301.663C549.59 301.613 544.466 301.572 538.704 301.522C541.811 301.905 544.315 302.212 546.801 302.528C534.676 302.553 522.493 304.924 510.764 302.671C509.172 302.932 507.511 303.402 505.846 303.432C493.829 303.645 481.812 303.776 470.292 303.925C471.414 304.317 474.177 304.181 475.813 304.566C480.863 305.761 485.96 305.107 490.962 305.34C519.147 306.634 547.382 307.744 575.533 309.146C586.815 309.704 598.117 310.512 609.054 311.813C619.049 313.01 629.089 312.15 639.058 312.618C651.439 313.204 663.871 313.599 676.302 313.935C688.679 314.272 701.072 314.427 713.467 314.665C713.289 314.625 712.933 314.547 712.595 314.469C712.594 314.361 712.593 314.261 712.591 314.154C719.896 314.225 727.2 314.296 734.504 314.359C734.521 314.268 734.537 314.168 734.554 314.077C704.79 312.671 675.044 311.265 645.28 309.86C659.541 309.144 777.075 312.241 781.47 313.502C772.357 313.397 764.166 313.312 755.975 313.219C755.942 313.452 755.91 313.684 755.86 313.917C764.23 314.173 772.585 314.637 780.97 314.645C793.681 314.663 805.874 315.848 818.053 317.199C818.816 317.281 819.581 317.511 820.325 317.485C831.719 317.089 842.626 318.854 853.935 318.832C854.307 318.828 854.665 319.063 855.008 319.565C836.053 320.523 817.031 319.078 798.048 320.609C807.876 321.228 817.655 322.071 827.533 322.432C849.773 323.247 872.064 323.871 894.371 324.436C898.592 324.539 902.91 324.01 905.532 323.86C906.387 321.428 906.968 319.796 907.601 318.038C910.351 318.202 913.754 319.526 914.041 317.01C914.056 316.852 916.288 316.682 917.51 316.583C920.077 316.376 922.663 316.21 925.249 316.036C925.246 315.77 925.225 315.505 925.221 315.24C919.918 315.043 914.598 314.839 909.1 314.636C909.095 314.238 909.088 313.733 909.08 313.103C935.8 313.536 962.503 314.036 989.222 314.37C1014.75 314.695 1040.3 314.77 1065.83 315.103C1079.59 315.281 1093.28 316.074 1107.04 316.07C1135.99 316.06 1164.97 315.727 1193.93 315.493C1202.3 315.426 1210.66 315.293 1219.02 315.077C1221.19 315.024 1223.31 314.54 1225.45 314.256C1207.67 314.353 1189.89 314.534 1172.11 314.515C1159.19 314.5 1146.28 314.269 1133.37 314.03C1129.77 313.96 1124.49 314.103 1123.03 313.136C1120.86 311.713 1118.63 311.808 1115.97 311.635C1107.47 311.074 1098.95 310.521 1089.69 309.903C1093.16 308.183 1089.53 308.429 1088.34 307.789C1091.38 307.75 1094.42 307.711 1097.46 307.671C1097.46 307.605 1097.44 307.547 1097.44 307.481C1091.22 307.337 1085 307.186 1078.77 307.043C1078.82 306.735 1078.87 306.428 1078.9 306.112C1087.69 305.999 1096.48 305.943 1105.26 305.755C1113.87 305.577 1122.48 305.159 1131.08 305.039C1139.58 304.921 1148.08 305.043 1156.59 305.057C1156.57 305.339 1156.54 305.63 1156.53 305.912C1140.56 308.075 1124.13 307.003 1107.94 307.917C1113.69 308.149 1119.46 307.776 1125.14 307.91C1131.29 308.054 1137.36 308.672 1143.48 309.09C1143.47 309.223 1143.45 309.356 1143.44 309.489C1135.92 309.586 1128.41 309.683 1120.91 309.78C1122.83 310.352 1124.92 310.309 1126.75 310.6C1130.11 311.145 1134.7 310.116 1136.84 312.401C1137.58 313.196 1143.99 312.325 1144.49 311.448C1147.56 311.732 1150.6 312.223 1153.7 312.266C1176.61 312.633 1199.53 312.892 1222.44 313.25C1223.33 313.263 1224.13 313.933 1224.99 314.287C1226.9 313.955 1228.79 313.359 1230.72 313.317C1251.6 312.873 1272.47 312.428 1293.35 312.158C1303.31 312.029 1313.28 312.34 1323.24 312.327C1328.68 312.323 1334.54 311.409 1339.53 312.033C1352.65 313.679 1366.16 312.592 1379.33 313.516C1390.52 314.3 1401.72 315.166 1413.18 314.371C1417.94 314.044 1422.73 313.816 1427.54 313.24C1411.09 313.08 1394.62 312.92 1378.16 312.76C1378.14 312.528 1378.14 312.288 1378.12 312.056C1379.38 311.973 1380.65 311.816 1381.91 311.816C1389.14 311.797 1396.4 312.035 1403.59 311.759C1411.49 311.458 1419.32 310.635 1427.2 310.169C1433.26 309.808 1439.41 309.803 1445.45 309.377C1459.56 308.382 1473.6 307.172 1487.7 306.152C1495.02 305.618 1502.4 305.307 1509.84 304.613C1507.85 304.498 1505.87 304.375 1503.86 304.26C1503.81 304.12 1503.75 303.971 1503.68 303.831C1505.26 303.728 1506.83 303.517 1508.39 303.538C1522.42 303.738 1536.44 304.045 1550.47 304.195C1557.61 304.269 1564.8 303.91 1571.95 304.033C1590.67 304.363 1609.36 304.917 1628.09 305.272C1643.66 305.559 1659.13 305.343 1674.69 304.154C1683.07 303.515 1691.89 304.396 1700.53 304.425C1709.89 304.453 1719.24 304.291 1728.6 304.203C1739.63 304.093 1750.67 303.76 1761.66 303.924C1773.81 304.115 1785.9 304.763 1798.02 305.228C1798.96 305.265 1799.86 305.378 1801.15 305.917C1799.38 306.313 1797.61 306.709 1796.46 306.956C1816.95 306.691 1838.13 306.417 1859.31 306.142C1859.39 306.44 1859.46 306.737 1859.54 307.035C1850.63 308.004 1841.74 308.973 1832.84 309.942C1832.9 310.099 1832.95 310.264 1833.01 310.421C1865.93 307.698 1898.85 304.976 1931.76 302.253C1931.91 302.599 1932.07 302.945 1932.22 303.292C1909.98 307.667 1887.33 311.426 1863.25 313.354C1871.9 313.416 1880.54 313.479 1889.19 313.533C1894.44 313.564 1899.06 313.189 1903.91 311.692C1907.96 310.438 1913.73 310.114 1918.78 309.991C1928.81 309.736 1937.33 307.479 1945.79 305.446C1955.48 303.123 1965.33 301.636 1975.96 301.299C1988.12 300.91 2000.29 300.728 2012.43 300.322C2016.21 300.198 2019.96 299.719 2023.69 299.314C2030.69 298.543 2037.7 298.245 2044.86 298.343C2047.58 298.383 2050.67 297.713 2053.09 296.985C2055.81 296.162 2057.12 294.893 2054.69 293.391C2052.03 291.75 2052.81 290.082 2055.3 288.4C2053.82 288.005 2052.37 287.617 2050.32 287.08C2056.12 285.977 2063.55 287.597 2067.78 284.093C2064.32 283.856 2061.69 283.674 2060.04 283.563C2059.24 282.073 2058.59 280.846 2057.75 279.298C2060.67 278.589 2064.65 277.625 2068.62 276.653C2073.8 275.393 2079.07 274.197 2084.15 272.854C2088.27 271.773 2090.09 269.975 2090.38 267.824C2090.45 267.375 2090.28 266.847 2090.76 266.501C2097.36 261.681 2094.63 256.576 2094.05 251.476C2093.55 247.105 2093.57 242.694 2094.15 238.309C2094.7 234.165 2094.68 230.177 2091.42 226.24C2089.93 224.427 2090.52 222.247 2089.71 220.276C2089.16 218.932 2088.12 217.602 2086.83 216.375C2085.43 215.042 2083.61 221.261 2082.08 220.136C2081.88 220.611 2081.48 221.479 2081.07 222.438C2075.65 220.501 2073.62 217.933 2073.13 214.805C2072.07 208.012 2070.39 201.252 2069.29 194.459C2069.06 192.986 2070.42 191.451 2070.74 189.93C2071.47 186.364 2073.82 166.426 2072.87 162.964C2071.6 158.429 2067.89 132.835 2065.92 128.325C2064.51 125.126 2064.65 121.775 2063.72 118.52C2061.51 110.838 2059.12 103.167 2056.72 95.5043C2055.48 91.5324 2053.94 87.581 2052.74 83.6086C2051.87 80.7678 2054.9 79.1782 2061.01 79.1157C2063.42 79.0927 2065.9 79.0192 2068.23 79.2295C2073.84 79.7373 2078.57 78.5236 2083.72 77.8268C2088.94 77.1125 2092.66 75.6881 2096.52 74.1209C2098.16 73.4612 2100.32 73.0851 2102.62 72.4833C2100.95 71.0705 2093.55 72.6671 2094.41 69.4556C2098.44 69.7268 2102.32 69.9832 2106.45 70.2697C2106.28 70.5787 2106.06 70.9962 2105.83 71.4053C2106.31 71.424 2106.79 71.4427 2107.27 71.4613C2107.42 69.8592 2107.58 68.257 2107.72 66.6633C2109.18 66.0392 2110.96 57.8146 2113.62 56.6857C2109.6 55.6682 2106.69 54.9266 2103.56 54.1298C2104.55 53.8682 2106.47 53.3541 2109.23 52.622C2108.36 50.1294 2110.48 46.7939 2105.43 44.1398C2103.75 43.2661 2106.38 42.3035 2105.83 42.0122C2103.7 40.9121 2100.83 39.1751 2098.49 39.2883C2090.29 39.6681 2084.1 36.9541 2075.97 37.1837C2077.32 36.2957 2077.52 36.2849 2083.61 36.264C2086.47 36.2519 2089.32 36.1984 2092.17 36.1615C2092.37 35.9434 2092.56 35.7336 2092.73 35.5158C2091.2 35.1211 2089.51 34.2808 2088.18 34.4057C2079.84 35.177 2071.98 33.6039 2063.81 33.7511C2056.34 33.8894 2048.84 33.8538 2041.36 34.0418C2038.31 34.1227 2036.82 33.9595 2036.25 32.3005C2035.42 29.9234 2033.56 27.626 2031.81 24.722C2030.86 25.7955 2030.46 26.2567 2029.55 27.2965C2028.74 25.9556 2028.43 25.1389 2027.73 24.4101C2027.1 23.7549 2026.09 22.6984 2025.17 22.6855C2023.38 22.6589 2020.92 23.0141 2019.81 23.6337C2018.1 24.5926 2015.05 25.5193 2017 27.2268C2017.45 27.6107 2016.68 28.3088 2016.39 29.0671C2014.41 28.2968 2015.2 26.3299 2011.38 26.9514C2011 26.3925 2010.21 25.8307 2010.29 25.2824C2010.71 22.1927 2005.43 20.6941 2001.93 18.8159C2000.08 17.8202 1996.31 18.3084 1993.28 18.7787C1991.76 19.014 1989.95 18.9379 1988.3 18.8763C1986.81 18.821 1985.35 18.5828 1983.17 18.3541C1984.24 20.1642 1985.22 21.6108 1985.91 23.0859C1986.4 24.1408 1987.97 25.1899 1985.17 26.3123C1984.15 26.7152 1984.84 28.0577 1984.76 28.9044C1982.36 29.7065 1984.81 26.0599 1981.09 28.4545C1980.01 26.2464 1979.05 24.2774 1978.03 22.2261C1967.3 23.5091 1973.5 27.0852 1972.42 30.0673C1971.3 28.2164 1970.45 26.8345 1969.59 25.4195C1966.45 26.2976 1966.45 26.2976 1963.6 32.3619C1955.06 32.0912 1946.44 31.8297 1937.82 31.5515C1936.38 31.5038 1934.96 31.3232 1933.54 31.3416C1919.45 31.4991 1905.36 31.7561 1891.27 31.8473C1878.78 31.9261 1866.26 31.9472 1853.78 31.7274C1850.82 31.6745 1848 30.5585 1845.12 29.9325C1845.74 29.3939 1846.08 28.5687 1847.02 28.3742C1849.26 27.9057 1851.78 27.7322 1854.18 27.4357C1854.23 27.2195 1854.28 27.0033 1854.35 26.7868C1851.05 26.4399 1847.71 25.7204 1844.45 25.8123C1829.74 26.2349 1815.05 26.9224 1800.35 27.461C1785.59 28.0002 1770.83 28.5229 1756.07 28.9462C1745.33 29.2593 1734.54 29.6145 1723.81 29.5543C1710.71 29.4835 1697.38 29.6063 1684.62 28.5278C1668.51 27.1694 1652.25 25.962 1636.07 26.1881C1620.07 26.4118 1605.71 23.6709 1590.35 23.0407C1577.63 22.5171 1564.97 21.7276 1552.3 20.9464C1548.84 20.7342 1545.46 20.1975 1542.16 19.6931C1529.87 17.8126 1517.4 18.7036 1504.77 19.4392C1504.94 22.886 1498.09 20.96 1494.94 22.4683C1498.09 22.4274 1500.93 22.3907 1503.76 22.354C1503.8 22.5774 1503.84 22.809 1503.88 23.0324C1500.28 23.2116 1496.67 23.3164 1493.11 23.6029C1487.92 24.0183 1482.8 24.64 1477.62 25.0305C1476.07 25.15 1474.4 24.7819 1472.79 24.637C1473.72 23.9948 1474.63 23.3446 1475.49 22.7531C1469.77 22.8272 1463.85 22.7297 1457.97 23.0131C1440.62 23.8429 1423.35 25.0613 1405.99 25.6757C1380.76 26.5578 1355.49 27.7222 1330.19 26.8642C1328.43 26.804 1326.56 27.2262 1324.53 27.0866C1325.47 26.8837 1326.39 26.6812 1328.02 26.3202C1316.41 25.5584 1305.51 25.2104 1294.55 26.1896C1294.53 26.4385 1294.5 26.6877 1294.49 26.9366C1303.37 26.8217 1312.24 26.7067 1321.11 26.592C1321.13 26.8405 1321.15 27.0973 1321.17 27.3457C1318.65 27.4612 1316.14 27.5766 1312.9 27.7181C1314.05 27.9684 1314.55 28.0781 1316.04 28.3987C1304.55 28.224 1294.08 28.0861 1283.6 27.9067C1274.98 27.7612 1266.34 27.6408 1257.74 27.3957C1253.81 27.2808 1249.45 27.6522 1246.68 25.6236C1246.01 25.1348 1243.39 25.0941 1241.67 25.1081C1223.24 25.272 1204.79 25.428 1186.34 25.7166C1178.11 25.8479 1169.91 26.2608 1161.69 26.5496C1161.64 26.7327 1161.6 26.9155 1161.55 27.0986C1162.48 27.3187 1163.42 27.5387 1165.25 27.9793C1159.55 28.2604 1155.46 28.5538 1150.45 27.6983C1144.5 26.681 1137.27 27.0398 1130.6 27.0764C1110.52 27.1788 1090.42 27.5467 1070.34 27.5497C1058.46 27.5459 1046.63 26.9362 1034.75 26.8081C1022.09 26.6735 1009.4 26.8378 996.725 26.7863C990.166 26.7551 983.621 26.4916 977.043 26.4192C972.841 26.3741 972.694 27.3129 975.588 29.0497C942.594 28.6726 910.397 28.3099 878.2 27.9473C878.114 28.1225 878.028 28.3061 877.941 28.4813C879.93 28.7292 881.901 28.969 883.889 29.2168C883.909 29.3575 883.928 29.4982 883.948 29.6389C870.481 30.0868 857.016 30.6342 843.548 30.9578C829.884 31.2838 816.201 31.3864 802.536 31.5715C788.941 31.7558 775.329 31.9237 761.632 32.3497C765.214 32.4028 768.795 32.4559 772.377 32.5091C772.379 32.6914 772.381 32.8821 772.384 33.0645C767.634 33.126 762.901 33.1706 758.151 33.2487C741.917 33.5169 725.666 33.8847 709.43 34.0369C700.196 34.1232 690.973 33.7617 681.738 33.7984C678.069 33.8127 674.286 34.6824 670.704 34.5381C665.081 34.3124 659.644 33.3465 654.039 33.0791C650.084 32.8899 645.96 33.3827 641.902 33.5015C640.077 33.5583 638.057 33.6425 636.44 33.3483C633.81 32.8766 631.46 32.0863 628.952 31.4637C621.199 29.5494 613.359 27.8683 604.05 28.9838C602.775 29.1412 601.265 28.854 599.207 28.7314C599.644 29.6543 600.008 30.4041 600.373 31.1538C600.145 31.3392 599.934 31.516 599.706 31.7013C596.379 30.7246 592.275 30.0316 589.953 28.6771C587.845 27.4441 586.258 26.7268 583.308 27.5692C580.642 28.3333 580.247 30.7179 582.123 31.846C582.48 32.0652 582.679 32.3445 583.648 33.2523C579.2 33.3679 575.516 33.6146 571.899 33.5205C549.644 32.9795 527.389 32.3721 505.152 31.7811C476.655 31.0224 448.174 30.1308 419.662 29.5796C407.605 29.3459 395.45 29.8267 388.467 29.9171C430.374 31.3313 477.477 32.9186 524.563 34.5146C524.529 34.6725 524.514 34.8303 524.48 34.9799C520.225 34.9107 515.969 34.7999 511.714 34.7721C503.559 34.7284 495.404 34.6847 487.268 34.7237C476.349 34.7821 465.415 35.0646 454.512 34.9819C441.677 34.8827 428.855 34.4683 416.036 34.2778C413.748 34.241 410.992 33.5885 409.386 35.4582C408.862 36.0702 404.203 36.3461 401.736 36.1293C387.397 34.8806 373.02 36.2606 358.696 36.2055C353.023 36.1795 347.414 35.5805 341.739 35.4135C331.542 35.1061 321.312 34.9483 311.098 34.6826C308.491 34.6168 305.9 34.4099 303.253 33.9301C313.373 31.0714 324.239 29.6125 335.713 28.6598C334.825 28.522 333.972 28.3507 333.067 28.2546C331.984 28.136 330.865 27.993 329.766 27.9823C311.665 27.8269 293.581 27.6133 275.464 27.5991C270.713 27.5943 265.936 28.3691 261.135 28.5473C251.974 28.8814 242.795 29.1246 233.614 29.26C225.337 29.3838 217.04 29.3253 208.762 29.3081C204.401 29.2983 200.179 29.0793 195.666 29.6518C192.834 30.0118 189.24 28.9804 186.019 28.0272C188.375 27.8972 190.839 27.9151 193.087 27.6041C197.758 26.955 202.229 25.8359 206.957 25.4431C217.67 24.5499 228.556 23.3229 239.23 23.4832C246.712 23.5936 254.459 23.6343 261.876 24.1518C274.26 25.0196 299.522 25.132 308.563 23.7548C307.905 23.6224 307.266 23.498 306.235 23.2958C310.251 22.68 313.934 22.3256 317.203 21.5537C320.137 20.8607 322.568 19.7017 325.232 18.7469C325.035 18.5256 324.854 18.3041 324.656 18.0745C322.208 17.8906 319.775 17.549 317.311 17.5643C309.122 17.604 300.463 16.9948 292.819 18.0472C269.532 21.267 245.709 20.0913 222.238 21.4314C205.623 22.3761 188.896 22.9657 172.205 23.5051C159.376 23.9282 146.488 23.9043 133.641 24.3193C120.866 24.7251 108.112 25.454 95.355 25.9756C93.6896 26.0469 91.9475 25.6715 89.8707 25.4579C89.9965 25.5889 90.2302 25.843 90.4099 26.0313C78.3334 27.0499 65.8247 27.5517 54.0405 29.2464C39.3192 31.3687 24.2979 32.2264 9.35295 33.506C7.58227 33.6615 5.58957 33.0987 3.65552 32.9579C2.82153 32.894 1.59836 32.8933 1.08727 33.1238C-3.72411 35.2919 -5.56901 35.1915 -8.68817 32.5124C-8.90321 32.3328 -9.36553 32.2227 -9.73967 32.0784C-12.7383 34.6044 -16.4582 34.8184 -23.4684 32.8198C-26.1999 34.0739 -27.5141 35.2516 -23.1549 36.4969C-26.44 37.4348 -26.8688 38.5431 -24.8286 40.0339C-23.3611 41.1093 -22.5823 42.3926 -21.0717 44.0561C-23.4516 43.7055 -24.766 43.507 -26.3822 43.2709C-26.5558 43.555 -26.7811 43.9477 -27.0761 44.4406C-30.8427 42.4167 -34.5378 40.4332 -38.4829 38.3121C-40.5109 39.1342 -41.7594 39.9132 -43.4215 40.2415C-45.0128 40.5605 -47.5449 40.7757 -48.7552 40.4017C-53.0268 39.0807 -56.8942 37.4809 -60.902 35.9906C-59.6773 37.4837 -58.3985 39.0424 -57.1197 40.6011C-57.5966 40.7317 -58.0559 40.8619 -58.5328 40.9925C-60.4429 39.9643 -62.3708 38.928 -64.2809 37.8998C-64.5634 37.9864 -64.8459 38.0729 -65.1107 38.1592C-64.4059 39.1948 -63.6836 40.2218 -62.9788 41.2573C-63.4734 41.3964 -63.9501 41.5435 -64.4446 41.6826C-69.5791 38.0679 -74.1332 34.0891 -84.3956 34.2054C-86.6705 35.122 -88.5045 35.8587 -90.797 36.7838C-90.2593 37.2411 -89.3813 37.9677 -88.6466 38.58C-91.1019 39.2502 -93.3631 39.8598 -95.6241 40.4777C-98.1854 41.1824 -100.501 41.6684 -103.282 40.5022C-105.064 39.7542 -106.189 37.7956 -109.773 38.8949C-111.503 39.4313 -113.19 40.6139 -113.284 41.5271C-113.363 42.266 -111.225 43.1421 -109.728 43.7611C-108.195 44.3879 -106.222 44.7852 -103.251 45.609C-106.811 45.8458 -108.99 45.9901 -112.408 46.2167C-110.51 47.7011 -108.826 49.0224 -106.445 50.8902C-111.671 49.7225 -115.921 48.766 -118.996 48.0762C-118.23 51.1174 -117.277 54.9271 -116.174 59.307C-118.953 59.6663 -122.506 60.4419 -126.086 60.5049C-131.261 60.605 -133.494 61.9936 -135.473 63.8598C-129.646 64.7876 -127.62 67.9617 -132.149 70.0599C-136.202 71.9363 -135.345 73.7658 -134.45 75.7689C-133.427 78.0854 -132.599 80.4542 -130.993 82.6802C-124.17 92.0767 -116.92 108.848 -109.992 118.227C-108.855 119.771 -108.888 121.314 -112.206 122.484C-112.562 122.364 -112.989 122.262 -113.327 122.117C-114.45 121.634 -115.538 121.143 -116.644 120.651C-117.078 121.287 -117.584 121.924 -117.931 122.566C-118.536 123.685 -119.036 124.811 -120.442 125.774C-119.354 127.626 -118.213 129.468 -117.214 131.337C-116.542 132.589 -115.32 133.883 -118.799 134.865C-119.541 135.073 -119.672 135.97 -119.647 136.534C-119.442 140.03 -119.694 164.805 -118.905 168.269C-118.003 172.204 -116.606 192.342 -115.616 196.275C-113.86 203.176 -112.264 210.086 -111.04 217.018C-108.612 230.667 -106.771 236.917 -104.236 250.564C-103.284 255.701 -101.073 260.779 -99.7303 265.902C-99.469 266.919 -100.607 268.028 -101.331 269.579C-100.316 269.939 -98.622 270.721 -96.6124 271.226C-90.5126 272.731 -89.6139 273.681 -91.3275 276.878C-91.7603 277.68 -91.9774 278.711 -91.2772 279.398C-88.4399 282.213 -85.7987 282.204 -81.8803 279.525C-81.4409 279.229 -81.0194 278.925 -79.7722 278.047C-80.0826 281.45 -75.7841 282.116 -71.0967 282.694C-68.025 283.077 -65.6298 283.236 -63.5404 281.684C-62.7854 281.127 -60.5001 281.014 -58.5905 280.633C-57.3902 281.604 -56.0464 282.706 -54.5774 283.898C-50.0368 281.352 -39.4671 280.328 -33.6348 281.711C-27.5891 283.142 -20.9243 283.106 -14.4125 283.568C-1.54863 284.488 11.1272 285.949 23.9742 286.927C35.6145 287.813 47.4099 288.356 59.1364 289.05C60.0943 289.104 61.0691 289.091 62.01 289.195C84.4303 291.608 107.342 292.29 130.337 292.523C140.673 292.629 151.073 292.18 161.393 292.378C171.783 292.575 182.108 293.204 192.45 293.733C212.992 294.794 233.499 296.004 254.058 296.99C287.653 298.603 321.283 300.083 354.895 301.646C360.784 301.918 366.64 302.398 372.546 302.595C383.435 302.968 394.358 303.2 405.281 303.481C405.991 303.497 406.734 303.421 408.683 303.321C398.422 302.169 389.421 301.158 380.332 300.14C388.272 298.652 396.291 299.179 404.341 299.331C413.065 299.5 421.804 299.429 430.543 299.44C433.894 299.446 437.261 299.386 440.629 299.351C439.243 299.095 437.872 298.674 436.436 298.634C433.492 298.556 430.533 298.677 426.545 298.729C428.346 298.158 429.035 297.942 430.553 297.467C424.279 297.548 418.944 297.617 413.627 297.686C413.447 297.456 413.248 297.218 413.068 296.988C414.888 296.484 416.789 295.506 418.527 295.55C430.497 295.867 442.452 296.384 454.388 296.868C455.949 296.931 457.459 297.16 459.003 297.314C458.899 297.547 458.814 297.789 458.711 298.022C457.097 297.977 455.466 297.973 453.887 297.869C449.114 297.517 444.597 297.824 440.629 299.367ZM172.397 35.599C173.297 35.3387 174.178 34.8961 175.135 34.8506C187.978 34.1952 200.821 33.4901 213.684 33.0085C221.392 32.7181 229.14 32.8001 236.885 32.7165C236.889 32.99 236.91 33.2551 236.913 33.5286C231.67 33.8369 226.427 34.1701 221.166 34.4621C210.325 35.0584 199.503 35.7788 188.659 36.1347C183.29 36.312 177.651 37.5623 172.419 35.9387C168.337 36.9533 164.275 36.7986 160.194 36.4451C160.191 36.213 160.17 35.9812 160.167 35.7491C164.226 35.7048 168.302 35.652 172.397 35.599ZM756.587 293.421C756.831 293.136 757.076 292.851 757.32 292.565C758.242 292.554 759.164 292.525 760.103 292.529C778.505 292.623 796.925 292.749 815.326 292.793C817.701 292.795 820.156 292.109 822.462 292.211C827.748 292.45 832.914 293.063 838.183 293.376C841.589 293.581 845.264 293.964 847.632 292.051C848.001 291.748 849.648 291.627 850.676 291.656C859.95 291.867 869.207 292.12 878.481 292.365C882.808 292.483 887.119 292.776 891.426 292.703C894.138 292.66 896.891 291.737 899.498 291.82C905.882 292.019 912.2 292.559 918.534 292.991C924.158 293.374 929.8 293.699 935.355 294.241C939.934 294.687 944.292 295.8 948.885 295.964C976.712 296.955 1004.57 297.764 1032.43 298.63C1039.37 298.847 1046.28 299.081 1053.2 299.298C1051.66 299.799 1050.12 299.943 1048.61 299.921C1041.4 299.808 1034.16 299.304 1027 299.579C1006.15 300.38 985.487 299.719 964.807 298.942C938.488 297.948 912.169 297.011 885.833 296.076C884.449 296.027 883.015 296.129 881.633 296.238C878.039 296.525 874.43 297.094 870.849 297.115C862.217 297.169 853.581 296.924 844.929 296.887C835.959 296.845 826.592 297.613 818.124 296.695C811.822 296.014 805.593 295.464 799.209 295.265C786.44 294.866 773.638 294.601 760.852 294.219C759.38 294.164 758.009 293.692 756.587 293.421ZM818.364 304.253C818.278 304.52 818.193 304.786 818.108 305.044C768.763 304.199 719.4 303.354 670.056 302.508C670.037 302.484 670.037 302.45 670.019 302.426C675.265 302.358 680.512 302.29 685.758 302.222C678.642 301.618 671.513 301.403 664.4 301.081C663.265 301.029 662.265 300.487 661.197 300.177C661.777 299.788 662.339 299.391 662.427 299.332C642.232 298.997 621.204 298.655 600.175 298.306C600.19 298.09 600.187 297.874 600.202 297.65C601.549 297.633 602.878 297.591 604.225 297.598C620.039 297.742 635.753 298.301 651.636 296.893C662.49 295.932 673.691 295.804 684.733 295.603C695.632 295.403 706.569 295.345 717.422 295.652C739.323 296.281 761.174 297.241 783.077 297.969C790.862 298.225 798.68 298.223 806.499 298.338C804.307 298.806 802.127 298.867 799.964 298.862C783.956 298.812 767.945 298.555 751.958 298.745C732.692 298.978 713.431 299.592 694.185 300.049C693.955 300.052 693.727 300.22 692.757 300.606C694.25 300.96 695.409 301.459 696.615 301.476C712.944 301.671 729.29 301.833 745.618 301.928C756.999 301.996 768.413 301.782 779.761 302.025C789.123 302.227 798.403 302.903 807.717 303.421C811.282 303.632 814.815 303.976 818.364 304.253ZM1029.53 293.701C1029.56 293.486 1029.6 293.261 1029.63 293.045C1030.73 292.998 1031.84 292.925 1032.94 292.911C1043.98 292.793 1055.03 292.634 1066.07 292.598C1073.9 292.572 1081.76 292.603 1089.56 292.833C1097.49 293.062 1105.54 293.223 1113.19 294.045C1120.32 294.806 1127.62 294.314 1134.69 295.093C1137.39 295.39 1140.38 295.152 1143.25 295.123C1156.37 295.003 1169.48 294.883 1182.6 294.73C1193.32 294.599 1204.06 294.195 1214.75 294.314C1226.03 294.441 1237.25 295.034 1248.52 295.444C1249.24 295.467 1249.95 295.632 1250.67 295.739C1176.47 298.971 1103.04 295.901 1029.53 293.701ZM157.47 41.0487C170.48 36.8178 184.836 37.975 199.625 36.938C196.135 38.5335 193.615 39.6771 191.307 40.7351C207.972 40.8759 223.931 37.1705 240.749 38.1799C240.806 38.4113 240.862 38.6345 240.936 38.8656C229.815 39.7724 218.694 40.6873 207.662 41.5929C221.327 41.416 235.205 41.2364 249.508 41.0512C248.985 41.6881 248.814 42.1795 248.53 42.1998C241.977 42.6162 235.443 43.1983 228.868 43.3165C215.93 43.5503 202.956 43.71 190.049 43.5454C179.287 43.3945 168.058 44.1285 157.47 41.0487ZM1314.36 302.617C1334.6 301.062 1354.6 301.168 1374.62 303.462C1372.58 304.293 1370.3 305.077 1368.07 305.089C1356.21 305.143 1344.35 304.99 1332.49 304.952C1328.02 304.936 1323.54 305.06 1319.07 305.118C1319.07 305.151 1319.07 305.184 1319.07 305.217C1323.9 305.412 1328.74 305.606 1333.56 305.801C1333.55 305.892 1333.53 305.984 1333.51 306.083C1332.33 306.248 1331.14 306.412 1329.94 306.577C1329.99 306.676 1330.03 306.775 1330.08 306.874C1335.08 307.016 1340.07 307.159 1345.07 307.31C1345.04 307.501 1345.02 307.692 1344.99 307.883C1325.18 307.683 1305.38 307.492 1284.57 307.281C1287.57 306.222 1289.33 305.163 1291.43 304.962C1297.01 304.417 1302.73 304.21 1308.42 303.937C1312.72 303.724 1317.03 303.602 1321.34 303.447C1321.32 303.373 1321.32 303.298 1321.3 303.232C1318.99 303.013 1316.68 302.819 1314.36 302.617ZM104.867 45.9248C105.911 45.7952 106.971 45.541 108.017 45.5441C123.209 45.5298 138.383 45.5158 153.558 45.5681C175.451 45.6413 197.364 45.7888 219.257 45.8453C226.703 45.865 234.163 45.6689 241.607 45.5726C236.209 46.2062 230.807 46.5498 225.402 46.6943C212.608 47.0506 199.797 47.5315 186.999 47.5645C159.541 47.6463 131.871 49.1818 104.867 45.9248ZM1200.57 308.194C1208.19 307.83 1215.63 307.452 1223.18 307.412C1235.61 307.359 1248.06 306.601 1260.5 306.241C1267.39 306.044 1274.29 306.046 1281.18 305.956C1281.2 306.263 1281.24 306.569 1281.26 306.867C1269.83 308.524 1257.85 307.245 1245.97 308.153C1247.45 310.016 1245.07 310.213 1241.99 310.112C1238.65 310.006 1235.16 310.175 1231.99 309.818C1223.89 308.912 1215.77 308.437 1207.37 308.686C1205.12 308.765 1202.82 308.372 1200.57 308.194ZM1002.68 302.423C1002.67 302.639 1002.63 302.863 1002.62 303.079C976.816 302.268 951.013 301.467 925.21 300.656C932.115 299.987 939.245 298.933 946.108 299.167C963.222 299.742 980.747 299.2 997.199 302.046C998.887 302.339 1000.85 302.306 1002.68 302.423ZM1405.11 303.573C1405.29 303.438 1405.47 303.303 1405.64 303.168C1421.7 302.96 1437.76 302.752 1453.81 302.545C1440 304.829 1425.92 305.501 1411.69 304.947C1409.42 304.86 1407.3 304.05 1405.11 303.573ZM899.507 300.765C899.475 300.99 899.442 301.214 899.409 301.438C879.893 301.542 860.314 302.176 841.075 300.377C841.124 300.054 841.173 299.73 841.204 299.406C860.638 299.851 880.073 300.312 899.507 300.765ZM43.5452 249.002C50.9893 248.905 58.4688 248.808 64.229 248.734C67.4826 249.471 69.4915 249.918 71.8028 250.443C64.1511 250.932 56.603 243.98 49.164 244.466C43.3014 244.849 43.4105 252.286 43.5452 249.002ZM685.582 307.779C701.615 307.025 717.23 308.232 732.744 309.838C716.896 309.845 701.014 309.951 685.582 307.779ZM1224.49 300.223C1224.5 300.041 1224.52 299.858 1224.53 299.667C1245.94 299.39 1267.35 299.113 1288.76 298.836C1288.77 299.018 1288.77 299.201 1288.77 299.391C1267.33 299.669 1245.9 299.946 1224.49 300.223ZM35.8764 33.8176C35.7483 33.5042 35.6024 33.1911 35.4744 32.886C44.9502 32.2658 54.4438 31.6455 63.9196 31.0171C55.3151 34.5941 45.392 33.5286 35.8764 33.8176ZM1098.17 303.533C1098.12 303.783 1098.09 304.032 1098.04 304.281C1087.47 304.103 1076.91 303.916 1066.34 303.738C1066.35 303.539 1066.39 303.339 1066.4 303.14C1077.11 301.99 1087.63 302.791 1098.17 303.533ZM-100.3 226.372C-99.8395 226.341 -99.3789 226.319 -98.9184 226.288C-97.1615 233.288 -95.4046 240.287 -93.6475 247.295C-94.1966 247.327 -94.7458 247.359 -95.2948 247.399C-96.9456 240.382 -98.614 233.373 -100.3 226.372ZM1005.12 303.162C1005.19 302.904 1005.24 302.647 1005.3 302.381C1015.09 302.602 1024.9 302.823 1034.69 303.053C1024.73 303.713 1014.83 304.131 1005.12 303.162ZM1274.05 303.951C1273.98 304.251 1273.91 304.55 1273.86 304.849C1263.99 304.728 1254.09 304.607 1244.22 304.487C1244.25 304.171 1244.28 303.847 1244.33 303.532C1254.22 303.677 1264.14 303.814 1274.05 303.951ZM1816.36 28.1989C1823.45 27.9496 1830.56 27.7001 1837.64 27.4508C1837.67 27.6744 1837.69 27.8897 1837.71 28.1133C1830.74 29.7372 1823.62 29.7134 1816.36 28.1989ZM903.771 316.546C903.739 316.795 903.706 317.052 903.674 317.301C895.02 317.016 886.366 316.73 877.712 316.452C877.778 316.103 877.862 315.762 877.929 315.413C886.566 315.79 895.168 316.168 903.771 316.546ZM756.607 293.611C751.077 293.683 745.973 293.749 740.851 293.815C740.832 293.724 740.83 293.625 740.812 293.534C742.299 293.407 743.804 293.279 745.628 293.123C744.879 292.751 744.433 292.533 743.915 292.283C753.074 291.791 755.097 291.964 756.607 293.611ZM1539.14 22.2028C1539.16 22.3186 1539.18 22.4428 1539.22 22.5584C1528.85 22.6926 1518.48 22.8268 1508.11 22.961C1508.11 22.845 1508.13 22.7203 1508.13 22.6043C1518.46 22.4705 1528.79 22.3368 1539.14 22.2028ZM1421.67 300.987C1421.74 300.754 1421.79 300.522 1421.86 300.289C1427.7 299.823 1433.43 299.832 1438.87 300.806C1438.8 301.073 1438.71 301.339 1438.65 301.605C1432.99 301.396 1427.33 301.196 1421.67 300.987ZM1157.21 308.316C1157.43 308.62 1157.66 308.923 1157.88 309.227C1156.45 309.478 1154.93 310.012 1153.62 309.921C1150.64 309.727 1146.85 310.489 1144.42 308.829C1149.08 308.645 1153.15 308.484 1157.21 308.316ZM1094.69 79.5685C1094.32 79.764 1093.93 79.9515 1093.56 80.1469C1091.03 78.961 1088.39 70.3541 1085.48 68.9989C1092.49 68.2034 1092.19 78.3655 1094.69 79.5685ZM871.195 314.223C871.245 313.99 871.313 313.757 871.363 313.516C874.949 313.951 879.035 311.833 882.822 314.073C878.568 314.128 874.881 314.175 871.195 314.223ZM1568.11 81.4829C1568.64 82.4875 1569.07 83.311 1569.84 84.81C1566.54 83.5676 1564.33 82.7339 1561.25 81.5716C1564.39 81.531 1566.09 81.509 1568.11 81.4829ZM980.897 31.0951C977.315 30.9922 974.283 30.9072 971.251 30.8221C973.378 29.4348 976.164 29.7055 978.665 29.8223C979.499 29.8613 980.147 30.6405 980.897 31.0951ZM-101.518 221.281C-102.281 221.274 -103.043 221.267 -103.788 221.26C-103.807 219.735 -103.827 218.21 -103.847 216.684C-103.351 216.67 -102.854 216.663 -102.358 216.649C-102.072 218.195 -101.804 219.742 -101.518 221.281Z" fill="#0B366A"/>
</g>
<defs>
<clipPath id="clip0">
<rect width="1980" height="340" fill="white"/>
</clipPath>
</defs>
</svg>
