<svg width="1980" height="511" viewBox="0 0 1980 511" fill="none" xmlns="http://www.w3.org/2000/svg">
<g clip-path="url(#clip0)">
<path opacity="0.8" d="M444.977 466.001C450.686 465.954 456.396 465.919 462.122 465.845C465.437 465.8 468.812 465.441 472.083 465.67C476.083 465.952 480.026 466.676 483.983 467.258C486.14 467.575 487.571 467.411 486.954 465.408L487.064 465.496C484.198 465.189 481.315 464.883 478.449 464.563C476.989 464.404 475.546 464.206 474.104 464.033C474.196 463.602 474.27 463.159 474.362 462.728C514.551 462.779 554.758 462.816 596.314 462.873C594.165 463.333 593.338 463.516 592.51 463.686C592.558 463.529 592.606 463.372 592.654 463.215C613.468 464.597 634.282 465.967 655.095 467.349C655.072 467.713 655.066 468.063 655.043 468.427C649.25 468.62 643.433 469.163 637.696 468.926C626.863 468.47 616.084 467.545 605.278 466.854C593.424 466.107 581.55 465.296 569.666 464.719C561.477 464.33 553.23 464.306 545.029 464.112C544.924 464.673 544.801 465.235 544.695 465.796C546.836 466.178 548.946 466.679 551.117 466.905C553.786 467.179 556.501 467.231 559.155 468.103C554.029 468.092 548.904 468.094 543.14 468.091C546.262 468.648 548.778 469.096 551.276 469.558C539.152 469.754 527.061 473.618 515.243 470.251C513.661 470.68 512.019 471.434 510.355 471.503C498.346 471.993 486.334 472.354 474.819 472.737C475.956 473.334 478.714 473.087 480.365 473.668C485.462 475.469 490.534 474.38 495.545 474.68C523.781 476.334 552.061 477.701 580.268 479.525C591.571 480.251 602.906 481.366 613.894 483.256C623.936 484.997 633.943 483.523 643.93 484.124C656.335 484.879 668.782 485.334 681.227 485.698C693.618 486.064 706.018 486.144 718.422 486.354C718.242 486.295 717.884 486.177 717.543 486.059C717.537 485.89 717.532 485.735 717.526 485.566C724.834 485.583 732.141 485.599 739.448 485.602C739.461 485.459 739.474 485.303 739.487 485.16C709.667 483.351 679.865 481.541 650.045 479.733C664.278 478.429 781.937 481.738 786.382 483.652C777.264 483.605 769.07 483.579 760.875 483.541C760.851 483.905 760.828 484.268 760.787 484.633C769.168 484.925 777.542 485.541 785.927 485.443C798.639 485.306 810.879 486.999 823.11 488.953C823.877 489.07 824.651 489.42 825.394 489.369C836.773 488.602 847.749 491.219 859.058 491.038C859.43 491.025 859.797 491.389 860.16 492.168C841.241 493.913 822.162 491.902 803.238 494.541C813.091 495.381 822.903 496.572 832.796 497.008C855.069 497.991 877.384 498.675 899.715 499.268C903.939 499.374 908.237 498.492 910.853 498.223C911.613 494.411 912.131 491.853 912.695 489.098C915.452 489.317 918.906 491.342 919.095 487.406C919.104 487.16 921.329 486.865 922.547 486.695C925.107 486.338 927.686 486.044 930.266 485.738C930.252 485.323 930.22 484.91 930.206 484.495C924.896 484.257 919.567 484.006 914.061 483.761C914.04 483.14 914.014 482.349 913.981 481.365C940.719 481.694 967.443 482.128 994.175 482.302C1019.72 482.477 1045.27 482.262 1070.81 482.45C1084.58 482.549 1098.31 483.61 1112.06 483.425C1141.01 483.032 1169.98 482.133 1198.93 481.391C1207.3 481.177 1215.66 480.86 1224.01 480.414C1226.17 480.303 1228.28 479.52 1230.41 479.047C1212.63 479.431 1194.86 479.944 1177.08 480.147C1164.15 480.291 1151.24 480.099 1138.32 479.893C1134.72 479.831 1129.44 480.123 1127.94 478.63C1125.72 476.435 1123.49 476.613 1120.82 476.377C1112.3 475.61 1103.76 474.857 1094.48 474.012C1097.88 471.279 1094.26 471.711 1093.04 470.727C1096.08 470.626 1099.11 470.525 1102.16 470.423C1102.16 470.32 1102.14 470.23 1102.13 470.126C1095.9 469.983 1089.67 469.827 1083.44 469.684C1083.48 469.203 1083.52 468.722 1083.54 468.229C1092.32 467.937 1101.11 467.735 1109.88 467.327C1118.48 466.937 1127.08 466.171 1135.67 465.872C1144.17 465.576 1152.67 465.657 1161.18 465.568C1161.18 466.009 1161.16 466.464 1161.15 466.905C1145.28 470.493 1128.81 469.031 1112.65 470.671C1118.41 470.959 1124.17 470.301 1129.85 470.436C1136 470.581 1142.1 471.468 1148.24 472.042C1148.23 472.25 1148.22 472.457 1148.2 472.665C1140.69 472.915 1133.18 473.165 1125.69 473.414C1127.63 474.283 1129.72 474.188 1131.56 474.619C1134.94 475.428 1139.5 473.759 1141.73 477.303C1142.49 478.535 1148.87 477.091 1149.33 475.714C1152.42 476.117 1155.47 476.845 1158.58 476.872C1181.5 477.147 1204.44 477.252 1227.36 477.514C1228.25 477.524 1229.08 478.559 1229.95 479.101C1231.84 478.558 1233.71 477.601 1235.64 477.511C1256.5 476.545 1277.36 475.578 1298.23 474.884C1308.19 474.553 1318.16 474.908 1328.13 474.758C1333.57 474.681 1339.39 473.178 1344.4 474.087C1357.59 476.489 1371.06 474.614 1384.26 475.887C1395.49 476.965 1406.72 478.174 1418.15 476.782C1422.9 476.209 1427.67 475.791 1432.47 474.827C1416.01 474.792 1399.53 474.756 1383.07 474.72C1383.04 474.358 1383.03 473.982 1383 473.62C1384.25 473.475 1385.52 473.212 1386.78 473.196C1394.01 473.072 1401.27 473.349 1408.46 472.825C1416.35 472.251 1424.14 470.864 1432 470.032C1438.05 469.39 1444.2 469.302 1450.22 468.557C1464.3 466.818 1478.29 464.744 1492.35 462.967C1499.65 462.037 1507.02 461.454 1514.43 460.274C1512.44 460.12 1510.45 459.953 1508.44 459.799C1508.38 459.581 1508.32 459.349 1508.24 459.132C1509.81 458.95 1511.38 458.599 1512.94 458.612C1526.97 458.742 1541.01 459.04 1555.04 459.092C1562.19 459.113 1569.37 458.46 1576.52 458.559C1595.26 458.83 1613.97 459.453 1632.71 459.763C1648.29 460.01 1663.75 459.469 1679.27 457.41C1687.63 456.302 1696.48 457.563 1705.12 457.497C1714.48 457.419 1723.83 457.043 1733.19 456.783C1744.21 456.468 1755.23 455.803 1766.23 455.917C1778.39 456.058 1790.51 456.912 1802.64 457.481C1803.58 457.528 1804.49 457.692 1805.8 458.517C1804.05 459.159 1802.29 459.801 1801.16 460.202C1821.63 459.521 1842.8 458.816 1863.97 458.112C1864.06 458.576 1864.15 459.04 1864.23 459.504C1855.37 461.135 1846.52 462.765 1837.65 464.395C1837.71 464.64 1837.78 464.897 1837.84 465.141C1870.65 460.458 1903.47 455.774 1936.28 451.09C1936.44 451.63 1936.62 452.168 1936.78 452.708C1914.7 459.835 1892.21 466.004 1868.2 469.331C1876.85 469.316 1885.49 469.301 1894.14 469.272C1899.39 469.253 1904 468.607 1908.79 466.204C1912.79 464.191 1918.55 463.61 1923.6 463.352C1933.62 462.824 1942.05 459.185 1950.43 455.897C1960.03 452.142 1969.82 449.689 1980.44 449.024C1992.58 448.257 2004.75 447.814 2016.87 447.021C2020.64 446.779 2024.38 445.981 2028.1 445.299C2035.06 444.004 2042.06 443.447 2049.23 443.507C2051.95 443.534 2055.01 442.446 2057.4 441.277C2060.09 439.956 2061.35 437.956 2058.87 435.639C2056.14 433.111 2056.85 430.493 2059.28 427.832C2057.79 427.233 2056.31 426.647 2054.25 425.834C2060 424.034 2067.5 426.469 2071.59 420.939C2068.12 420.613 2065.49 420.364 2063.83 420.211C2062.97 417.893 2062.27 415.984 2061.38 413.576C2064.27 412.429 2068.2 410.872 2072.14 409.301C2077.27 407.263 2082.49 405.326 2087.53 403.162C2091.6 401.418 2093.35 398.585 2093.56 395.219C2093.61 394.517 2093.42 393.694 2093.88 393.147C2100.29 385.529 2097.37 377.586 2096.59 369.624C2095.92 362.799 2095.76 355.906 2096.17 349.045C2096.56 342.561 2096.39 336.33 2092.97 330.219C2091.41 327.405 2091.92 323.991 2091.03 320.921C2090.43 318.827 2089.33 316.763 2087.99 314.862C2086.54 312.797 2084.96 322.539 2083.4 320.802C2083.21 321.547 2082.85 322.908 2082.47 324.411C2076.98 321.456 2074.85 317.468 2074.24 312.587C2072.91 301.984 2070.96 291.442 2069.6 280.84C2069.31 278.542 2070.62 276.125 2070.87 273.744C2071.47 268.161 2073.03 236.972 2071.95 231.575C2070.51 224.503 2065.8 184.553 2063.65 177.531C2062.12 172.551 2062.12 167.312 2061.07 162.238C2058.56 150.261 2055.87 138.304 2053.17 126.36C2051.77 120.168 2050.08 114.013 2048.72 107.821C2047.74 103.393 2050.71 100.869 2056.82 100.692C2059.23 100.625 2061.71 100.477 2064.04 100.776C2069.67 101.496 2074.36 99.5378 2079.48 98.3818C2084.67 97.1976 2088.34 94.923 2092.14 92.4235C2093.75 91.3713 2095.9 90.7553 2098.17 89.7849C2096.45 87.5988 2089.1 90.1903 2089.84 85.1603C2093.88 85.5317 2097.77 85.8818 2101.92 86.2756C2101.76 86.7608 2101.55 87.4161 2101.34 88.0585C2101.82 88.0815 2102.3 88.1044 2102.78 88.1273C2102.87 85.6214 2102.97 83.1156 2103.04 80.6232C2104.48 79.6287 2105.94 66.7523 2108.56 64.9535C2104.5 63.4157 2101.55 62.2947 2098.39 61.0902C2099.37 60.6686 2101.28 59.8401 2104 58.6601C2103.04 54.7759 2105.03 49.5356 2099.87 45.4537C2098.16 44.1101 2100.75 42.5716 2100.19 42.1235C2098.02 40.432 2095.08 37.7549 2092.74 37.9622C2084.56 38.6626 2078.26 34.5017 2070.14 34.9666C2071.46 33.5611 2071.65 33.5417 2077.75 33.4296C2080.6 33.3736 2083.45 33.2528 2086.31 33.1579C2086.49 32.8146 2086.67 32.4843 2086.84 32.1416C2085.29 31.5446 2083.57 30.2535 2082.24 30.4661C2073.93 31.7799 2066.02 29.4239 2057.85 29.7603C2050.38 30.0738 2042.88 30.1159 2035.41 30.5071C2032.36 30.6732 2030.86 30.4377 2030.23 27.8523C2029.31 24.1483 2027.36 20.5821 2025.49 16.0667C2024.59 17.7566 2024.21 18.4826 2023.34 20.1194C2022.47 18.0345 2022.13 16.7622 2021.4 15.6323C2020.74 14.6167 2019.69 12.9787 2018.77 12.9705C2016.98 12.9523 2014.53 13.5394 2013.45 14.5221C2011.78 16.043 2008.76 17.531 2010.78 20.174C2011.25 20.7681 2010.5 21.8692 2010.24 23.0579C2008.23 21.8798 2008.95 18.7957 2005.15 19.8168C2004.75 18.9483 2003.94 18.0805 2004 17.2226C2004.3 12.3887 1998.96 10.1155 1995.38 7.22586C1993.49 5.6939 1989.74 6.506 1986.73 7.28035C1985.22 7.66782 1983.41 7.57248 1981.75 7.49776C1980.26 7.43069 1978.8 7.07747 1976.6 6.7484C1977.74 9.56336 1978.78 11.8113 1979.53 14.1076C1980.06 15.7497 1981.67 17.3688 1978.91 19.1593C1977.91 19.8023 1978.65 21.8914 1978.61 23.2156C1976.24 24.5004 1978.55 18.7696 1974.91 22.5603C1973.75 19.1236 1972.71 16.059 1971.61 12.8666C1960.93 15.0113 1967.27 20.5192 1966.31 25.1936C1965.12 22.3157 1964.21 20.1672 1963.3 17.967C1960.19 19.3802 1960.19 19.3802 1957.58 28.8945C1949.02 28.5827 1940.4 28.2862 1931.77 27.9638C1930.33 27.908 1928.9 27.6443 1927.48 27.6914C1913.4 28.1211 1899.32 28.7062 1885.23 29.0322C1872.73 29.3182 1860.22 29.5141 1847.73 29.3331C1844.77 29.2891 1841.91 27.5816 1839 26.6408C1839.59 25.7912 1839.91 24.4971 1840.84 24.1809C1843.06 23.4195 1845.57 23.1156 1847.97 22.6209C1848.01 22.2824 1848.05 21.9438 1848.11 21.6047C1844.79 21.1055 1841.42 20.0246 1838.17 20.2108C1823.48 21.0626 1808.81 22.3284 1794.13 23.3616C1779.39 24.3966 1764.65 25.4056 1749.91 26.2593C1739.18 26.8884 1728.4 27.5841 1717.67 27.6298C1704.57 27.6897 1691.24 28.0552 1678.44 26.536C1662.27 24.6229 1645.97 22.9477 1629.8 23.5117C1613.8 24.0698 1599.34 19.9735 1583.95 19.1885C1571.21 18.536 1558.52 17.4671 1545.82 16.4113C1542.35 16.1246 1538.95 15.3299 1535.63 14.5846C1523.26 11.8059 1510.83 13.3608 1498.23 14.6747C1498.53 20.0592 1491.61 17.1384 1488.51 19.5366C1491.67 19.4317 1494.5 19.3374 1497.33 19.2431C1497.38 19.5917 1497.43 19.9532 1497.48 20.3018C1493.89 20.6287 1490.28 20.8396 1486.73 21.3337C1481.56 22.0504 1476.46 23.0886 1471.29 23.7665C1469.75 23.9732 1468.07 23.4198 1466.45 23.2144C1467.35 22.1987 1468.24 21.1706 1469.08 20.235C1463.36 20.4253 1457.43 20.3502 1451.56 20.8697C1434.25 22.3922 1417.03 24.5213 1399.69 25.7076C1374.49 27.4147 1349.27 29.5635 1323.93 28.5522C1322.17 28.481 1320.31 29.1652 1318.28 28.9733C1319.21 28.6441 1320.13 28.3156 1321.74 27.7303C1310.1 26.6908 1299.18 26.289 1288.26 27.9621C1288.26 28.3513 1288.23 28.7411 1288.23 29.1303C1297.1 28.835 1305.98 28.5398 1314.84 28.2451C1314.87 28.6331 1314.9 29.0341 1314.93 29.4221C1312.42 29.6353 1309.91 29.8485 1306.67 30.1118C1307.84 30.488 1308.34 30.6529 1309.84 31.1344C1298.35 31.0112 1287.86 30.932 1277.38 30.7881C1268.75 30.673 1260.11 30.5974 1251.5 30.3262C1247.56 30.198 1243.22 30.8351 1240.37 27.7011C1239.69 26.9457 1237.06 26.9163 1235.34 26.9605C1216.91 27.4569 1198.47 27.9409 1180.03 28.6321C1171.81 28.9444 1163.62 29.6966 1155.41 30.255C1155.37 30.5418 1155.34 30.8279 1155.3 31.1146C1156.23 31.4467 1157.18 31.7782 1159.03 32.4428C1153.34 32.9565 1149.26 33.4683 1144.21 32.1966C1138.22 30.6842 1131.01 31.3392 1124.34 31.4831C1104.26 31.9047 1084.18 32.7415 1064.1 33.0076C1052.22 33.1564 1040.36 32.3577 1028.48 32.3122C1015.81 32.2667 1003.13 32.6887 990.451 32.7733C983.891 32.81 977.335 32.4835 970.755 32.456C966.551 32.4402 966.44 33.9093 969.402 36.5858C936.392 36.4261 904.18 36.2787 871.968 36.1314C871.888 36.4064 871.809 36.6943 871.73 36.9693C873.728 37.3307 875.708 37.6798 877.707 38.0413C877.732 38.2609 877.757 38.4805 877.782 38.7001C864.332 39.5755 850.888 40.6063 837.431 41.2873C823.781 41.9749 810.1 42.3133 796.442 42.7807C782.854 43.2457 769.248 43.6854 755.567 44.5295C759.151 44.5659 762.735 44.6023 766.318 44.6386C766.328 44.9236 766.338 45.2216 766.347 45.5065C761.599 45.6645 756.869 45.7959 752.122 45.9798C735.897 46.6103 719.66 47.3968 703.43 47.846C694.198 48.1013 684.961 47.6565 675.727 47.834C672.058 47.9042 668.309 49.3126 664.721 49.1338C659.09 48.8543 653.615 47.4155 647.999 47.0706C644.036 46.8264 639.931 47.6503 635.878 47.8889C634.055 48.0014 632.038 48.1592 630.41 47.7206C627.761 47.0177 625.38 45.8131 622.848 44.8729C615.02 41.9822 607.114 39.4572 597.848 41.3216C596.579 41.5842 595.058 41.155 592.995 40.9902C593.468 42.4269 593.862 43.5938 594.255 44.7608C594.035 45.0534 593.831 45.3325 593.61 45.6251C590.244 44.1421 586.113 43.1125 583.738 41.0259C581.582 39.1265 579.967 38.0261 577.051 39.381C574.413 40.6099 574.112 44.3416 576.032 46.0802C576.398 46.4182 576.608 46.8521 577.612 48.2581C573.168 48.4967 569.494 48.9302 565.873 48.8302C543.596 48.2746 521.317 47.6152 499.056 46.9812C470.528 46.1667 442.011 45.1442 413.477 44.6541C401.41 44.446 389.274 45.3556 382.294 45.5878C424.257 47.2521 471.424 49.1194 518.574 51.0002C518.547 51.2475 518.537 51.4943 518.51 51.7286C514.251 51.6757 509.991 51.5581 505.735 51.57C497.578 51.608 489.421 51.6459 481.286 51.8128C470.369 52.0463 459.446 52.6301 448.539 52.6428C435.699 52.655 422.861 52.1745 410.034 52.0436C407.745 52.016 404.963 51.0322 403.429 53.975C402.929 54.9383 398.281 55.43 395.806 55.1234C381.417 53.3586 367.094 55.7025 352.768 55.803C347.093 55.8362 341.46 54.9732 335.779 54.7861C325.57 54.4385 315.333 54.3252 305.108 54.0429C302.498 53.9741 299.899 53.6845 297.233 52.9692C307.242 48.3698 318.051 45.9484 329.489 44.31C328.596 44.1063 327.736 43.8497 326.827 43.7113C325.739 43.54 324.615 43.3311 323.515 43.3287C305.407 43.3217 287.314 43.2233 269.196 43.4371C264.444 43.4914 259.698 44.7645 254.903 45.1055C245.756 45.747 236.585 46.2466 227.41 46.5778C219.137 46.8789 210.838 46.8957 202.558 46.9766C198.197 47.018 193.966 46.7308 189.475 47.6842C186.658 48.2837 183.023 46.7187 179.765 45.271C182.116 45.0372 184.581 45.033 186.816 44.5177C191.462 43.4425 195.889 41.6353 200.602 40.9598C211.281 39.4245 222.12 37.3652 232.8 37.4767C240.287 37.5519 248.036 37.5145 255.473 38.2267C267.892 39.4215 293.159 39.2682 302.146 36.9982C301.484 36.7998 300.839 36.6137 299.8 36.3111C303.792 35.2965 307.461 34.6947 310.701 33.4457C313.607 32.3246 315.994 30.4816 318.621 28.9548C318.414 28.6116 318.226 28.2677 318.019 27.9115C315.563 27.656 313.116 27.1539 310.653 27.2099C302.465 27.3785 293.782 26.5393 286.179 28.2835C263.016 33.6187 239.147 32.0915 215.728 34.4916C199.149 36.1843 182.445 37.3235 165.773 38.3838C152.96 39.2121 140.071 39.3427 127.24 40.1586C114.48 40.9591 101.754 42.2643 89.0173 43.2456C87.3546 43.3787 85.5978 42.8147 83.5126 42.508C83.6435 42.7111 83.8872 43.105 84.0742 43.397C72.037 45.1461 59.5474 46.0933 47.829 48.8952C33.19 52.4036 18.2016 53.9396 3.30612 56.1339C1.54145 56.4001 -0.473301 55.5464 -2.41292 55.3516C-3.24943 55.2627 -4.47267 55.2775 -4.97479 55.6443C-9.70169 59.0954 -11.5506 58.9624 -14.7744 54.8163C-14.9965 54.5384 -15.4631 54.3723 -15.8429 54.1516C-18.743 58.1383 -22.4547 58.5211 -29.5432 55.4891C-32.2258 57.4846 -33.4941 59.3422 -29.0862 61.2315C-32.3347 62.7401 -32.7203 64.4776 -30.6219 66.7809C-29.1123 68.4424 -28.2833 70.4378 -26.7077 73.0178C-29.1014 72.5009 -30.4236 72.2078 -32.0491 71.8598C-32.2116 72.3061 -32.4216 72.9226 -32.6974 73.6969C-36.5431 70.5829 -40.3158 67.5314 -44.3438 64.2679C-46.3398 65.5791 -47.5579 66.8127 -49.2073 67.3474C-50.7861 67.8667 -53.31 68.236 -54.5349 67.6672C-58.8582 65.6584 -62.7882 63.2086 -66.8544 60.9319C-65.5713 63.2494 -64.2316 65.6686 -62.8919 68.0879C-63.3638 68.2981 -63.8179 68.5077 -64.2898 68.7179C-66.2401 67.1359 -68.2085 65.5416 -70.1588 63.9596C-70.438 64.0985 -70.7171 64.2374 -70.9786 64.3758C-70.2333 65.9849 -69.4709 67.5806 -68.7256 69.1897C-69.2148 69.4134 -69.6858 69.6496 -70.1749 69.8733C-75.4506 64.2912 -80.1603 58.1326 -90.4185 58.448C-92.6577 59.91 -94.463 61.0853 -96.7195 62.5608C-96.1639 63.2686 -95.2575 64.3926 -94.4988 65.3399C-96.9281 66.4192 -99.1656 67.4014 -101.403 68.3965C-103.936 69.5312 -106.233 70.3208 -109.06 68.5345C-110.871 67.3888 -112.072 64.3424 -115.614 66.1071C-117.323 66.968 -118.963 68.838 -119.022 70.2664C-119.073 71.4222 -116.9 72.7634 -115.378 73.7113C-113.821 74.671 -111.833 75.2662 -108.83 76.5149C-112.381 76.9313 -114.553 77.1852 -117.963 77.5839C-116.007 79.8789 -114.272 81.9219 -111.817 84.8098C-117.09 83.0531 -121.376 81.6136 -124.479 80.5757C-123.594 85.3183 -122.492 91.2598 -121.218 98.0902C-123.983 98.688 -127.506 99.9463 -131.083 100.091C-136.255 100.315 -138.434 102.514 -140.34 105.457C-134.477 106.831 -132.327 111.765 -136.773 115.103C-140.753 118.088 -139.825 120.936 -138.852 124.055C-137.739 127.661 -136.818 131.353 -135.125 134.81C-127.935 149.406 -120.03 175.522 -112.735 190.089C-111.538 192.487 -111.511 194.898 -114.783 196.771C-115.144 196.588 -115.575 196.434 -115.919 196.212C-117.061 195.472 -118.168 194.718 -119.293 193.964C-119.703 194.963 -120.184 195.965 -120.505 196.974C-121.067 198.73 -121.523 200.496 -122.891 202.02C-121.731 204.899 -120.519 207.763 -119.446 210.671C-118.725 212.618 -117.453 214.625 -120.894 216.205C-121.628 216.54 -121.723 217.944 -121.676 218.824C-121.334 224.285 -120.62 263.007 -119.695 268.41C-118.64 274.547 -116.457 306 -115.312 312.135C-113.287 322.895 -111.421 333.674 -109.926 344.491C-106.965 365.789 -104.881 375.534 -101.813 396.828C-100.66 404.843 -98.251 412.751 -96.7083 420.739C-96.4072 422.324 -97.5019 424.073 -98.1658 426.507C-97.1366 427.056 -95.4118 428.256 -93.3824 429.019C-87.2236 431.291 -86.2878 432.764 -87.8766 437.783C-88.2782 439.042 -88.455 440.655 -87.7279 441.721C-84.7806 446.083 -82.1397 446.034 -78.3257 441.797C-77.8979 441.329 -77.4883 440.848 -76.2753 439.459C-76.4529 444.782 -72.1282 445.766 -67.4181 446.608C-64.3313 447.167 -61.9298 447.385 -59.901 444.931C-59.1676 444.051 -56.8866 443.846 -54.9919 443.225C-53.7536 444.727 -52.3668 446.431 -50.8512 448.274C-46.4099 444.236 -35.8797 442.498 -29.9932 444.585C-23.8914 446.742 -17.2278 446.598 -10.6977 447.237C2.20255 448.506 14.9359 450.624 27.8215 451.985C39.4968 453.218 51.3139 453.914 63.0678 454.846C64.0279 454.917 65.0023 454.885 65.9472 455.035C88.4625 458.514 111.402 459.281 134.407 459.345C144.747 459.377 155.13 458.539 165.458 458.714C175.856 458.887 186.207 459.736 196.569 460.428C217.153 461.818 237.709 463.443 258.306 464.716C291.966 466.799 325.654 468.674 359.329 470.679C365.229 471.027 371.104 471.7 377.018 471.932C387.922 472.373 398.854 472.593 409.789 472.89C410.499 472.906 411.239 472.777 413.184 472.596C402.878 470.929 393.837 469.466 384.708 467.993C392.59 465.565 400.63 466.283 408.687 466.417C417.417 466.568 426.153 466.342 434.894 466.246C438.245 466.212 441.61 466.074 444.976 465.975C443.58 465.594 442.193 464.952 440.755 464.909C437.808 464.826 434.854 465.054 430.868 465.186C432.647 464.271 433.327 463.925 434.827 463.162C428.555 463.37 423.223 463.548 417.908 463.724C417.719 463.368 417.512 462.998 417.322 462.642C419.122 461.83 420.986 460.276 422.725 460.322C434.708 460.663 446.683 461.315 458.639 461.915C460.202 461.993 461.721 462.332 463.271 462.552C463.177 462.919 463.101 463.297 463.007 463.663C461.391 463.613 459.76 463.629 458.177 463.487C453.39 462.998 448.885 463.537 444.977 466.001ZM166.437 57.2815C167.328 56.8629 168.191 56.1599 169.146 56.0762C181.965 54.8847 194.78 53.6155 207.626 52.6954C215.322 52.1411 223.073 52.1685 230.816 51.9368C230.83 52.3643 230.861 52.7782 230.876 53.2057C225.644 53.7558 220.414 54.3448 215.164 54.8695C204.346 55.9427 193.552 57.2094 182.721 57.9069C177.359 58.2539 171.769 60.2813 166.473 57.8121C162.43 59.4508 158.363 59.2619 154.267 58.7628C154.255 58.4001 154.225 58.038 154.213 57.6753C158.27 57.5533 162.345 57.4177 166.437 57.2815ZM760.714 452.592C760.948 452.144 761.181 451.695 761.414 451.246C762.336 451.216 763.256 451.159 764.196 451.154C782.602 451.06 801.027 451.018 819.431 450.846C821.806 450.819 824.235 449.714 826.545 449.845C831.84 450.148 837.03 451.039 842.312 451.46C845.726 451.735 849.416 452.287 851.709 449.267C852.066 448.788 853.708 448.578 854.738 448.608C864.02 448.818 873.287 449.094 882.572 449.355C886.903 449.484 891.226 449.884 895.53 449.715C898.24 449.612 900.958 448.134 903.568 448.229C909.96 448.457 916.299 449.219 922.65 449.812C928.29 450.337 933.944 450.772 939.521 451.546C944.118 452.184 948.519 453.866 953.119 454.063C980.985 455.25 1008.88 456.15 1036.77 457.141C1043.71 457.39 1050.64 457.665 1057.57 457.915C1056.05 458.717 1054.51 458.963 1053.01 458.948C1045.79 458.864 1038.53 458.172 1031.38 458.695C1010.56 460.218 989.868 459.454 969.158 458.509C942.798 457.298 916.442 456.178 890.068 455.058C888.683 455 887.252 455.178 885.875 455.366C882.291 455.861 878.705 456.798 875.125 456.878C866.494 457.074 857.848 456.804 849.195 456.859C840.223 456.911 830.885 458.233 822.381 456.908C816.053 455.925 809.802 455.148 803.409 454.92C790.625 454.463 777.812 454.215 765.01 453.785C763.536 453.717 762.147 452.999 760.714 452.592ZM822.916 468.717C822.841 469.134 822.766 469.552 822.691 469.956C773.312 469.278 723.914 468.6 674.534 467.921C674.515 467.883 674.514 467.831 674.495 467.793C679.739 467.618 684.982 467.444 690.226 467.27C683.086 466.418 675.948 466.175 668.823 465.764C667.686 465.698 666.665 464.863 665.585 464.393C666.15 463.778 666.696 463.151 666.782 463.057C646.573 462.796 625.53 462.536 604.487 462.263C604.494 461.926 604.483 461.589 604.489 461.239C605.835 461.194 607.162 461.111 608.51 461.105C624.331 461.124 640.066 461.793 655.895 459.386C666.712 457.742 677.909 457.396 688.943 456.938C699.835 456.485 710.769 456.251 721.635 456.59C743.561 457.287 765.451 458.504 787.382 459.356C795.178 459.654 802.996 459.55 810.82 459.627C808.646 460.386 806.469 460.511 804.305 460.531C788.295 460.661 772.274 460.468 756.293 460.974C737.036 461.589 717.798 462.799 698.569 463.763C698.339 463.771 698.117 464.037 697.162 464.653C698.67 465.186 699.848 465.951 701.054 465.963C717.392 466.055 733.745 466.094 750.077 466.031C761.461 465.989 772.867 465.506 784.225 465.737C793.596 465.931 802.902 466.867 812.236 467.555C815.81 467.838 819.356 468.329 822.916 468.717ZM1033.68 449.477C1033.7 449.139 1033.73 448.788 1033.75 448.45C1034.85 448.361 1035.96 448.234 1037.06 448.197C1048.1 447.869 1059.13 447.476 1070.18 447.277C1078.01 447.133 1085.87 447.079 1093.68 447.338C1101.61 447.593 1109.67 447.739 1117.35 448.923C1124.52 450.021 1131.8 449.156 1138.89 450.282C1141.6 450.71 1144.59 450.3 1147.46 450.217C1160.57 449.859 1173.68 449.5 1186.79 449.09C1197.51 448.746 1208.23 447.975 1218.93 448.021C1230.21 448.074 1241.46 448.853 1252.74 449.347C1253.47 449.375 1254.19 449.623 1254.9 449.781C1180.83 455.798 1107.27 451.956 1033.68 449.477ZM151.723 65.9926C164.568 59.2111 178.97 60.8327 193.719 59.0194C190.292 61.5583 187.816 63.3784 185.549 65.0618C202.22 65.0648 218.035 59.0662 234.893 60.4246C234.959 60.7856 235.023 61.1336 235.106 61.4939C224.021 63.0557 212.935 64.6305 201.938 66.1893C215.597 65.735 229.468 65.2735 243.765 64.7979C243.266 65.8 243.114 66.5701 242.832 66.6055C236.294 67.3417 229.783 68.3364 223.212 68.6068C210.283 69.1407 197.315 69.5592 184.401 69.4701C173.632 69.3744 162.431 70.6678 151.723 65.9926ZM1318.86 459.7C1339.05 457.006 1359.05 456.911 1379.16 460.236C1377.15 461.56 1374.91 462.815 1372.67 462.863C1360.82 463.102 1348.95 463.017 1337.09 463.114C1332.62 463.146 1328.14 463.398 1323.67 463.547C1323.68 463.599 1323.68 463.651 1323.68 463.702C1328.51 463.944 1333.36 464.184 1338.19 464.425C1338.18 464.569 1338.17 464.712 1338.16 464.868C1336.98 465.14 1335.8 465.413 1334.6 465.686C1334.66 465.84 1334.7 465.994 1334.76 466.148C1339.76 466.305 1344.75 466.464 1349.76 466.634C1349.73 466.933 1349.73 467.232 1349.7 467.531C1329.89 467.477 1310.08 467.436 1289.25 467.376C1292.21 465.683 1293.93 464.005 1296.03 463.663C1301.59 462.739 1307.3 462.341 1312.98 461.841C1317.27 461.452 1321.58 461.205 1325.87 460.906C1325.85 460.79 1325.85 460.674 1325.83 460.57C1323.51 460.259 1321.2 459.985 1318.86 459.7ZM99.3081 74.2979C100.347 74.0818 101.398 73.6708 102.444 73.6619C117.636 73.4418 132.81 73.2223 147.987 73.1064C169.884 72.9356 191.803 72.8807 213.7 72.6839C221.146 72.6177 228.599 72.2142 236.04 71.9666C230.666 73.0272 225.277 73.6344 219.878 73.9308C207.097 74.6542 194.305 75.5725 181.507 75.7908C154.052 76.2763 126.441 79.0362 99.3081 74.2979ZM1205.29 469.897C1212.89 469.229 1220.32 468.541 1227.87 468.381C1240.29 468.136 1252.72 466.789 1265.14 466.065C1272.03 465.667 1278.93 465.58 1285.82 465.351C1285.85 465.83 1285.9 466.308 1285.94 466.773C1274.57 469.512 1262.54 467.669 1250.69 469.243C1252.24 472.135 1249.87 472.473 1246.78 472.355C1243.45 472.233 1239.96 472.543 1236.77 472.027C1228.64 470.715 1220.5 470.079 1212.11 470.578C1209.86 470.731 1207.55 470.146 1205.29 469.897ZM1007.17 463.456C1007.16 463.793 1007.14 464.144 1007.13 464.481C981.297 463.551 955.461 462.634 929.626 461.704C936.505 460.568 943.594 458.828 950.467 459.105C967.604 459.779 985.108 458.704 1001.67 462.938C1003.37 463.375 1005.34 463.296 1007.17 463.456ZM1409.66 460.012C1409.83 459.799 1410 459.586 1410.17 459.373C1426.22 458.839 1442.27 458.305 1458.32 457.771C1444.6 461.521 1430.54 462.754 1416.29 462.074C1414.02 461.968 1411.87 460.73 1409.66 460.012ZM903.926 462.209C903.903 462.56 903.879 462.911 903.855 463.262C884.342 463.678 864.787 464.925 845.477 462.364C845.513 461.857 845.549 461.35 845.568 460.844C865.021 461.286 884.473 461.754 903.926 462.209ZM45.9126 392.461C53.3532 392.214 60.8292 391.965 66.5867 391.774C69.8692 392.883 71.8956 393.555 74.2275 394.346C66.5947 395.21 58.7749 384.444 51.3546 385.301C45.5066 385.975 45.9061 397.597 45.9126 392.461ZM690.267 475.956C706.271 474.568 721.934 476.252 737.512 478.56C721.663 478.776 705.785 479.149 690.267 475.956ZM1228.9 457.13C1228.91 456.844 1228.91 456.559 1228.92 456.26C1250.32 455.548 1271.72 454.836 1293.12 454.124C1293.13 454.409 1293.14 454.694 1293.15 454.992C1271.72 455.705 1250.3 456.418 1228.9 457.13ZM29.8427 56.2756C29.7023 55.7875 29.5442 55.3 29.4043 54.8248C38.8563 53.7323 48.326 52.6392 57.7775 51.5337C49.3125 57.2358 39.3474 55.7 29.8427 56.2756ZM1102.71 463.947C1102.67 464.338 1102.64 464.727 1102.6 465.118C1092.03 464.977 1081.45 464.823 1070.88 464.682C1070.89 464.37 1070.91 464.058 1070.92 463.747C1081.58 461.81 1092.14 462.924 1102.71 463.947ZM-98.8213 358.97C-98.362 358.916 -97.9022 358.874 -97.4429 358.82C-95.4127 369.736 -93.3824 380.652 -91.3517 391.581C-91.8996 391.639 -92.4475 391.696 -92.9949 391.766C-94.9198 380.82 -96.8619 369.888 -98.8213 358.97ZM1009.64 464.58C1009.69 464.176 1009.73 463.772 1009.79 463.356C1019.59 463.574 1029.4 463.792 1039.2 464.024C1029.27 465.184 1019.38 465.967 1009.64 464.58ZM1278.6 462.31C1278.55 462.779 1278.49 463.247 1278.46 463.716C1268.57 463.655 1258.68 463.595 1248.8 463.535C1248.82 463.042 1248.83 462.535 1248.87 462.041C1258.77 462.14 1268.69 462.225 1278.6 462.31ZM1810.18 24.3061C1817.25 23.8243 1824.35 23.3418 1831.43 22.8599C1831.46 23.2091 1831.49 23.5453 1831.51 23.8944C1824.61 26.523 1817.49 26.5786 1810.18 24.3061ZM908.806 486.815C908.784 487.205 908.762 487.607 908.739 487.997C900.073 487.663 891.408 487.329 882.742 487.008C882.795 486.461 882.866 485.927 882.919 485.381C891.572 485.858 900.189 486.337 908.806 486.815ZM760.742 452.89C755.215 453.074 750.113 453.243 744.993 453.414C744.97 453.272 744.965 453.116 744.943 452.974C746.425 452.756 747.925 452.538 749.743 452.27C748.979 451.699 748.525 451.364 747.998 450.979C757.137 450.092 759.167 450.336 760.742 452.89ZM1532.71 18.5461C1532.74 18.7268 1532.76 18.9206 1532.8 19.1007C1522.44 19.4455 1512.07 19.7903 1501.71 20.1351C1501.7 19.9537 1501.72 19.7588 1501.71 19.5774C1512.04 19.2338 1522.37 18.8902 1532.71 18.5461ZM1426.12 455.756C1426.18 455.391 1426.22 455.026 1426.28 454.661C1432.1 453.858 1437.83 453.797 1443.31 455.249C1443.25 455.666 1443.17 456.083 1443.12 456.5C1437.45 456.248 1431.79 456.008 1426.12 455.756ZM1161.94 470.652C1162.16 471.124 1162.41 471.596 1162.64 472.068C1161.22 472.479 1159.72 473.332 1158.4 473.208C1155.41 472.944 1151.66 474.184 1149.16 471.622C1153.82 471.273 1157.88 470.969 1161.94 470.652ZM1090.48 113.985C1090.12 114.295 1089.74 114.593 1089.37 114.903C1086.8 113.083 1083.82 99.6666 1080.86 97.5865C1087.84 96.2521 1087.93 112.137 1090.48 113.985ZM876.138 483.609C876.179 483.245 876.238 482.88 876.279 482.503C879.882 483.135 883.885 479.773 887.76 483.223C883.508 483.364 879.823 483.487 876.138 483.609ZM1563.99 110.811C1564.56 112.374 1565.03 113.655 1565.85 115.988C1562.51 114.089 1560.26 112.815 1557.14 111.039C1560.27 110.934 1561.97 110.878 1563.99 110.811ZM974.792 39.7132C971.205 39.5991 968.17 39.5056 965.134 39.4121C967.207 37.2165 970.004 37.6032 972.509 37.7532C973.345 37.8032 974.023 39.0126 974.792 39.7132ZM-100.238 351.029C-101.001 351.028 -101.764 351.028 -102.508 351.027C-102.588 348.643 -102.667 346.26 -102.746 343.876C-102.251 343.847 -101.755 343.83 -101.259 343.801C-100.913 346.214 -100.584 348.628 -100.238 351.029Z" fill="#0B366A"/>
</g>
<defs>
<clipPath id="clip0">
<rect width="1980" height="511" fill="white"/>
</clipPath>
</defs>
</svg>
