<svg width="2357" height="851" viewBox="0 0 2357 851" fill="none" xmlns="http://www.w3.org/2000/svg">
<g clip-path="url(#clip0)">
<g opacity="0.8" clip-path="url(#clip1)">
<path d="M1853.43 43.9143C1846.06 44.6066 1838.68 45.2781 1831.29 46.0151C1827.01 46.4462 1822.71 47.3908 1818.44 47.3741C1813.22 47.3493 1808.01 46.602 1802.8 46.0876C1799.96 45.8067 1798.14 46.227 1799.26 49.401L1799.1 49.2718C1802.85 49.459 1806.63 49.6433 1810.39 49.8514C1812.3 49.9511 1814.2 50.1165 1816.09 50.24C1816.04 50.9474 1816.01 51.6729 1815.96 52.3803C1764 56.6336 1712.01 60.9108 1658.28 65.3011C1660.98 64.3241 1662.03 63.9385 1663.07 63.5738C1663.03 63.8334 1662.99 64.093 1662.96 64.3525C1635.83 64.3606 1608.7 64.3895 1581.57 64.3975C1581.54 63.8062 1581.5 63.2386 1581.47 62.6472C1588.93 61.7105 1596.36 60.2033 1603.81 59.9682C1617.89 59.5384 1631.97 59.8731 1646.06 59.8255C1661.5 59.7554 1676.98 59.7869 1692.44 59.4391C1703.09 59.1852 1713.75 58.3342 1724.38 57.7637C1724.43 56.8443 1724.5 55.922 1724.55 55.0026C1721.72 54.6143 1718.91 54.032 1716.07 53.9004C1712.57 53.7445 1709.05 53.9527 1705.48 52.8289C1712.11 52.2939 1718.74 51.7379 1726.19 51.1206C1722.07 50.5552 1718.74 50.1016 1715.44 49.6242C1731.08 47.9994 1746.09 40.4412 1761.91 44.616C1763.89 43.7517 1765.89 42.3529 1768.03 42.0627C1783.48 39.9741 1798.95 38.0946 1813.77 36.2326C1812.21 35.3882 1808.68 36.086 1806.45 35.3247C1799.58 32.9591 1793.2 35.2691 1786.67 35.324C1749.9 35.6929 1713.12 36.5304 1676.36 36.6216C1661.63 36.6657 1646.8 36.0852 1632.3 34.2106C1619.03 32.4769 1606.33 35.9417 1593.33 36.0457C1577.17 36.1629 1561 36.7696 1544.86 37.5228C1528.78 38.2674 1512.74 39.4751 1496.67 40.4735C1496.91 40.5494 1497.39 40.7013 1497.85 40.856C1497.88 41.1279 1497.92 41.3789 1497.95 41.6508C1488.5 42.4128 1479.05 43.1747 1469.6 43.9575C1469.61 44.1905 1469.62 44.4443 1469.62 44.6773C1508.46 44.3881 1547.28 44.1018 1586.12 43.8127C1567.93 47.4574 1415.29 54.7944 1409.24 52.1764C1421.03 51.2686 1431.63 50.4262 1442.23 49.6047C1442.2 49.0134 1442.18 48.422 1442.17 47.8278C1431.29 48.2596 1420.37 48.1657 1409.54 49.2279C1393.13 50.8217 1377.03 49.4014 1360.91 47.5599C1359.9 47.453 1358.84 46.9696 1357.89 47.1318C1343.3 49.6012 1328.69 46.5496 1314.1 48.0635C1313.62 48.1236 1313.09 47.5744 1312.5 46.3529C1336.68 41.489 1361.66 42.6849 1385.71 36.372C1372.84 36.0767 1359.96 35.208 1347.1 35.5696C1318.15 36.3801 1289.19 37.6802 1260.23 39.1297C1254.75 39.4141 1249.33 41.3053 1245.99 42.022C1245.62 48.2726 1245.36 52.4695 1245.07 56.9887C1241.47 56.9307 1236.68 54.0268 1237.07 60.4158C1237.09 60.8161 1234.26 61.5326 1232.72 61.9394C1229.46 62.794 1226.18 63.5469 1222.89 64.3207C1222.98 64.99 1223.08 65.6564 1223.17 66.3257C1230.07 66.1385 1237 65.9693 1244.16 65.7715C1244.28 66.7754 1244.44 68.0513 1244.64 69.6409C1210.02 71.9919 1175.41 74.1727 1140.82 76.7746C1107.77 79.2474 1074.77 82.3506 1041.71 84.8024C1023.9 86.126 1005.99 85.8904 988.232 87.6742C950.87 91.4319 913.564 96.0111 876.25 100.336C865.471 101.584 854.714 102.999 843.982 104.623C841.207 105.035 838.615 106.529 835.936 107.524C858.855 104.986 881.748 102.238 904.704 99.992C921.389 98.3638 938.12 97.2823 954.854 96.2217C959.521 95.9329 966.294 94.891 968.477 97.1451C971.696 100.459 974.549 99.9304 978.036 100.024C989.174 100.346 1000.33 100.644 1012.47 101.01C1008.51 105.799 1013.12 104.71 1014.86 106.17C1010.94 106.663 1007.04 107.153 1003.11 107.646C1003.13 107.813 1003.17 107.957 1003.2 108.124C1011.27 107.683 1019.35 107.263 1027.43 106.822C1027.46 107.605 1027.49 108.387 1027.54 109.188C1016.23 110.609 1004.9 111.883 993.629 113.49C982.565 115.049 971.577 117.215 960.517 118.626C949.572 120.021 938.573 120.808 927.585 121.869C927.519 121.155 927.472 120.418 927.406 119.704C947.359 112.184 968.887 112.773 989.511 108.377C982.024 108.531 974.683 110.218 967.319 110.612C959.333 111.041 951.312 110.264 943.285 109.997C943.266 109.66 943.247 109.322 943.227 108.984C952.898 107.77 962.569 106.555 972.217 105.343C969.565 104.147 966.879 104.527 964.43 104.027C959.932 103.084 954.309 106.275 950.862 100.781C949.672 98.8695 941.665 101.894 941.279 104.173C937.231 103.853 933.163 103.004 929.145 103.296C899.466 105.324 869.798 107.627 840.122 109.675C838.974 109.756 837.732 108.17 836.521 107.387C834.155 108.47 831.896 110.22 829.415 110.574C802.601 114.388 775.788 118.202 748.919 121.576C736.101 123.186 723.143 123.688 710.288 125.005C703.265 125.717 695.98 128.777 689.353 127.846C671.922 125.383 654.808 129.869 637.537 129.234C622.851 128.699 608.138 127.955 593.586 131.44C587.534 132.88 581.428 134.072 575.387 136.148C596.672 134.43 617.979 132.71 639.264 130.993C639.36 131.576 639.437 132.182 639.533 132.765C637.935 133.136 636.337 133.698 634.712 133.859C625.383 134.84 615.949 135.175 606.746 136.798C596.637 138.578 586.784 141.664 576.75 143.859C569.038 145.549 561.1 146.355 553.433 148.211C535.511 152.543 517.75 157.409 499.86 161.801C490.579 164.093 481.136 165.831 471.745 168.54C474.345 168.575 476.946 168.631 479.568 168.663C479.682 169.01 479.797 169.378 479.933 169.722C477.929 170.186 475.96 170.922 473.94 171.069C455.777 172.373 437.58 173.405 419.434 174.834C410.189 175.571 401.013 177.403 391.753 178.014C367.485 179.595 343.193 180.607 318.918 182.126C298.737 183.407 278.83 185.95 259.094 190.957C248.473 193.651 236.822 192.564 225.67 193.604C213.579 194.74 201.55 196.357 189.496 197.786C175.299 199.484 161.149 201.75 146.911 202.752C131.176 203.836 115.366 203.761 99.5905 204.149C98.3659 204.175 97.1633 204.007 95.345 202.812C97.5077 201.585 99.6704 200.357 101.079 199.585C74.7126 202.897 47.456 206.32 20.1996 209.743C20.0138 209.002 19.828 208.26 19.6422 207.519C30.8444 203.924 42.024 200.331 53.2262 196.736C53.1078 196.347 52.9867 195.937 52.8683 195.549C11.1946 206.668 -30.4789 217.787 -72.1526 228.906C-72.4454 228.05 -72.761 227.198 -73.0538 226.342C-45.6555 212.427 -17.5585 200.017 12.9491 192.043C1.76329 193.002 -9.39972 193.957 -20.5829 194.937C-27.3658 195.534 -33.2192 197.077 -39.0371 201.483C-43.8794 205.172 -51.236 206.733 -57.7181 207.696C-70.5884 209.631 -80.9019 216.429 -91.2178 222.653C-103.021 229.766 -115.295 234.792 -128.917 237.012C-144.49 239.563 -160.152 241.594 -175.697 244.184C-180.531 244.982 -185.23 246.677 -189.93 248.181C-198.724 251.028 -207.691 252.685 -216.966 253.361C-220.479 253.611 -224.271 255.702 -227.175 257.851C-230.438 260.28 -231.752 263.653 -228.164 267.132C-224.235 270.931 -224.736 275.243 -227.452 279.812C-225.428 280.62 -223.428 281.41 -220.627 282.502C-227.782 286.036 -237.86 282.903 -242.264 292.295C-237.727 292.447 -234.283 292.567 -232.12 292.635C-230.641 296.295 -229.428 299.308 -227.885 303.109C-231.436 305.276 -236.279 308.221 -241.119 311.187C-247.424 315.038 -253.864 318.736 -260.028 322.782C-265.017 326.043 -266.827 330.817 -266.557 336.286C-266.507 337.427 -266.133 338.74 -266.641 339.675C-273.717 352.695 -268.667 365.233 -266.388 378.033C-264.43 389.005 -263.124 400.144 -262.558 411.29C-262.023 421.825 -260.805 431.891 -255.416 441.412C-252.942 445.796 -253.052 451.377 -251.421 456.249C-250.308 459.573 -248.56 462.795 -246.524 465.726C-244.316 468.912 -241.461 471.719 -239.16 474.362C-239.036 473.135 -238.785 470.894 -238.54 468.42C-230.97 472.611 -227.57 478.834 -226.007 486.668C-222.596 503.682 -218.394 520.533 -214.938 537.542C-214.196 541.23 -215.495 545.281 -215.447 549.163C-215.324 558.262 -216.517 567.76 -214.254 576.378C-211.26 587.666 -204.921 598.108 -201.021 609.24C-198.245 617.134 -197.412 625.613 -195.237 633.711C-190.08 652.821 -184.697 671.882 -179.294 690.92C-176.502 700.788 -173.328 710.566 -170.582 720.44C-168.606 727.501 -172.038 731.904 -179.912 732.851C-183.017 733.22 -186.197 733.725 -189.261 733.494C-196.653 732.935 -202.4 736.61 -208.838 739.033C-215.362 741.51 -219.738 745.586 -224.252 750.041C-226.171 751.918 -228.844 753.146 -231.628 754.962C-229.052 758.314 -219.97 753.328 -220.12 761.547C-225.4 761.382 -230.492 761.235 -235.914 761.045C-235.783 760.243 -235.618 759.16 -235.45 758.097C-236.074 758.112 -236.698 758.127 -237.322 758.141C-237.043 762.207 -236.764 766.272 -236.465 770.314C-238.166 772.078 -240.362 774.33 -243.46 777.523C-237.966 779.574 -233.978 781.07 -229.699 782.679C-230.897 783.466 -233.229 785.013 -236.566 787.216C-234.701 793.398 -236.435 802.093 -229.119 808.143C-226.691 810.132 -229.795 812.902 -228.994 813.566C-225.922 816.07 -221.688 820.084 -218.703 819.497C-208.229 817.48 -199.43 823.535 -189 821.906C-190.48 824.323 -190.728 824.375 -198.593 825.215C-202.273 825.613 -205.94 826.116 -209.612 826.577C-209.795 827.153 -209.98 827.707 -210.14 828.279C-208.047 829.079 -205.607 830.982 -203.93 830.495C-193.398 827.473 -182.786 830.431 -172.284 829.006C-162.672 827.693 -152.982 826.816 -143.386 825.377C-139.476 824.779 -137.502 824.999 -136.267 829.114C-134.484 835.009 -131.399 840.57 -128.259 847.676C-127.364 844.844 -126.984 843.627 -126.123 840.885C-124.669 844.165 -124.021 846.187 -122.898 847.937C-121.889 849.51 -120.273 852.048 -119.079 851.961C-116.76 851.798 -113.692 850.584 -112.446 848.876C-110.531 846.235 -106.866 843.502 -109.901 839.442C-110.595 838.531 -109.809 836.669 -109.661 834.717C-106.877 836.407 -107.306 841.475 -102.561 839.413C-101.903 840.775 -100.718 842.092 -100.659 843.487C-100.274 851.342 -93.0039 854.444 -87.924 858.735C-85.2288 861.01 -80.5097 859.291 -76.746 857.714C-74.8528 856.923 -72.4946 856.882 -70.3472 856.825C-68.4076 856.773 -66.4558 857.186 -63.5689 857.482C-65.4925 853.05 -67.1866 849.523 -68.5235 845.888C-69.4756 843.288 -71.8218 840.842 -68.5393 837.647C-67.3399 836.498 -68.6348 833.197 -68.7887 831.05C-65.931 828.715 -68.0015 838.238 -63.9095 831.712C-61.8598 837.148 -60.0232 841.995 -58.0919 847.042C-44.6323 842.42 -53.7055 834.19 -53.2089 826.522C-51.2037 831.051 -49.6903 834.43 -48.1664 837.893C-44.3718 835.27 -44.372 835.27 -42.5183 819.592C-31.4037 819.173 -20.2003 818.722 -8.99185 818.313C-7.12333 818.248 -5.23552 818.521 -3.41082 818.292C14.73 816.077 32.8392 813.612 51.001 811.564C67.1074 809.754 83.2551 808.087 99.4332 807.032C103.271 806.784 107.24 809.239 111.145 810.448C110.515 811.887 110.319 814.015 109.168 814.627C106.41 816.099 103.216 816.861 100.198 817.92C100.198 818.473 100.198 819.025 100.175 819.58C104.541 820.03 109.071 821.416 113.252 820.763C132.109 817.8 150.86 814.17 169.681 810.914C188.57 807.65 207.465 804.427 226.391 801.455C240.158 799.28 253.98 796.991 267.842 795.76C284.774 794.25 301.942 792.221 318.736 793.298C339.943 794.65 361.284 795.603 382.104 792.946C402.695 790.317 422.051 795.386 442.066 794.996C458.638 794.678 475.226 795.038 491.811 795.377C496.34 795.467 500.857 796.387 505.273 797.234C521.703 800.397 537.529 796.54 553.61 793.054C552.358 784.374 561.778 788.353 565.395 784.138C561.335 784.648 557.686 785.107 554.037 785.565C553.92 785.006 553.801 784.426 553.684 783.867C558.273 782.951 562.907 782.22 567.415 781.038C573.988 779.32 580.404 777.091 586.984 775.436C588.937 774.935 591.205 775.649 593.333 775.807C592.324 777.548 591.34 779.308 590.406 780.912C597.773 779.987 605.447 779.469 612.953 777.995C635.091 773.664 657.015 768.361 679.244 764.571C711.547 759.09 743.807 752.892 776.731 751.795C779.015 751.721 781.307 750.413 783.959 750.505C782.811 751.138 781.685 751.768 779.695 752.889C794.901 753.316 809.083 752.789 822.936 748.903C822.88 748.273 822.847 747.639 822.791 747.009C811.364 748.444 799.937 749.879 788.532 751.312C788.431 750.687 788.326 750.042 788.225 749.417C791.437 748.801 794.65 748.185 798.792 747.41C797.226 746.927 796.55 746.714 794.527 746.097C809.409 745.057 822.976 744.054 836.556 743.156C847.722 742.412 858.903 741.602 870.079 741.112C875.195 740.895 880.706 739.395 884.895 744.159C885.897 745.308 889.296 745.072 891.511 744.816C915.256 742.024 939.026 739.252 962.754 736.144C973.329 734.752 983.793 732.652 994.318 730.862C994.329 730.394 994.316 729.928 994.327 729.459C993.068 729.022 991.785 728.589 989.289 727.712C996.568 726.267 1001.76 724.999 1008.48 726.513C1016.47 728.314 1025.69 726.476 1034.29 725.524C1060.18 722.676 1086.01 719.155 1111.93 716.558C1127.26 715.036 1142.72 715.05 1158.09 713.841C1174.47 712.549 1190.8 710.498 1207.18 708.993C1215.65 708.226 1224.18 708.048 1232.69 707.382C1238.13 706.954 1238.04 704.565 1233.78 700.553C1276.48 697.251 1318.15 694.015 1359.82 690.779C1359.88 690.325 1359.93 689.851 1359.99 689.397C1357.35 689.028 1354.73 688.676 1352.09 688.307C1352.03 687.954 1351.96 687.602 1351.89 687.249C1369.14 684.381 1386.35 681.263 1403.64 678.71C1421.18 676.124 1438.81 674.101 1456.4 671.872C1473.89 669.653 1491.41 667.474 1508.96 664.632C1504.32 664.96 1499.68 665.288 1495.04 665.615C1494.98 665.155 1494.92 664.674 1494.87 664.214C1500.98 663.446 1507.07 662.723 1513.18 661.914C1534.06 659.143 1554.92 656.119 1575.83 653.641C1587.73 652.233 1599.74 651.956 1611.65 650.673C1616.38 650.163 1621 647.48 1625.67 647.382C1632.99 647.227 1640.3 648.965 1647.62 648.917C1652.78 648.885 1657.96 647.109 1663.16 646.285C1665.5 645.907 1668.08 645.434 1670.25 645.968C1673.79 646.82 1677.06 648.512 1680.48 649.761C1691.07 653.594 1701.69 656.828 1713.37 652.811C1714.97 652.249 1717.01 652.78 1719.7 652.824C1718.86 650.55 1718.16 648.704 1717.47 646.858C1717.71 646.361 1717.92 645.887 1718.16 645.39C1722.75 647.427 1728.26 648.647 1731.66 651.768C1734.75 654.609 1737.01 656.215 1740.57 653.708C1743.78 651.435 1743.58 645.363 1740.82 642.757C1740.29 642.25 1739.95 641.57 1738.42 639.403C1744.13 638.538 1748.81 637.44 1753.51 637.211C1782.4 635.707 1811.31 634.371 1840.19 632.996C1877.2 631.237 1914.23 629.815 1951.2 627.531C1966.83 626.566 1982.37 623.785 1991.36 622.656C1936.84 624.489 1875.57 626.555 1814.31 628.597C1814.31 628.194 1814.28 627.794 1814.28 627.412C1819.79 627.038 1825.32 626.769 1830.82 626.29C1841.36 625.349 1851.9 624.408 1862.39 623.26C1876.46 621.705 1890.49 619.582 1904.59 618.385C1921.19 616.98 1937.86 616.373 1954.47 615.201C1957.43 614.999 1961.18 616.291 1962.7 611.363C1963.19 609.75 1969.12 608.453 1972.37 608.682C1991.25 609.986 2009.39 604.648 2027.9 602.94C2035.23 602.274 2042.65 603.063 2050.03 602.753C2063.28 602.214 2076.53 601.294 2089.8 600.647C2093.18 600.477 2096.59 600.666 2100.15 601.536C2087.94 610.058 2074.36 615.143 2059.83 619.028C2061.02 619.261 2062.17 619.584 2063.37 619.71C2064.8 619.87 2066.29 620.086 2067.71 619.972C2091.12 618.03 2114.53 616.237 2137.92 613.937C2144.05 613.337 2149.98 610.764 2156.13 609.695C2167.85 607.67 2179.63 605.873 2191.44 604.347C2202.08 602.967 2212.81 602.045 2223.5 601.021C2229.13 600.484 2234.65 600.492 2240.3 598.465C2243.85 597.191 2248.8 599.331 2253.24 601.322C2250.24 601.954 2247.05 602.227 2244.25 603.302C2238.41 605.543 2232.98 608.945 2226.99 610.547C2213.43 614.183 2199.75 618.685 2185.92 619.657C2176.23 620.343 2166.22 621.239 2156.49 620.889C2140.25 620.295 2107.6 623.268 2096.35 627.911C2097.24 628.161 2098.1 628.392 2099.49 628.77C2094.49 630.842 2089.85 632.212 2085.86 634.583C2082.28 636.711 2079.49 639.95 2076.34 642.705C2076.66 643.238 2076.96 643.774 2077.28 644.328C2080.5 644.477 2083.74 645.025 2086.91 644.669C2097.47 643.513 2108.83 643.934 2118.38 640.292C2147.48 629.159 2178.58 629.056 2208.47 622.646C2229.63 618.118 2251.05 614.473 2272.43 610.959C2288.86 608.236 2305.51 606.635 2321.96 603.93C2338.33 601.258 2354.58 597.774 2370.88 594.812C2373.01 594.417 2375.37 595.14 2378.12 595.411C2377.92 595.097 2377.54 594.486 2377.25 594.033C2392.53 589.904 2408.53 587.024 2423.23 581.226C2441.6 573.969 2460.73 569.867 2479.63 564.709C2481.87 564.088 2484.61 565.252 2487.15 565.358C2488.25 565.412 2489.83 565.256 2490.42 564.608C2495.98 558.514 2498.39 558.529 2503.22 564.891C2503.55 565.317 2504.18 565.535 2504.71 565.852C2507.82 559.087 2512.56 558.067 2522.2 562.209C2525.35 558.691 2526.7 555.548 2520.7 552.966C2524.65 550.174 2524.88 547.321 2521.79 543.82C2519.58 541.294 2518.19 538.154 2515.74 534.149C2518.91 534.727 2520.67 535.059 2522.83 535.447C2522.97 534.707 2523.14 533.687 2523.37 532.404C2528.84 537.028 2534.21 541.56 2539.94 546.406C2542.31 544.069 2543.68 541.941 2545.73 540.898C2547.69 539.888 2550.89 539.018 2552.57 539.806C2558.48 542.59 2563.95 546.131 2569.57 549.377C2567.54 545.765 2565.42 541.994 2563.3 538.224C2563.88 537.833 2564.43 537.445 2565.01 537.053C2567.79 539.403 2570.58 541.771 2573.36 544.121C2573.7 543.866 2574.04 543.611 2574.35 543.359C2573.13 540.835 2571.89 538.335 2570.67 535.812C2571.27 535.397 2571.84 534.964 2572.43 534.549C2580.15 543.013 2587.22 552.472 2600.43 550.855C2603.09 548.247 2605.24 546.151 2607.92 543.519C2607.09 542.434 2605.74 540.713 2604.61 539.262C2607.57 537.253 2610.31 535.422 2613.04 533.57C2616.14 531.461 2618.98 529.935 2622.92 532.521C2625.44 534.18 2627.48 538.98 2631.78 535.742C2633.85 534.165 2635.67 530.962 2635.52 528.644C2635.4 526.768 2632.38 524.832 2630.26 523.462C2628.09 522.077 2625.43 521.328 2621.35 519.631C2625.87 518.574 2628.64 517.929 2632.98 516.916C2630.09 513.413 2627.52 510.294 2623.88 505.886C2630.98 508.16 2636.75 510.027 2640.93 511.372C2639.03 503.792 2636.65 494.296 2633.91 483.38C2637.39 482.115 2641.75 479.698 2646.35 479.078C2653 478.158 2655.46 474.364 2657.46 469.397C2649.66 467.805 2646.09 460.053 2651.31 454.171C2655.97 448.911 2654.32 444.402 2652.56 439.46C2650.55 433.743 2648.77 427.87 2646.03 422.456C2634.4 399.612 2622.38 376.944 2610.62 354.159C2608.69 350.407 2608.27 346.508 2612.2 343.125C2612.69 343.381 2613.28 343.585 2613.76 343.907C2615.35 344.981 2616.9 346.082 2618.48 347.18C2618.85 345.519 2619.31 343.847 2619.56 342.179C2620.01 339.276 2620.32 336.369 2621.84 333.756C2619.88 329.221 2617.86 324.717 2616.01 320.127C2614.76 317.053 2612.8 313.944 2616.99 311.016C2617.89 310.393 2617.79 308.112 2617.59 306.692C2616.27 297.892 2615.29 289.006 2613.24 280.363C2610.89 270.545 2607.19 261.024 2604.73 251.22C2600.4 234.024 2596.26 216.782 2592.6 199.438C2585.37 165.291 2578.75 131.004 2571.38 96.8746C2568.61 84.0292 2564.23 71.4918 2560.96 58.7304C2560.31 56.1979 2561.45 53.2508 2561.92 49.2402C2560.5 48.4622 2558.08 46.7056 2555.33 45.6907C2547.01 42.6784 2545.56 40.3954 2546.82 32.1011C2547.13 30.0216 2547.1 27.3908 2545.99 25.7456C2541.49 19.0033 2538.08 19.3674 2533.83 26.6364C2533.35 27.4401 2532.9 28.2618 2531.55 30.6404C2530.93 22.0077 2525.18 20.8813 2518.96 20.0271C2514.88 19.456 2511.74 19.3617 2509.51 23.551C2508.7 25.0546 2505.78 25.6333 2503.43 26.8421C2501.59 24.5451 2499.53 21.9363 2497.27 19.1175C2492.18 26.1313 2478.84 30.0795 2470.9 27.338C2462.66 24.5053 2454.07 25.4569 2445.53 25.1278C2428.65 24.4648 2411.85 22.4107 2394.97 21.5983C2379.68 20.8631 2364.29 21.0112 2348.95 20.7714C2347.69 20.7587 2346.44 20.9163 2345.19 20.7753C2315.53 17.5749 2285.75 18.808 2256 21.1849C2242.63 22.2484 2229.34 24.7248 2215.96 25.5554C2202.49 26.3975 2188.97 26.1405 2175.46 26.1373C2148.63 26.1081 2121.8 25.6967 2094.96 25.8586C2051.12 26.1181 2007.26 26.718 1963.41 27.1059C1955.73 27.1785 1948.02 26.7225 1940.34 26.9862C1926.17 27.4484 1912.01 28.2718 1897.82 28.9697C1896.9 29.0216 1895.96 29.3092 1893.48 29.8126C1907.07 31.3987 1918.99 32.7908 1931.03 34.1896C1921.23 38.9687 1910.72 38.674 1900.28 39.3261C1888.97 40.0244 1877.71 41.3321 1866.43 42.4307C1862.1 42.8466 1857.77 43.4327 1853.44 43.9561C1855.3 44.4229 1857.2 45.3108 1859.06 45.2252C1862.89 45.0425 1866.67 44.3549 1871.8 43.7104C1869.65 45.383 1868.82 46.0176 1867.01 47.4143C1875.08 46.4002 1881.95 45.538 1888.79 44.6786C1889.09 45.2356 1889.42 45.8106 1889.72 46.3676C1887.52 47.8758 1885.36 50.5904 1883.1 50.7038C1867.56 51.4453 1851.97 51.6819 1836.42 51.9994C1834.39 52.0423 1832.37 51.6583 1830.33 51.4683C1830.39 50.8655 1830.43 50.2446 1830.49 49.6418C1832.59 49.5484 1834.7 49.3476 1836.77 49.4064C1843.03 49.6816 1848.77 48.3236 1853.43 43.9143ZM2268.55 580.448C2267.47 581.222 2266.46 582.453 2265.24 582.691C2248.86 586.002 2232.5 589.439 2216.04 592.313C2206.18 594.04 2196.15 594.832 2186.18 596.042C2186.09 595.352 2185.98 594.685 2185.9 593.995C2192.57 592.541 2199.24 591.023 2205.94 589.608C2219.76 586.704 2233.51 583.49 2247.4 581.193C2254.28 580.053 2261.18 576.169 2268.42 579.594C2273.39 576.506 2278.68 576.373 2284.05 576.739C2284.12 577.324 2284.22 577.907 2284.29 578.493C2279.07 579.128 2273.82 579.787 2268.55 580.448ZM1447.39 99.6707C1447.16 100.422 1446.93 101.173 1446.7 101.924C1445.51 102.073 1444.33 102.264 1443.11 102.374C1419.33 104.511 1395.52 106.567 1371.76 108.83C1368.69 109.13 1365.73 111.18 1362.72 111.218C1355.82 111.298 1348.97 110.416 1342.08 110.305C1337.62 110.228 1332.76 109.733 1330.28 114.868C1329.89 115.681 1327.8 116.198 1326.47 116.26C1314.43 116.921 1302.41 117.475 1290.36 118.053C1284.74 118.313 1279.09 118.131 1273.55 118.869C1270.07 119.328 1266.79 122.013 1263.4 122.141C1255.1 122.461 1246.78 121.912 1238.48 121.638C1231.1 121.396 1223.72 121.303 1216.39 120.652C1210.34 120.115 1204.39 117.868 1198.41 118.045C1162.19 119.131 1125.99 120.682 1089.77 122.087C1080.75 122.433 1071.76 122.734 1062.76 123.078C1064.59 121.615 1066.54 121.052 1068.49 120.914C1077.84 120.271 1087.34 120.608 1096.49 118.99C1123.17 114.28 1150.04 113.285 1176.96 112.58C1211.23 111.697 1245.49 110.666 1279.76 109.633C1281.56 109.577 1283.38 109.136 1285.13 108.682C1289.69 107.494 1294.17 105.592 1298.79 105.076C1309.92 103.828 1321.14 103.332 1332.31 102.311C1343.91 101.258 1355.77 98.1116 1366.97 99.3387C1375.31 100.246 1383.52 100.83 1391.82 100.51C1408.42 99.8696 1425.02 98.8889 1441.64 98.2039C1443.56 98.1544 1445.47 99.1678 1447.39 99.6707ZM1364.39 80.2865C1364.42 79.6029 1364.45 78.9193 1364.49 78.2566C1428.43 74.0281 1492.4 69.7968 1556.35 65.5683C1556.38 65.6282 1556.39 65.7118 1556.42 65.7717C1549.67 66.6197 1542.92 67.4676 1536.17 68.3155C1545.53 68.9237 1554.8 68.546 1564.08 68.443C1565.56 68.427 1567.01 69.668 1568.48 70.3118C1567.85 71.3684 1567.25 72.4431 1567.15 72.6039C1593.32 70.8469 1620.56 68.9972 1647.81 67.1684C1647.86 67.715 1647.93 68.2588 1647.97 68.8264C1646.24 69.0441 1644.54 69.3217 1642.8 69.4767C1622.34 71.1535 1601.89 71.7674 1581.81 77.3698C1568.09 81.1965 1553.67 82.9651 1539.48 84.8962C1525.47 86.8044 1511.37 88.3627 1497.27 88.9865C1468.81 90.2236 1440.32 90.6155 1411.83 91.6017C1401.7 91.9599 1391.61 92.9723 1381.48 93.6918C1384.17 92.228 1386.97 91.792 1389.76 91.5262C1410.44 89.5878 1431.18 88.1722 1451.76 85.6301C1476.56 82.5581 1501.24 78.5239 1525.94 74.89C1526.24 74.8527 1526.48 74.3972 1527.62 73.2984C1525.58 72.5979 1523.94 71.4873 1522.38 71.5984C1501.24 73.2119 1480.09 74.9119 1458.99 76.7764C1444.28 78.0717 1429.61 80.0839 1414.89 80.9342C1402.74 81.6311 1390.56 81.1214 1378.39 81.0149C1373.72 80.9423 1369.06 80.5293 1364.39 80.2865ZM1094.99 134.157C1095.01 134.706 1095.04 135.277 1095.06 135.826C1093.66 136.088 1092.24 136.415 1090.83 136.592C1076.61 138.314 1062.4 140.141 1048.16 141.653C1038.05 142.731 1027.91 143.666 1017.77 144.09C1007.47 144.533 997.028 145.165 986.906 144.078C977.466 143.075 968.195 145.259 958.841 144.203C955.269 143.802 951.478 144.788 947.78 145.231C930.886 147.226 913.991 149.22 897.108 151.298C883.306 153.01 869.568 155.416 855.733 156.495C841.14 157.626 826.468 157.578 811.809 157.996C810.863 158.03 809.895 157.705 808.946 157.527C903.749 139.799 999.451 138.083 1094.99 134.157ZM2286.18 564.764C2270.66 577.124 2251.78 576.054 2233.01 580.579C2237.03 576.101 2239.94 572.888 2242.6 569.919C2221.05 571.713 2201.56 583.126 2179.55 582.746C2179.41 582.169 2179.27 581.613 2179.1 581.039C2193.19 577.316 2207.27 573.571 2221.23 569.863C2203.65 572.071 2185.79 574.314 2167.38 576.626C2167.87 574.95 2167.94 573.688 2168.3 573.6C2176.63 571.704 2184.89 569.392 2193.34 568.245C2209.97 565.987 2226.67 563.911 2243.38 562.662C2257.32 561.655 2271.59 558.354 2286.18 564.764ZM724.668 148.375C699.008 154.912 673.164 157.223 646.627 154.012C649.018 151.651 651.721 149.378 654.6 149.059C669.891 147.394 685.247 146.251 700.566 144.816C706.338 144.282 712.087 143.39 717.835 142.668C717.825 142.584 717.814 142.501 717.804 142.417C711.518 142.548 705.21 142.681 698.925 142.812C698.919 142.579 698.912 142.346 698.904 142.092C700.385 141.524 701.865 140.956 703.369 140.384C703.269 140.142 703.192 139.897 703.092 139.654C696.594 139.939 690.119 140.221 683.619 140.485C683.604 139.999 683.567 139.515 683.552 139.028C709.174 136.978 734.793 134.908 761.723 132.758C758.168 135.818 756.216 138.719 753.557 139.499C746.522 141.593 739.197 142.853 731.938 144.275C726.445 145.368 720.924 146.232 715.413 147.179C715.459 147.364 715.483 147.552 715.527 147.717C718.571 147.972 721.607 148.164 724.668 148.375ZM2352.62 545.67C2351.31 546.132 2350.02 546.91 2348.67 547.038C2329.06 549.033 2309.48 551.025 2289.88 552.849C2261.59 555.488 2233.27 557.941 2204.99 560.621C2195.37 561.532 2185.8 562.989 2176.22 564.192C2183 561.896 2189.87 560.332 2196.8 559.27C2213.21 556.72 2229.6 553.855 2246.11 552.121C2281.53 548.374 2316.78 540.929 2352.62 545.67ZM869.868 119.622C860.145 121.523 850.654 123.437 840.919 124.511C824.896 126.247 809.051 129.767 793.102 132.28C784.264 133.666 775.362 134.55 766.49 135.665C766.37 134.894 766.227 134.126 766.109 133.376C780.366 127.718 796.216 129.403 811.282 125.578C808.815 121.065 811.819 120.262 815.832 120.12C820.168 119.957 824.622 119.079 828.83 119.571C839.552 120.816 850.182 120.968 860.949 119.255C863.83 118.765 866.906 119.462 869.868 119.622ZM1127.03 108.675C1126.99 108.128 1126.96 107.558 1126.91 107.011C1160.46 105.729 1194.01 104.427 1227.56 103.145C1218.85 105.726 1209.96 109.307 1201.03 109.6C1178.77 110.356 1156.31 113.984 1134.22 108.919C1131.95 108.396 1129.42 108.735 1127.03 108.675ZM607.236 157.663C607.049 158.027 606.863 158.39 606.677 158.753C586.013 161.349 565.348 163.944 544.683 166.54C561.83 158.99 579.808 155.478 598.334 155.042C601.29 154.968 604.27 156.74 607.236 157.663ZM1260.7 99.5559C1260.68 98.9855 1260.65 98.415 1260.63 97.8446C1285.79 95.067 1310.87 90.9395 1336.24 93.0003C1336.28 93.8246 1336.31 94.6489 1336.37 95.4704C1311.15 96.8531 1285.92 98.1941 1260.7 99.5559ZM2383.47 138.619C2373.89 139.822 2364.26 141.031 2356.85 141.962C2352.43 140.521 2349.7 139.652 2346.56 138.623C2356.29 136.403 2365.75 134.237 2375.2 132.051C2382.66 130.329 2382.65 130.308 2383.47 138.619ZM1534.73 54.262C1514.26 58.2349 1493.74 57.2002 1473.23 55.1443C1493.69 53.0853 1514.15 50.7695 1534.73 54.262ZM841.39 142.829C841.425 143.292 841.46 143.755 841.497 144.239C813.944 147.7 786.391 151.16 758.839 154.621C758.781 154.161 758.723 153.7 758.663 153.219C786.261 149.753 813.837 146.29 841.39 142.829ZM2445.3 567.342C2445.56 568.117 2445.85 568.889 2446.1 569.643C2434.06 572.43 2421.99 575.221 2409.95 578.029C2419.98 567.889 2433.11 569.299 2445.3 567.342ZM1003.44 118.185C1003.43 117.549 1003.4 116.916 1003.39 116.28C1017.08 115.367 1030.78 114.475 1044.47 113.563C1044.51 114.068 1044.53 114.575 1044.57 115.08C1031.09 119.365 1017.27 118.7 1003.44 118.185ZM2575.93 177.206C2575.34 177.343 2574.76 177.459 2574.17 177.597C2569.8 160.15 2565.43 142.704 2561.06 125.237C2561.76 125.085 2562.46 124.934 2563.16 124.761C2567.39 142.267 2571.65 159.748 2575.93 177.206ZM1123.66 107.122C1123.65 107.782 1123.66 108.439 1123.66 109.12C1110.96 109.823 1098.23 110.528 1085.53 111.21C1098.18 108.262 1110.84 105.928 1123.66 107.122ZM776.301 139.808C776.297 139.043 776.294 138.279 776.268 137.517C789.051 136.549 801.857 135.578 814.64 134.61C814.695 135.411 814.751 136.232 814.783 137.035C801.969 137.944 789.135 138.876 776.301 139.808ZM148.785 811.117C139.712 812.66 130.615 814.206 121.542 815.749C121.448 815.187 121.357 814.647 121.263 814.085C129.764 809.087 138.97 808.228 148.785 811.117ZM1250.46 60.2631C1250.43 59.6299 1250.39 58.9758 1250.36 58.3426C1261.62 57.9486 1272.87 57.5546 1284.13 57.1396C1284.15 58.0295 1284.14 58.9014 1284.16 59.7913C1272.9 59.9524 1261.68 60.1077 1250.46 60.2631ZM1447.3 99.1925C1454.42 98.2987 1460.99 97.4737 1467.58 96.6458C1467.63 96.873 1467.66 97.124 1467.71 97.3512C1465.83 97.8638 1463.93 98.3792 1461.62 99.0089C1462.7 99.8507 1463.34 100.344 1464.08 100.909C1452.41 103.331 1449.75 103.156 1447.3 99.1925ZM508.413 790.509C508.354 790.219 508.292 789.908 508.209 789.621C521.552 787.945 534.895 786.269 548.238 784.593C548.275 784.886 548.292 785.203 548.329 785.496C535.031 787.166 521.734 788.836 508.413 790.509ZM586.638 166.327C586.62 166.924 586.625 167.518 586.608 168.115C579.204 170.043 571.811 170.76 564.5 169.001C564.507 168.32 564.537 167.636 564.545 166.956C571.91 166.753 579.272 166.529 586.638 166.327ZM925.798 113.723C925.427 112.984 925.033 112.247 924.662 111.507C926.436 110.69 928.235 109.147 929.957 109.207C933.862 109.311 938.517 106.899 942.155 110.776C936.196 111.843 930.984 112.774 925.798 113.723ZM1067.26 607.103C1067.67 606.562 1068.12 606.039 1068.54 605.498C1072.16 608.166 1075.78 610.812 1079.94 613.859C1071.13 616.772 1070.84 609.819 1067.26 607.103ZM1293.21 61.9266C1293.21 62.5209 1293.2 63.1179 1293.2 63.7331C1288.44 63.0987 1283.81 68.9713 1278.25 63.8059C1283.72 63.1183 1288.46 62.5225 1293.21 61.9266ZM455.601 663.316C454.619 660.848 453.809 658.825 452.373 655.138C456.999 657.85 460.101 659.67 464.428 662.208C460.391 662.715 458.201 662.99 455.601 663.316ZM1226.31 696.073C1230.97 695.871 1234.91 695.695 1238.85 695.519C1236.52 699.296 1232.84 698.972 1229.58 698.999C1228.49 699.008 1227.42 697.124 1226.31 696.073ZM2579.03 189.904C2580.02 189.822 2581 189.741 2581.97 189.663C2582.45 193.511 2582.93 197.359 2583.42 201.208C2582.78 201.309 2582.14 201.389 2581.51 201.49C2580.67 197.622 2579.86 193.751 2579.03 189.904Z" fill="#0B366A"/>
</g>
</g>
<defs>
<clipPath id="clip0">
<rect width="2357" height="851" fill="white"/>
</clipPath>
<clipPath id="clip1">
<rect width="2916.57" height="709.783" fill="white" transform="matrix(-0.992205 0.124616 0.124616 0.992205 2581.83 -132)"/>
</clipPath>
</defs>
</svg>
