<svg width="1549" height="1051" viewBox="0 0 1549 1051" fill="none" xmlns="http://www.w3.org/2000/svg">
<g clip-path="url(#clip0)">
<path d="M1369 0L1369 1051" stroke="#E0E7EB" stroke-width="5" stroke-linecap="round" stroke-dasharray="0.1 16"/>
<path d="M1353 0L1353 1051" stroke="#E0E7EB" stroke-width="5" stroke-linecap="round" stroke-dasharray="0.1 16"/>
<path d="M1337 0L1337 1051" stroke="#E0E7EB" stroke-width="5" stroke-linecap="round" stroke-dasharray="0.1 16"/>
<path d="M1321 0L1321 1051" stroke="#E0E7EB" stroke-width="5" stroke-linecap="round" stroke-dasharray="0.1 16"/>
<path d="M1305 0L1305 1051" stroke="#E0E7EB" stroke-width="5" stroke-linecap="round" stroke-dasharray="0.1 16"/>
<path d="M1289 0L1289 1051" stroke="#E0E7EB" stroke-width="5" stroke-linecap="round" stroke-dasharray="0.1 16"/>
<path d="M1273 0L1273 1051" stroke="#E0E7EB" stroke-width="5" stroke-linecap="round" stroke-dasharray="0.1 16"/>
<path d="M1257 0L1257 1051" stroke="#E0E7EB" stroke-width="5" stroke-linecap="round" stroke-dasharray="0.1 16"/>
<path d="M1241 0L1241 1051" stroke="#E0E7EB" stroke-width="5" stroke-linecap="round" stroke-dasharray="0.1 16"/>
<path d="M1225 0L1225 1051" stroke="#E0E7EB" stroke-width="5" stroke-linecap="round" stroke-dasharray="0.1 16"/>
<path d="M1209 0L1209 1051" stroke="#E0E7EB" stroke-width="5" stroke-linecap="round" stroke-dasharray="0.1 16"/>
<path d="M1193 0L1193 1051" stroke="#E0E7EB" stroke-width="5" stroke-linecap="round" stroke-dasharray="0.1 16"/>
<path d="M1177 0L1177 1051" stroke="#E0E7EB" stroke-width="5" stroke-linecap="round" stroke-dasharray="0.1 16"/>
<path d="M1161 0L1161 1051" stroke="#E0E7EB" stroke-width="5" stroke-linecap="round" stroke-dasharray="0.1 16"/>
<path d="M1145 0L1145 1051" stroke="#E0E7EB" stroke-width="5" stroke-linecap="round" stroke-dasharray="0.1 16"/>
<path d="M1129 0L1129 1051" stroke="#E0E7EB" stroke-width="5" stroke-linecap="round" stroke-dasharray="0.1 16"/>
<path d="M1113 0L1113 1051" stroke="#E0E7EB" stroke-width="5" stroke-linecap="round" stroke-dasharray="0.1 16"/>
<path d="M1097 0L1097 1051" stroke="#E0E7EB" stroke-width="5" stroke-linecap="round" stroke-dasharray="0.1 16"/>
<path d="M1081 0L1081 1051" stroke="#E0E7EB" stroke-width="5" stroke-linecap="round" stroke-dasharray="0.1 16"/>
<path d="M1065 0L1065 1051" stroke="#E0E7EB" stroke-width="5" stroke-linecap="round" stroke-dasharray="0.1 16"/>
<path d="M1049 0L1049 1051" stroke="#E0E7EB" stroke-width="5" stroke-linecap="round" stroke-dasharray="0.1 16"/>
<path d="M1033 0L1033 1051" stroke="#E0E7EB" stroke-width="5" stroke-linecap="round" stroke-dasharray="0.1 16"/>
<path d="M1017 0L1017 1051" stroke="#E0E7EB" stroke-width="5" stroke-linecap="round" stroke-dasharray="0.1 16"/>
</g>
<defs>
<clipPath id="clip0">
<rect width="1549" height="1051" fill="white" transform="matrix(-1 0 0 1 1549 0)"/>
</clipPath>
</defs>
</svg>
