<svg width="1680" height="447" viewBox="0 0 1680 447" fill="none" xmlns="http://www.w3.org/2000/svg">
<g clip-path="url(#clip0)">
<path d="M288.94 381.681C294.646 381.803 300.353 381.937 306.078 382.038C309.392 382.093 312.777 381.881 316.039 382.172C320.026 382.529 323.943 383.265 327.878 383.879C330.022 384.213 331.458 384.113 330.908 382.372L331.015 382.45C328.161 382.105 325.29 381.759 322.437 381.402C320.983 381.223 319.548 381.011 318.112 380.821C318.219 380.453 318.307 380.074 318.414 379.706C358.575 380.9 398.754 382.082 440.279 383.321C438.117 383.656 437.284 383.789 436.451 383.912C436.504 383.778 436.558 383.644 436.611 383.51C457.365 385.296 478.119 387.07 498.873 388.855C498.837 389.168 498.82 389.469 498.784 389.781C492.989 389.781 487.158 390.082 481.433 389.714C470.622 389.011 459.881 387.907 449.106 387.003C437.284 386.021 425.445 384.983 413.588 384.146C405.418 383.577 397.176 383.321 388.988 382.919C388.864 383.399 388.722 383.879 388.598 384.358C390.725 384.749 392.816 385.24 394.979 385.497C397.637 385.809 400.349 385.932 402.972 386.757C397.85 386.601 392.728 386.456 386.967 386.289C390.069 386.858 392.568 387.315 395.049 387.784C382.927 387.605 370.715 390.585 359.018 387.349C357.423 387.672 355.757 388.275 354.091 388.286C342.074 388.364 330.058 388.331 318.538 388.331C319.654 388.877 322.419 388.744 324.05 389.29C329.083 390.986 334.187 390.194 339.185 390.596C367.348 392.827 395.563 394.813 423.69 397.19C434.962 398.138 446.252 399.422 457.17 401.363C467.148 403.148 477.197 402.166 487.158 402.97C499.529 403.974 511.953 404.722 524.377 405.391C536.748 406.061 549.136 406.485 561.525 407.02C561.348 406.964 560.993 406.853 560.657 406.741C560.657 406.596 560.657 406.462 560.657 406.317C567.959 406.54 575.261 406.763 582.563 406.975C582.58 406.853 582.598 406.719 582.616 406.596C552.876 404.186 523.154 401.776 493.414 399.366C507.681 398.652 625.152 404.867 629.53 406.641C620.42 406.339 612.232 406.083 604.043 405.815C604.008 406.127 603.973 406.44 603.919 406.752C612.285 407.243 620.632 408.013 629.016 408.169C641.723 408.415 653.899 410.222 666.057 412.253C666.82 412.376 667.582 412.699 668.326 412.677C679.722 412.342 690.604 414.909 701.912 415.076C702.284 415.076 702.638 415.4 702.975 416.08C684.011 417.04 665.012 414.764 646.012 416.493C655.831 417.497 665.597 418.803 675.469 419.461C697.694 420.945 719.972 422.172 742.268 423.322C746.486 423.534 750.81 422.898 753.433 422.742C754.319 419.483 754.922 417.297 755.578 414.942C758.325 415.21 761.71 417.051 762.029 413.67C762.047 413.458 764.28 413.269 765.503 413.157C768.073 412.923 770.66 412.744 773.248 412.554C773.248 412.197 773.23 411.84 773.23 411.483C767.931 411.126 762.614 410.758 757.12 410.39C757.12 409.854 757.12 409.174 757.12 408.326C783.829 409.374 810.52 410.513 837.229 411.427C862.751 412.309 888.29 412.856 913.812 413.748C927.565 414.228 941.248 415.534 955.001 415.768C983.943 416.259 1012.92 416.315 1041.88 416.504C1050.25 416.56 1058.61 416.527 1066.98 416.382C1069.14 416.348 1071.27 415.734 1073.41 415.389C1055.63 415.21 1037.86 415.143 1020.08 414.808C1007.16 414.563 994.258 414.027 981.356 413.481C977.758 413.324 972.476 413.425 971.023 412.097C968.879 410.144 966.645 410.234 963.987 409.955C955.497 409.051 946.99 408.158 937.739 407.165C941.23 404.911 937.597 405.179 936.409 404.298C939.458 404.298 942.488 404.298 945.537 404.298C945.537 404.208 945.519 404.13 945.519 404.041C939.298 403.74 933.077 403.427 926.856 403.126C926.91 402.713 926.963 402.3 926.998 401.876C935.789 401.876 944.58 401.954 953.353 401.854C961.966 401.765 970.58 401.352 979.176 401.341C987.683 401.33 996.173 401.642 1004.68 401.809C1004.66 402.189 1004.63 402.579 1004.61 402.959C988.622 405.592 972.211 403.862 956.011 404.811C961.754 405.224 967.532 404.822 973.203 405.101C979.353 405.402 985.414 406.339 991.529 407.009C991.511 407.187 991.494 407.366 991.476 407.545C983.961 407.545 976.446 407.545 968.949 407.545C970.864 408.348 972.955 408.326 974.78 408.75C978.13 409.542 982.738 408.236 984.847 411.349C985.574 412.432 991.99 411.372 992.504 410.2C995.57 410.635 998.601 411.349 1001.7 411.461C1024.6 412.354 1047.52 413.101 1070.42 413.983C1071.3 414.016 1072.1 414.931 1072.95 415.422C1074.86 415.009 1076.76 414.239 1078.69 414.217C1099.57 413.983 1120.45 413.748 1141.33 413.748C1151.29 413.748 1161.25 414.34 1171.21 414.496C1176.65 414.585 1182.52 413.458 1187.5 414.384C1200.59 416.828 1214.12 415.601 1227.27 417.073C1238.45 418.323 1249.63 419.684 1261.1 418.814C1265.87 418.457 1270.65 418.234 1275.48 417.542C1259.03 417.04 1242.56 416.538 1226.12 416.036C1226.1 415.723 1226.1 415.4 1226.08 415.087C1227.34 414.998 1228.61 414.808 1229.87 414.831C1237.1 414.931 1244.35 415.377 1251.55 415.132C1259.45 414.864 1267.29 413.893 1275.17 413.402C1281.24 413.023 1287.39 413.123 1293.43 412.655C1307.55 411.561 1321.61 410.178 1335.72 409.051C1343.04 408.459 1350.43 408.169 1357.87 407.366C1355.89 407.176 1353.9 406.975 1351.9 406.786C1351.85 406.596 1351.79 406.395 1351.72 406.206C1353.3 406.094 1354.88 405.837 1356.44 405.893C1370.45 406.406 1384.47 407.065 1398.49 407.511C1405.64 407.734 1412.83 407.377 1419.97 407.667C1438.69 408.437 1457.37 409.508 1476.09 410.312C1491.65 410.97 1507.12 410.948 1522.7 409.62C1531.08 408.906 1539.89 410.245 1548.52 410.434C1557.88 410.635 1567.24 410.579 1576.6 410.624C1587.62 410.669 1598.66 410.412 1609.65 410.825C1621.79 411.294 1633.88 412.376 1645.98 413.213C1646.92 413.28 1647.83 413.447 1649.1 414.195C1647.33 414.697 1645.56 415.199 1644.41 415.511C1664.89 415.511 1686.07 415.511 1707.25 415.511C1707.32 415.913 1707.39 416.315 1707.46 416.716C1698.55 417.866 1689.65 419.015 1680.74 420.164C1680.79 420.376 1680.84 420.599 1680.9 420.811C1713.85 417.721 1746.79 414.63 1779.74 411.539C1779.88 412.008 1780.04 412.476 1780.18 412.945C1757.89 418.446 1735.2 423.11 1711.1 425.286C1719.75 425.52 1728.38 425.754 1737.03 425.977C1742.27 426.111 1746.9 425.687 1751.77 423.757C1755.83 422.139 1761.61 421.804 1766.66 421.726C1776.69 421.559 1785.24 418.669 1793.73 416.08C1803.44 413.123 1813.31 411.294 1823.94 411.026C1836.1 410.713 1848.28 410.68 1860.42 410.345C1864.19 410.245 1867.95 409.665 1871.69 409.185C1878.69 408.27 1885.71 407.991 1892.87 408.247C1895.58 408.348 1898.68 407.5 1901.11 406.563C1903.84 405.503 1905.17 403.818 1902.76 401.754C1900.12 399.5 1900.92 397.268 1903.43 395.048C1901.96 394.49 1900.51 393.943 1898.47 393.184C1904.28 391.801 1911.69 394.11 1915.96 389.469C1912.51 389.089 1909.88 388.799 1908.24 388.621C1907.46 386.601 1906.82 384.939 1906 382.841C1908.93 381.937 1912.92 380.71 1916.9 379.471C1922.1 377.865 1927.38 376.347 1932.48 374.629C1936.61 373.245 1938.45 370.857 1938.77 367.968C1938.84 367.365 1938.68 366.651 1939.16 366.193C1945.83 359.822 1943.17 352.904 1942.65 346.031C1942.21 340.14 1942.28 334.204 1942.92 328.313C1943.52 322.745 1943.56 317.378 1940.35 312.022C1938.88 309.556 1939.5 306.633 1938.72 303.966C1938.19 302.147 1937.16 300.34 1935.88 298.666C1934.5 296.847 1932.6 305.185 1931.09 303.645C1930.88 304.281 1930.47 305.441 1930.05 306.725C1924.66 304.024 1922.66 300.532 1922.22 296.314C1921.24 287.154 1919.65 278.027 1918.63 268.866C1918.42 266.88 1919.8 264.838 1920.14 262.796C1920.92 258.009 1923.52 231.218 1922.62 226.543C1921.42 220.417 1918.04 185.908 1916.12 179.804C1914.76 175.475 1914.93 170.967 1914.05 166.571C1911.94 156.194 1909.65 145.829 1907.35 135.474C1906.16 130.107 1904.67 124.763 1903.52 119.396C1902.69 115.557 1905.74 113.471 1911.85 113.493C1914.26 113.504 1916.74 113.449 1919.06 113.772C1924.66 114.553 1929.41 113.002 1934.57 112.154C1939.8 111.284 1943.54 109.432 1947.42 107.39C1949.07 106.531 1951.23 106.062 1953.54 105.292C1951.89 103.362 1944.46 105.381 1945.37 101.075C1949.39 101.51 1953.27 101.922 1957.4 102.38C1957.22 102.793 1956.99 103.351 1956.76 103.897C1957.24 103.931 1957.72 103.964 1958.2 103.998C1958.37 101.844 1958.55 99.6909 1958.71 97.5486C1960.18 96.7341 1962.07 85.6964 1964.74 84.2236C1960.74 82.7842 1957.83 81.7354 1954.71 80.6084C1955.7 80.2737 1957.63 79.6154 1960.4 78.6781C1959.57 75.3084 1961.73 70.8564 1956.71 67.1966C1955.05 65.9916 1957.69 64.7419 1957.14 64.3403C1955.03 62.8228 1952.18 60.435 1949.84 60.5466C1941.63 60.9148 1935.48 57.1546 1927.35 57.322C1928.71 56.1504 1928.91 56.1392 1935 56.2173C1937.86 56.2508 1940.71 56.2285 1943.56 56.2285C1943.76 55.9384 1943.95 55.6594 1944.13 55.3693C1942.61 54.8114 1940.92 53.651 1939.59 53.7961C1931.24 54.6887 1923.41 52.4348 1915.24 52.4906C1907.76 52.5464 1900.26 52.3679 1892.79 52.4906C1889.74 52.5464 1888.25 52.3009 1887.7 50.0582C1886.9 46.8447 1885.08 43.7205 1883.36 39.7818C1882.4 41.21 1881.99 41.8237 1881.07 43.2072C1880.27 41.3885 1879.97 40.2839 1879.28 39.2908C1878.66 38.3982 1877.67 36.9588 1876.75 36.9253C1874.96 36.8584 1872.49 37.2936 1871.38 38.1081C1869.66 39.3689 1866.59 40.5628 1868.52 42.8948C1868.96 43.4192 1868.18 44.3454 1867.88 45.3607C1865.92 44.2896 1866.73 41.6563 1862.9 42.4262C1862.53 41.6675 1861.75 40.8976 1861.84 40.1612C1862.3 36.0104 1857.04 33.9016 1853.56 31.313C1851.72 29.9405 1847.94 30.5319 1844.91 31.1121C1843.39 31.4022 1841.58 31.2683 1839.93 31.1568C1838.44 31.0563 1836.99 30.7104 1834.81 30.3646C1835.86 32.8193 1836.81 34.7831 1837.49 36.7803C1837.97 38.2085 1839.53 39.6479 1836.71 41.1096C1835.68 41.634 1836.35 43.4527 1836.27 44.5908C1833.85 45.6285 1836.35 40.7637 1832.6 43.9213C1831.55 40.931 1830.61 38.2643 1829.62 35.486C1818.88 37.0257 1825.03 41.9464 1823.91 45.9409C1822.81 43.4304 1821.98 41.5559 1821.15 39.6367C1817.99 40.7637 1817.99 40.7637 1815.07 48.8754C1806.53 48.3622 1797.91 47.8601 1789.3 47.3357C1787.86 47.2464 1786.44 46.9786 1785.03 46.9786C1770.94 46.9452 1756.85 47.0455 1742.76 46.9228C1730.26 46.8112 1717.75 46.6216 1705.27 46.1083C1702.31 45.9856 1699.51 44.4346 1696.64 43.542C1697.26 42.8279 1697.61 41.7232 1698.55 41.4778C1700.81 40.8864 1703.32 40.6967 1705.73 40.3397C1705.79 40.0496 1705.84 39.7595 1705.91 39.4694C1702.61 38.9449 1699.28 37.9184 1696.02 37.9854C1681.31 38.2978 1666.62 38.9672 1651.91 39.4359C1637.14 39.9045 1622.38 40.3508 1607.62 40.6633C1596.88 40.8976 1586.08 41.1876 1575.36 40.9199C1562.26 40.5963 1548.93 40.5294 1536.19 38.8557C1520.1 36.7469 1503.86 34.8389 1487.68 34.8612C1471.68 34.8835 1457.36 30.9447 1442.01 29.8289C1429.3 28.9028 1416.65 27.6197 1403.99 26.3477C1400.54 26.0018 1397.17 25.2208 1393.87 24.4843C1381.61 21.7395 1369.13 22.7214 1356.49 23.4913C1356.62 28.133 1349.79 25.4216 1346.62 27.3965C1349.78 27.3965 1352.61 27.3965 1355.45 27.3965C1355.48 27.6978 1355.52 28.0102 1355.55 28.3115C1351.96 28.49 1348.34 28.5681 1344.78 28.8917C1339.59 29.3603 1334.46 30.1079 1329.27 30.5431C1327.73 30.677 1326.06 30.1526 1324.45 29.9294C1325.39 29.0814 1326.31 28.2222 1327.18 27.4412C1321.45 27.4412 1315.53 27.2069 1309.65 27.4858C1292.3 28.3003 1275.02 29.6393 1257.65 30.1637C1232.41 30.9113 1207.14 32.0382 1181.85 30.4427C1180.09 30.3311 1178.21 30.8666 1176.19 30.6435C1177.13 30.3868 1178.05 30.1302 1179.68 29.6728C1168.09 28.4454 1157.19 27.787 1146.22 28.914C1146.21 29.2487 1146.17 29.5835 1146.15 29.9182C1155.03 29.9182 1163.91 29.9182 1172.77 29.9182C1172.79 30.2529 1172.81 30.5989 1172.83 30.9336C1170.31 31.0452 1167.79 31.1567 1164.55 31.2906C1165.7 31.6477 1166.2 31.8039 1167.69 32.2614C1156.2 31.8262 1145.73 31.458 1135.25 31.034C1126.64 30.6881 1118.01 30.3757 1109.41 29.896C1105.48 29.6728 1101.12 30.0967 1098.37 27.3184C1097.71 26.6489 1095.09 26.5485 1093.37 26.5373C1074.94 26.4369 1056.49 26.3254 1038.04 26.3923C1029.82 26.4258 1021.61 26.8387 1013.39 27.0841C1013.33 27.3296 1013.3 27.575 1013.24 27.8205C1014.17 28.1329 1015.11 28.4454 1016.93 29.0702C1011.22 29.3492 1007.13 29.6728 1002.13 28.4342C996.195 26.9614 988.964 27.3184 982.3 27.2515C962.219 27.0395 942.121 27.1846 922.04 26.8387C910.166 26.6267 898.344 25.6001 886.469 25.2207C873.815 24.819 861.125 24.8191 848.453 24.529C841.895 24.3728 835.355 23.9042 828.78 23.6922C824.579 23.5583 824.42 24.8191 827.291 27.2069C794.308 26.1246 762.122 25.0757 729.936 24.0268C729.848 24.2612 729.759 24.5067 729.671 24.741C731.656 25.1092 733.623 25.4663 735.608 25.8345C735.626 26.0241 735.643 26.2138 735.661 26.4035C722.191 26.7717 708.722 27.2738 695.252 27.4746C681.587 27.6755 667.905 27.5751 654.24 27.5862C640.646 27.5974 627.035 27.5862 613.334 27.921C616.915 28.0549 620.495 28.1887 624.075 28.3226C624.075 28.5681 624.075 28.8247 624.075 29.0702C619.325 29.0702 614.593 29.0479 609.843 29.0702C593.608 29.1483 577.356 29.3603 561.121 29.2822C551.888 29.2376 542.671 28.5904 533.437 28.4788C529.769 28.4342 525.976 29.5388 522.396 29.2822C516.778 28.8805 511.354 27.4858 505.754 27.0283C501.801 26.7048 497.672 27.2962 493.613 27.3854C491.788 27.4301 489.767 27.5081 488.154 27.0841C485.531 26.4035 483.192 25.2989 480.693 24.4174C472.965 21.7061 465.149 19.3071 455.827 20.6461C454.551 20.8357 453.044 20.4229 450.988 20.222C451.414 21.4717 451.768 22.4871 452.123 23.5025C451.892 23.7479 451.68 23.9822 451.449 24.2277C448.135 22.8553 444.041 21.8511 441.737 19.9878C439.645 18.2918 438.068 17.2987 435.108 18.381C432.432 19.3629 432.007 22.5652 433.868 24.1161C434.222 24.4174 434.417 24.7967 435.374 26.0352C430.926 26.1133 427.239 26.3812 423.623 26.1915C401.381 25.0757 379.138 23.8707 356.913 22.6879C328.431 21.1705 299.967 19.4744 271.468 18.2359C259.416 17.7115 247.258 18.1467 240.275 18.1467C282.155 20.7799 329.229 23.7367 376.284 26.7047C376.249 26.9167 376.231 27.1288 376.196 27.3296C371.942 27.1622 367.689 26.9391 363.435 26.8275C355.282 26.6267 347.129 26.4258 338.994 26.3366C328.077 26.225 317.141 26.4146 306.242 26.1134C293.41 25.7563 280.596 24.9753 267.782 24.4955C265.496 24.4063 262.748 23.4801 261.118 25.9683C260.586 26.7829 255.925 27.073 253.461 26.7382C239.141 24.8079 224.749 26.4147 210.429 26.0911C204.758 25.9572 199.157 25.0534 193.485 24.7298C183.295 24.1385 173.068 23.7479 162.859 23.2123C160.254 23.0784 157.666 22.7549 155.026 22.0631C165.181 18.3921 176.063 16.618 187.548 15.5357C186.662 15.3349 185.811 15.0894 184.907 14.9444C183.826 14.7658 182.71 14.5539 181.611 14.5204C163.515 13.996 145.437 13.3934 127.324 13.0587C122.574 12.9694 117.789 13.929 112.986 14.0852C103.823 14.3753 94.6422 14.5427 85.4615 14.565C77.1846 14.5873 68.8901 14.3642 60.6133 14.1968C56.2533 14.1075 52.0352 13.7393 47.5157 14.4311C44.68 14.8663 41.0998 13.4157 37.8919 12.0768C40.2491 11.9429 42.7127 12.0098 44.9635 11.6305C49.6425 10.8382 54.1265 9.41005 58.8587 8.96374C69.5813 7.94837 80.4812 6.48671 91.1507 6.88839C98.6299 7.16734 106.375 7.35699 113.783 8.18267C126.154 9.56625 151.41 10.1576 160.467 8.46163C159.811 8.27195 159.173 8.09344 158.145 7.80334C162.168 7.0446 165.855 6.63176 169.134 5.64987C172.076 4.76839 174.521 3.25094 177.198 2.01242C177.003 1.71115 176.825 1.40986 176.63 1.09744C174.185 0.807333 171.757 0.305239 169.293 0.282923C161.105 0.19366 152.456 -0.776995 144.799 0.506159C121.475 4.43373 97.6728 2.43641 74.1894 3.83114C57.5648 4.81303 40.834 5.31511 24.1386 5.75027C11.3069 6.09616 -1.57803 5.83957 -14.4275 6.17431C-27.206 6.49789 -39.9669 7.2566 -52.7277 7.73638C-54.3937 7.80333 -56.1306 7.26773 -58.2042 6.94415C-58.0801 7.12267 -57.8497 7.46858 -57.6725 7.72521C-69.7598 8.88563 -82.2725 9.34312 -94.0763 11.4185C-108.822 14.0183 -123.852 14.9109 -138.81 16.3726C-140.582 16.5511 -142.567 15.7589 -144.499 15.5357C-145.332 15.4353 -146.555 15.413 -147.069 15.7142C-151.908 18.5483 -153.751 18.381 -156.835 14.7212C-157.047 14.4757 -157.508 14.3195 -157.88 14.1187C-160.911 17.4661 -164.633 17.6892 -171.616 14.8774C-174.363 16.5176 -175.692 18.0797 -171.35 19.8315C-174.647 21.0365 -175.09 22.5205 -173.069 24.5624C-171.616 26.0353 -170.854 27.7759 -169.365 30.0409C-171.74 29.5277 -173.052 29.2376 -174.664 28.8917C-174.842 29.2711 -175.072 29.7955 -175.373 30.4538C-179.113 27.6644 -182.782 24.9307 -186.699 22.0073C-188.737 23.0785 -189.995 24.105 -191.661 24.5178C-193.256 24.9195 -195.791 25.165 -196.996 24.6406C-201.25 22.7884 -205.096 20.568 -209.083 18.4926C-207.878 20.5233 -206.62 22.6433 -205.361 24.7633C-205.84 24.9307 -206.301 25.098 -206.779 25.2653C-208.676 23.8483 -210.59 22.4202 -212.486 21.0031C-212.77 21.1147 -213.053 21.2262 -213.319 21.3378C-212.628 22.7437 -211.919 24.1384 -211.228 25.5443C-211.724 25.7229 -212.203 25.9126 -212.699 26.0911C-217.785 21.137 -222.287 15.7031 -232.549 15.6808C-234.835 16.8747 -236.679 17.8343 -238.983 19.0393C-238.451 19.6641 -237.582 20.6572 -236.856 21.4941C-239.319 22.3532 -241.588 23.1343 -243.857 23.9265C-246.426 24.8303 -248.748 25.4439 -251.513 23.826C-253.285 22.7884 -254.384 20.1328 -257.982 21.5498C-259.719 22.2416 -261.42 23.8037 -261.527 25.0311C-261.615 26.0241 -259.489 27.2404 -258 28.0995C-256.476 28.9698 -254.508 29.5389 -251.548 30.6993C-255.111 30.9559 -257.291 31.1121 -260.711 31.3576C-258.833 33.3883 -257.167 35.1959 -254.81 37.751C-260.02 36.0885 -264.256 34.7272 -267.322 33.7454C-266.596 37.8514 -265.692 42.9952 -264.646 48.9089C-267.429 49.3441 -270.991 50.3259 -274.571 50.3483C-279.746 50.3929 -281.997 52.2228 -284 54.6998C-278.187 56.0499 -276.202 60.3569 -280.757 63.1017C-284.833 65.5565 -284 68.0335 -283.132 70.7449C-282.139 73.8802 -281.341 77.0825 -279.764 80.1063C-273.065 92.8709 -266.033 115.569 -259.228 128.311C-258.111 130.409 -258.164 132.484 -261.496 134.001C-261.851 133.834 -262.276 133.689 -262.613 133.488C-263.729 132.819 -264.81 132.138 -265.909 131.457C-266.352 132.305 -266.866 133.153 -267.221 134.013C-267.841 135.508 -268.355 137.014 -269.773 138.286C-268.71 140.797 -267.593 143.296 -266.618 145.829C-265.962 147.525 -264.757 149.288 -268.249 150.549C-268.993 150.816 -269.135 152.021 -269.117 152.78C-268.958 157.489 -269.531 190.827 -268.786 195.502C-267.936 200.813 -266.8 227.939 -265.86 233.25C-264.194 242.567 -262.688 251.895 -261.554 261.245C-259.303 279.656 -257.543 288.1 -255.186 306.51C-254.3 313.439 -252.155 320.312 -250.879 327.23C-250.631 328.603 -251.783 330.075 -252.527 332.151C-251.517 332.653 -249.834 333.735 -247.831 334.449C-241.752 336.58 -240.865 337.875 -242.62 342.148C-243.063 343.219 -243.294 344.603 -242.602 345.54C-239.802 349.379 -237.161 349.412 -233.209 345.875C-232.766 345.484 -232.341 345.083 -231.082 343.922C-231.437 348.497 -227.148 349.468 -222.469 350.327C-219.402 350.896 -217.01 351.153 -214.901 349.1C-214.139 348.363 -211.852 348.252 -209.938 347.772C-208.751 349.1 -207.421 350.606 -205.968 352.235C-201.396 348.888 -190.815 347.694 -185.001 349.658C-178.975 351.688 -172.311 351.755 -165.807 352.492C-152.958 353.953 -140.303 356.14 -127.471 357.68C-115.845 359.075 -104.059 360.012 -92.3437 361.15C-91.3866 361.239 -90.4118 361.239 -89.4725 361.396C-67.0879 365.033 -44.1893 366.35 -21.202 367.064C-10.8693 367.387 -0.465687 366.963 9.84932 367.41C20.2352 367.856 30.5502 368.883 40.8829 369.775C61.4066 371.56 81.8948 373.547 102.436 375.231C136.004 377.987 169.608 380.565 203.194 383.254C209.078 383.722 214.926 384.47 220.828 384.838C231.711 385.53 242.628 386.032 253.546 386.601C254.255 386.635 254.999 386.545 256.949 386.445C246.705 384.716 237.719 383.198 228.645 381.669C236.602 379.806 244.613 380.654 252.66 381C261.38 381.379 270.117 381.435 278.855 381.602C282.205 381.669 285.572 381.647 288.94 381.658C287.557 381.29 286.192 380.699 284.757 380.621C281.815 380.464 278.855 380.576 274.867 380.576C276.675 379.84 277.366 379.561 278.89 378.947C272.616 378.947 267.282 378.947 261.965 378.947C261.787 378.634 261.592 378.311 261.415 377.998C263.241 377.351 265.155 376.068 266.892 376.157C278.855 376.793 290.8 377.697 302.728 378.556C304.288 378.668 305.794 379.003 307.336 379.237C307.23 379.549 307.141 379.873 307.035 380.185C305.422 380.096 303.792 380.063 302.214 379.895C297.447 379.337 292.927 379.672 288.94 381.681ZM24.174 22.0296C25.0779 21.6949 25.9641 21.1147 26.9212 21.07C39.7706 20.4117 52.62 19.6865 65.4872 19.2625C73.1969 19.0059 80.942 19.2513 88.6871 19.2736C88.6871 19.6418 88.7048 19.9989 88.7048 20.3671C83.4587 20.6907 78.2126 21.0478 72.9487 21.349C62.102 21.9627 51.273 22.7437 40.4263 23.0338C35.0562 23.1789 29.4024 24.7633 24.1918 22.4871C20.0977 23.7814 16.039 23.5024 11.9626 22.9557C11.9626 22.6433 11.9449 22.3309 11.9449 22.0185C16.0036 22.0296 20.0799 22.0296 24.174 22.0296ZM604.912 379.181C605.16 378.802 605.408 378.422 605.656 378.043C606.578 378.043 607.5 378.021 608.439 378.043C626.836 378.489 645.25 378.98 663.647 379.36C666.022 379.404 668.486 378.523 670.79 378.701C676.071 379.114 681.229 380.029 686.492 380.542C689.895 380.877 693.564 381.457 695.957 378.925C696.329 378.523 697.977 378.389 699.005 378.445C708.275 378.891 717.526 379.393 726.795 379.884C731.12 380.118 735.426 380.587 739.733 380.565C742.445 380.554 745.21 379.36 747.815 379.516C754.195 379.895 760.505 380.732 766.832 381.424C772.45 382.038 778.086 382.573 783.634 383.399C788.206 384.08 792.549 385.653 797.139 385.954C824.947 387.773 852.791 389.346 880.634 390.997C887.564 391.41 894.476 391.845 901.388 392.258C899.846 392.905 898.304 393.073 896.798 393.017C889.584 392.738 882.353 391.935 875.193 392.18C854.332 392.894 833.685 391.645 813.019 390.239C786.718 388.442 760.417 386.724 734.097 385.006C732.715 384.916 731.279 385.028 729.897 385.151C726.299 385.474 722.684 386.177 719.104 386.144C710.472 386.066 701.841 385.586 693.192 385.385C684.224 385.173 674.848 386.043 666.394 384.66C660.102 383.633 653.881 382.785 647.501 382.406C634.74 381.647 621.944 381.067 609.165 380.33C607.694 380.23 606.33 379.572 604.912 379.181ZM666.536 394.836C666.447 395.193 666.359 395.55 666.27 395.896C616.946 393.898 567.604 391.901 518.28 389.904C518.262 389.87 518.262 389.826 518.245 389.792C523.491 389.792 528.737 389.792 533.983 389.792C526.876 388.855 519.751 388.442 512.644 387.884C511.51 387.795 510.517 387.048 509.454 386.612C510.039 386.099 510.606 385.575 510.694 385.497C490.507 384.693 469.488 383.868 448.468 383.031C448.485 382.741 448.485 382.45 448.503 382.149C449.85 382.149 451.179 382.116 452.526 382.149C468.336 382.618 484.038 383.644 499.936 382.026C510.801 380.922 522.002 380.944 533.044 380.866C543.943 380.788 554.879 380.9 565.725 381.502C587.614 382.729 609.449 384.403 631.337 385.764C639.118 386.244 646.934 386.378 654.75 386.668C652.552 387.26 650.372 387.304 648.21 387.26C632.206 386.914 616.202 386.289 600.215 386.266C580.95 386.244 561.685 386.735 542.437 387.014C542.207 387.014 541.976 387.237 541.001 387.739C542.49 388.241 543.642 388.933 544.847 388.978C561.171 389.525 577.511 390.027 593.835 390.44C605.213 390.73 616.627 390.64 627.97 391.165C637.328 391.6 646.597 392.671 655.902 393.53C659.464 393.876 662.991 394.401 666.536 394.836ZM877.798 384.314C877.834 384.024 877.869 383.722 877.904 383.432C879.003 383.388 880.12 383.31 881.219 383.31C892.26 383.343 903.302 383.321 914.344 383.466C922.177 383.566 930.029 383.745 937.827 384.191C945.75 384.637 953.796 384.994 961.435 386.233C968.56 387.382 975.862 386.847 982.915 388.018C985.609 388.465 988.605 388.197 991.476 388.208C1004.59 388.275 1017.71 388.342 1030.82 388.364C1041.54 388.375 1052.28 388.018 1062.97 388.364C1074.24 388.732 1085.46 389.725 1096.72 390.473C1097.44 390.518 1098.15 390.752 1098.86 390.908C1024.64 393.965 951.262 388.554 877.798 384.314ZM9.18007 29.1037C22.2422 23.6364 36.5804 25.4439 51.3794 24.3058C47.8702 26.3923 45.3358 27.8875 43.014 29.2711C59.674 29.7509 75.6782 25.0422 92.4799 26.6936C92.5331 27.006 92.5862 27.3073 92.6571 27.6197C81.5269 28.6462 70.3966 29.6839 59.3549 30.7104C73.0197 30.7104 86.897 30.7104 101.2 30.7104C100.668 31.5584 100.491 32.2167 100.207 32.239C93.6497 32.6854 87.1097 33.3548 80.5343 33.3995C67.5963 33.4887 54.6228 33.4776 41.7202 33.0313C30.9621 32.6407 19.7255 33.433 9.18007 29.1037ZM1162.45 401.274C1182.71 399.533 1202.7 400.024 1222.7 403.461C1220.64 404.543 1218.35 405.558 1216.12 405.536C1204.26 405.402 1192.41 404.989 1180.55 404.733C1176.08 404.632 1171.6 404.722 1167.13 404.722C1167.13 404.766 1167.13 404.811 1167.13 404.855C1171.95 405.201 1176.79 405.547 1181.61 405.893C1181.59 406.016 1181.58 406.139 1181.56 406.273C1180.37 406.473 1179.18 406.674 1177.98 406.875C1178.03 407.009 1178.07 407.143 1178.12 407.277C1183.12 407.556 1188.1 407.835 1193.1 408.125C1193.06 408.381 1193.04 408.638 1193.01 408.895C1173.21 408.281 1153.41 407.678 1132.61 407.031C1135.62 405.659 1137.39 404.264 1139.5 404.03C1145.08 403.394 1150.81 403.215 1156.5 402.947C1160.8 402.735 1165.11 402.646 1169.42 402.512C1169.4 402.412 1169.4 402.311 1169.38 402.222C1167.08 401.887 1164.77 401.586 1162.45 401.274ZM-43.4761 34.7496C-42.4304 34.5934 -41.367 34.2698 -40.3213 34.2921C-25.1324 34.5376 -9.9612 34.7831 5.21 35.1178C27.0984 35.5976 49.0045 36.1778 70.8928 36.6353C78.3366 36.7915 85.7982 36.6576 93.242 36.6576C87.8364 37.4163 82.4308 37.7845 77.0251 37.8849C64.2288 38.1416 51.4148 38.5656 38.6186 38.387C11.1651 38.0188 -16.5189 39.6032 -43.4761 34.7496ZM1048.62 406.797C1056.24 406.44 1063.68 406.061 1071.23 406.139C1083.66 406.284 1096.11 405.48 1108.56 405.213C1115.45 405.067 1122.35 405.19 1129.24 405.19C1129.26 405.603 1129.29 406.016 1129.31 406.418C1117.86 408.448 1105.9 406.518 1094.01 407.533C1095.46 410.066 1093.08 410.289 1090 410.1C1086.67 409.899 1083.18 410.066 1080 409.531C1071.92 408.169 1063.8 407.388 1055.4 407.578C1053.15 407.645 1050.87 407.076 1048.62 406.797ZM850.841 395.583C850.823 395.873 850.788 396.175 850.77 396.465C824.982 394.925 799.195 393.396 773.408 391.857C780.32 391.076 787.462 389.781 794.321 390.216C811.424 391.288 828.952 390.864 845.364 394.981C847.048 395.405 849.015 395.394 850.841 395.583ZM1253.18 404.141C1253.36 403.963 1253.53 403.784 1253.71 403.606C1269.77 403.606 1285.83 403.606 1301.88 403.606C1288.04 406.44 1273.95 407.098 1259.74 406.105C1257.47 405.949 1255.36 404.822 1253.18 404.141ZM747.709 391.555C747.673 391.857 747.638 392.158 747.602 392.459C728.089 392.258 708.505 392.772 689.293 390.016C689.346 389.58 689.399 389.145 689.435 388.71C708.859 389.647 728.284 390.607 747.709 391.555ZM-107.413 306.981C-99.9696 306.981 -92.4903 306.981 -86.7302 306.981C-83.4869 308.03 -81.4841 308.666 -79.1801 309.414C-86.8366 309.938 -94.2932 300.451 -101.737 300.976C-107.603 301.389 -107.591 311.4 -107.413 306.981ZM533.735 397.268C549.774 396.532 565.371 398.429 580.861 400.861C565.017 400.593 549.136 400.459 533.735 397.268ZM1072.63 396.487C1072.65 396.242 1072.67 395.996 1072.68 395.74C1094.09 395.74 1115.5 395.74 1136.91 395.74C1136.91 395.985 1136.91 396.23 1136.91 396.487C1115.47 396.487 1094.04 396.487 1072.63 396.487ZM-112.296 17.254C-112.42 16.83 -112.562 16.406 -112.686 15.9932C-103.204 15.3237 -93.7041 14.6542 -84.2221 13.9736C-92.8711 18.6376 -102.779 17.0309 -112.296 17.254ZM946.299 398.741C946.246 399.076 946.21 399.41 946.157 399.745C935.594 399.321 925.031 398.886 914.468 398.462C914.486 398.194 914.521 397.926 914.539 397.659C925.261 396.297 935.771 397.558 946.299 398.741ZM-250.937 274.021C-250.476 273.987 -250.016 273.965 -249.555 273.932C-247.889 283.382 -246.223 292.833 -244.557 302.295C-245.106 302.328 -245.656 302.362 -246.205 302.406C-247.765 292.933 -249.342 283.472 -250.937 274.021ZM853.269 396.621C853.34 396.275 853.393 395.929 853.464 395.572C863.247 396.041 873.048 396.509 882.832 396.989C872.871 397.703 862.964 398.094 853.269 396.621ZM1122.13 402.367C1122.06 402.769 1121.99 403.171 1121.94 403.572C1112.07 403.238 1102.18 402.903 1092.3 402.568C1092.34 402.144 1092.38 401.709 1092.43 401.285C1102.32 401.653 1112.23 402.01 1122.13 402.367ZM1667.91 40.7079C1675 40.4959 1682.11 40.2839 1689.2 40.0719C1689.21 40.3732 1689.23 40.6632 1689.25 40.9645C1682.27 43.0287 1675.14 42.8726 1667.91 40.7079ZM751.767 412.867C751.732 413.202 751.696 413.547 751.661 413.882C743.012 413.347 734.363 412.811 725.714 412.287C725.785 411.818 725.874 411.361 725.945 410.892C734.576 411.55 743.171 412.209 751.767 412.867ZM604.93 379.438C599.4 379.438 594.296 379.438 589.173 379.438C589.156 379.315 589.156 379.181 589.138 379.058C590.627 378.913 592.133 378.768 593.959 378.59C593.214 378.077 592.771 377.775 592.257 377.429C601.42 376.927 603.441 377.195 604.93 379.438ZM1390.82 27.8094C1390.84 27.9656 1390.86 28.133 1390.89 28.2892C1380.53 28.2892 1370.16 28.2892 1359.79 28.2892C1359.79 28.133 1359.81 27.9656 1359.81 27.8094C1370.14 27.8094 1380.47 27.8094 1390.82 27.8094ZM1269.77 400.95C1269.84 400.638 1269.89 400.325 1269.96 400.013C1275.81 399.489 1281.54 399.6 1286.96 401.006C1286.89 401.363 1286.8 401.72 1286.73 402.077C1281.08 401.698 1275.42 401.33 1269.77 400.95ZM1005.26 406.206C1005.48 406.618 1005.71 407.031 1005.92 407.444C1004.48 407.757 1002.96 408.448 1001.65 408.303C998.672 407.991 994.879 408.95 992.468 406.674C997.13 406.507 1001.21 406.362 1005.26 406.206ZM945.714 97.2696C945.341 97.5263 944.952 97.7718 944.579 98.0284C942.063 96.3882 939.533 84.7592 936.644 82.8846C943.663 81.9362 943.232 95.6071 945.714 97.2696ZM719.228 409.174C719.281 408.861 719.352 408.549 719.405 408.225C722.985 408.872 727.097 406.094 730.854 409.174C726.601 409.174 722.914 409.174 719.228 409.174ZM1419.02 108.093C1419.08 108.272 1419.15 108.446 1419.22 108.619C1419.65 109.763 1420.05 110.837 1420.7 112.601C1417.42 110.871 1415.22 109.711 1412.16 108.093C1415.29 108.093 1417 108.093 1419.02 108.093ZM832.573 30.0521C828.992 29.8512 825.962 29.6839 822.931 29.5166C825.076 27.6867 827.858 28.0995 830.357 28.3003C831.19 28.3673 831.828 29.4272 832.573 30.0521ZM-252.089 267.148C-252.851 267.125 -253.613 267.103 -254.358 267.081C-254.358 265.028 -254.358 262.975 -254.358 260.922C-253.862 260.91 -253.365 260.91 -252.869 260.899C-252.603 262.986 -252.355 265.072 -252.089 267.148Z" fill="#99CC33"/>
<path d="M945.714 97.2696C945.341 97.5263 944.952 97.7718 944.579 98.0284C942.063 96.3882 939.533 84.7592 936.644 82.8846C943.663 81.9362 943.232 95.6071 945.714 97.2696Z" fill="#99CC33"/>
<path d="M1419.02 108.093L1419.22 108.619C1419.65 109.763 1420.05 110.837 1420.7 112.601C1417.42 110.871 1415.22 109.711 1412.16 108.093H1419.02Z" fill="#99CC33"/>
</g>
<defs>
<clipPath id="clip0">
<rect width="1680" height="447" fill="white"/>
</clipPath>
</defs>
</svg>
