<svg width="1549" height="1051" viewBox="0 0 1549 1051" fill="none" xmlns="http://www.w3.org/2000/svg">
<g clip-path="url(#clip0)">
<path d="M180 0L180 1051" stroke="#E0E7EB" stroke-width="5" stroke-linecap="round" stroke-dasharray="0.1 16"/>
<path d="M196 0L196 1051" stroke="#E0E7EB" stroke-width="5" stroke-linecap="round" stroke-dasharray="0.1 16"/>
<path d="M212 0L212 1051" stroke="#E0E7EB" stroke-width="5" stroke-linecap="round" stroke-dasharray="0.1 16"/>
<path d="M228 0L228 1051" stroke="#E0E7EB" stroke-width="5" stroke-linecap="round" stroke-dasharray="0.1 16"/>
<path d="M244 0L244 1051" stroke="#E0E7EB" stroke-width="5" stroke-linecap="round" stroke-dasharray="0.1 16"/>
<path d="M260 0L260 1051" stroke="#E0E7EB" stroke-width="5" stroke-linecap="round" stroke-dasharray="0.1 16"/>
<path d="M276 0L276 1051" stroke="#E0E7EB" stroke-width="5" stroke-linecap="round" stroke-dasharray="0.1 16"/>
<path d="M292 0L292 1051" stroke="#E0E7EB" stroke-width="5" stroke-linecap="round" stroke-dasharray="0.1 16"/>
<path d="M308 0L308 1051" stroke="#E0E7EB" stroke-width="5" stroke-linecap="round" stroke-dasharray="0.1 16"/>
<path d="M324 0L324 1051" stroke="#E0E7EB" stroke-width="5" stroke-linecap="round" stroke-dasharray="0.1 16"/>
<path d="M340 0L340 1051" stroke="#E0E7EB" stroke-width="5" stroke-linecap="round" stroke-dasharray="0.1 16"/>
<path d="M356 0L356 1051" stroke="#E0E7EB" stroke-width="5" stroke-linecap="round" stroke-dasharray="0.1 16"/>
<path d="M372 0L372 1051" stroke="#E0E7EB" stroke-width="5" stroke-linecap="round" stroke-dasharray="0.1 16"/>
<path d="M388 0L388 1051" stroke="#E0E7EB" stroke-width="5" stroke-linecap="round" stroke-dasharray="0.1 16"/>
<path d="M404 0L404 1051" stroke="#E0E7EB" stroke-width="5" stroke-linecap="round" stroke-dasharray="0.1 16"/>
<path d="M420 0L420 1051" stroke="#E0E7EB" stroke-width="5" stroke-linecap="round" stroke-dasharray="0.1 16"/>
<path d="M436 0L436 1051" stroke="#E0E7EB" stroke-width="5" stroke-linecap="round" stroke-dasharray="0.1 16"/>
<path d="M452 0L452 1051" stroke="#E0E7EB" stroke-width="5" stroke-linecap="round" stroke-dasharray="0.1 16"/>
<path d="M468 0L468 1051" stroke="#E0E7EB" stroke-width="5" stroke-linecap="round" stroke-dasharray="0.1 16"/>
<path d="M484 0L484 1051" stroke="#E0E7EB" stroke-width="5" stroke-linecap="round" stroke-dasharray="0.1 16"/>
<path d="M500 0L500 1051" stroke="#E0E7EB" stroke-width="5" stroke-linecap="round" stroke-dasharray="0.1 16"/>
<path d="M516 0L516 1051" stroke="#E0E7EB" stroke-width="5" stroke-linecap="round" stroke-dasharray="0.1 16"/>
<path d="M532 0L532 1051" stroke="#E0E7EB" stroke-width="5" stroke-linecap="round" stroke-dasharray="0.1 16"/>
</g>
<defs>
<clipPath id="clip0">
<rect width="1549" height="1051" fill="white"/>
</clipPath>
</defs>
</svg>
