<svg width="2357" height="580" viewBox="0 0 2357 580" fill="none" xmlns="http://www.w3.org/2000/svg">
<g clip-path="url(#clip0)">
<path opacity="0.1" d="M555.829 498.699C563.233 498.728 570.638 498.773 578.065 498.767C582.364 498.761 586.747 498.354 590.985 498.697C596.167 499.12 601.269 500.109 606.391 500.915C609.182 501.355 611.04 501.167 610.274 498.595L610.414 498.708C606.703 498.271 602.969 497.834 599.258 497.38C597.368 497.154 595.5 496.878 593.632 496.635C593.759 496.085 593.862 495.518 593.989 494.968C646.105 495.659 698.244 496.332 752.131 497.052C749.337 497.608 748.261 497.829 747.185 498.034C747.25 497.834 747.314 497.633 747.379 497.433C774.348 499.526 801.315 501.603 828.284 503.696C828.247 504.161 828.234 504.61 828.197 505.075C820.682 505.231 813.13 505.837 805.695 505.444C791.654 504.691 777.692 503.339 763.69 502.286C748.33 501.146 732.946 499.923 717.544 499C706.931 498.374 696.236 498.215 685.606 497.839C685.46 498.556 685.291 499.273 685.145 499.989C687.915 500.512 690.642 501.186 693.454 501.509C696.911 501.901 700.431 502.011 703.858 503.167C697.211 503.073 690.565 502.996 683.09 502.902C687.13 503.665 690.384 504.277 693.617 504.907C677.891 504.968 662.148 509.726 646.879 505.232C644.82 505.756 642.679 506.697 640.519 506.759C624.939 507.199 609.355 507.474 594.416 507.785C595.881 508.567 599.462 508.293 601.594 509.062C608.173 511.447 614.768 510.132 621.261 510.594C657.85 513.151 694.501 515.341 731.048 518.114C745.694 519.22 760.374 520.822 774.592 523.413C787.586 525.797 800.587 524.067 813.529 524.992C829.602 526.15 845.736 526.926 861.868 527.586C877.93 528.247 894.009 528.543 910.09 529.005C909.859 528.926 909.396 528.77 908.955 528.613C908.951 528.398 908.947 528.199 908.942 527.983C918.418 528.118 927.894 528.252 937.37 528.37C937.389 528.187 937.408 527.988 937.427 527.805C898.787 525.026 860.17 522.246 821.53 519.466C840.009 518.02 992.532 524.086 998.264 526.605C986.441 526.403 975.815 526.243 965.189 526.066C965.153 526.531 965.116 526.996 965.057 527.462C975.92 527.966 986.769 528.885 997.645 528.891C1014.13 528.913 1029.98 531.271 1045.81 533.961C1046.8 534.123 1047.8 534.583 1048.76 534.53C1063.53 533.725 1077.72 537.245 1092.39 537.189C1092.87 537.179 1093.34 537.65 1093.8 538.653C1069.24 540.591 1044.53 537.721 1019.94 540.804C1032.71 542.032 1045.41 543.709 1058.23 544.421C1087.1 546.026 1116.03 547.249 1144.97 548.356C1150.45 548.557 1156.04 547.495 1159.44 547.192C1160.48 542.325 1161.2 539.058 1161.98 535.541C1165.55 535.865 1169.99 538.51 1170.3 533.476C1170.32 533.161 1173.21 532.819 1174.79 532.62C1178.12 532.202 1181.47 531.867 1184.82 531.515C1184.8 530.984 1184.77 530.454 1184.76 529.924C1177.88 529.536 1170.97 529.132 1163.83 528.733C1163.82 527.937 1163.8 526.925 1163.77 525.665C1198.44 526.503 1233.09 527.474 1267.75 528.113C1300.87 528.734 1334.01 528.858 1367.13 529.495C1384.98 529.837 1402.76 531.408 1420.6 531.385C1458.15 531.334 1495.73 530.634 1533.29 530.135C1544.14 529.992 1554.99 529.716 1565.83 529.275C1568.63 529.167 1571.37 528.197 1574.14 527.625C1551.08 527.84 1528.03 528.22 1504.97 528.202C1488.21 528.186 1471.46 527.738 1454.71 527.274C1450.04 527.139 1443.19 527.431 1441.27 525.496C1438.43 522.652 1435.53 522.845 1432.08 522.502C1421.04 521.388 1409.98 520.291 1397.95 519.065C1402.41 515.62 1397.71 516.116 1396.14 514.838C1400.09 514.756 1404.02 514.674 1407.98 514.592C1407.97 514.459 1407.95 514.344 1407.95 514.211C1399.87 513.931 1391.79 513.635 1383.72 513.355C1383.77 512.74 1383.83 512.125 1383.86 511.493C1395.26 511.256 1406.66 511.135 1418.04 510.749C1429.2 510.384 1440.36 509.537 1451.51 509.289C1462.54 509.043 1473.56 509.278 1484.59 509.297C1484.58 509.861 1484.55 510.443 1484.54 511.007C1463.89 515.353 1442.55 513.225 1421.58 515.072C1429.03 515.531 1436.51 514.778 1443.88 515.039C1451.86 515.321 1459.75 516.55 1467.7 517.38C1467.68 517.646 1467.67 517.912 1467.65 518.178C1457.9 518.381 1448.16 518.584 1438.44 518.786C1440.94 519.928 1443.66 519.839 1446.04 520.42C1450.4 521.507 1456.34 519.442 1459.17 524.012C1460.15 525.601 1468.43 523.852 1469.06 522.097C1473.05 522.661 1477.01 523.641 1481.03 523.723C1510.75 524.432 1540.49 524.924 1570.21 525.616C1571.36 525.642 1572.43 526.98 1573.54 527.687C1576.01 527.022 1578.45 525.826 1580.95 525.741C1608.02 524.829 1635.09 523.917 1662.16 523.354C1675.08 523.085 1688.01 523.695 1700.93 523.658C1707.99 523.644 1715.56 521.811 1722.05 523.053C1739.11 526.331 1756.61 524.142 1773.71 525.976C1788.25 527.532 1802.79 529.253 1817.64 527.65C1823.81 526.991 1830.01 526.53 1836.24 525.371C1814.89 525.069 1793.53 524.767 1772.18 524.465C1772.15 524.001 1772.14 523.52 1772.11 523.056C1773.74 522.889 1775.38 522.573 1777.02 522.572C1786.4 522.526 1795.81 522.994 1805.13 522.435C1815.38 521.824 1825.51 520.169 1835.72 519.227C1843.57 518.499 1851.54 518.482 1859.37 517.623C1877.65 515.616 1895.83 513.18 1914.09 511.124C1923.57 510.048 1933.14 509.417 1942.77 508.022C1940.19 507.794 1937.61 507.549 1935.01 507.321C1934.93 507.04 1934.86 506.743 1934.76 506.463C1936.8 506.255 1938.84 505.831 1940.86 505.872C1959.06 506.256 1977.26 506.856 1995.45 507.141C2004.72 507.28 2014.04 506.555 2023.31 506.793C2047.6 507.432 2071.86 508.52 2096.16 509.209C2116.36 509.768 2136.42 509.317 2156.58 506.923C2167.43 505.635 2178.89 507.387 2190.09 507.436C2202.23 507.482 2214.37 507.147 2226.5 506.96C2240.8 506.729 2255.11 506.05 2269.37 506.367C2285.13 506.735 2300.84 508.018 2316.56 508.935C2317.78 509.009 2318.96 509.233 2320.64 510.31C2318.35 511.104 2316.07 511.898 2314.59 512.394C2341.15 511.841 2368.62 511.269 2396.08 510.697C2396.19 511.293 2396.29 511.888 2396.4 512.483C2384.87 514.432 2373.37 516.38 2361.84 518.329C2361.92 518.643 2362 518.973 2362.07 519.287C2404.7 513.803 2447.33 508.32 2489.96 502.837C2490.16 503.529 2490.38 504.222 2490.58 504.914C2461.84 513.692 2432.56 521.237 2401.37 525.122C2412.6 525.237 2423.8 525.352 2435.02 525.45C2441.83 525.507 2447.81 524.752 2454.07 521.752C2459.28 519.237 2466.77 518.584 2473.31 518.331C2486.32 517.812 2497.31 513.286 2508.23 509.209C2520.74 504.552 2533.48 501.566 2547.26 500.88C2563.02 500.088 2578.81 499.709 2594.54 498.884C2599.43 498.633 2604.29 497.669 2609.12 496.855C2618.17 495.306 2627.27 494.702 2636.56 494.89C2640.08 494.966 2644.07 493.622 2647.19 492.164C2650.7 490.514 2652.37 487.974 2649.18 484.971C2645.69 481.692 2646.65 478.354 2649.85 474.986C2647.92 474.196 2646.02 473.423 2643.35 472.35C2650.85 470.137 2660.53 473.37 2665.92 466.355C2661.43 465.885 2658.02 465.524 2655.88 465.303C2654.8 462.323 2653.92 459.869 2652.8 456.773C2656.57 455.35 2661.7 453.419 2666.83 451.47C2673.52 448.942 2680.32 446.544 2686.89 443.852C2692.2 441.684 2694.51 438.085 2694.84 433.781C2694.91 432.883 2694.68 431.826 2695.29 431.133C2703.73 421.484 2700.07 411.273 2699.19 401.071C2698.44 392.326 2698.34 383.501 2698.99 374.727C2699.6 366.435 2699.48 358.457 2695.15 350.583C2693.17 346.958 2693.88 342.596 2692.79 338.653C2692.04 335.964 2690.65 333.305 2688.95 330.852C2687.1 328.186 2684.56 325.767 2682.56 323.519C2682.31 324.47 2681.81 326.206 2681.3 328.124C2674.23 324.256 2671.53 319.119 2670.82 312.862C2669.27 299.273 2666.92 285.75 2665.33 272.161C2664.99 269.215 2666.72 266.142 2667.1 263.098C2667.96 255.962 2670.17 248.616 2668.86 241.691C2667.11 232.619 2661.94 223.95 2659.26 214.93C2657.36 208.532 2657.45 201.827 2656.17 195.316C2653.11 179.949 2649.82 164.604 2646.52 149.276C2644.81 141.331 2642.71 133.427 2641.05 125.481C2639.86 119.798 2643.74 116.615 2651.67 116.483C2654.8 116.434 2658.02 116.284 2661.04 116.703C2668.32 117.712 2674.43 115.279 2681.1 113.879C2687.85 112.445 2692.64 109.591 2697.61 106.451C2699.72 105.129 2702.51 104.374 2705.48 103.168C2703.28 100.343 2693.71 103.545 2694.75 97.1194C2699.98 97.6576 2705.03 98.1664 2710.4 98.7349C2710.18 99.3533 2709.9 100.189 2709.62 101.008C2710.24 101.044 2710.86 101.081 2711.48 101.118C2711.64 97.9125 2711.81 94.7069 2711.95 91.5184C2713.83 90.268 2716.26 88.6745 2719.68 86.4131C2714.44 84.3818 2710.64 82.9013 2706.56 81.3104C2707.84 80.7861 2710.32 79.7555 2713.88 78.2878C2712.7 73.3017 2715.36 66.6261 2708.74 61.3217C2706.55 59.5756 2709.93 57.6468 2709.21 57.0646C2706.42 54.866 2702.65 51.394 2699.62 51.623C2688.99 52.3918 2680.9 46.9688 2670.36 47.4371C2672.09 45.6589 2672.34 45.6371 2680.25 45.5886C2683.95 45.5613 2687.65 45.4511 2691.35 45.3741C2691.6 44.9376 2691.84 44.5178 2692.06 44.0818C2690.07 43.2937 2687.85 41.6143 2686.13 41.8658C2675.33 43.4179 2665.1 40.2793 2654.51 40.5828C2644.81 40.8676 2635.08 40.8047 2625.39 41.189C2621.44 41.3542 2619.5 41.0295 2618.72 37.7108C2617.58 32.956 2615.12 28.3616 2612.77 22.5537C2611.57 24.7023 2611.06 25.6255 2609.91 27.7068C2608.82 25.0251 2608.4 23.3913 2607.47 21.934C2606.64 20.6239 2605.3 18.5113 2604.11 18.4865C2601.78 18.4353 2598.6 19.1486 2597.18 20.3894C2594.99 22.3098 2591.05 24.1672 2593.63 27.5812C2594.22 28.3487 2593.24 29.7463 2592.88 31.2636C2590.29 29.7246 2591.27 25.7886 2586.33 27.0363C2585.82 25.9186 2584.79 24.7953 2584.88 23.6983C2585.35 17.5164 2578.46 14.5241 2573.87 10.7702C2571.44 8.78006 2566.56 9.76096 2562.65 10.7052C2560.68 11.1775 2558.34 11.0273 2556.19 10.9059C2554.26 10.7968 2552.37 10.322 2549.53 9.86669C2550.96 13.4871 2552.26 16.3801 2553.2 19.3306C2553.86 21.4405 2555.93 23.5378 2552.32 25.7864C2551 26.5937 2551.93 29.2788 2551.85 30.9728C2548.76 32.5802 2551.85 25.2819 2547.07 30.0767C2545.63 25.6603 2544.33 21.7219 2542.95 17.6192C2529.07 20.1978 2537.2 27.3455 2535.88 33.313C2534.37 29.6111 2533.23 26.8474 2532.09 24.0173C2528.04 25.7775 2528.04 25.7775 2524.5 37.9134C2513.4 37.3812 2502.22 36.8674 2491.03 36.3204C2489.17 36.2265 2487.32 35.8668 2485.48 35.905C2467.21 36.2356 2448.94 36.7652 2430.67 36.9631C2414.46 37.1346 2398.23 37.1904 2382.03 36.7644C2378.19 36.6618 2374.51 34.4321 2370.76 33.1829C2371.54 32.1047 2371.97 30.4533 2373.18 30.0631C2376.08 29.1233 2379.34 28.7735 2382.45 28.1777C2382.51 27.745 2382.57 27.3124 2382.65 26.8793C2378.36 26.1888 2374.01 24.753 2369.78 24.9405C2350.72 25.802 2331.69 27.1937 2312.62 28.2873C2293.49 29.3824 2274.36 30.4443 2255.23 31.3072C2241.31 31.9454 2227.32 32.6679 2213.41 32.5594C2196.41 32.432 2179.13 32.6923 2162.55 30.5486C2141.62 27.8485 2120.51 25.4508 2099.52 25.9207C2078.77 26.3859 2060.08 20.9182 2040.14 19.674C2023.63 18.6406 2007.18 17.0749 1990.73 15.5258C1986.24 15.105 1981.85 14.035 1977.55 13.0294C1961.56 9.2807 1945.42 11.0769 1929.05 12.5624C1929.36 19.4582 1920.42 15.6124 1916.37 18.6335C1920.46 18.5483 1924.14 18.4718 1927.82 18.3952C1927.87 18.842 1927.93 19.3055 1927.98 19.7523C1923.32 20.1148 1918.64 20.3284 1914.03 20.9055C1907.31 21.7423 1900.69 22.9917 1893.97 23.7787C1891.97 24.0193 1889.8 23.2849 1887.7 22.9967C1888.89 21.7109 1890.06 20.409 1891.16 19.2247C1883.74 19.3792 1876.05 19.1907 1868.43 19.7642C1845.96 21.4432 1823.59 23.8998 1801.08 25.1482C1768.38 26.9406 1735.64 29.2979 1702.79 27.609C1700.51 27.4905 1698.1 28.3373 1695.47 28.0601C1696.68 27.6533 1697.87 27.247 1699.97 26.523C1684.9 25.0116 1670.74 24.3274 1656.55 26.2986C1656.54 26.7966 1656.5 27.2951 1656.49 27.7931C1668 27.5534 1679.52 27.3137 1691.01 27.0745C1691.04 27.5715 1691.08 28.0852 1691.11 28.5823C1687.85 28.816 1684.59 29.0498 1680.39 29.3364C1681.89 29.836 1682.54 30.0548 1684.49 30.6946C1669.58 30.3578 1655.99 30.0932 1642.39 29.7458C1631.21 29.4642 1620.01 29.2328 1608.85 28.7517C1603.74 28.5262 1598.1 29.2741 1594.45 25.2187C1593.58 24.2414 1590.17 24.1629 1587.94 24.1927C1564.04 24.541 1540.11 24.8732 1516.19 25.4708C1505.52 25.7425 1494.89 26.5776 1484.24 27.1645C1484.18 27.5308 1484.14 27.8966 1484.08 28.2629C1485.28 28.7024 1486.51 29.1414 1488.9 30.0209C1481.5 30.5895 1476.2 31.181 1469.68 29.4751C1461.94 27.4462 1452.57 28.172 1443.93 28.2524C1417.88 28.4794 1391.83 29.2375 1365.78 29.2654C1350.37 29.2709 1335.01 28.0642 1319.6 27.8209C1303.18 27.5655 1286.72 27.908 1270.28 27.8189C1261.77 27.7637 1253.28 27.2437 1244.74 27.1061C1239.29 27.0205 1239.12 28.8988 1242.92 32.3704C1200.12 31.6521 1158.35 30.9619 1116.58 30.2718C1116.47 30.6225 1116.36 30.9897 1116.25 31.3404C1118.84 31.8341 1121.4 32.3117 1123.99 32.8054C1124.02 33.0869 1124.05 33.3684 1124.07 33.6498C1106.62 34.5607 1089.17 35.6706 1071.71 36.3327C1053.99 37.0001 1036.25 37.2202 1018.53 37.6057C1000.9 37.9892 983.248 38.34 965.493 39.2074C970.14 39.3098 974.786 39.4122 979.433 39.5145C979.441 39.8794 979.449 40.2608 979.456 40.6257C973.297 40.7539 967.16 40.8485 961.001 41.0099C939.951 41.5642 918.882 42.318 897.827 42.6402C885.852 42.8231 873.881 42.11 861.903 42.1934C857.144 42.2261 852.26 43.9703 847.61 43.6855C840.312 43.2401 833.236 41.3135 825.959 40.7847C820.824 40.4104 815.487 41.4009 810.227 41.6431C807.861 41.7588 805.243 41.9294 803.139 41.3427C799.716 40.4018 796.648 38.8231 793.38 37.5804C783.276 33.759 773.066 30.4043 761.019 32.6461C759.37 32.9624 757.404 32.3895 754.731 32.1464C755.322 33.9924 755.813 35.4921 756.304 36.9917C756.012 37.3628 755.744 37.7168 755.453 38.0879C751.113 36.1374 745.772 34.7553 742.727 32.0479C739.963 29.5835 737.886 28.1501 734.082 29.8387C730.642 31.3704 730.189 36.1416 732.65 38.3966C733.119 38.8348 733.384 39.3934 734.663 41.2085C728.897 41.4447 724.125 41.9422 719.43 41.7579C690.552 40.6999 661.671 39.5091 632.814 38.3511C595.834 36.8644 558.871 35.112 521.876 34.0404C506.231 33.5862 490.479 34.5613 481.423 34.7498C535.813 37.5332 596.947 40.6574 658.059 43.7986C658.02 44.1147 658.003 44.4303 657.963 44.7298C652.442 44.5958 646.919 44.379 641.4 44.328C630.822 44.2495 620.243 44.1711 609.691 44.258C595.531 44.3869 581.356 44.964 567.212 44.8104C550.561 44.6261 533.921 43.8111 517.289 43.4439C514.322 43.3729 510.731 42.0705 508.693 45.8129C508.029 47.0379 501.993 47.5949 498.788 47.1639C480.158 44.6813 461.546 47.458 442.966 47.3636C435.607 47.3177 428.317 46.1256 420.952 45.7977C407.719 45.1938 394.445 44.8894 381.191 44.3689C377.808 44.2402 374.442 43.8291 370.997 42.8721C384.052 37.1417 398.109 34.211 412.968 32.2922C411.813 32.0176 410.702 31.6758 409.526 31.4846C408.118 31.2484 406.664 30.9635 405.238 30.9434C381.756 30.6524 358.295 30.2448 334.796 30.2362C328.634 30.2318 322.458 31.7872 316.234 32.149C304.361 32.8276 292.461 33.3241 280.557 33.6051C269.824 33.8617 259.061 33.754 248.323 33.7286C242.667 33.7136 237.185 33.2802 231.346 34.4304C227.682 35.1538 222.995 33.0945 218.794 31.1909C221.846 30.9283 225.043 30.9612 227.95 30.3366C233.993 29.0328 239.763 26.7889 245.886 25.9978C259.759 24.1992 273.849 21.7323 287.697 22.0414C297.404 22.2541 307.454 22.327 317.086 23.3542C333.171 25.0768 365.94 25.274 377.632 22.5087C376.775 22.2444 375.942 21.9963 374.6 21.5929C379.794 20.3565 384.562 19.6434 388.783 18.0954C392.571 16.7058 395.696 14.3843 399.128 12.4712C398.866 12.0286 398.627 11.5857 398.364 11.1266C395.183 10.7614 392.019 10.0806 388.824 10.1139C378.203 10.2023 366.957 8.99294 357.068 11.1068C326.944 17.5742 296.017 15.2481 265.607 17.9551C244.08 19.8633 222.4 21.0612 200.763 22.1587C184.134 23.0192 167.418 22.9856 150.765 23.83C134.205 24.6559 117.681 26.1281 101.148 27.1857C98.9894 27.3302 96.7205 26.581 94.0215 26.156C94.1879 26.418 94.4974 26.9259 94.7351 27.3026C79.0967 29.3537 62.8849 30.3714 47.6425 33.7748C28.6012 38.0371 9.13928 39.7695 -10.2131 42.3459C-12.5058 42.659 -15.1044 41.5351 -17.6165 41.2556C-18.6998 41.1288 -20.2863 41.1287 -20.9435 41.5903C-27.1301 45.9334 -29.5255 45.7344 -33.6378 40.3779C-33.9212 40.0188 -34.5235 39.799 -35.0124 39.5106C-38.8389 44.5678 -43.6584 44.9999 -52.8007 41.0091C-56.3123 43.5212 -57.9877 45.8789 -52.3027 48.3655C-56.5402 50.2456 -57.0689 52.4633 -54.3856 55.4438C-52.4555 57.5937 -51.4133 60.1603 -49.4127 63.4868C-52.5083 62.788 -54.218 62.3922 -56.3201 61.9216C-56.5382 62.4903 -56.8208 63.276 -57.1911 64.2626C-62.1268 60.2174 -66.9689 56.2532 -72.1385 52.0138C-74.7484 53.6609 -76.3485 55.2207 -78.4961 55.8793C-80.5521 56.5194 -83.8311 56.9526 -85.4101 56.2057C-90.9833 53.5675 -96.0393 50.371 -101.275 47.3939C-99.649 50.3798 -97.9516 53.4969 -96.2543 56.614C-96.8696 56.8757 -97.462 57.1368 -98.0774 57.3985C-100.58 55.3435 -103.107 53.2724 -105.61 51.2173C-105.974 51.3908 -106.338 51.5643 -106.68 51.7373C-105.74 53.8083 -104.777 55.8622 -103.837 57.9332C-104.475 58.212 -105.09 58.5069 -105.728 58.7856C-112.477 51.5594 -118.483 43.6042 -131.791 43.848C-134.719 45.6843 -137.079 47.1603 -140.03 49.0137C-139.321 49.928 -138.164 51.3806 -137.196 52.6049C-140.364 53.9484 -143.282 55.1705 -146.199 56.4093C-149.504 57.822 -152.495 58.7968 -156.131 56.4667C-158.461 54.9722 -159.968 51.0547 -164.59 53.2581C-166.821 54.3332 -168.979 56.701 -169.079 58.5281C-169.163 60.0065 -166.367 61.7569 -164.41 62.9937C-162.407 64.2461 -159.838 65.0389 -155.964 66.6838C-160.576 67.1614 -163.398 67.4524 -167.826 67.9096C-165.327 70.8773 -163.111 73.519 -159.975 77.2532C-166.783 74.9228 -172.318 73.0138 -176.325 71.6371C-175.255 77.7206 -173.924 85.3417 -172.385 94.1033C-175.98 94.8252 -180.569 96.3808 -185.211 96.5106C-191.921 96.7167 -194.783 99.4973 -197.303 103.233C-189.723 105.083 -187.016 111.431 -192.837 115.634C-198.047 119.392 -196.891 123.052 -195.681 127.058C-194.297 131.692 -193.163 136.43 -191.024 140.882C-181.942 159.674 -172.448 178.358 -163.228 197.113C-161.715 200.201 -161.72 203.287 -165.994 205.633C-166.458 205.394 -167.015 205.189 -167.457 204.9C-168.926 203.935 -170.349 202.953 -171.795 201.971C-172.343 203.243 -172.984 204.517 -173.417 205.804C-174.175 208.043 -174.795 210.296 -176.594 212.225C-175.137 215.928 -173.612 219.612 -172.27 223.351C-171.367 225.854 -169.749 228.442 -174.238 230.41C-175.195 230.828 -175.342 232.623 -175.295 233.75C-174.943 240.745 -174.934 247.779 -173.824 254.708C-172.557 262.58 -169.912 270.323 -168.53 278.192C-166.081 291.995 -163.839 305.819 -162.079 319.686C-158.59 346.99 -155.721 374.356 -152.095 401.657C-150.732 411.932 -147.738 422.09 -145.869 432.338C-145.505 434.372 -146.953 436.592 -147.854 439.697C-146.529 440.416 -144.312 441.979 -141.693 442.986C-133.744 445.99 -132.554 447.89 -134.698 454.289C-135.239 455.893 -135.495 457.956 -134.57 459.33C-130.82 464.96 -127.394 464.938 -122.378 459.574C-121.816 458.982 -121.277 458.373 -119.681 456.615C-119.999 463.424 -114.407 464.751 -108.313 465.902C-104.319 466.665 -101.209 466.981 -98.5372 463.873C-97.5717 462.758 -94.6103 462.53 -92.143 461.765C-90.5621 463.707 -88.7918 465.91 -86.8568 468.292C-81.0307 463.193 -67.3469 461.133 -59.7477 463.895C-51.8707 466.751 -43.2271 466.67 -34.7696 467.589C-18.0617 469.415 -1.58425 472.324 15.103 474.266C30.223 476.026 45.5356 477.101 60.7625 478.476C62.0064 478.583 63.2704 478.557 64.4933 478.763C93.6333 483.566 123.368 484.905 153.199 485.345C166.608 485.547 180.086 484.636 193.476 485.021C206.957 485.404 220.365 486.652 233.792 487.7C260.461 489.799 287.091 492.198 313.78 494.148C357.395 497.338 401.051 500.262 444.686 503.352C452.331 503.89 459.939 504.843 467.603 505.231C481.736 505.966 495.909 506.417 510.084 506.968C511.005 506.999 511.967 506.846 514.492 506.644C501.155 504.35 489.455 502.337 477.641 500.31C487.903 497.326 498.317 498.37 508.762 498.667C520.081 498.995 531.414 498.842 542.749 498.855C547.095 498.864 551.461 498.74 555.828 498.666C554.024 498.156 552.236 497.314 550.372 497.237C546.552 497.084 542.718 497.33 537.546 497.437C539.868 496.294 540.756 495.861 542.713 494.907C534.577 495.077 527.659 495.221 520.764 495.364C520.525 494.905 520.262 494.429 520.023 493.969C522.37 492.958 524.812 490.999 527.067 491.085C542.601 491.707 558.119 492.728 573.613 493.683C575.639 493.807 577.603 494.264 579.61 494.571C579.481 495.038 579.377 495.521 579.248 495.988C577.154 495.899 575.039 495.894 572.988 495.687C566.788 494.987 560.938 495.606 555.829 498.699ZM201.313 46.3546C202.475 45.8327 203.606 44.9464 204.845 44.8542C221.488 43.5289 238.128 42.104 254.8 41.1265C264.79 40.5369 274.841 40.6927 284.885 40.5168C284.897 41.064 284.931 41.5943 284.942 42.1416C278.149 42.7642 271.357 43.4365 264.541 44.0264C250.494 45.2313 236.476 46.6845 222.419 47.4085C215.46 47.7691 208.177 50.2767 201.35 47.0341C196.081 49.0684 190.809 48.7634 185.506 48.0608C185.497 47.5964 185.464 47.1326 185.454 46.6682C190.718 46.5752 196.004 46.4651 201.313 46.3546ZM965.491 486.455C965.801 485.884 966.111 485.314 966.421 484.743C967.616 484.718 968.811 484.66 970.029 484.668C993.9 484.835 1017.79 485.067 1041.66 485.135C1044.74 485.137 1047.91 483.76 1050.9 483.963C1057.77 484.434 1064.48 485.655 1071.32 486.276C1075.75 486.682 1080.52 487.445 1083.55 483.616C1084.02 483.009 1086.15 482.765 1087.48 482.82C1099.52 483.233 1111.53 483.73 1123.57 484.21C1129.18 484.441 1134.78 485.021 1140.36 484.872C1143.88 484.782 1147.43 482.933 1150.81 483.095C1159.1 483.486 1167.31 484.56 1175.53 485.417C1182.84 486.178 1190.16 486.822 1197.38 487.899C1203.33 488.788 1209.01 491.009 1214.97 491.333C1251.09 493.285 1287.24 494.872 1323.4 496.575C1332.4 497.002 1341.38 497.462 1350.35 497.889C1348.37 498.892 1346.38 499.183 1344.42 499.14C1335.06 498.921 1325.66 497.922 1316.38 498.48C1289.35 500.104 1262.54 498.804 1235.7 497.272C1201.54 495.312 1167.38 493.468 1133.19 491.625C1131.4 491.529 1129.54 491.734 1127.75 491.954C1123.1 492.532 1118.43 493.674 1113.79 493.721C1102.59 493.838 1091.38 493.358 1080.16 493.293C1068.52 493.22 1056.39 494.766 1045.39 492.938C1037.2 491.582 1029.1 490.49 1020.82 490.098C1004.25 489.315 987.636 488.798 971.042 488.048C969.132 487.939 967.342 486.997 965.491 486.455ZM1045.89 508.06C1045.78 508.593 1045.68 509.126 1045.57 509.642C981.552 508.005 917.506 506.368 853.482 504.731C853.458 504.682 853.457 504.616 853.433 504.566C860.236 504.425 867.039 504.283 873.842 504.141C864.597 502.94 855.345 502.519 846.111 501.881C844.638 501.779 843.327 500.695 841.935 500.077C842.678 499.298 843.397 498.504 843.509 498.385C817.307 497.736 790.024 497.076 762.74 496.4C762.754 495.968 762.745 495.537 762.759 495.088C764.505 495.052 766.228 494.966 767.976 494.98C788.491 495.25 808.886 496.352 829.451 493.518C843.506 491.582 858.032 491.313 872.347 490.899C886.48 490.489 900.663 490.359 914.748 490.962C943.17 492.196 971.536 494.094 999.962 495.526C1010.07 496.03 1020.21 496.018 1030.35 496.238C1027.52 497.176 1024.69 497.301 1021.89 497.293C1001.12 497.211 980.351 496.714 959.62 497.113C934.637 497.6 909.669 498.849 884.719 499.784C884.42 499.79 884.128 500.128 882.879 500.9C884.826 501.607 886.341 502.604 887.905 502.637C909.089 503.009 930.295 503.315 951.475 503.488C966.239 503.612 981.037 503.171 995.762 503.644C1007.91 504.038 1019.96 505.38 1032.06 506.406C1036.69 506.824 1041.28 507.508 1045.89 508.06ZM1319.52 486.717C1319.55 486.285 1319.59 485.837 1319.63 485.404C1321.05 485.308 1322.5 485.162 1323.92 485.132C1338.24 484.884 1352.56 484.553 1366.88 484.47C1377.04 484.408 1387.23 484.462 1397.36 484.915C1407.64 485.364 1418.09 485.678 1428.03 487.312C1437.31 488.828 1446.76 487.835 1455.94 489.386C1459.45 489.977 1463.33 489.498 1467.05 489.437C1484.06 489.182 1501.07 488.928 1518.08 488.607C1531.98 488.334 1545.9 487.513 1559.77 487.739C1574.4 487.982 1588.98 489.155 1603.59 489.963C1604.54 490.009 1605.46 490.338 1606.39 490.551C1510.23 497.099 1414.91 491.036 1319.52 486.717ZM182.088 57.274C198.857 48.7949 217.506 51.0946 236.662 49.0035C232.176 52.1995 228.936 54.4903 225.968 56.6095C247.586 56.8729 268.194 49.4421 290.033 51.4431C290.112 51.906 290.19 52.3524 290.292 52.8149C275.89 54.6411 261.489 56.4839 247.202 58.3077C264.922 57.9389 282.918 57.5643 301.465 57.1782C300.802 58.453 300.592 59.4362 300.225 59.477C291.735 60.3174 283.276 61.4891 274.75 61.7329C257.975 62.2148 241.152 62.5485 224.406 62.2334C210.444 61.9433 195.897 63.4241 182.088 57.274ZM1689.17 504.242C1715.39 501.108 1741.33 501.298 1767.36 505.866C1764.72 507.531 1761.79 509.101 1758.9 509.129C1743.52 509.25 1728.13 508.956 1712.74 508.895C1706.95 508.866 1701.14 509.12 1695.35 509.24C1695.35 509.307 1695.35 509.373 1695.35 509.439C1701.61 509.823 1707.9 510.207 1714.16 510.591C1714.14 510.774 1714.12 510.957 1714.1 511.156C1712.57 511.487 1711.03 511.817 1709.48 512.148C1709.55 512.346 1709.6 512.544 1709.67 512.741C1716.16 513.021 1722.63 513.301 1729.12 513.598C1729.08 513.98 1729.07 514.362 1729.03 514.744C1703.34 514.367 1677.65 514.005 1650.65 513.605C1654.51 511.484 1656.77 509.363 1659.49 508.958C1666.71 507.862 1674.13 507.442 1681.5 506.89C1687.08 506.459 1692.66 506.21 1698.24 505.895C1698.22 505.746 1698.21 505.597 1698.19 505.465C1695.19 505.029 1692.19 504.644 1689.17 504.242ZM113.981 67.0872C115.332 66.8268 116.701 66.3172 118.057 66.3221C137.761 66.2769 157.442 66.2323 177.126 66.3203C205.525 66.4425 233.95 66.7136 262.348 66.8027C272.005 66.8339 281.677 66.4335 291.33 66.2326C284.343 67.5063 277.345 68.1995 270.338 68.4947C253.753 69.2215 237.149 70.1976 220.55 70.2777C184.938 70.4715 149.088 73.5738 113.981 67.0872ZM1541.72 515.524C1551.59 514.788 1561.24 514.023 1571.03 513.935C1587.14 513.815 1603.28 512.285 1619.4 511.551C1628.34 511.149 1637.28 511.146 1646.22 510.96C1646.26 511.573 1646.32 512.186 1646.35 512.782C1631.57 516.11 1615.99 513.563 1600.6 515.394C1602.57 519.119 1599.49 519.515 1595.49 519.316C1591.16 519.108 1586.64 519.451 1582.51 518.74C1571.99 516.935 1561.44 515.993 1550.55 516.502C1547.63 516.662 1544.65 515.878 1541.72 515.524ZM1284.91 504.196C1284.9 504.627 1284.86 505.076 1284.84 505.508C1251.36 503.915 1217.87 502.339 1184.38 500.747C1193.32 499.399 1202.54 497.282 1211.45 497.744C1233.66 498.874 1256.38 497.771 1277.79 503.448C1279.99 504.033 1282.54 503.963 1284.91 504.196ZM1806.91 506.055C1807.13 505.785 1807.36 505.515 1807.58 505.245C1828.4 504.811 1849.23 504.378 1870.05 503.944C1852.19 508.53 1833.94 509.889 1815.47 508.797C1812.53 508.626 1809.76 507.008 1806.91 506.055ZM1151.05 500.992C1151.01 501.441 1150.97 501.89 1150.94 502.339C1125.63 502.567 1100.25 503.858 1075.25 500.281C1075.3 499.632 1075.36 498.984 1075.39 498.336C1100.61 499.205 1125.83 500.107 1151.05 500.992ZM39.2186 383.505C48.8714 383.304 58.5702 383.102 66.0397 382.947C70.278 384.418 72.8947 385.31 75.9056 386.359C65.9933 387.345 56.3563 388.309 46.7197 389.289C39.1251 390.061 39.1255 390.078 39.2186 383.505ZM873.751 515.26C894.528 513.732 914.812 516.131 934.974 519.328C914.419 519.358 893.822 519.587 873.751 515.26ZM1572.55 499.552C1572.56 499.186 1572.58 498.821 1572.59 498.439C1600.35 497.861 1628.12 497.283 1655.88 496.705C1655.89 497.07 1655.9 497.435 1655.9 497.817C1628.1 498.395 1600.31 498.974 1572.55 499.552ZM24.1966 42.9403C24.0226 42.3135 23.8257 41.6871 23.652 41.0768C35.9272 39.8257 48.2253 38.5742 60.5001 37.3066C49.4287 44.4724 36.5315 42.3517 24.1966 42.9403ZM1408.79 506.312C1408.73 506.811 1408.7 507.31 1408.64 507.809C1394.93 507.463 1381.22 507.102 1367.51 506.757C1367.52 506.358 1367.56 505.959 1367.57 505.561C1381.44 503.248 1395.1 504.838 1408.79 506.312ZM-147.917 338.389C-147.32 338.327 -146.723 338.281 -146.127 338.219C-143.674 352.221 -141.221 366.223 -138.768 380.242C-139.48 380.306 -140.191 380.371 -140.902 380.452C-143.218 366.414 -145.556 352.393 -147.917 338.389ZM1288.09 505.672C1288.17 505.156 1288.23 504.641 1288.31 504.108C1301.01 504.541 1313.74 504.973 1326.44 505.422C1313.54 506.752 1300.71 507.6 1288.09 505.672ZM1636.92 506.956C1636.84 507.555 1636.76 508.154 1636.7 508.752C1623.89 508.521 1611.06 508.29 1598.24 508.059C1598.28 507.428 1598.31 506.78 1598.37 506.149C1611.2 506.429 1624.06 506.692 1636.92 506.956ZM2333.42 29.746C2342.6 29.2395 2351.81 28.7325 2361 28.226C2361.03 28.6733 2361.06 29.104 2361.1 29.5514C2352.11 32.808 2342.86 32.7682 2333.42 29.746ZM1156.97 532.559C1156.93 533.058 1156.9 533.573 1156.86 534.071C1145.63 533.509 1134.4 532.946 1123.17 532.4C1123.24 531.702 1123.34 531.019 1123.42 530.321C1134.64 531.067 1145.8 531.813 1156.97 532.559ZM965.522 486.836C958.351 486.985 951.732 487.123 945.09 487.261C945.063 487.079 945.059 486.88 945.032 486.698C946.959 486.442 948.908 486.186 951.269 485.872C950.288 485.129 949.704 484.693 949.027 484.193C960.894 483.199 963.522 483.542 965.522 486.836ZM1973.7 18.0539C1973.73 18.2856 1973.76 18.5339 1973.81 18.7652C1960.37 19.045 1946.92 19.3249 1933.48 19.6048C1933.47 19.3726 1933.49 19.1233 1933.48 18.8911C1946.88 18.6122 1960.28 18.3333 1973.7 18.0539ZM1828.32 500.864C1828.4 500.398 1828.46 499.932 1828.55 499.466C1836.11 498.528 1843.54 498.54 1850.62 500.483C1850.54 501.016 1850.43 501.549 1850.35 502.081C1843.01 501.67 1835.67 501.275 1828.32 500.864ZM1485.49 515.815C1485.78 516.423 1486.09 517.031 1486.38 517.639C1484.52 518.142 1482.57 519.211 1480.86 519.031C1476.99 518.647 1472.1 520.176 1468.91 516.857C1474.95 516.483 1480.23 516.157 1485.49 515.815ZM1398.33 118.449C1397.85 118.84 1397.35 119.216 1396.88 119.607C1393.57 117.237 1390.25 114.884 1386.45 112.176C1395.52 110.576 1395.06 116.045 1398.33 118.449ZM1114.66 527.948C1114.72 527.483 1114.8 527.016 1114.86 526.534C1119.52 527.399 1124.77 523.159 1129.74 527.634C1124.22 527.749 1119.44 527.849 1114.66 527.948ZM2012.42 121.759C2013.13 123.769 2013.72 125.416 2014.74 128.414C2010.44 125.932 2007.55 124.267 2003.53 121.945C2007.59 121.86 2009.8 121.814 2012.42 121.759ZM1249.86 36.4569C1245.21 36.255 1241.27 36.0881 1237.34 35.9211C1240.06 33.1434 1243.68 33.6819 1246.93 33.9129C1248.01 33.9899 1248.87 35.5483 1249.86 36.4569ZM-149.623 328.204C-150.612 328.191 -151.601 328.179 -152.567 328.165C-152.631 325.114 -152.694 322.062 -152.758 319.011C-152.115 318.981 -151.471 318.967 -150.828 318.937C-150.419 322.032 -150.032 325.126 -149.623 328.204Z" fill="#F2F9FD"/>
</g>
<defs>
<clipPath id="clip0">
<rect width="2357" height="580" fill="white"/>
</clipPath>
</defs>
</svg>
