<svg width="1549" height="1051" viewBox="0 0 1549 1051" fill="none" xmlns="http://www.w3.org/2000/svg">
<g clip-path="url(#clip0)">
<path d="M178.457 727.527L273.289 808.513C279.143 813.512 277.39 822.974 270.134 825.544L152.581 867.178C145.325 869.748 138.007 863.499 139.41 855.93L162.13 733.309C163.532 725.74 172.603 722.528 178.457 727.527Z" stroke="#44AADF" stroke-width="4" stroke-linecap="round" stroke-linejoin="round"/>
<path d="M1922.39 247.585C1778.91 487.717 1467.93 566.071 1227.8 422.591C987.666 279.112 909.313 -31.8673 1052.79 -272" stroke="#F2F9FD" stroke-width="5" stroke-linecap="round" stroke-dasharray="1 40"/>
<path d="M1896.64 232.197C1761.66 458.107 1469.1 531.819 1243.19 396.838C1017.28 261.857 943.564 -30.7029 1078.55 -256.613" stroke="#F2F9FD" stroke-width="5" stroke-linecap="round" stroke-dasharray="1 40"/>
<path d="M1870.88 216.809C1744.4 428.496 1470.26 497.568 1258.57 371.085C1046.89 244.602 977.816 -29.5386 1104.3 -241.225" stroke="#F2F9FD" stroke-width="5" stroke-linecap="round" stroke-dasharray="1 40"/>
<path d="M1845.13 201.422C1727.15 398.886 1471.43 463.316 1273.96 345.332C1076.5 227.347 1012.07 -28.3742 1130.05 -225.838" stroke="#F2F9FD" stroke-width="5" stroke-linecap="round" stroke-dasharray="1 40"/>
<path d="M270.66 773L333.014 881C336.863 887.667 332.052 896 324.354 896H199.646C191.948 896 187.137 887.667 190.986 881L253.34 773C257.189 766.333 266.811 766.333 270.66 773Z" stroke="#EBF5D6" stroke-width="4" stroke-linecap="round" stroke-linejoin="round"/>
</g>
<defs>
<clipPath id="clip0">
<rect width="1549" height="1051" fill="white"/>
</clipPath>
</defs>
</svg>
