<svg width="1549" height="1051" viewBox="0 0 1549 1051" fill="none" xmlns="http://www.w3.org/2000/svg">
<g clip-path="url(#clip0)">
<path d="M1318.66 751L1381.01 859C1384.86 865.667 1380.05 874 1372.35 874H1247.65C1239.95 874 1235.14 865.667 1238.99 859L1301.34 751C1305.19 744.333 1314.81 744.333 1318.66 751Z" stroke="#1C74A2" stroke-width="4" stroke-linecap="round" stroke-linejoin="round"/>
<path d="M631.491 206.585L713.194 112.369C718.238 106.553 727.685 108.378 730.2 115.654L770.942 233.518C773.457 240.794 767.153 248.064 759.594 246.604L637.149 222.955C629.591 221.495 626.448 212.4 631.491 206.585Z" stroke="#1C74A2" stroke-width="4" stroke-linecap="round" stroke-linejoin="round"/>
<path d="M1409.25 836.784L1424.64 921.865C1426.01 929.44 1418.67 935.658 1411.42 933.057L1330.05 903.843C1322.8 901.242 1321.09 891.773 1326.96 886.799L1392.95 830.932C1398.83 825.958 1407.88 829.209 1409.25 836.784Z" stroke="#99CC33" stroke-width="4" stroke-linecap="round" stroke-linejoin="round"/>
<path d="M682.972 92.9364L758.357 50.5967C765.069 46.827 773.344 51.7368 773.253 59.4342L772.228 145.889C772.137 153.587 763.747 158.299 757.126 154.371L682.766 110.256C676.146 106.328 676.26 96.706 682.972 92.9364Z" stroke="#99CC33" stroke-width="4" stroke-linecap="round" stroke-linejoin="round"/>
</g>
<defs>
<clipPath id="clip0">
<rect width="1549" height="1051" fill="white"/>
</clipPath>
</defs>
</svg>
