<svg width="1980" height="511" viewBox="0 0 1980 511" fill="none" xmlns="http://www.w3.org/2000/svg">
<g clip-path="url(#clip0)">
<path d="M1090.48 113.985C1090.27 114.166 1090.05 114.343 1089.83 114.521C1089.68 114.647 1089.52 114.774 1089.37 114.903C1088.13 114.026 1086.8 110.454 1085.42 106.757C1083.93 102.783 1082.39 98.6639 1080.86 97.5864C1085.41 96.7165 1087.03 103.165 1088.32 108.272C1089 110.998 1089.59 113.342 1090.48 113.985Z" fill="white"/>
<path d="M1563.99 110.811L1564.13 111.19C1564.13 111.198 1564.13 111.206 1564.14 111.214C1564.64 112.605 1565.1 113.858 1565.85 115.988C1563.6 114.71 1561.85 113.715 1559.99 112.66C1559.09 112.147 1558.16 111.62 1557.14 111.039C1560.27 110.934 1561.97 110.878 1563.99 110.811Z" fill="white"/>
<path fill-rule="evenodd" clip-rule="evenodd" d="M449.017 465.969C447.67 465.979 446.324 465.99 444.977 466.001C448.885 463.537 453.39 462.998 458.177 463.487C459.294 463.587 460.435 463.609 461.578 463.63C462.055 463.639 462.532 463.648 463.007 463.663C463.054 463.479 463.097 463.292 463.14 463.105C463.182 462.92 463.224 462.734 463.271 462.552C462.781 462.482 462.294 462.401 461.807 462.319C460.756 462.144 459.708 461.968 458.639 461.915C456.956 461.83 455.272 461.745 453.588 461.659C443.311 461.138 433.021 460.615 422.725 460.322C421.535 460.29 420.287 461.008 419.04 461.725C418.465 462.055 417.891 462.386 417.322 462.642C417.412 462.811 417.507 462.983 417.601 463.156C417.705 463.346 417.809 463.537 417.908 463.724C420.29 463.645 422.674 463.566 425.146 463.484C428.19 463.382 431.365 463.277 434.827 463.162C433.327 463.925 432.647 464.271 430.868 465.186C432.117 465.145 433.264 465.094 434.341 465.046C436.704 464.942 438.731 464.852 440.755 464.909C441.762 464.939 442.743 465.263 443.721 465.585C444.139 465.723 444.557 465.861 444.976 465.975C444.055 466.002 443.133 466.032 442.212 466.062C439.769 466.142 437.328 466.221 434.894 466.246C432.652 466.271 430.41 466.304 428.168 466.337C421.671 466.433 415.178 466.529 408.687 466.417C407.423 466.396 406.16 466.361 404.897 466.325C398.112 466.135 391.354 465.946 384.708 467.993C392.649 469.274 400.523 470.548 409.221 471.955L413.184 472.596C412.5 472.66 411.965 472.717 411.528 472.764C410.722 472.85 410.25 472.9 409.789 472.89C406.973 472.813 404.156 472.742 401.341 472.671C393.225 472.465 385.114 472.259 377.018 471.932C373.612 471.798 370.219 471.518 366.826 471.239C364.329 471.033 361.831 470.827 359.329 470.679C346.392 469.909 333.454 469.158 320.515 468.407C299.775 467.203 279.035 465.999 258.306 464.716C245.956 463.953 233.62 463.063 221.284 462.173C213.047 461.579 204.81 460.984 196.569 460.428C194.616 460.297 192.663 460.161 190.71 460.025C182.303 459.44 173.896 458.854 165.458 458.714C159.902 458.62 154.331 458.819 148.759 459.018C143.972 459.189 139.185 459.36 134.407 459.345C111.402 459.281 88.4627 458.514 65.9474 455.035C65.3438 454.939 64.7282 454.918 64.112 454.896C63.7635 454.884 63.4148 454.872 63.0679 454.846C59.4788 454.561 55.8837 454.299 52.2887 454.036C44.1104 453.439 35.9318 452.841 27.8217 451.985C21.746 451.343 15.7041 450.533 9.66264 449.723C2.89113 448.815 -3.8799 447.908 -10.6975 447.237C-12.3495 447.075 -14.0099 446.964 -15.6677 446.852C-20.5631 446.524 -25.4348 446.196 -29.993 444.585C-35.8795 442.498 -46.4097 444.236 -50.851 448.274C-51.5663 447.404 -52.2529 446.565 -52.9087 445.764C-53.6425 444.868 -54.3379 444.018 -54.9917 443.225C-55.6116 443.428 -56.2727 443.587 -56.9075 443.739C-58.2132 444.052 -59.4074 444.339 -59.9008 444.931C-61.9296 447.385 -64.3311 447.167 -67.4179 446.608C-72.128 445.766 -76.4527 444.782 -76.2751 439.459C-76.6472 439.885 -76.9437 440.226 -77.1883 440.507C-77.7411 441.142 -78.029 441.473 -78.3255 441.797C-82.1395 446.034 -84.7804 446.083 -87.7277 441.721C-88.4548 440.655 -88.278 439.042 -87.8764 437.783C-86.2876 432.764 -87.2234 431.291 -93.3822 429.019C-94.8515 428.467 -96.161 427.685 -97.1626 427.087C-97.5444 426.86 -97.8815 426.658 -98.1656 426.507C-97.9411 425.684 -97.6672 424.939 -97.4148 424.252C-96.9209 422.909 -96.5089 421.788 -96.7081 420.739C-97.3385 417.475 -98.1134 414.225 -98.8883 410.975C-100.01 406.271 -101.131 401.568 -101.813 396.828C-103.262 386.773 -104.491 379.293 -105.697 371.956C-107.044 363.755 -108.363 355.732 -109.926 344.491C-111.421 333.674 -113.287 322.895 -115.312 312.135C-115.907 308.945 -116.783 298.908 -117.636 289.146C-118.422 280.134 -119.188 271.356 -119.695 268.41C-120.314 264.791 -120.839 246.222 -121.221 232.714C-121.409 226.056 -121.563 220.627 -121.676 218.824C-121.723 217.944 -121.628 216.54 -120.894 216.205C-117.811 214.789 -118.511 213.031 -119.209 211.28C-119.29 211.076 -119.371 210.873 -119.446 210.671C-120.229 208.549 -121.086 206.45 -121.943 204.352C-122.26 203.575 -122.577 202.798 -122.891 202.02C-121.659 200.648 -121.167 199.079 -120.67 197.498C-120.616 197.323 -120.561 197.149 -120.505 196.974C-120.28 196.267 -119.977 195.564 -119.674 194.862C-119.545 194.563 -119.416 194.263 -119.293 193.964C-119.018 194.148 -118.745 194.332 -118.472 194.515C-117.626 195.085 -116.782 195.652 -115.919 196.212C-115.699 196.354 -115.443 196.468 -115.193 196.58C-115.052 196.643 -114.913 196.705 -114.783 196.771C-111.511 194.898 -111.538 192.487 -112.735 190.089C-116.441 182.689 -120.304 172.31 -124.15 161.974C-127.876 151.962 -131.587 141.992 -135.125 134.81C-136.47 132.063 -137.328 129.167 -138.182 126.284C-138.403 125.539 -138.623 124.795 -138.852 124.055L-138.875 123.981C-139.839 120.891 -140.721 118.064 -136.773 115.103C-132.327 111.765 -134.477 106.831 -140.34 105.457C-138.434 102.514 -136.255 100.315 -131.083 100.091C-128.542 99.9882 -126.029 99.3236 -123.795 98.7329C-122.884 98.492 -122.019 98.2633 -121.218 98.0901C-121.888 94.4979 -122.51 91.1515 -123.079 88.0961C-123.591 85.3418 -124.059 82.824 -124.479 80.5756C-123.597 80.8706 -122.62 81.1979 -121.551 81.5558C-118.86 82.4573 -115.591 83.5522 -111.817 84.8097C-112.346 84.1875 -112.841 83.6045 -113.313 83.0497C-115.03 81.0298 -116.428 79.3844 -117.963 77.5838L-117.623 77.5441C-114.405 77.1679 -112.261 76.9172 -108.83 76.5148C-109.817 76.1042 -110.695 75.7642 -111.484 75.4587C-113.094 74.8352 -114.333 74.3553 -115.378 73.7112L-115.424 73.6827C-116.943 72.7366 -119.072 71.4106 -119.022 70.2663C-118.963 68.8379 -117.323 66.9679 -115.614 66.107C-112.993 64.8011 -111.653 66.13 -110.4 67.3735C-109.96 67.8103 -109.531 68.2366 -109.06 68.5344C-106.233 70.3207 -103.936 69.5311 -101.403 68.3964C-100.258 67.8874 -99.1139 67.3818 -97.9438 66.8648C-96.8263 66.3711 -95.6853 65.8671 -94.4986 65.3398C-94.6957 65.0938 -94.9027 64.8359 -95.1109 64.5764C-95.7045 63.8368 -96.308 63.0847 -96.7193 62.5607C-95.3301 61.6523 -94.1119 60.8577 -92.8582 60.0399C-92.0755 59.5294 -91.279 59.0098 -90.4184 58.4479C-81.0525 58.16 -76.3118 63.2687 -71.5426 68.4081C-71.0883 68.8978 -70.6336 69.3877 -70.1747 69.8732C-69.9305 69.7615 -69.6907 69.6467 -69.4509 69.5318C-69.2106 69.4167 -68.9703 69.3016 -68.7254 69.1896C-69.0981 68.3851 -69.475 67.5839 -69.8519 66.7827C-70.2289 65.9815 -70.6058 65.1803 -70.9784 64.3757C-70.7169 64.2373 -70.4378 64.0984 -70.1586 63.9595C-69.1835 64.7505 -68.2038 65.5446 -67.2242 66.3387C-66.2445 67.1328 -65.2648 67.9268 -64.2896 68.7178C-64.0537 68.6127 -63.8222 68.5078 -63.5907 68.4028C-63.3592 68.2979 -63.1277 68.1929 -62.8917 68.0878L-63.6141 66.7834C-64.7114 64.8018 -65.8019 62.8326 -66.8542 60.9318C-65.7414 61.5549 -64.6387 62.191 -63.5354 62.8274C-60.6074 64.5165 -57.6748 66.2081 -54.5347 67.6671C-53.3098 68.2359 -50.7859 67.8666 -49.2071 67.3473C-48.099 66.9881 -47.1855 66.3134 -46.1001 65.5116C-45.5699 65.12 -44.9986 64.6981 -44.3436 64.2678C-41.8804 66.2636 -39.5126 68.1801 -37.1651 70.08C-35.674 71.2869 -34.1912 72.4872 -32.6973 73.6968C-32.568 73.334 -32.4532 73.0059 -32.351 72.7136C-32.2351 72.3822 -32.1353 72.0969 -32.049 71.8597C-31.1734 72.0472 -30.3859 72.2187 -29.4715 72.4178C-28.6883 72.5884 -27.812 72.7792 -26.7076 73.0177C-27.2225 72.1746 -27.6576 71.3939 -28.0629 70.6669C-28.8977 69.1692 -29.6055 67.8994 -30.6217 66.7808C-32.7201 64.4775 -32.3345 62.74 -29.086 61.2314C-33.4939 59.3421 -32.2256 57.4845 -29.543 55.489C-22.4545 58.521 -18.7429 58.1382 -15.8428 54.1515C-15.7307 54.2166 -15.6111 54.277 -15.4925 54.3369C-15.2089 54.48 -14.9308 54.6203 -14.7742 54.8162C-11.5504 58.9623 -9.70154 59.0953 -4.97464 55.6442C-4.47252 55.2774 -3.24928 55.2626 -2.41277 55.3515C-1.68269 55.4249 -0.941986 55.5915 -0.207977 55.7567C1.00812 56.0303 2.20583 56.2998 3.30627 56.1338C7.02031 55.5867 10.7401 55.0805 14.4589 54.5745C25.6544 53.0509 36.8402 51.5287 47.8291 48.8951C55.9675 46.9492 64.4778 45.8979 72.9502 44.8512C76.6772 44.3908 80.3969 43.9313 84.0744 43.3969C83.979 43.248 83.8689 43.0725 83.7665 42.9094C83.6681 42.7527 83.5769 42.6074 83.5128 42.5079C84.1837 42.6066 84.8206 42.7319 85.4314 42.8521C86.7187 43.1054 87.8897 43.3358 89.0175 43.2455C93.9872 42.8626 98.9554 42.4304 103.925 41.9981C111.691 41.3225 119.459 40.6467 127.24 40.1585C133.595 39.7544 139.965 39.5184 146.332 39.2825C152.82 39.0421 159.306 38.8018 165.773 38.3837C182.445 37.3234 199.149 36.1842 215.728 34.4915C224.255 33.6177 232.841 33.2644 241.432 32.911C256.435 32.2938 271.45 31.6761 286.179 28.2834C291.65 27.0284 297.68 27.1109 303.683 27.1931C306.022 27.2251 308.357 27.2571 310.653 27.2098C312.361 27.171 314.061 27.4005 315.761 27.63C316.514 27.7315 317.266 27.8331 318.019 27.9114C318.098 28.0477 318.175 28.1821 318.25 28.3154C318.373 28.5306 318.493 28.7428 318.621 28.9547C317.811 29.4254 317.024 29.9262 316.238 30.4265C314.473 31.5493 312.711 32.6702 310.701 33.4456C308.475 34.3037 306.047 34.8563 303.45 35.4472C302.267 35.7164 301.05 35.9935 299.8 36.311L300.395 36.4841C301.105 36.6907 301.62 36.8405 302.146 36.9981C293.159 39.2681 267.892 39.4214 255.473 38.2266C249.02 37.6087 242.332 37.5551 235.785 37.5026C234.786 37.4946 233.791 37.4866 232.8 37.4766C224.137 37.3862 215.368 38.7242 206.666 40.0522C204.64 40.3613 202.618 40.6699 200.602 40.9597C197.755 41.3678 195.012 42.189 192.262 43.0123C190.46 43.5517 188.655 44.092 186.816 44.5176C185.275 44.8729 183.625 44.9852 181.979 45.0973C181.237 45.1478 180.495 45.1983 179.765 45.2709C183.023 46.7186 186.658 48.2836 189.475 47.6841C193.025 46.9306 196.412 46.952 199.829 46.9737C200.736 46.9795 201.644 46.9852 202.558 46.9765C204.084 46.9616 205.61 46.9489 207.136 46.9362C213.895 46.8798 220.661 46.8234 227.41 46.5777C236.585 46.2465 245.756 45.7469 254.903 45.1054C256.99 44.957 259.067 44.6321 261.14 44.3079C263.83 43.8872 266.512 43.4677 269.196 43.437C283.211 43.2717 297.21 43.2931 311.213 43.3145C315.314 43.3208 319.414 43.327 323.515 43.3286C324.466 43.3307 325.435 43.4871 326.383 43.6401C326.531 43.6641 326.68 43.688 326.827 43.7112C327.446 43.8055 328.042 43.9545 328.642 44.1043C328.923 44.1745 329.204 44.2449 329.489 44.3099C318.051 45.9483 307.242 48.3697 297.233 52.9691C299.899 53.6844 302.498 53.974 305.108 54.0428C309.39 54.1611 313.675 54.2496 317.958 54.3382C323.903 54.4611 329.846 54.584 335.779 54.786C338.224 54.8666 340.661 55.0723 343.096 55.2779C346.317 55.55 349.536 55.8218 352.768 55.8029C357.825 55.7675 362.881 55.4525 367.94 55.1374C377.213 54.5597 386.496 53.9814 395.806 55.1233C398.281 55.4299 402.929 54.9382 403.429 53.9749C404.667 51.6 406.718 51.7825 408.667 51.9558C409.132 51.9973 409.592 52.0382 410.034 52.0435C415.356 52.0978 420.679 52.2123 426.004 52.3268C433.514 52.4883 441.026 52.6499 448.539 52.6427C455.299 52.6349 462.064 52.4076 468.831 52.1804C472.983 52.041 477.135 51.9015 481.286 51.8127C489.415 51.646 497.566 51.608 505.717 51.57L505.735 51.5699C508.573 51.562 511.412 51.6116 514.252 51.6613C515.672 51.6861 517.091 51.7109 518.51 51.7285C518.524 51.6081 518.533 51.4843 518.543 51.3589C518.552 51.2403 518.561 51.1203 518.574 51.0001C480.355 49.4756 442.125 47.9599 406.665 46.5541C398.378 46.2255 390.243 45.903 382.294 45.5877C384.207 45.5241 386.508 45.4096 389.088 45.2811C395.921 44.9409 404.717 44.503 413.477 44.654C433.991 45.0064 454.497 45.6339 475.004 46.2615C483.021 46.5069 491.038 46.7522 499.056 46.9811C503.363 47.1038 507.67 47.2274 511.978 47.351C529.937 47.8664 547.906 48.382 565.873 48.8301C568.333 48.8981 570.817 48.7198 573.55 48.5238C574.841 48.4311 576.187 48.3346 577.612 48.258C577.231 47.7239 576.964 47.33 576.76 47.0284C576.426 46.5362 576.259 46.2897 576.032 46.0801C574.112 44.3415 574.413 40.6098 577.051 39.3809C579.967 38.026 581.582 39.1264 583.738 41.0258C585.397 42.4835 587.913 43.4253 590.427 44.3662C591.511 44.7722 592.595 45.178 593.61 45.625C593.73 45.4669 593.844 45.3128 593.959 45.1583C594.056 45.0269 594.154 44.8952 594.255 44.7607L594.162 44.4854C593.8 43.4086 593.431 42.3139 592.995 40.9901C593.695 41.0461 594.333 41.1324 594.919 41.2119C596.061 41.3666 597.01 41.495 597.848 41.3215C607.114 39.4571 615.02 41.9821 622.848 44.8728C623.729 45.2 624.592 45.5591 625.454 45.918C627.07 46.5906 628.683 47.2622 630.41 47.7205C631.949 48.1351 633.836 48.0168 635.577 47.9076L635.878 47.8888C637.317 47.8041 638.763 47.6456 640.207 47.4872C642.829 47.1998 645.443 46.913 647.999 47.0705C650.724 47.2379 653.417 47.6629 656.109 48.088C658.966 48.5388 661.823 48.9899 664.721 49.1337C666.661 49.2304 668.648 48.8632 670.643 48.4943C672.339 48.1808 674.042 47.8662 675.727 47.8339C680.073 47.7504 684.419 47.8047 688.765 47.859C693.654 47.92 698.543 47.9811 703.43 47.8459C714.536 47.5386 725.645 47.0732 736.751 46.608C741.876 46.3934 747 46.1788 752.122 45.9797C755.285 45.8572 758.44 45.758 761.597 45.6587C763.18 45.6089 764.762 45.5592 766.347 45.5064C766.338 45.2215 766.328 44.9235 766.318 44.6385L755.567 44.5294C768.419 43.7365 781.205 43.3004 793.972 42.865L796.442 42.7806C800.134 42.6543 803.828 42.5374 807.522 42.4204C817.494 42.1048 827.471 41.789 837.431 41.2872C846.748 40.8157 856.059 40.1765 865.371 39.5373C869.508 39.2533 873.645 38.9693 877.782 38.7L877.707 38.0412C876.712 37.8613 875.722 37.6845 874.732 37.5077C873.733 37.3292 872.734 37.1508 871.73 36.9692C871.765 36.8492 871.799 36.7267 871.834 36.6038C871.878 36.4453 871.923 36.2863 871.968 36.1313C904.18 36.2786 936.392 36.426 969.402 36.5857C966.44 33.9092 966.551 32.4401 970.755 32.4559C973.729 32.4684 976.698 32.5419 979.665 32.6153C983.262 32.7044 986.856 32.7933 990.451 32.7732C995.767 32.7378 1001.08 32.643 1006.4 32.5482C1013.76 32.4169 1021.12 32.2857 1028.48 32.3121C1033.74 32.3323 1039 32.5002 1044.26 32.6681C1050.87 32.8793 1057.48 33.0904 1064.1 33.0075C1075.72 32.8535 1087.35 32.5082 1098.97 32.163C1107.43 31.9118 1115.88 31.6606 1124.34 31.483C1125.59 31.456 1126.87 31.4108 1128.15 31.3654C1133.68 31.1694 1139.35 30.9685 1144.21 32.1965C1148.89 33.376 1152.74 33.0213 1157.82 32.5538C1158.21 32.5172 1158.62 32.48 1159.03 32.4427C1157.82 32.0097 1157 31.7181 1156.32 31.4756C1155.95 31.3459 1155.62 31.2302 1155.3 31.1145C1155.32 30.9711 1155.34 30.8278 1155.36 30.6845C1155.37 30.5414 1155.39 30.3982 1155.41 30.2549C1157.93 30.0838 1160.44 29.8946 1162.95 29.7053C1168.64 29.2769 1174.33 28.8486 1180.03 28.632C1197.41 27.9807 1214.79 27.5133 1232.15 27.0462L1235.34 26.9604C1237.06 26.9162 1239.69 26.9456 1240.37 27.701C1242.74 30.3063 1246.14 30.3056 1249.48 30.3048C1250.16 30.3047 1250.84 30.3045 1251.5 30.3261C1258.66 30.5517 1265.84 30.642 1273.02 30.7322C1274.48 30.7504 1275.93 30.7687 1277.38 30.788C1284.23 30.8821 1291.09 30.9485 1298.23 31.0177C1302 31.0543 1305.86 31.0917 1309.84 31.1343C1309 30.8654 1308.48 30.6952 1307.97 30.5318C1307.57 30.4027 1307.19 30.2778 1306.67 30.1117C1309.91 29.8484 1312.42 29.6352 1314.93 29.422L1314.89 28.8335L1314.84 28.245L1307.46 28.4906L1288.23 29.1302C1288.23 28.9356 1288.24 28.7409 1288.25 28.5461C1288.25 28.3514 1288.26 28.1566 1288.26 27.962C1299.18 26.2889 1310.1 26.6907 1321.74 27.7302C1320.13 28.3155 1319.21 28.644 1318.28 28.9732C1319.39 29.0786 1320.46 28.9199 1321.48 28.7671C1322.32 28.6415 1323.14 28.52 1323.93 28.5521C1346.18 29.44 1368.33 27.8919 1390.47 26.3456C1393.54 26.1307 1396.62 25.9158 1399.69 25.7075C1410.23 24.9863 1420.73 23.9165 1431.23 22.8465C1438 22.1565 1444.77 21.4665 1451.56 20.8696C1455.6 20.5119 1459.67 20.4361 1463.68 20.3614C1465.5 20.3277 1467.3 20.2942 1469.08 20.2349C1468.58 20.7949 1468.06 21.3881 1467.53 21.9919C1467.17 22.3968 1466.81 22.8066 1466.45 23.2143C1466.96 23.2789 1467.48 23.378 1467.99 23.477C1469.11 23.6927 1470.23 23.9081 1471.29 23.7664C1474.02 23.4088 1476.72 22.951 1479.43 22.493C1481.86 22.0827 1484.29 21.6723 1486.73 21.3336C1489.25 20.9828 1491.8 20.7747 1494.35 20.5665C1495.4 20.4815 1496.44 20.3965 1497.48 20.3017C1497.46 20.1274 1497.43 19.9499 1497.41 19.7724C1497.38 19.5949 1497.36 19.4173 1497.33 19.243C1494.5 19.3373 1491.67 19.4316 1488.51 19.5365C1489.71 18.6062 1491.49 18.4763 1493.2 18.3515C1495.89 18.1546 1498.41 17.9704 1498.23 14.6746C1498.94 14.6005 1499.65 14.5255 1500.36 14.4506C1512.23 13.199 1523.96 11.9627 1535.63 14.5845L1536.19 14.7113C1539.33 15.4181 1542.55 16.1407 1545.82 16.4112L1547.04 16.5127C1559.33 17.5351 1571.62 18.5568 1583.95 19.1884C1590.32 19.5134 1596.53 20.4061 1602.76 21.301C1611.58 22.5675 1620.42 23.8387 1629.8 23.5116C1645.97 22.9476 1662.27 24.6228 1678.44 26.5359C1689.46 27.8438 1700.87 27.7548 1712.19 27.6666C1714.02 27.6523 1715.85 27.6381 1717.67 27.6297C1727.44 27.5881 1737.25 27.0077 1747.03 26.4293C1747.99 26.3724 1748.95 26.3156 1749.91 26.2592C1764.65 25.4055 1779.39 24.3965 1794.13 23.3615C1799.41 22.99 1804.69 22.5883 1809.97 22.1866C1819.36 21.4714 1828.76 20.7562 1838.17 20.2107C1840.4 20.0832 1842.68 20.5502 1844.96 21.0175C1846.01 21.2324 1847.06 21.4474 1848.11 21.6046C1848.05 21.9415 1848.01 22.2779 1847.97 22.6141L1847.97 22.6208C1847.27 22.7655 1846.56 22.8938 1845.85 23.022C1844.13 23.3323 1842.41 23.642 1840.84 24.1808C1840.2 24.3992 1839.85 25.084 1839.5 25.7667C1839.34 26.0725 1839.18 26.3779 1839 26.6407C1839.92 26.938 1840.83 27.3117 1841.75 27.6854C1843.73 28.4944 1845.71 29.3029 1847.73 29.333C1860.22 29.514 1872.73 29.3181 1885.23 29.0321C1894.04 28.8282 1902.85 28.523 1911.66 28.2179C1916.93 28.0351 1922.21 27.8523 1927.48 27.6913C1928.33 27.6632 1929.18 27.746 1930.04 27.8291C1930.61 27.8851 1931.19 27.9413 1931.77 27.9637C1936.9 28.1554 1942.03 28.3379 1947.14 28.5198C1950.63 28.644 1954.11 28.768 1957.58 28.8944C1959.44 22.1234 1959.97 20.1711 1961.25 19.0988C1961.77 18.6644 1962.4 18.3744 1963.3 17.9669C1963.72 18.9884 1964.15 19.9987 1964.6 21.0761C1965.12 22.3193 1965.67 23.6517 1966.31 25.1935C1966.6 23.7684 1966.22 22.2658 1965.84 20.8047C1964.99 17.4733 1964.19 14.3574 1971.61 12.8665C1972.71 16.0589 1973.75 19.1235 1974.91 22.5602C1976.96 20.425 1977.12 21.3108 1977.3 22.2621C1977.43 22.9997 1977.57 23.7766 1978.61 23.2155C1978.62 22.8117 1978.56 22.3367 1978.5 21.8533C1978.36 20.7516 1978.22 19.6061 1978.91 19.1592C1981.13 17.7212 1980.52 16.3938 1979.93 15.0762C1979.78 14.7532 1979.63 14.4308 1979.53 14.1075C1979.01 12.5198 1978.35 10.9552 1977.62 9.2103C1977.29 8.43158 1976.95 7.61695 1976.6 6.74833C1977.36 6.86136 1978.02 6.97723 1978.64 7.08338C1979.81 7.28628 1980.77 7.45366 1981.75 7.49769L1981.89 7.50414C1983.51 7.57747 1985.26 7.65666 1986.73 7.28028C1989.74 6.50593 1993.49 5.69383 1995.38 7.22579C1996.17 7.86465 1997.05 8.47337 1997.93 9.0863C2001.05 11.2457 2004.23 13.4573 2004 17.2225C2003.96 17.8041 2004.32 18.3902 2004.68 18.978C2004.85 19.2573 2005.02 19.537 2005.15 19.8167C2007.59 19.161 2008.17 20.1983 2008.8 21.3366C2009.15 21.9708 2009.52 22.6363 2010.24 23.0578C2010.33 22.6591 2010.47 22.2703 2010.6 21.9071C2010.87 21.1875 2011.09 20.5688 2010.78 20.1739C2009.12 17.9973 2010.87 16.604 2012.48 15.3306C2012.82 15.0577 2013.16 14.7904 2013.45 14.522C2014.53 13.5393 2016.98 12.9522 2018.77 12.9704C2019.68 12.9785 2020.71 14.5678 2021.37 15.5861L2021.4 15.6322C2021.89 16.3888 2022.2 17.2092 2022.62 18.2947C2022.82 18.8303 2023.05 19.4305 2023.34 20.1193C2023.73 19.3805 2024.03 18.8272 2024.31 18.287C2024.66 17.6307 2025 16.9937 2025.49 16.0666C2026.08 17.4978 2026.68 18.8336 2027.26 20.1087C2028.49 22.8565 2029.6 25.3222 2030.23 27.8522C2030.86 30.4376 2032.36 30.6731 2035.41 30.507C2039.61 30.287 2043.82 30.1774 2048.03 30.0678C2051.31 29.9826 2054.58 29.8974 2057.85 29.7602C2061.31 29.618 2064.71 29.9572 2068.13 30.2968C2072.78 30.7602 2077.44 31.2242 2082.24 30.466C2083.15 30.321 2084.24 30.876 2085.33 31.433C2085.84 31.6922 2086.35 31.9519 2086.84 32.1415C2086.72 32.3822 2086.6 32.6167 2086.47 32.8539C2086.42 32.9545 2086.36 33.0556 2086.31 33.1578C2085.49 33.1852 2084.66 33.2147 2083.84 33.2442C2081.81 33.317 2079.78 33.3897 2077.75 33.4295C2071.65 33.5416 2071.46 33.561 2070.14 34.9665C2074.1 34.7397 2077.63 35.6143 2081.16 36.488C2084.86 37.4049 2088.55 38.3208 2092.74 37.9621C2094.77 37.7824 2097.25 39.7718 2099.29 41.4065C2099.6 41.6568 2099.9 41.8988 2100.19 42.1234C2100.39 42.2869 2100.18 42.5954 2099.91 42.9866C2099.43 43.6679 2098.78 44.6001 2099.87 45.4536C2103.52 48.3378 2103.59 51.8003 2103.66 54.9541C2103.69 56.2638 2103.72 57.5203 2104 58.66C2101.28 59.84 2099.37 60.6685 2098.39 61.0901C2101.55 62.2946 2104.5 63.4156 2108.56 64.9534C2107.06 65.9867 2105.93 70.6751 2104.98 74.667C2104.27 77.6246 2103.65 80.1999 2103.04 80.6231C2102.99 82.4922 2102.92 84.3687 2102.85 86.2472C2102.83 86.8737 2102.8 87.5005 2102.78 88.1272L2101.34 88.0584C2101.44 87.7675 2101.53 87.4738 2101.62 87.1946C2101.73 86.8573 2101.83 86.541 2101.92 86.2755C2098.91 85.9902 2096.04 85.7278 2093.15 85.4636C2092.05 85.3632 2090.95 85.2625 2089.84 85.1602C2089.39 88.2412 2091.97 88.4627 2094.43 88.6742C2095.99 88.808 2097.5 88.9377 2098.17 89.7848C2097.43 90.0993 2096.71 90.3765 2096.02 90.6434C2094.56 91.2002 2093.23 91.7122 2092.14 92.4234C2088.34 94.9229 2084.67 97.1975 2079.48 98.3817C2078.26 98.6574 2077.06 98.9787 2075.87 99.2984C2072.07 100.319 2068.33 101.324 2064.04 100.776C2062.06 100.522 2059.98 100.59 2057.92 100.658C2057.55 100.67 2057.18 100.682 2056.82 100.692C2050.71 100.869 2047.74 103.393 2048.72 107.821C2049.44 111.11 2050.26 114.389 2051.07 117.668C2051.79 120.562 2052.51 123.457 2053.17 126.36C2055.87 138.304 2058.56 150.261 2061.07 162.238C2061.5 164.301 2061.75 166.392 2062 168.481C2062.37 171.53 2062.74 174.576 2063.65 177.531C2064.97 181.837 2067.25 198.527 2069.15 212.424C2070.35 221.187 2071.39 228.84 2071.95 231.575C2073.03 236.972 2071.47 268.161 2070.87 273.744C2070.77 274.699 2070.5 275.661 2070.23 276.618C2069.83 278.046 2069.43 279.464 2069.6 280.84C2070.26 286.011 2071.07 291.167 2071.87 296.323C2072.71 301.739 2073.56 307.155 2074.24 312.587C2074.85 317.468 2076.98 321.456 2082.47 324.411C2082.74 323.345 2083 322.35 2083.2 321.596C2083.28 321.287 2083.34 321.018 2083.4 320.802C2084.18 321.669 2084.96 319.678 2085.73 317.721C2086.5 315.757 2087.26 313.827 2087.99 314.862C2089.33 316.763 2090.43 318.827 2091.03 320.921C2091.39 322.156 2091.52 323.447 2091.65 324.732C2091.84 326.641 2092.04 328.537 2092.97 330.219C2096.39 336.33 2096.56 342.561 2096.17 349.045C2095.76 355.906 2095.92 362.799 2096.59 369.624C2096.74 371.117 2096.96 372.61 2097.18 374.1C2098.14 380.554 2099.09 386.958 2093.88 393.147C2093.54 393.547 2093.56 394.093 2093.57 394.633C2093.57 394.832 2093.57 395.03 2093.56 395.219C2093.35 398.585 2091.6 401.418 2087.53 403.162C2084.07 404.646 2080.53 406.023 2076.99 407.4C2075.37 408.03 2073.75 408.661 2072.14 409.301C2069.03 410.541 2065.93 411.773 2063.33 412.8L2061.38 413.576C2061.72 414.506 2062.04 415.362 2062.35 416.196C2062.83 417.52 2063.3 418.788 2063.83 420.211C2064.64 420.286 2065.68 420.383 2066.94 420.502L2071.59 420.939C2068.92 424.55 2064.79 424.765 2060.65 424.98C2058.45 425.095 2056.25 425.209 2054.25 425.834C2056.31 426.647 2057.79 427.233 2059.28 427.832C2056.85 430.493 2056.14 433.111 2058.87 435.639C2061.35 437.956 2060.09 439.956 2057.4 441.277C2055.01 442.446 2051.95 443.534 2049.23 443.507C2042.06 443.447 2035.06 444.004 2028.1 445.299C2027.48 445.413 2026.86 445.529 2026.24 445.646C2023.13 446.231 2020.01 446.819 2016.87 447.021C2010.57 447.433 2004.25 447.751 1997.94 448.069C1992.1 448.362 1986.27 448.656 1980.44 449.024C1969.82 449.689 1960.03 452.142 1950.43 455.897C1949.75 456.164 1949.07 456.434 1948.38 456.704C1940.67 459.756 1932.81 462.867 1923.6 463.352C1918.55 463.61 1912.79 464.191 1908.79 466.204C1904 468.607 1899.39 469.253 1894.14 469.272C1885.5 469.301 1876.87 469.316 1868.22 469.331H1868.2C1892.21 466.004 1914.7 459.835 1936.78 452.708C1936.7 452.438 1936.62 452.168 1936.53 451.899C1936.45 451.629 1936.36 451.36 1936.28 451.09C1911.36 454.648 1886.43 458.206 1861.5 461.764L1837.84 465.141C1837.81 465.021 1837.78 464.899 1837.75 464.776C1837.71 464.648 1837.68 464.52 1837.65 464.395C1844.92 463.059 1852.17 461.723 1859.43 460.387L1864.23 459.504C1864.18 459.232 1864.13 458.959 1864.08 458.687C1864.04 458.495 1864.01 458.304 1863.97 458.112L1826.85 459.347L1801.16 460.202C1802.29 459.801 1804.05 459.159 1805.8 458.517C1804.49 457.692 1803.58 457.528 1802.64 457.481C1799.18 457.319 1795.72 457.133 1792.26 456.947C1783.59 456.483 1774.92 456.018 1766.23 455.917C1758.64 455.838 1751.05 456.13 1743.45 456.422C1740.03 456.554 1736.61 456.685 1733.19 456.783C1730.56 456.856 1727.94 456.938 1725.32 457.02C1718.58 457.23 1711.85 457.441 1705.12 457.497C1702.01 457.521 1698.88 457.373 1695.75 457.225C1690.18 456.962 1684.62 456.7 1679.27 457.41C1663.75 459.469 1648.29 460.01 1632.71 459.763C1623.89 459.617 1615.07 459.402 1606.26 459.186C1596.35 458.944 1586.44 458.702 1576.52 458.559C1572.75 458.507 1568.97 458.664 1565.19 458.821C1561.81 458.961 1558.42 459.102 1555.04 459.092C1546.7 459.061 1538.36 458.943 1530.02 458.826C1524.33 458.745 1518.63 458.665 1512.94 458.612C1511.88 458.603 1510.81 458.764 1509.74 458.924C1509.24 458.999 1508.74 459.074 1508.24 459.132C1508.31 459.318 1508.36 459.516 1508.41 459.706L1508.44 459.799C1510.45 459.953 1512.44 460.12 1514.43 460.274C1509.79 461.012 1505.17 461.517 1500.58 462.019C1497.83 462.319 1495.08 462.619 1492.35 462.967C1485.76 463.8 1479.18 464.699 1472.6 465.597C1465.15 466.615 1457.7 467.633 1450.22 468.557C1446.95 468.961 1443.65 469.172 1440.34 469.383C1437.55 469.561 1434.77 469.738 1432 470.032C1428.81 470.37 1425.63 470.799 1422.45 471.228C1417.8 471.856 1413.15 472.484 1408.46 472.825C1403.67 473.174 1398.85 473.168 1394.02 473.161C1391.61 473.158 1389.19 473.155 1386.78 473.196C1385.92 473.207 1385.06 473.332 1384.2 473.457C1383.8 473.515 1383.4 473.574 1383 473.62C1383.03 473.982 1383.04 474.358 1383.07 474.72C1399.53 474.756 1416.01 474.792 1432.47 474.827C1428.75 475.574 1425.05 475.994 1421.35 476.411C1420.29 476.532 1419.22 476.653 1418.15 476.782C1407.26 478.108 1396.56 477.074 1385.86 476.042C1385.33 475.99 1384.79 475.938 1384.26 475.887C1378.66 475.347 1373.02 475.373 1367.37 475.4C1359.69 475.435 1352 475.471 1344.4 474.087C1341.26 473.517 1337.8 473.895 1334.32 474.275C1332.25 474.502 1330.16 474.729 1328.13 474.758C1323.9 474.822 1319.67 474.794 1315.45 474.767C1309.71 474.73 1303.97 474.693 1298.23 474.884C1277.43 475.575 1256.65 476.538 1235.86 477.501L1235.64 477.511C1234.33 477.572 1233.05 478.032 1231.77 478.491C1231.22 478.69 1230.67 478.888 1230.11 479.053C1230.21 479.051 1230.31 479.049 1230.41 479.047C1229.74 479.196 1229.07 479.376 1228.4 479.556C1226.95 479.947 1225.49 480.338 1224.01 480.414C1215.66 480.86 1207.3 481.177 1198.93 481.391C1192.09 481.566 1185.24 481.75 1178.4 481.935C1156.29 482.53 1134.17 483.125 1112.06 483.425C1104.3 483.529 1096.55 483.237 1088.8 482.945C1082.81 482.719 1076.81 482.493 1070.81 482.45C1057.83 482.354 1044.85 482.363 1031.87 482.372C1019.3 482.38 1006.74 482.388 994.175 482.302C975.14 482.178 956.109 481.922 937.075 481.667C929.378 481.563 921.68 481.46 913.981 481.365C914.014 482.349 914.04 483.14 914.061 483.761C917.024 483.893 919.935 484.026 922.82 484.159C925.296 484.272 927.753 484.385 930.206 484.495C930.22 484.91 930.252 485.323 930.266 485.738C929.869 485.785 929.471 485.832 929.074 485.879C926.892 486.136 924.713 486.393 922.547 486.695L922.34 486.724C921.093 486.897 919.104 487.173 919.095 487.406C918.951 490.398 916.921 489.945 914.744 489.46C914.057 489.307 913.356 489.15 912.695 489.098C912.131 491.853 911.613 494.411 910.853 498.223C910.13 498.297 909.278 498.419 908.334 498.553C905.866 498.904 902.771 499.345 899.715 499.268C877.384 498.675 855.069 497.991 832.796 497.008C826.045 496.71 819.331 496.061 812.617 495.412C809.492 495.11 806.367 494.808 803.238 494.541C813.706 493.081 824.222 493.044 834.732 493.007C843.221 492.977 851.707 492.948 860.16 492.168C859.797 491.389 859.43 491.025 859.058 491.038C853.94 491.12 848.889 490.629 843.839 490.137C837.731 489.543 831.623 488.949 825.394 489.369C824.926 489.401 824.446 489.274 823.963 489.147C823.679 489.072 823.394 488.996 823.11 488.953C810.879 486.999 798.639 485.306 785.927 485.443C780.16 485.51 774.398 485.24 768.635 484.97C766.02 484.847 763.404 484.724 760.787 484.633C760.826 484.286 760.849 483.94 760.872 483.594L760.875 483.541C764.232 483.556 767.589 483.57 771.01 483.584C775.939 483.604 780.999 483.624 786.382 483.652C781.937 481.738 664.278 478.429 650.045 479.733C667.768 480.807 685.485 481.883 703.202 482.958C715.296 483.692 727.39 484.426 739.487 485.16C739.474 485.303 739.461 485.459 739.448 485.602C732.141 485.599 724.834 485.583 717.526 485.566L717.535 485.812L717.543 486.059C717.884 486.177 718.242 486.295 718.422 486.354C714.548 486.288 710.675 486.235 706.803 486.183C698.274 486.066 689.749 485.95 681.227 485.698C668.782 485.334 656.335 484.879 643.93 484.124C640.014 483.888 636.094 483.972 632.171 484.055C626.089 484.185 619.998 484.314 613.894 483.256C602.906 481.366 591.571 480.251 580.268 479.525C562.939 478.404 545.583 477.456 528.227 476.508C517.331 475.913 506.435 475.318 495.545 474.68C493.92 474.583 492.289 474.631 490.653 474.68C487.242 474.782 483.809 474.885 480.365 473.668C479.565 473.386 478.505 473.299 477.495 473.216C476.422 473.128 475.405 473.045 474.819 472.737C477.445 472.65 480.097 472.563 482.769 472.477C491.813 472.183 501.085 471.881 510.355 471.503C511.51 471.455 512.654 471.077 513.775 470.707C514.27 470.544 514.759 470.382 515.243 470.251C523.069 472.481 531.015 471.539 539.011 470.592C543.089 470.109 547.181 469.624 551.276 469.558C548.778 469.096 546.262 468.648 543.14 468.091C544.694 468.092 546.201 468.092 547.674 468.093C551.667 468.094 555.411 468.095 559.155 468.103C557.072 467.418 554.95 467.239 552.843 467.061C552.266 467.012 551.691 466.964 551.117 466.905C549.605 466.748 548.123 466.457 546.639 466.166C545.992 466.039 545.345 465.912 544.695 465.796C544.747 465.524 544.802 465.252 544.857 464.979C544.916 464.69 544.975 464.401 545.029 464.112C547.638 464.174 550.253 464.218 552.868 464.263C558.472 464.358 564.083 464.454 569.666 464.719C579.044 465.174 588.416 465.775 597.776 466.376C600.278 466.536 602.778 466.696 605.278 466.854C608.875 467.084 612.469 467.34 616.062 467.596C623.266 468.109 630.469 468.622 637.696 468.926C641.654 469.089 645.65 468.882 649.65 468.674C651.448 468.58 653.247 468.487 655.043 468.427C655.055 468.245 655.062 468.066 655.069 467.888C655.076 467.709 655.084 467.531 655.095 467.349C644.659 466.656 634.222 465.966 623.786 465.276C613.935 464.625 604.085 463.974 594.234 463.32C594.29 463.308 594.348 463.295 594.407 463.283C594.907 463.175 595.52 463.043 596.314 462.873C572.673 462.84 549.469 462.815 526.457 462.789C509.017 462.769 491.688 462.75 474.362 462.728C474.316 462.943 474.275 463.162 474.233 463.38C474.192 463.599 474.15 463.817 474.104 464.033C474.647 464.098 475.191 464.167 475.735 464.236C476.636 464.35 477.539 464.464 478.449 464.563C480.882 464.835 483.327 465.096 485.764 465.357L486.978 465.487C487.533 467.415 486.112 467.571 483.983 467.258C483.025 467.117 482.067 466.968 481.109 466.818C478.112 466.351 475.114 465.884 472.083 465.67C469.95 465.521 467.773 465.621 465.597 465.722C464.436 465.776 463.276 465.829 462.122 465.845C457.747 465.901 453.381 465.935 449.017 465.969ZM486.978 465.487L487.064 465.496L486.954 465.408C486.962 465.435 486.97 465.461 486.978 465.487ZM594.234 463.32C593.708 463.285 593.181 463.25 592.654 463.215L592.51 463.686C592.996 463.586 593.482 463.482 594.234 463.32ZM1229.88 479.058C1229.62 478.887 1229.36 478.673 1229.1 478.461C1228.53 477.989 1227.96 477.521 1227.36 477.514C1216.36 477.388 1205.35 477.299 1194.34 477.209C1182.42 477.112 1170.5 477.015 1158.58 476.872C1156.46 476.854 1154.37 476.509 1152.27 476.164C1151.29 476.003 1150.31 475.842 1149.33 475.714C1148.87 477.091 1142.49 478.535 1141.73 477.303C1140.22 474.901 1137.64 474.894 1135.08 474.886C1133.86 474.883 1132.65 474.88 1131.56 474.619C1130.89 474.463 1130.2 474.376 1129.48 474.287C1128.23 474.13 1126.93 473.969 1125.69 473.414C1133.18 473.165 1140.69 472.915 1148.2 472.665C1148.22 472.457 1148.23 472.25 1148.24 472.042C1146.41 471.871 1144.58 471.672 1142.76 471.473C1138.46 471.005 1134.17 470.538 1129.85 470.436C1127.27 470.375 1124.66 470.477 1122.05 470.58C1118.93 470.704 1115.79 470.828 1112.65 470.671C1118.8 470.047 1124.99 469.872 1131.18 469.697C1141.25 469.412 1151.32 469.128 1161.15 466.905C1161.15 466.778 1161.16 466.649 1161.16 466.52C1161.17 466.202 1161.18 465.882 1161.18 465.568C1158.54 465.596 1155.89 465.607 1153.25 465.618C1147.39 465.643 1141.53 465.668 1135.67 465.872C1130.91 466.038 1126.16 466.346 1121.4 466.655C1117.56 466.904 1113.72 467.153 1109.88 467.327C1103.78 467.611 1097.66 467.795 1091.55 467.979C1088.88 468.06 1086.21 468.14 1083.54 468.229C1083.52 468.722 1083.48 469.203 1083.44 469.684C1086.56 469.755 1089.67 469.83 1092.79 469.905C1095.9 469.98 1099.02 470.054 1102.13 470.126C1102.14 470.186 1102.14 470.241 1102.15 470.296C1102.16 470.337 1102.16 470.379 1102.16 470.423C1099.11 470.525 1096.08 470.626 1093.04 470.727C1093.39 471.011 1093.94 471.177 1094.47 471.335C1095.76 471.725 1096.9 472.067 1094.48 474.012C1100.25 474.537 1105.73 475.027 1111.1 475.506C1114.37 475.798 1117.6 476.087 1120.82 476.377C1121.19 476.41 1121.55 476.435 1121.91 476.459C1124.11 476.609 1126.03 476.741 1127.94 478.63C1129.19 479.875 1133.07 479.879 1136.42 479.882C1137.08 479.882 1137.72 479.883 1138.32 479.893C1151.24 480.099 1164.15 480.291 1177.08 480.147C1189.63 480.004 1202.18 479.706 1214.73 479.408C1219.78 479.288 1224.83 479.168 1229.88 479.058ZM167.258 56.8387C166.985 56.9956 166.712 57.1521 166.437 57.2814C162.345 57.4176 158.27 57.5532 154.213 57.6752C154.219 57.8566 154.23 58.0378 154.24 58.219C154.251 58.4002 154.261 58.5814 154.267 58.7627C158.363 59.2618 162.43 59.4507 166.473 57.812C170.339 59.6146 174.362 59.0208 178.339 58.4337C179.809 58.2166 181.274 58.0005 182.721 57.9068C190.792 57.3871 198.842 56.5513 206.897 55.715C209.652 55.429 212.407 55.1429 215.164 54.8694C218.469 54.5391 221.766 54.1834 225.06 53.8279C226.999 53.6186 228.938 53.4095 230.876 53.2056C230.869 52.9981 230.858 52.7938 230.847 52.5897C230.835 52.3731 230.823 52.1567 230.816 51.9367C228.432 52.0081 226.047 52.0548 223.664 52.1016C218.305 52.2067 212.953 52.3117 207.626 52.6953C197.112 53.4484 186.619 54.4354 176.127 55.4221C173.8 55.641 171.473 55.8598 169.146 56.0761C168.486 56.134 167.87 56.4876 167.258 56.8387ZM761.414 451.246C761.181 451.695 760.948 452.144 760.714 452.592C761.179 452.724 761.639 452.889 762.099 453.053C763.057 453.396 764.014 453.739 765.01 453.785C770.962 453.985 776.917 454.145 782.87 454.306C789.72 454.491 796.569 454.675 803.409 454.92C809.802 455.148 816.053 455.925 822.381 456.908C828.125 457.803 834.25 457.49 840.385 457.177C843.333 457.026 846.284 456.876 849.195 456.859C852.751 456.836 856.306 456.869 859.86 456.901C864.952 456.947 870.041 456.993 875.125 456.878C877.487 456.825 879.851 456.399 882.215 455.974C883.435 455.754 884.655 455.534 885.875 455.366C887.252 455.178 888.683 455 890.068 455.058C916.442 456.178 942.798 457.298 969.158 458.509C989.868 459.454 1010.56 460.218 1031.38 458.695C1036.14 458.346 1040.96 458.537 1045.77 458.728C1048.19 458.824 1050.6 458.92 1053.01 458.948C1054.51 458.963 1056.05 458.717 1057.57 457.915C1054.2 457.793 1050.83 457.666 1047.45 457.538C1043.89 457.403 1040.33 457.269 1036.77 457.141C1030.06 456.903 1023.36 456.67 1016.65 456.437C995.468 455.701 974.285 454.965 953.119 454.063C950.432 453.948 947.812 453.326 945.182 452.701C943.31 452.257 941.432 451.811 939.521 451.546C935.108 450.934 930.647 450.533 926.183 450.133C925.005 450.027 923.827 449.922 922.65 449.812C921.126 449.67 919.604 449.518 918.08 449.366C913.255 448.884 908.427 448.402 903.568 448.229C902.187 448.179 900.775 448.569 899.351 448.963C898.084 449.313 896.806 449.666 895.53 449.715C892.618 449.829 889.697 449.683 886.77 449.537C885.372 449.467 883.972 449.397 882.572 449.355C880.811 449.305 879.051 449.255 877.291 449.205C869.772 448.992 862.26 448.778 854.738 448.608C853.708 448.578 852.066 448.788 851.709 449.267C849.573 452.08 846.224 451.794 843.016 451.519C842.78 451.499 842.546 451.479 842.312 451.46C839.963 451.273 837.632 450.992 835.302 450.712C832.393 450.363 829.485 450.013 826.545 449.845C825.317 449.775 824.056 450.055 822.787 450.336C821.668 450.584 820.544 450.833 819.431 450.846C806.289 450.969 793.136 451.025 779.986 451.082C774.722 451.104 769.458 451.127 764.196 451.154C763.575 451.157 762.962 451.183 762.352 451.209C762.039 451.223 761.727 451.236 761.414 451.246ZM822.691 469.956C822.766 469.552 822.841 469.134 822.916 468.717C821.737 468.588 820.559 468.449 819.381 468.309C817.004 468.026 814.626 467.744 812.236 467.555C809.894 467.382 807.554 467.194 805.215 467.006C798.229 466.444 791.245 465.882 784.225 465.737C777.205 465.594 770.166 465.724 763.126 465.854C758.776 465.935 754.425 466.015 750.077 466.031C733.745 466.094 717.392 466.055 701.054 465.963C700.245 465.955 699.449 465.608 698.557 465.22C698.12 465.029 697.659 464.828 697.162 464.653C697.547 464.405 697.812 464.214 698.008 464.073C698.297 463.865 698.432 463.768 698.569 463.763C704.179 463.482 709.79 463.18 715.402 462.877C729.026 462.144 742.655 461.409 756.293 460.974C767.224 460.628 778.172 460.609 789.124 460.59C794.184 460.581 799.245 460.572 804.305 460.531C806.469 460.511 808.646 460.386 810.82 459.627C808.392 459.603 805.964 459.597 803.537 459.59C798.145 459.576 792.758 459.561 787.382 459.356C778.327 459.004 769.278 458.59 760.231 458.176C747.368 457.588 734.508 456.999 721.635 456.59C710.769 456.251 699.835 456.485 688.943 456.938C688.029 456.976 687.114 457.013 686.198 457.05C676.056 457.462 665.816 457.878 655.895 459.386C642.829 461.373 629.828 461.264 616.789 461.155C614.031 461.131 611.272 461.108 608.51 461.105C607.61 461.109 606.72 461.147 605.827 461.186C605.382 461.205 604.937 461.224 604.489 461.239C604.486 461.409 604.487 461.576 604.488 461.742C604.49 461.917 604.491 462.09 604.487 462.263C615.642 462.408 626.797 462.549 637.828 462.688C647.606 462.812 657.286 462.934 666.782 463.057C666.696 463.151 666.15 463.778 665.585 464.393C665.934 464.545 666.277 464.735 666.619 464.925C667.337 465.322 668.053 465.719 668.823 465.764C670.369 465.853 671.916 465.934 673.463 466.016C679.046 466.309 684.635 466.603 690.226 467.27C684.982 467.444 679.739 467.618 674.495 467.793C674.514 467.831 674.515 467.883 674.534 467.921C715.263 468.481 756.003 469.04 796.735 469.6L822.691 469.956ZM1033.75 448.45C1033.73 448.788 1033.7 449.139 1033.68 449.477C1042.61 449.778 1051.54 450.099 1060.47 450.42C1125.13 452.743 1189.82 455.068 1254.9 449.781C1254.7 449.736 1254.5 449.685 1254.3 449.633C1253.78 449.501 1253.26 449.367 1252.74 449.347C1249.55 449.207 1246.37 449.045 1243.18 448.883C1235.1 448.471 1227.02 448.059 1218.93 448.021C1211.91 447.991 1204.87 448.313 1197.84 448.635C1194.15 448.803 1190.47 448.972 1186.79 449.09C1173.68 449.5 1160.57 449.859 1147.46 450.217C1146.66 450.24 1145.84 450.289 1145.03 450.338C1142.94 450.464 1140.84 450.59 1138.89 450.282C1135.32 449.715 1131.7 449.653 1128.07 449.591C1124.49 449.529 1120.91 449.468 1117.35 448.923C1110.42 447.854 1103.17 447.631 1096 447.41C1095.22 447.386 1094.45 447.363 1093.68 447.338C1085.87 447.079 1078.01 447.133 1070.18 447.277C1061.91 447.426 1053.64 447.684 1045.38 447.942C1042.61 448.028 1039.83 448.115 1037.06 448.197C1036.28 448.223 1035.5 448.294 1034.72 448.365C1034.4 448.394 1034.07 448.424 1033.75 448.45ZM181.141 60.0113C170.836 60.5937 160.884 61.1563 151.723 65.9925C160.415 69.7876 169.432 69.6498 178.279 69.5146C180.331 69.4832 182.374 69.452 184.401 69.47C197.315 69.5591 210.283 69.1406 223.212 68.6067C228.051 68.4076 232.858 67.8156 237.667 67.2233C239.388 67.0114 241.109 66.7994 242.832 66.6054C243.009 66.5832 243.135 66.2718 243.327 65.7952C243.441 65.5123 243.579 65.1712 243.765 64.7978L201.938 66.1892C204.229 65.8645 206.524 65.5391 208.822 65.2132C217.554 63.9749 226.33 62.7303 235.106 61.4938C235.023 61.1335 234.959 60.7855 234.893 60.4245C225.609 59.6765 216.642 61.1595 207.674 62.6427C200.357 63.8529 193.039 65.0631 185.549 65.0617C186.723 64.1904 187.952 63.2824 189.34 62.257C190.634 61.3015 192.066 60.244 193.719 59.0193C189.488 59.5395 185.286 59.777 181.141 60.0113ZM1379.16 460.236C1359.05 456.911 1339.05 457.006 1318.86 459.7L1320.06 459.845C1321.99 460.08 1323.91 460.312 1325.83 460.57C1325.84 460.623 1325.85 460.68 1325.85 460.738C1325.86 460.793 1325.86 460.849 1325.87 460.906C1324.71 460.987 1323.54 461.064 1322.38 461.142C1319.24 461.349 1316.11 461.557 1312.98 461.841C1312.06 461.922 1311.13 462.001 1310.21 462.079C1305.45 462.484 1300.69 462.889 1296.03 463.663C1294.64 463.89 1293.41 464.703 1291.88 465.719C1291.11 466.236 1290.25 466.805 1289.25 467.376C1300.91 467.41 1312.25 467.437 1323.45 467.464C1332.26 467.486 1340.98 467.507 1349.7 467.531C1349.73 467.232 1349.73 466.933 1349.76 466.634C1344.75 466.464 1339.76 466.305 1334.76 466.148C1334.7 465.994 1334.66 465.84 1334.6 465.686C1335.8 465.413 1336.98 465.14 1338.16 464.868C1338.17 464.712 1338.18 464.569 1338.19 464.425C1333.36 464.184 1328.51 463.944 1323.68 463.702C1323.68 463.651 1323.68 463.599 1323.67 463.547C1325.09 463.499 1326.52 463.442 1327.94 463.384C1330.99 463.26 1334.04 463.136 1337.09 463.114C1341.36 463.079 1345.62 463.068 1349.89 463.056C1357.49 463.036 1365.08 463.016 1372.67 462.863C1374.91 462.815 1377.15 461.56 1379.16 460.236ZM100.32 74.0471C99.9817 74.1376 99.6443 74.2279 99.3083 74.2978C120.127 77.9335 141.228 77.1547 162.323 76.376C168.721 76.1398 175.118 75.9037 181.507 75.7907C191.526 75.6198 201.542 75.0199 211.551 74.4204C214.327 74.2541 217.103 74.0878 219.878 73.9307C225.277 73.6343 230.666 73.0271 236.04 71.9665C233.692 72.0447 231.342 72.1384 228.992 72.2321C223.895 72.4352 218.796 72.6385 213.7 72.6838C201.648 72.7921 189.59 72.8575 177.532 72.9228C167.682 72.9762 157.832 73.0295 147.987 73.1063C132.81 73.2222 117.636 73.4417 102.444 73.6618C101.737 73.6679 101.027 73.8579 100.32 74.0471ZM1206.68 469.775L1205.29 469.897C1205.99 469.974 1206.7 470.084 1207.41 470.194C1208.98 470.438 1210.56 470.683 1212.11 470.578C1220.5 470.079 1228.64 470.715 1236.77 472.027C1238.86 472.366 1241.09 472.348 1243.31 472.331C1244.47 472.322 1245.64 472.313 1246.78 472.355C1249.87 472.473 1252.24 472.135 1250.69 469.243C1255.75 468.571 1260.84 468.522 1265.9 468.473C1272.69 468.407 1279.42 468.342 1285.94 466.773C1285.9 466.308 1285.85 465.83 1285.82 465.351C1283.66 465.423 1281.5 465.481 1279.33 465.539C1274.6 465.665 1269.87 465.792 1265.14 466.065C1260.66 466.326 1256.17 466.669 1251.68 467.012C1243.75 467.618 1235.81 468.224 1227.87 468.381C1220.78 468.531 1213.8 469.147 1206.68 469.775ZM1007.14 464.106C1007.15 463.888 1007.16 463.669 1007.17 463.456C1006.59 463.405 1006 463.378 1005.4 463.352C1004.12 463.294 1002.83 463.236 1001.67 462.938C989.214 459.754 976.224 459.572 963.259 459.391C958.986 459.332 954.715 459.272 950.467 459.105C945.123 458.89 939.647 459.894 934.242 460.885C932.696 461.169 931.156 461.451 929.626 461.704C942.509 462.168 955.392 462.628 968.275 463.089C981.227 463.552 994.179 464.015 1007.13 464.481C1007.13 464.357 1007.14 464.232 1007.14 464.106ZM1410.17 459.373L1409.66 460.012C1410.36 460.238 1411.05 460.517 1411.74 460.795C1413.24 461.399 1414.74 462.001 1416.29 462.074C1430.54 462.754 1444.6 461.521 1458.32 457.771L1410.17 459.373ZM903.855 463.258C903.879 462.908 903.903 462.559 903.926 462.209C897.428 462.057 890.93 461.904 884.432 461.75C871.477 461.444 858.523 461.138 845.568 460.844C845.549 461.35 845.513 461.857 845.477 462.364C861.327 464.466 877.341 464.003 893.362 463.539C896.86 463.438 900.358 463.336 903.855 463.262L903.855 463.258ZM46.1221 392.454C46.0524 392.456 45.9825 392.459 45.9128 392.461C45.9116 393.385 45.8977 393.766 45.9097 393.767C45.9239 393.768 45.9738 393.243 46.1221 392.454ZM46.2309 391.916C46.1898 392.106 46.1537 392.286 46.1221 392.454C47.4745 392.409 48.8274 392.364 50.1705 392.319C52.3518 392.247 54.5071 392.175 56.5911 392.106C58.0134 392.059 59.4024 392.013 60.744 391.968C62.548 391.908 64.266 391.851 65.8633 391.798C68.6574 393.439 71.4548 394.66 74.2277 394.346C73.0291 393.939 71.9113 393.564 70.6621 393.145C70.6591 393.144 70.6561 393.143 70.6532 393.142C70.6469 393.14 70.6407 393.138 70.6344 393.136C70.6332 393.135 70.6321 393.135 70.6309 393.135C69.458 392.741 68.1682 392.308 66.5869 391.774C66.3486 391.782 66.1073 391.79 65.8633 391.798C64.9084 391.237 63.9539 390.627 63.001 390.013C62.8803 389.935 62.7596 389.857 62.639 389.779C58.8269 387.319 55.0415 384.875 51.3548 385.301C48.0573 385.681 46.7462 389.542 46.2309 391.916ZM737.512 478.56C721.934 476.252 706.271 474.568 690.267 475.956C705.132 479.014 720.326 478.801 735.509 478.588C736.177 478.578 736.845 478.569 737.512 478.56ZM1228.91 456.695C1228.91 456.841 1228.91 456.985 1228.9 457.13L1293.15 454.992C1293.14 454.694 1293.13 454.409 1293.12 454.124L1228.92 456.26C1228.92 456.408 1228.91 456.552 1228.91 456.695ZM29.5995 55.4674C29.682 55.7353 29.7651 56.0053 29.8428 56.2755C31.9895 56.1455 34.1597 56.1232 36.3307 56.1009C43.7723 56.0245 51.2245 55.9479 57.7776 51.5336C49.1815 52.5391 40.5704 53.5343 31.9712 54.5281L29.4044 54.8247C29.4669 55.0368 29.533 55.2514 29.5995 55.4674ZM1102.65 464.574C1102.67 464.365 1102.69 464.156 1102.71 463.947L1101.79 463.857C1091.52 462.862 1081.27 461.866 1070.92 463.747C1070.92 463.902 1070.91 464.057 1070.9 464.213C1070.89 464.369 1070.89 464.526 1070.88 464.682C1076.17 464.752 1081.45 464.826 1086.74 464.9C1092.03 464.974 1097.32 465.047 1102.6 465.118C1102.62 464.936 1102.64 464.755 1102.65 464.574ZM-98.1319 358.895C-98.3617 358.919 -98.5915 358.943 -98.8211 358.97C-96.8617 369.888 -94.9197 380.82 -92.9948 391.766C-92.4876 391.701 -91.98 391.647 -91.4723 391.594L-91.3515 391.581C-93.2819 381.192 -95.2119 370.815 -97.1418 360.438L-97.4427 358.82C-97.6724 358.847 -97.9022 358.871 -98.1319 358.895ZM1009.79 463.356C1009.73 463.772 1009.69 464.176 1009.64 464.58C1019.38 465.967 1029.27 465.184 1039.2 464.024C1029.53 463.795 1019.84 463.58 1010.17 463.364L1009.79 463.356ZM1278.56 462.661C1278.57 462.544 1278.59 462.427 1278.6 462.31L1278.49 462.309C1268.61 462.224 1258.73 462.14 1248.87 462.041C1248.83 462.535 1248.82 463.042 1248.8 463.535L1250.47 463.545C1259.79 463.602 1269.13 463.658 1278.46 463.716C1278.48 463.364 1278.52 463.013 1278.56 462.661ZM1823.72 23.3842C1819.21 23.6915 1814.69 23.9989 1810.18 24.306C1817.49 26.5785 1824.61 26.5229 1831.51 23.8943C1831.49 23.5743 1831.47 23.2651 1831.44 22.9468L1831.43 22.8598L1823.72 23.3842ZM908.739 487.997C908.762 487.607 908.784 487.205 908.806 486.815C900.189 486.337 891.572 485.858 882.919 485.381C882.893 485.653 882.862 485.922 882.831 486.192C882.8 486.463 882.769 486.734 882.742 487.008C891.4 487.329 900.057 487.662 908.716 487.996L908.739 487.997ZM754.542 453.096L760.742 452.89C759.167 450.336 757.137 450.092 747.998 450.979C748.525 451.364 748.979 451.699 749.743 452.27C747.925 452.538 746.425 452.756 744.943 452.974C744.965 453.116 744.97 453.272 744.993 453.414C748.148 453.309 751.297 453.204 754.542 453.096ZM1532.74 18.74C1532.73 18.6745 1532.72 18.6094 1532.71 18.546L1501.71 19.5773C1501.72 19.668 1501.71 19.7621 1501.71 19.8562C1501.71 19.9503 1501.71 20.0443 1501.71 20.135L1532.8 19.1006C1532.77 18.9837 1532.76 18.8611 1532.74 18.74ZM1426.2 455.208C1426.18 455.391 1426.15 455.573 1426.12 455.756C1428.96 455.882 1431.79 456.005 1434.62 456.128C1437.45 456.251 1440.29 456.374 1443.12 456.5C1443.17 456.083 1443.25 455.666 1443.31 455.249C1437.83 453.797 1432.1 453.858 1426.28 454.661C1426.25 454.843 1426.23 455.026 1426.2 455.208ZM1162.64 472.068C1162.41 471.596 1162.16 471.124 1161.94 470.652C1157.88 470.969 1153.82 471.273 1149.16 471.622C1150.96 473.462 1153.4 473.341 1155.74 473.224C1156.66 473.179 1157.56 473.134 1158.4 473.208C1159.31 473.293 1160.3 472.916 1161.3 472.538C1161.75 472.367 1162.2 472.196 1162.64 472.068ZM1089.83 114.521C1090.05 114.343 1090.27 114.166 1090.48 113.985C1089.59 113.342 1089 110.998 1088.32 108.272C1087.03 103.165 1085.41 96.7165 1080.86 97.5864C1082.39 98.6639 1083.93 102.783 1085.42 106.757C1086.8 110.454 1088.13 114.026 1089.37 114.903C1089.52 114.774 1089.68 114.647 1089.83 114.521ZM876.159 483.434C876.152 483.493 876.145 483.551 876.138 483.609C878.768 483.522 881.397 483.434 884.233 483.34L887.76 483.223C885.301 481.033 882.79 481.588 880.363 482.123C878.966 482.432 877.596 482.734 876.279 482.503C876.245 482.82 876.198 483.128 876.159 483.434ZM1564.13 111.19L1563.99 110.811C1561.97 110.878 1560.27 110.934 1557.14 111.039C1558.16 111.62 1559.09 112.147 1559.99 112.66C1561.85 113.715 1563.6 114.71 1565.85 115.988C1565.1 113.858 1564.64 112.605 1564.14 111.214L1564.13 111.19ZM965.134 39.412C968.17 39.5055 971.205 39.599 974.792 39.7131C974.551 39.4932 974.318 39.223 974.087 38.9544C973.582 38.3674 973.083 37.7874 972.509 37.7531C972.311 37.7413 972.112 37.728 971.911 37.7146C969.567 37.5582 967.043 37.3898 965.134 39.412ZM-101.373 351.028C-100.996 351.028 -100.617 351.028 -100.238 351.029C-100.419 349.772 -100.595 348.512 -100.772 347.251C-100.933 346.101 -101.094 344.951 -101.259 343.801C-101.506 343.815 -101.754 343.827 -102.001 343.838C-102.25 343.85 -102.498 343.861 -102.746 343.876C-102.667 346.26 -102.588 348.643 -102.508 351.027C-102.134 351.027 -101.755 351.028 -101.373 351.028Z" fill="white"/>
<path d="M46.2309 391.916C46.1898 392.106 46.1537 392.286 46.1221 392.454L50.1705 392.319L56.5911 392.106L60.744 391.968L65.8633 391.798C64.9084 391.237 63.9539 390.627 63.001 390.013L62.639 389.779C58.8269 387.319 55.0415 384.875 51.3548 385.301C48.0573 385.681 46.7462 389.542 46.2309 391.916Z" fill="white"/>
<path d="M65.8633 391.798C68.6574 393.439 71.4548 394.66 74.2277 394.346C73.0291 393.939 71.9113 393.564 70.6621 393.145L70.6532 393.142L70.6344 393.136L70.6309 393.135C69.458 392.741 68.1682 392.308 66.5869 391.774L65.8633 391.798Z" fill="white"/>
<path d="M46.1221 392.454L45.9128 392.461C45.9116 393.385 45.8977 393.766 45.9097 393.767C45.9239 393.768 45.9738 393.243 46.1221 392.454Z" fill="white"/>
</g>
<defs>
<clipPath id="clip0">
<rect width="1980" height="511" fill="white"/>
</clipPath>
</defs>
</svg>
